<mxfile host="app.diagrams.net" agent="Mozilla/5.0 (Windows NT 10.0; Win64; x64) AppleWebKit/537.36 (KHTML, like Gecko) Chrome/131.0.0.0 Safari/537.36" version="25.0.3">
  <diagram name="第 1 页" id="zcWv5PcZYeXXMWV4npBG">
    <mxGraphModel dx="4013" dy="2348" grid="1" gridSize="10" guides="1" tooltips="1" connect="1" arrows="1" fold="1" page="1" pageScale="1" pageWidth="827" pageHeight="1169" math="0" shadow="0">
      <root>
        <mxCell id="0" />
        <mxCell id="1" parent="0" />
        <UserObject label="" plantUmlData="{&#xa;  &quot;data&quot;: &quot;@startuml\n\nskinparam nodeBackgroundColor lightGray\nskinparam componentBackgroundColor White\nskinparam databaseBackgroundColor White\nskinparam artifactBackgroundColor White\n\n&#39; Client Device\nnode \&quot;Client Device\&quot; {\n    component [Android Device]\n    \n    component \&quot;React Native App\&quot; {\n        [UI Components]\n        [Redux/State Management]\n        [API Client/Axios]\n        [Local Storage]\n        [Push Notification]\n    }\n}\n\n&#39; CDN Layer\ncloud \&quot;CDN\&quot; {\n    component \&quot;CloudFront/Cloudflare\&quot; {\n        [Static Assets]\n        [Product Images Cache]\n        [UI Resources]\n    }\n}\n\n&#39; Load Balancer\nnode \&quot;Load Balancer\&quot; {\n    component \&quot;NGINX\&quot; {\n        [SSL Termination]\n        [Rate Limiting]\n        [Request Routing]\n    }\n}\n\n&#39; Application Servers\nnode \&quot;Application Servers Cluster\&quot; {\n    package \&quot;Spring Boot Application\&quot; {\n        component \&quot;Core Services\&quot; {\n            [Security Layer]\n            [JWT Authentication]\n            [User Service]\n            [Product Service]\n            [Order Service]\n            [Cart Service]\n            [Review Service]\n            [Payment Integration]\n        }\n        \n        component \&quot;Support Services\&quot; {\n            [Swagger API Docs]\n            [Actuator]\n            [Logging Service]\n        }\n    }\n}\n\n&#39; Cache Layer\nnode \&quot;Cache Layer\&quot; {\n    database \&quot;Redis Cluster\&quot; {\n        [Session Cache]\n        [Product Cache]\n        [Rate Limit Data]\n    }\n}\n\n&#39; Database Layer\nnode \&quot;Database Layer\&quot; {\n    database \&quot;MySQL Cluster\&quot; {\n        [Master DB]\n        [Slave DB]\n        [Backup DB]\n    }\n}\n\n&#39; Object Storage\nnode \&quot;Storage Layer\&quot; {\n    database \&quot;Object Storage\&quot; {\n        [S3/OSS]\n        [Product Images]\n        [User Uploads]\n    }\n}\n\n&#39; Monitoring\nnode \&quot;Monitoring\&quot; {\n    component \&quot;Monitoring Stack\&quot; {\n        [Prometheus]\n        [Grafana]\n        [Alert Manager]\n    }\n}\n\n&#39; Connections\n[Android Device] --&gt; [React Native App] : contains\n[React Native App] --&gt; [CloudFront/Cloudflare] : HTTPS\n[React Native App] --&gt; [NGINX] : HTTPS/443\n[NGINX] --&gt; [Spring Boot Application] : HTTP/8080\n[Core Services] --&gt; [Redis Cluster] : TCP/6379\n[Core Services] --&gt; [MySQL Cluster] : TCP/3306\n[Core Services] --&gt; [Object Storage] : HTTPS\n[Core Services] --&gt; [Monitoring Stack] : HTTP/9090\n[Redis Cluster] --&gt; [MySQL Cluster] : Data Sync\n\n&#39; Add notes\nnote right of [React Native App]\n  Handles UI rendering,\n  state management,\n  and API communication\nend note\n\nnote right of [NGINX]\n  Load balancing,\n  SSL termination,\n  and rate limiting\nend note\n\nnote right of [Core Services]\n  Main business logic\n  and API endpoints\nend note\n\nnote right of [MySQL Cluster]\n  Primary data storage\n  with replication and\n  disaster recovery\nend note\n\n@enduml&quot;,&#xa;  &quot;format&quot;: &quot;svg&quot;&#xa;}" id="J3zQ3_LvErr1lmnvicPH-64">
          <mxCell style="shape=image;noLabel=1;verticalAlign=top;aspect=fixed;imageAspect=0;image=data:image/svg+xml,PD94bWwgdmVyc2lvbj0iMS4wIiBlbmNvZGluZz0idXMtYXNjaWkiIHN0YW5kYWxvbmU9Im5vIj8+PHN2ZyB4bWxucz0iaHR0cDovL3d3dy53My5vcmcvMjAwMC9zdmciIHhtbG5zOnhsaW5rPSJodHRwOi8vd3d3LnczLm9yZy8xOTk5L3hsaW5rIiBjb250ZW50U3R5bGVUeXBlPSJ0ZXh0L2NzcyIgaGVpZ2h0PSIxNDg1cHgiIHByZXNlcnZlQXNwZWN0UmF0aW89Im5vbmUiIHN0eWxlPSJ3aWR0aDo0MDczcHg7aGVpZ2h0OjE0ODVweDtiYWNrZ3JvdW5kOiNGRkZGRkY7IiB2ZXJzaW9uPSIxLjEiIHZpZXdCb3g9IjAgMCA0MDczIDE0ODUiIHdpZHRoPSI0MDczcHgiIHpvb21BbmRQYW49Im1hZ25pZnkiPjxkZWZzLz48Zz48IS0tY2x1c3RlciBDbGllbnQgRGV2aWNlLS0+PGcgaWQ9ImNsdXN0ZXJfQ2xpZW50IERldmljZSI+PHBvbHlnb24gZmlsbD0iI0QzRDNEMyIgcG9pbnRzPSIxNiwxNiwyNiw2LDY5Nyw2LDY5Nyw0OTQuNSw2ODcsNTA0LjUsMTYsNTA0LjUsMTYsMTYiIHN0eWxlPSJzdHJva2U6IzE4MTgxODtzdHJva2Utd2lkdGg6MS4wOyIvPjxsaW5lIHN0eWxlPSJzdHJva2U6IzE4MTgxODtzdHJva2Utd2lkdGg6MS4wOyIgeDE9IjY4NyIgeDI9IjY5NyIgeTE9IjE2IiB5Mj0iNiIvPjxsaW5lIHN0eWxlPSJzdHJva2U6IzE4MTgxODtzdHJva2Utd2lkdGg6MS4wOyIgeDE9IjE2IiB4Mj0iNjg3IiB5MT0iMTYiIHkyPSIxNiIvPjxsaW5lIHN0eWxlPSJzdHJva2U6IzE4MTgxODtzdHJva2Utd2lkdGg6MS4wOyIgeDE9IjY4NyIgeDI9IjY4NyIgeTE9IjE2IiB5Mj0iNTA0LjUiLz48dGV4dCBmaWxsPSIjMDAwMDAwIiBmb250LWZhbWlseT0ic2Fucy1zZXJpZiIgZm9udC1zaXplPSIxNCIgZm9udC13ZWlnaHQ9ImJvbGQiIGxlbmd0aEFkanVzdD0ic3BhY2luZyIgdGV4dExlbmd0aD0iOTEiIHg9IjMwNyIgeT0iMzIuMjM0NCI+Q2xpZW50IERldmljZTwvdGV4dD48L2c+PCEtLWNsdXN0ZXIgUmVhY3QgTmF0aXZlIEFwcC0tPjxnIGlkPSJjbHVzdGVyX1JlYWN0IE5hdGl2ZSBBcHAiPjxyZWN0IGZpbGw9IiNGRkZGRkYiIGhlaWdodD0iMzE0LjUiIHJ4PSIyLjUiIHJ5PSIyLjUiIHN0eWxlPSJzdHJva2U6IzE4MTgxODtzdHJva2Utd2lkdGg6MS4wOyIgd2lkdGg9IjYxNyIgeD0iNDgiIHk9IjE1OCIvPjxyZWN0IGZpbGw9IiNGRkZGRkYiIGhlaWdodD0iMTAiIHN0eWxlPSJzdHJva2U6IzE4MTgxODtzdHJva2Utd2lkdGg6MS4wOyIgd2lkdGg9IjE1IiB4PSI2NDUiIHk9IjE2MyIvPjxyZWN0IGZpbGw9IiNGRkZGRkYiIGhlaWdodD0iMiIgc3R5bGU9InN0cm9rZTojMTgxODE4O3N0cm9rZS13aWR0aDoxLjA7IiB3aWR0aD0iNCIgeD0iNjQzIiB5PSIxNjUiLz48cmVjdCBmaWxsPSIjRkZGRkZGIiBoZWlnaHQ9IjIiIHN0eWxlPSJzdHJva2U6IzE4MTgxODtzdHJva2Utd2lkdGg6MS4wOyIgd2lkdGg9IjQiIHg9IjY0MyIgeT0iMTY5Ii8+PHRleHQgZmlsbD0iIzAwMDAwMCIgZm9udC1mYW1pbHk9InNhbnMtc2VyaWYiIGZvbnQtc2l6ZT0iMTQiIGZvbnQtd2VpZ2h0PSJib2xkIiBsZW5ndGhBZGp1c3Q9InNwYWNpbmciIHRleHRMZW5ndGg9IjExMiIgeD0iMzAwLjUiIHk9IjE4NC4yMzQ0Ij5SZWFjdCBOYXRpdmUgQXBwPC90ZXh0PjwvZz48IS0tY2x1c3RlciBDRE4tLT48ZyBpZD0iY2x1c3Rlcl9DRE4iPjxwYXRoIGQ9Ik0yMjg3LjI2OTYsMzI0LjMwNjYgQzIyOTYuNzMwOCwzMDQuNTAyOSAyMzEwLjkzNjEsMzA3Ljg3MTMgMjMyMi42NCwzMjEuOTY2NiBDMjMzMy40MDksMzA5Ljc4MTMgMjM0NC4zOTA2LDMxMS40NzU0IDIzNTIuNTgzNSwzMjQuOTcwMyBDMjM1OS42Nzc2LDMwNi4xMTc3IDIzNzUuNDc1OSwzMDguMTQ3IDIzODYuMjEyNCwzMjEuMTIxNyBDMjM5NS45MTEzLDMwNi4wMzIxIDI0MDkuMTM0NiwzMDcuMzE0OSAyNDE2LjE2MDYsMzIzLjY2NzYgQzI0MjcuNzM1NywzMDYuNjI0MyAyNDQwLjE5NTYsMzA4LjQ5ODYgMjQ1MC41NjA2LDMyNC45MTE5IEMyNDYxLjQxMywzMTAuOTM1MSAyNDcyLjA2ODUsMzA4LjI0NjcgMjQ4NC4yMDk5LDMyMy40MjQgQzI0OTIuMTA5NSwzMDYuODY4NSAyNTAxLjkxNjQsMzA4LjI0NzQgMjUxNC4wMDg0LDMxOC44MTg3IEMyNTIzLjk1MjgsMzA2LjI4NjYgMjUzNy4yNTQsMzA5LjU3MTQgMjU0My42Njc4LDMyMi44NzI0IEMyNTU0LjAzNzEsMzA2LjY5MiAyNTY2Ljg2MDEsMzAyLjIwOTcgMjU3OS40NDQ4LDMyMC41NzgzIEMyNTkwLjYyOTIsMzA2LjQwNjkgMjYwMS41Mjc4LDMwNy43MDYgMjYxMC44NDE5LDMyMi41OTg4IEMyNjE4Ljg0NSwzMTAuNjA2NSAyNjMyLjk2MDIsMzEwLjEyMzUgMjY0MC43ODM4LDMyMi44MTY1IEMyNjUxLjg1LDMwNi41MzcxIDI2NjIuODk3NSwzMDMuNjYyNyAyNjc2LjAyNDQsMzIwLjYzMjQgQzI2ODkuMTA3NSwzMDYuODg2MyAyNzAxLjAwMTIsMzA2Ljc1NjYgMjcwOS41Njg2LDMyNS4zMjA1IEMyNzIxLjE0NDMsMzEwLjk1NDEgMjczNC40MDc1LDMxMS40OTkgMjc0MywzMjguNSBDMjc0Ni42MTk2LDMyNy4xNjc1IDI3NDguMTcyNywzMjguNzA0NCAyNzQ3LjgsMzMyLjM0OTcgQzI3NjMuNDMxNiwzNDIuNTYyOSAyNzYyLjcyMDgsMzU1LjI2NCAyNzQ3Ljc4NTMsMzY1LjQ2MzYgQzI3NjAuODQ0MiwzNzUuODEzMyAyNzU5Ljg0MTMsMzg4LjE4NzUgMjc0NC45ODk3LDM5NS45ODAzIEMyNzY1LjA0MDIsNDA4LjE5NjcgMjc2MS45OTQsNDE5LjY3NDkgMjc0Ni4wMzE1LDQzMi45MDczIEMyNzU5LjAwOTksNDQwLjY3OTYgMjc2MS42OTMsNDUwLjMzMDEgMjc1MC4xNTI4LDQ2MS42MjE2IEMyNzY1Ljc4NzIsNDcyLjgyMjUgMjc2NS40Mzg0LDQ4NC41MjIzIDI3NDcuNzk2OSw0OTMuMjQ0MSBDMjc2NS42MzIsNTA1LjA5MDMgMjc2NC42NzkzLDUxOC4wNjQ0IDI3NDYuNjMyOCw1MjguNzMzNiBDMjc2My40MjI1LDUzNy4xODM1IDI3NjkuMDA4LDU0Ny43MTAyIDI3NTIuNjU3NCw1NjIuMTM3MiBDMjc2OC4zMTgyLDU3Mi40NTQ0IDI3NjMuNzc5Nyw1ODYuMzk1IDI3NDguNzIwMiw1OTIuNzYyOCBDMjc2NC43MjgyLDYwMS41OTA2IDI3NjYuMjQ5Myw2MTYuMjgxNCAyNzUxLjU3MTMsNjI3LjYxOTIgQzI3NjQuODIxNiw2NDEuMDkxOCAyNzYwLjU2OCw2NTAuODk3NiAyNzQ1LjE3ODgsNjU4LjQyNzcgQzI3NjIuNDg3Niw2NjcuNTQ4IDI3NjAuMzEwNiw2ODEuNjQzMiAyNzQ3LjEzNDIsNjkyLjUxMjMgQzI3NjEuMzUxMyw3MDIuNzUyNSAyNzYwLjU1NTYsNzE4LjIyMzcgMjc0NS4wOTg4LDcyNi42OTcxIEMyNzU5LjIyMDcsNzM0LjM0NjMgMjc1OS43OTA5LDc0OS43OTYgMjc0Ni43MjkzLDc1OC44MjQ4IEMyNzY0LjE0NTksNzc1LjkzMDkgMjc1Ny40NzE2LDc5MC40Njg3IDI3MzYsNzk2LjUgQzI3MzcuODI5OCw3OTQuNzQyMyAyNzM5LjYzOTMsNzk1Ljg5OTggMjc0MC4wMjk2LDc5OC4wMDI2IEMyNzMxLjIzNzgsODEyLjU5OTkgMjcxNS42OTIzLDgxNS42MzMzIDI3MDUuMDU2Myw4MDAuMTQ2NCBDMjY5OC4zNzg5LDgxNS44OTIxIDI2ODcuMjg2NCw4MTcuNDI3NyAyNjc3LjIxMTYsODAzLjMxNDYgQzI2NjYuMTQyOSw4MTguMTQ3OSAyNjUyLjE0MDIsODIwLjkxODggMjY0MC44MjE2LDgwMy41OTczIEMyNjMxLjc5NDksODE3Ljc5NiAyNjE2LjU0NzYsODE4LjY2OTcgMjYwOC4wOTY1LDgwMi45NjczIEMyNTk3Ljc1NDMsODIwLjA3NTUgMjU4Ny4wMTU1LDgxNi43Nzk1IDI1NzYuNDkzOSw4MDMuMTUxOCBDMjU2Ny44NjQzLDgxOS42NDczIDI1NTUuNTc0Niw4MjEuNzI5NSAyNTQ0Ljg2MDMsODA1LjE0NTUgQzI1MzUuMTgsODIyLjk3ODcgMjUyNC41NTQyLDgxOS45Nzg5IDI1MTIuNDU3LDgwNy43NTA3IEMyNTAzLjYxNiw4MjEuNDY3NyAyNDg4LjQ5ODcsODIxLjkwNTcgMjQ4MS43MTEzLDgwNS42NDQ2IEMyNDY4Ljc0NDgsODIwLjUwMjIgMjQ1Ny42NjIxLDgxOC4xNTk3IDI0NDguODE4Niw4MDEuMzYwNSBDMjQ0MS4wNzIsODE4LjU4MyAyNDI3LjY4MjMsODIwLjQ4MzUgMjQxNS40NDAyLDgwNi4xMDk2IEMyNDA4LjA0MzcsODIwLjE5NTEgMjM5NC41MzY2LDgxOC4yMTcgMjM4Ny44ODE1LDgwNS4zNTE1IEMyMzc1Ljk5OTQsODIwLjM0MjUgMjM2Mi40MjI1LDgxOC44OTE1IDIzNTQuNDg4NCw4MDEuMzA0NyBDMjM0NC44NDQ1LDgxNy43NTI5IDIzMzAuMTk5Niw4MTguNTUzMyAyMzIwLjg2NjksODAwLjk5NzEgQzIzMDMuNzE1NSw4MTguNzg0NSAyMjg1LjA4ODYsODE0LjU5MDQgMjI4MCw3ODkuNSBDMjI4MC40MDIzLDc4OS4wMDIxIDIyODAuOTMwNSw3ODkuMTczIDIyODEuMDg5Miw3ODkuNzQ3NCBDMjI2Ny45ODU4LDc4MS43MzM0IDIyNjYuNDYyMiw3NjcuNDU3OCAyMjgyLjEyNDEsNzYwLjQ2MDIgQzIyNjIuMDEwMyw3NTAuMzgwNSAyMjY3LjM4MjEsNzMzLjg4OTkgMjI4Mi4xMTQyLDcyMy44MDA3IEMyMjY1Ljc0MzYsNzE2LjYwOTUgMjI2NC40MTk2LDcwNC4xODQyIDIyNzkuODE1OCw2OTQuNTAxIEMyMjYxLjY5ODcsNjg2LjAzMTEgMjI2My40MDYzLDY3My41NjUyIDIyNzYuMTUzOSw2NjEuNjU0NSBDMjI2Mi42MTYxLDY1Mi4wNDgxIDIyNjEuODA0Miw2MzguNDgyIDIyNzUuNTE0NCw2MjguMzUyMyBDMjI1Ny4xMTM3LDYxOS4xODM0IDIyNTYuNTUxOCw2MDEuNDQ5MSAyMjc2LjA2NjMsNTkyLjg3IEMyMjYzLjA1MjYsNTg1LjA2MDYgMjI2MS45MjE3LDU3My44MzIyIDIyNzMuNDM2Miw1NjMuODAzNCBDMjI1OS4xNjQ2LDU1Mi42NTkyIDIyNjAuNDM0OCw1MzcuMTYyNSAyMjc3LjQ0MzEsNTI5LjY5MjYgQzIyNTguNDM5LDUxOS42NjU2IDIyNTYuNDM2NSw1MDYuOTM4MSAyMjc0LjEwMDYsNDkzLjUyMjUgQzIyNjIuNzExNiw0ODIuMzI0MiAyMjY3LjY4MjcsNDcwLjk2MDcgMjI4MC45NTcxLDQ2NS44Nzk5IEMyMjYxLjQ3MjgsNDU4LjA4NDIgMjI2MS4yNjY2LDQ0Mi4yMDMxIDIyNzYuMzM3Myw0MjkuOTYyNyBDMjI2NS40MDc4LDQxOS41NjE5IDIyNjguNzY4OCw0MDQuNDEyNSAyMjgyLjk5NDMsMzk5LjUxMDcgQzIyNjQuMTk1LDM4OS4zNjYgMjI2NC4yNDAyLDM3NS41MDExIDIyODEuMjUyMSwzNjMuNjE4MiBDMjI2My43MDQ2LDM1MC4wMTg5IDIyNjIuODcwOCwzMjkuNDExNSAyMjg3LDMyMS41IEMyMjg4LjIxMzMsMzIyLjI4NiAyMjg4LjM1OTgsMzIzLjI5OTMgMjI4Ny4yNjk2LDMyNC4zMDY2ICIgZmlsbD0ibm9uZSIgc3R5bGU9InN0cm9rZTojMTgxODE4O3N0cm9rZS13aWR0aDoxLjA7Ii8+PHRleHQgZmlsbD0iIzAwMDAwMCIgZm9udC1mYW1pbHk9InNhbnMtc2VyaWYiIGZvbnQtc2l6ZT0iMTQiIGZvbnQtd2VpZ2h0PSJib2xkIiBsZW5ndGhBZGp1c3Q9InNwYWNpbmciIHRleHRMZW5ndGg9IjIxIiB4PSIyNTAxIiB5PSIzMzkuNzM0NCI+Q0ROPC90ZXh0PjwvZz48IS0tY2x1c3RlciBDbG91ZEZyb250L0Nsb3VkZmxhcmUtLT48ZyBpZD0iY2x1c3Rlcl9DbG91ZEZyb250L0Nsb3VkZmxhcmUiPjxyZWN0IGZpbGw9IiNGRkZGRkYiIGhlaWdodD0iNDEwIiByeD0iMi41IiByeT0iMi41IiBzdHlsZT0ic3Ryb2tlOiMxODE4MTg7c3Ryb2tlLXdpZHRoOjEuMDsiIHdpZHRoPSI0MTUiIHg9IjIzMDQiIHk9IjM2Mi41Ii8+PHJlY3QgZmlsbD0iI0ZGRkZGRiIgaGVpZ2h0PSIxMCIgc3R5bGU9InN0cm9rZTojMTgxODE4O3N0cm9rZS13aWR0aDoxLjA7IiB3aWR0aD0iMTUiIHg9IjI2OTkiIHk9IjM2Ny41Ii8+PHJlY3QgZmlsbD0iI0ZGRkZGRiIgaGVpZ2h0PSIyIiBzdHlsZT0ic3Ryb2tlOiMxODE4MTg7c3Ryb2tlLXdpZHRoOjEuMDsiIHdpZHRoPSI0IiB4PSIyNjk3IiB5PSIzNjkuNSIvPjxyZWN0IGZpbGw9IiNGRkZGRkYiIGhlaWdodD0iMiIgc3R5bGU9InN0cm9rZTojMTgxODE4O3N0cm9rZS13aWR0aDoxLjA7IiB3aWR0aD0iNCIgeD0iMjY5NyIgeT0iMzczLjUiLz48dGV4dCBmaWxsPSIjMDAwMDAwIiBmb250LWZhbWlseT0ic2Fucy1zZXJpZiIgZm9udC1zaXplPSIxNCIgZm9udC13ZWlnaHQ9ImJvbGQiIGxlbmd0aEFkanVzdD0ic3BhY2luZyIgdGV4dExlbmd0aD0iMTQ3IiB4PSIyNDM4IiB5PSIzODguNzM0NCI+Q2xvdWRGcm9udC9DbG91ZGZsYXJlPC90ZXh0PjwvZz48IS0tY2x1c3RlciBMb2FkIEJhbGFuY2VyLS0+PGcgaWQ9ImNsdXN0ZXJfTG9hZCBCYWxhbmNlciI+PHBvbHlnb24gZmlsbD0iI0QzRDNEMyIgcG9pbnRzPSI3MjEsMzE4LjUsNzMxLDMwOC41LDExNjUsMzA4LjUsMTE2NSw3OTQuNSwxMTU1LDgwNC41LDcyMSw4MDQuNSw3MjEsMzE4LjUiIHN0eWxlPSJzdHJva2U6IzE4MTgxODtzdHJva2Utd2lkdGg6MS4wOyIvPjxsaW5lIHN0eWxlPSJzdHJva2U6IzE4MTgxODtzdHJva2Utd2lkdGg6MS4wOyIgeDE9IjExNTUiIHgyPSIxMTY1IiB5MT0iMzE4LjUiIHkyPSIzMDguNSIvPjxsaW5lIHN0eWxlPSJzdHJva2U6IzE4MTgxODtzdHJva2Utd2lkdGg6MS4wOyIgeDE9IjcyMSIgeDI9IjExNTUiIHkxPSIzMTguNSIgeTI9IjMxOC41Ii8+PGxpbmUgc3R5bGU9InN0cm9rZTojMTgxODE4O3N0cm9rZS13aWR0aDoxLjA7IiB4MT0iMTE1NSIgeDI9IjExNTUiIHkxPSIzMTguNSIgeTI9IjgwNC41Ii8+PHRleHQgZmlsbD0iIzAwMDAwMCIgZm9udC1mYW1pbHk9InNhbnMtc2VyaWYiIGZvbnQtc2l6ZT0iMTQiIGZvbnQtd2VpZ2h0PSJib2xkIiBsZW5ndGhBZGp1c3Q9InNwYWNpbmciIHRleHRMZW5ndGg9IjkxIiB4PSI4OTMuNSIgeT0iMzM0LjczNDQiPkxvYWQgQmFsYW5jZXI8L3RleHQ+PC9nPjwhLS1jbHVzdGVyIE5HSU5YLS0+PGcgaWQ9ImNsdXN0ZXJfTkdJTlgiPjxyZWN0IGZpbGw9IiNGRkZGRkYiIGhlaWdodD0iNDEwIiByeD0iMi41IiByeT0iMi41IiBzdHlsZT0ic3Ryb2tlOiMxODE4MTg7c3Ryb2tlLXdpZHRoOjEuMDsiIHdpZHRoPSIzODAiIHg9Ijc1MyIgeT0iMzYyLjUiLz48cmVjdCBmaWxsPSIjRkZGRkZGIiBoZWlnaHQ9IjEwIiBzdHlsZT0ic3Ryb2tlOiMxODE4MTg7c3Ryb2tlLXdpZHRoOjEuMDsiIHdpZHRoPSIxNSIgeD0iMTExMyIgeT0iMzY3LjUiLz48cmVjdCBmaWxsPSIjRkZGRkZGIiBoZWlnaHQ9IjIiIHN0eWxlPSJzdHJva2U6IzE4MTgxODtzdHJva2Utd2lkdGg6MS4wOyIgd2lkdGg9IjQiIHg9IjExMTEiIHk9IjM2OS41Ii8+PHJlY3QgZmlsbD0iI0ZGRkZGRiIgaGVpZ2h0PSIyIiBzdHlsZT0ic3Ryb2tlOiMxODE4MTg7c3Ryb2tlLXdpZHRoOjEuMDsiIHdpZHRoPSI0IiB4PSIxMTExIiB5PSIzNzMuNSIvPjx0ZXh0IGZpbGw9IiMwMDAwMDAiIGZvbnQtZmFtaWx5PSJzYW5zLXNlcmlmIiBmb250LXNpemU9IjE0IiBmb250LXdlaWdodD0iYm9sZCIgbGVuZ3RoQWRqdXN0PSJzcGFjaW5nIiB0ZXh0TGVuZ3RoPSIzNSIgeD0iOTI1LjUiIHk9IjM4OC43MzQ0Ij5OR0lOWDwvdGV4dD48L2c+PCEtLWNsdXN0ZXIgQXBwbGljYXRpb24gU2VydmVycyBDbHVzdGVyLS0+PGcgaWQ9ImNsdXN0ZXJfQXBwbGljYXRpb24gU2VydmVycyBDbHVzdGVyIj48cG9seWdvbiBmaWxsPSIjRDNEM0QzIiBwb2ludHM9IjExODksNTYxLjUsMTE5OSw1NTEuNSwyMjQ4LDU1MS41LDIyNDgsMTMxMC41LDIyMzgsMTMyMC41LDExODksMTMyMC41LDExODksNTYxLjUiIHN0eWxlPSJzdHJva2U6IzE4MTgxODtzdHJva2Utd2lkdGg6MS4wOyIvPjxsaW5lIHN0eWxlPSJzdHJva2U6IzE4MTgxODtzdHJva2Utd2lkdGg6MS4wOyIgeDE9IjIyMzgiIHgyPSIyMjQ4IiB5MT0iNTYxLjUiIHkyPSI1NTEuNSIvPjxsaW5lIHN0eWxlPSJzdHJva2U6IzE4MTgxODtzdHJva2Utd2lkdGg6MS4wOyIgeDE9IjExODkiIHgyPSIyMjM4IiB5MT0iNTYxLjUiIHkyPSI1NjEuNSIvPjxsaW5lIHN0eWxlPSJzdHJva2U6IzE4MTgxODtzdHJva2Utd2lkdGg6MS4wOyIgeDE9IjIyMzgiIHgyPSIyMjM4IiB5MT0iNTYxLjUiIHkyPSIxMzIwLjUiLz48dGV4dCBmaWxsPSIjMDAwMDAwIiBmb250LWZhbWlseT0ic2Fucy1zZXJpZiIgZm9udC1zaXplPSIxNCIgZm9udC13ZWlnaHQ9ImJvbGQiIGxlbmd0aEFkanVzdD0ic3BhY2luZyIgdGV4dExlbmd0aD0iMTg5IiB4PSIxNjIwIiB5PSI1NzcuNzM0NCI+QXBwbGljYXRpb24gU2VydmVycyBDbHVzdGVyPC90ZXh0PjwvZz48IS0tY2x1c3RlciBTcHJpbmcgQm9vdCBBcHBsaWNhdGlvbi0tPjxnIGlkPSJjbHVzdGVyX1NwcmluZyBCb290IEFwcGxpY2F0aW9uIj48cGF0aCBkPSJNMTIyMy41LDYwNS41IEwxMzg1LjUsNjA1LjUgQTMuNzUsMy43NSAwIDAgMSAxMzg4LDYwOCBMMTM5NSw2MjYuNDg0NCBMMjIxMy41LDYyNi40ODQ0IEEyLjUsMi41IDAgMCAxIDIyMTYsNjI4Ljk4NDQgTDIyMTYsMTI4NiBBMi41LDIuNSAwIDAgMSAyMjEzLjUsMTI4OC41IEwxMjIzLjUsMTI4OC41IEEyLjUsMi41IDAgMCAxIDEyMjEsMTI4NiBMMTIyMSw2MDggQTIuNSwyLjUgMCAwIDEgMTIyMy41LDYwNS41ICIgZmlsbD0ibm9uZSIgc3R5bGU9InN0cm9rZTojMDAwMDAwO3N0cm9rZS13aWR0aDoxLjU7Ii8+PGxpbmUgc3R5bGU9InN0cm9rZTojMDAwMDAwO3N0cm9rZS13aWR0aDoxLjU7IiB4MT0iMTIyMSIgeDI9IjEzOTUiIHkxPSI2MjYuNDg0NCIgeTI9IjYyNi40ODQ0Ii8+PHRleHQgZmlsbD0iIzAwMDAwMCIgZm9udC1mYW1pbHk9InNhbnMtc2VyaWYiIGZvbnQtc2l6ZT0iMTQiIGZvbnQtd2VpZ2h0PSJib2xkIiBsZW5ndGhBZGp1c3Q9InNwYWNpbmciIHRleHRMZW5ndGg9IjE2MSIgeD0iMTIyNSIgeT0iNjIwLjczNDQiPlNwcmluZyBCb290IEFwcGxpY2F0aW9uPC90ZXh0PjwvZz48IS0tY2x1c3RlciBDb3JlIFNlcnZpY2VzLS0+PGcgaWQ9ImNsdXN0ZXJfQ29yZSBTZXJ2aWNlcyI+PHJlY3QgZmlsbD0iI0ZGRkZGRiIgaGVpZ2h0PSI1ODYiIHJ4PSIyLjUiIHJ5PSIyLjUiIHN0eWxlPSJzdHJva2U6IzE4MTgxODtzdHJva2Utd2lkdGg6MS4wOyIgd2lkdGg9IjU2NiIgeD0iMTYxMCIgeT0iNjYyLjUiLz48cmVjdCBmaWxsPSIjRkZGRkZGIiBoZWlnaHQ9IjEwIiBzdHlsZT0ic3Ryb2tlOiMxODE4MTg7c3Ryb2tlLXdpZHRoOjEuMDsiIHdpZHRoPSIxNSIgeD0iMjE1NiIgeT0iNjY3LjUiLz48cmVjdCBmaWxsPSIjRkZGRkZGIiBoZWlnaHQ9IjIiIHN0eWxlPSJzdHJva2U6IzE4MTgxODtzdHJva2Utd2lkdGg6MS4wOyIgd2lkdGg9IjQiIHg9IjIxNTQiIHk9IjY2OS41Ii8+PHJlY3QgZmlsbD0iI0ZGRkZGRiIgaGVpZ2h0PSIyIiBzdHlsZT0ic3Ryb2tlOiMxODE4MTg7c3Ryb2tlLXdpZHRoOjEuMDsiIHdpZHRoPSI0IiB4PSIyMTU0IiB5PSI2NzMuNSIvPjx0ZXh0IGZpbGw9IiMwMDAwMDAiIGZvbnQtZmFtaWx5PSJzYW5zLXNlcmlmIiBmb250LXNpemU9IjE0IiBmb250LXdlaWdodD0iYm9sZCIgbGVuZ3RoQWRqdXN0PSJzcGFjaW5nIiB0ZXh0TGVuZ3RoPSI5MSIgeD0iMTg0Ny41IiB5PSI2ODguNzM0NCI+Q29yZSBTZXJ2aWNlczwvdGV4dD48L2c+PCEtLWNsdXN0ZXIgU3VwcG9ydCBTZXJ2aWNlcy0tPjxnIGlkPSJjbHVzdGVyX1N1cHBvcnQgU2VydmljZXMiPjxyZWN0IGZpbGw9IiNGRkZGRkYiIGhlaWdodD0iMzUyIiByeD0iMi41IiByeT0iMi41IiBzdHlsZT0ic3Ryb2tlOiMxODE4MTg7c3Ryb2tlLXdpZHRoOjEuMDsiIHdpZHRoPSIzMTciIHg9IjEyNjEiIHk9IjY3MC41Ii8+PHJlY3QgZmlsbD0iI0ZGRkZGRiIgaGVpZ2h0PSIxMCIgc3R5bGU9InN0cm9rZTojMTgxODE4O3N0cm9rZS13aWR0aDoxLjA7IiB3aWR0aD0iMTUiIHg9IjE1NTgiIHk9IjY3NS41Ii8+PHJlY3QgZmlsbD0iI0ZGRkZGRiIgaGVpZ2h0PSIyIiBzdHlsZT0ic3Ryb2tlOiMxODE4MTg7c3Ryb2tlLXdpZHRoOjEuMDsiIHdpZHRoPSI0IiB4PSIxNTU2IiB5PSI2NzcuNSIvPjxyZWN0IGZpbGw9IiNGRkZGRkYiIGhlaWdodD0iMiIgc3R5bGU9InN0cm9rZTojMTgxODE4O3N0cm9rZS13aWR0aDoxLjA7IiB3aWR0aD0iNCIgeD0iMTU1NiIgeT0iNjgxLjUiLz48dGV4dCBmaWxsPSIjMDAwMDAwIiBmb250LWZhbWlseT0ic2Fucy1zZXJpZiIgZm9udC1zaXplPSIxNCIgZm9udC13ZWlnaHQ9ImJvbGQiIGxlbmd0aEFkanVzdD0ic3BhY2luZyIgdGV4dExlbmd0aD0iMTEyIiB4PSIxMzYzLjUiIHk9IjY5Ni43MzQ0Ij5TdXBwb3J0IFNlcnZpY2VzPC90ZXh0PjwvZz48IS0tY2x1c3RlciBDYWNoZSBMYXllci0tPjxnIGlkPSJjbHVzdGVyX0NhY2hlIExheWVyIj48cG9seWdvbiBmaWxsPSIjRDNEM0QzIiBwb2ludHM9IjI2NjIsODYxLjUsMjY3Miw4NTEuNSwzMDkxLDg1MS41LDMwOTEsMTI3MC41LDMwODEsMTI4MC41LDI2NjIsMTI4MC41LDI2NjIsODYxLjUiIHN0eWxlPSJzdHJva2U6IzE4MTgxODtzdHJva2Utd2lkdGg6MS4wOyIvPjxsaW5lIHN0eWxlPSJzdHJva2U6IzE4MTgxODtzdHJva2Utd2lkdGg6MS4wOyIgeDE9IjMwODEiIHgyPSIzMDkxIiB5MT0iODYxLjUiIHkyPSI4NTEuNSIvPjxsaW5lIHN0eWxlPSJzdHJva2U6IzE4MTgxODtzdHJva2Utd2lkdGg6MS4wOyIgeDE9IjI2NjIiIHgyPSIzMDgxIiB5MT0iODYxLjUiIHkyPSI4NjEuNSIvPjxsaW5lIHN0eWxlPSJzdHJva2U6IzE4MTgxODtzdHJva2Utd2lkdGg6MS4wOyIgeDE9IjMwODEiIHgyPSIzMDgxIiB5MT0iODYxLjUiIHkyPSIxMjgwLjUiLz48dGV4dCBmaWxsPSIjMDAwMDAwIiBmb250LWZhbWlseT0ic2Fucy1zZXJpZiIgZm9udC1zaXplPSIxNCIgZm9udC13ZWlnaHQ9ImJvbGQiIGxlbmd0aEFkanVzdD0ic3BhY2luZyIgdGV4dExlbmd0aD0iNzciIHg9IjI4MzQiIHk9Ijg3Ny43MzQ0Ij5DYWNoZSBMYXllcjwvdGV4dD48L2c+PCEtLWNsdXN0ZXIgUmVkaXMgQ2x1c3Rlci0tPjxnIGlkPSJjbHVzdGVyX1JlZGlzIENsdXN0ZXIiPjxwYXRoIGQ9Ik0yNjk0LDkxNS41IEMyNjk0LDkwNS41IDI4NzYuNSw5MDUuNSAyODc2LjUsOTA1LjUgQzI4NzYuNSw5MDUuNSAzMDU5LDkwNS41IDMwNTksOTE1LjUgTDMwNTksMTIzOC41IEMzMDU5LDEyNDguNSAyODc2LjUsMTI0OC41IDI4NzYuNSwxMjQ4LjUgQzI4NzYuNSwxMjQ4LjUgMjY5NCwxMjQ4LjUgMjY5NCwxMjM4LjUgTDI2OTQsOTE1LjUgIiBmaWxsPSIjRkZGRkZGIiBzdHlsZT0ic3Ryb2tlOiMxODE4MTg7c3Ryb2tlLXdpZHRoOjEuMDsiLz48cGF0aCBkPSJNMjY5NCw5MTUuNSBDMjY5NCw5MjUuNSAyODc2LjUsOTI1LjUgMjg3Ni41LDkyNS41IEMyODc2LjUsOTI1LjUgMzA1OSw5MjUuNSAzMDU5LDkxNS41ICIgZmlsbD0ibm9uZSIgc3R5bGU9InN0cm9rZTojMTgxODE4O3N0cm9rZS13aWR0aDoxLjA7Ii8+PHRleHQgZmlsbD0iIzAwMDAwMCIgZm9udC1mYW1pbHk9InNhbnMtc2VyaWYiIGZvbnQtc2l6ZT0iMTQiIGZvbnQtd2VpZ2h0PSJib2xkIiBsZW5ndGhBZGp1c3Q9InNwYWNpbmciIHRleHRMZW5ndGg9IjkxIiB4PSIyODMxIiB5PSI5NDAuNzM0NCI+UmVkaXMgQ2x1c3RlcjwvdGV4dD48L2c+PCEtLWNsdXN0ZXIgRGF0YWJhc2UgTGF5ZXItLT48ZyBpZD0iY2x1c3Rlcl9EYXRhYmFzZSBMYXllciI+PHBvbHlnb24gZmlsbD0iI0QzRDNEMyIgcG9pbnRzPSIyMjcyLDEwNzkuNSwyMjgyLDEwNjkuNSwyNjM4LDEwNjkuNSwyNjM4LDE0NTguNSwyNjI4LDE0NjguNSwyMjcyLDE0NjguNSwyMjcyLDEwNzkuNSIgc3R5bGU9InN0cm9rZTojMTgxODE4O3N0cm9rZS13aWR0aDoxLjA7Ii8+PGxpbmUgc3R5bGU9InN0cm9rZTojMTgxODE4O3N0cm9rZS13aWR0aDoxLjA7IiB4MT0iMjYyOCIgeDI9IjI2MzgiIHkxPSIxMDc5LjUiIHkyPSIxMDY5LjUiLz48bGluZSBzdHlsZT0ic3Ryb2tlOiMxODE4MTg7c3Ryb2tlLXdpZHRoOjEuMDsiIHgxPSIyMjcyIiB4Mj0iMjYyOCIgeTE9IjEwNzkuNSIgeTI9IjEwNzkuNSIvPjxsaW5lIHN0eWxlPSJzdHJva2U6IzE4MTgxODtzdHJva2Utd2lkdGg6MS4wOyIgeDE9IjI2MjgiIHgyPSIyNjI4IiB5MT0iMTA3OS41IiB5Mj0iMTQ2OC41Ii8+PHRleHQgZmlsbD0iIzAwMDAwMCIgZm9udC1mYW1pbHk9InNhbnMtc2VyaWYiIGZvbnQtc2l6ZT0iMTQiIGZvbnQtd2VpZ2h0PSJib2xkIiBsZW5ndGhBZGp1c3Q9InNwYWNpbmciIHRleHRMZW5ndGg9Ijk4IiB4PSIyNDAyIiB5PSIxMDk1LjczNDQiPkRhdGFiYXNlIExheWVyPC90ZXh0PjwvZz48IS0tY2x1c3RlciBNeVNRTCBDbHVzdGVyLS0+PGcgaWQ9ImNsdXN0ZXJfTXlTUUwgQ2x1c3RlciI+PHBhdGggZD0iTTIzMDQsMTEzMy41IEMyMzA0LDExMjMuNSAyNDU1LDExMjMuNSAyNDU1LDExMjMuNSBDMjQ1NSwxMTIzLjUgMjYwNiwxMTIzLjUgMjYwNiwxMTMzLjUgTDI2MDYsMTQyNi41IEMyNjA2LDE0MzYuNSAyNDU1LDE0MzYuNSAyNDU1LDE0MzYuNSBDMjQ1NSwxNDM2LjUgMjMwNCwxNDM2LjUgMjMwNCwxNDI2LjUgTDIzMDQsMTEzMy41ICIgZmlsbD0iI0ZGRkZGRiIgc3R5bGU9InN0cm9rZTojMTgxODE4O3N0cm9rZS13aWR0aDoxLjA7Ii8+PHBhdGggZD0iTTIzMDQsMTEzMy41IEMyMzA0LDExNDMuNSAyNDU1LDExNDMuNSAyNDU1LDExNDMuNSBDMjQ1NSwxMTQzLjUgMjYwNiwxMTQzLjUgMjYwNiwxMTMzLjUgIiBmaWxsPSJub25lIiBzdHlsZT0ic3Ryb2tlOiMxODE4MTg7c3Ryb2tlLXdpZHRoOjEuMDsiLz48dGV4dCBmaWxsPSIjMDAwMDAwIiBmb250LWZhbWlseT0ic2Fucy1zZXJpZiIgZm9udC1zaXplPSIxNCIgZm9udC13ZWlnaHQ9ImJvbGQiIGxlbmd0aEFkanVzdD0ic3BhY2luZyIgdGV4dExlbmd0aD0iOTEiIHg9IjI0MDkuNSIgeT0iMTE1OC43MzQ0Ij5NeVNRTCBDbHVzdGVyPC90ZXh0PjwvZz48IS0tY2x1c3RlciBTdG9yYWdlIExheWVyLS0+PGcgaWQ9ImNsdXN0ZXJfU3RvcmFnZSBMYXllciI+PHBvbHlnb24gZmlsbD0iI0QzRDNEMyIgcG9pbnRzPSIzMTE1LDg2MS41LDMxMjUsODUxLjUsMzUwMyw4NTEuNSwzNTAzLDEyNzAuNSwzNDkzLDEyODAuNSwzMTE1LDEyODAuNSwzMTE1LDg2MS41IiBzdHlsZT0ic3Ryb2tlOiMxODE4MTg7c3Ryb2tlLXdpZHRoOjEuMDsiLz48bGluZSBzdHlsZT0ic3Ryb2tlOiMxODE4MTg7c3Ryb2tlLXdpZHRoOjEuMDsiIHgxPSIzNDkzIiB4Mj0iMzUwMyIgeTE9Ijg2MS41IiB5Mj0iODUxLjUiLz48bGluZSBzdHlsZT0ic3Ryb2tlOiMxODE4MTg7c3Ryb2tlLXdpZHRoOjEuMDsiIHgxPSIzMTE1IiB4Mj0iMzQ5MyIgeTE9Ijg2MS41IiB5Mj0iODYxLjUiLz48bGluZSBzdHlsZT0ic3Ryb2tlOiMxODE4MTg7c3Ryb2tlLXdpZHRoOjEuMDsiIHgxPSIzNDkzIiB4Mj0iMzQ5MyIgeTE9Ijg2MS41IiB5Mj0iMTI4MC41Ii8+PHRleHQgZmlsbD0iIzAwMDAwMCIgZm9udC1mYW1pbHk9InNhbnMtc2VyaWYiIGZvbnQtc2l6ZT0iMTQiIGZvbnQtd2VpZ2h0PSJib2xkIiBsZW5ndGhBZGp1c3Q9InNwYWNpbmciIHRleHRMZW5ndGg9IjkxIiB4PSIzMjU5LjUiIHk9Ijg3Ny43MzQ0Ij5TdG9yYWdlIExheWVyPC90ZXh0PjwvZz48IS0tY2x1c3RlciBPYmplY3QgU3RvcmFnZS0tPjxnIGlkPSJjbHVzdGVyX09iamVjdCBTdG9yYWdlIj48cGF0aCBkPSJNMzE0Nyw5MTUuNSBDMzE0Nyw5MDUuNSAzMzA5LDkwNS41IDMzMDksOTA1LjUgQzMzMDksOTA1LjUgMzQ3MSw5MDUuNSAzNDcxLDkxNS41IEwzNDcxLDEyMzguNSBDMzQ3MSwxMjQ4LjUgMzMwOSwxMjQ4LjUgMzMwOSwxMjQ4LjUgQzMzMDksMTI0OC41IDMxNDcsMTI0OC41IDMxNDcsMTIzOC41IEwzMTQ3LDkxNS41ICIgZmlsbD0iI0ZGRkZGRiIgc3R5bGU9InN0cm9rZTojMTgxODE4O3N0cm9rZS13aWR0aDoxLjA7Ii8+PHBhdGggZD0iTTMxNDcsOTE1LjUgQzMxNDcsOTI1LjUgMzMwOSw5MjUuNSAzMzA5LDkyNS41IEMzMzA5LDkyNS41IDM0NzEsOTI1LjUgMzQ3MSw5MTUuNSAiIGZpbGw9Im5vbmUiIHN0eWxlPSJzdHJva2U6IzE4MTgxODtzdHJva2Utd2lkdGg6MS4wOyIvPjx0ZXh0IGZpbGw9IiMwMDAwMDAiIGZvbnQtZmFtaWx5PSJzYW5zLXNlcmlmIiBmb250LXNpemU9IjE0IiBmb250LXdlaWdodD0iYm9sZCIgbGVuZ3RoQWRqdXN0PSJzcGFjaW5nIiB0ZXh0TGVuZ3RoPSI5OCIgeD0iMzI2MCIgeT0iOTQwLjczNDQiPk9iamVjdCBTdG9yYWdlPC90ZXh0PjwvZz48IS0tY2x1c3RlciBNb25pdG9yaW5nLS0+PGcgaWQ9ImNsdXN0ZXJfTW9uaXRvcmluZyI+PHBvbHlnb24gZmlsbD0iI0QzRDNEMyIgcG9pbnRzPSIzNTI3LDg3Ni41LDM1MzcsODY2LjUsMzg5Myw4NjYuNSwzODkzLDEyNzAuNSwzODgzLDEyODAuNSwzNTI3LDEyODAuNSwzNTI3LDg3Ni41IiBzdHlsZT0ic3Ryb2tlOiMxODE4MTg7c3Ryb2tlLXdpZHRoOjEuMDsiLz48bGluZSBzdHlsZT0ic3Ryb2tlOiMxODE4MTg7c3Ryb2tlLXdpZHRoOjEuMDsiIHgxPSIzODgzIiB4Mj0iMzg5MyIgeTE9Ijg3Ni41IiB5Mj0iODY2LjUiLz48bGluZSBzdHlsZT0ic3Ryb2tlOiMxODE4MTg7c3Ryb2tlLXdpZHRoOjEuMDsiIHgxPSIzNTI3IiB4Mj0iMzg4MyIgeTE9Ijg3Ni41IiB5Mj0iODc2LjUiLz48bGluZSBzdHlsZT0ic3Ryb2tlOiMxODE4MTg7c3Ryb2tlLXdpZHRoOjEuMDsiIHgxPSIzODgzIiB4Mj0iMzg4MyIgeTE9Ijg3Ni41IiB5Mj0iMTI4MC41Ii8+PHRleHQgZmlsbD0iIzAwMDAwMCIgZm9udC1mYW1pbHk9InNhbnMtc2VyaWYiIGZvbnQtc2l6ZT0iMTQiIGZvbnQtd2VpZ2h0PSJib2xkIiBsZW5ndGhBZGp1c3Q9InNwYWNpbmciIHRleHRMZW5ndGg9IjcwIiB4PSIzNjcxIiB5PSI4OTIuNzM0NCI+TW9uaXRvcmluZzwvdGV4dD48L2c+PCEtLWNsdXN0ZXIgTW9uaXRvcmluZyBTdGFjay0tPjxnIGlkPSJjbHVzdGVyX01vbml0b3JpbmcgU3RhY2siPjxyZWN0IGZpbGw9IiNGRkZGRkYiIGhlaWdodD0iMzI4IiByeD0iMi41IiByeT0iMi41IiBzdHlsZT0ic3Ryb2tlOiMxODE4MTg7c3Ryb2tlLXdpZHRoOjEuMDsiIHdpZHRoPSIzMDIiIHg9IjM1NTkiIHk9IjkyMC41Ii8+PHJlY3QgZmlsbD0iI0ZGRkZGRiIgaGVpZ2h0PSIxMCIgc3R5bGU9InN0cm9rZTojMTgxODE4O3N0cm9rZS13aWR0aDoxLjA7IiB3aWR0aD0iMTUiIHg9IjM4NDEiIHk9IjkyNS41Ii8+PHJlY3QgZmlsbD0iI0ZGRkZGRiIgaGVpZ2h0PSIyIiBzdHlsZT0ic3Ryb2tlOiMxODE4MTg7c3Ryb2tlLXdpZHRoOjEuMDsiIHdpZHRoPSI0IiB4PSIzODM5IiB5PSI5MjcuNSIvPjxyZWN0IGZpbGw9IiNGRkZGRkYiIGhlaWdodD0iMiIgc3R5bGU9InN0cm9rZTojMTgxODE4O3N0cm9rZS13aWR0aDoxLjA7IiB3aWR0aD0iNCIgeD0iMzgzOSIgeT0iOTMxLjUiLz48dGV4dCBmaWxsPSIjMDAwMDAwIiBmb250LWZhbWlseT0ic2Fucy1zZXJpZiIgZm9udC1zaXplPSIxNCIgZm9udC13ZWlnaHQ9ImJvbGQiIGxlbmd0aEFkanVzdD0ic3BhY2luZyIgdGV4dExlbmd0aD0iMTEyIiB4PSIzNjU0IiB5PSI5NDYuNzM0NCI+TW9uaXRvcmluZyBTdGFjazwvdGV4dD48L2c+PCEtLWVudGl0eSBBbmRyb2lkIERldmljZS0tPjxnIGlkPSJlbGVtX0FuZHJvaWQgRGV2aWNlIj48cmVjdCBmaWxsPSIjRkZGRkZGIiBoZWlnaHQ9IjQ0Ljk4NDQiIHJ4PSIyLjUiIHJ5PSIyLjUiIHN0eWxlPSJzdHJva2U6IzE4MTgxODtzdHJva2Utd2lkdGg6MC41OyIgd2lkdGg9IjEzOCIgeD0iNTQzIiB5PSI0NCIvPjxyZWN0IGZpbGw9IiNGRkZGRkYiIGhlaWdodD0iMTAiIHN0eWxlPSJzdHJva2U6IzE4MTgxODtzdHJva2Utd2lkdGg6MC41OyIgd2lkdGg9IjE1IiB4PSI2NjEiIHk9IjQ5Ii8+PHJlY3QgZmlsbD0iI0ZGRkZGRiIgaGVpZ2h0PSIyIiBzdHlsZT0ic3Ryb2tlOiMxODE4MTg7c3Ryb2tlLXdpZHRoOjAuNTsiIHdpZHRoPSI0IiB4PSI2NTkiIHk9IjUxIi8+PHJlY3QgZmlsbD0iI0ZGRkZGRiIgaGVpZ2h0PSIyIiBzdHlsZT0ic3Ryb2tlOiMxODE4MTg7c3Ryb2tlLXdpZHRoOjAuNTsiIHdpZHRoPSI0IiB4PSI2NTkiIHk9IjU1Ii8+PHRleHQgZmlsbD0iIzAwMDAwMCIgZm9udC1mYW1pbHk9InNhbnMtc2VyaWYiIGZvbnQtc2l6ZT0iMTQiIGxlbmd0aEFkanVzdD0ic3BhY2luZyIgdGV4dExlbmd0aD0iOTgiIHg9IjU1OCIgeT0iNzcuMjM0NCI+QW5kcm9pZCBEZXZpY2U8L3RleHQ+PC9nPjwhLS1lbnRpdHkgVUkgQ29tcG9uZW50cy0tPjxnIGlkPSJlbGVtX1VJIENvbXBvbmVudHMiPjxyZWN0IGZpbGw9IiNGRkZGRkYiIGhlaWdodD0iNDQuOTg0NCIgcng9IjIuNSIgcnk9IjIuNSIgc3R5bGU9InN0cm9rZTojMTgxODE4O3N0cm9rZS13aWR0aDowLjU7IiB3aWR0aD0iMTMyIiB4PSI3MiIgeT0iMTk5Ii8+PHJlY3QgZmlsbD0iI0ZGRkZGRiIgaGVpZ2h0PSIxMCIgc3R5bGU9InN0cm9rZTojMTgxODE4O3N0cm9rZS13aWR0aDowLjU7IiB3aWR0aD0iMTUiIHg9IjE4NCIgeT0iMjA0Ii8+PHJlY3QgZmlsbD0iI0ZGRkZGRiIgaGVpZ2h0PSIyIiBzdHlsZT0ic3Ryb2tlOiMxODE4MTg7c3Ryb2tlLXdpZHRoOjAuNTsiIHdpZHRoPSI0IiB4PSIxODIiIHk9IjIwNiIvPjxyZWN0IGZpbGw9IiNGRkZGRkYiIGhlaWdodD0iMiIgc3R5bGU9InN0cm9rZTojMTgxODE4O3N0cm9rZS13aWR0aDowLjU7IiB3aWR0aD0iNCIgeD0iMTgyIiB5PSIyMTAiLz48dGV4dCBmaWxsPSIjMDAwMDAwIiBmb250LWZhbWlseT0ic2Fucy1zZXJpZiIgZm9udC1zaXplPSIxNCIgbGVuZ3RoQWRqdXN0PSJzcGFjaW5nIiB0ZXh0TGVuZ3RoPSI5MiIgeD0iODciIHk9IjIzMi4yMzQ0Ij5VSSBDb21wb25lbnRzPC90ZXh0PjwvZz48IS0tZW50aXR5IFJlZHV4L1N0YXRlIE1hbmFnZW1lbnQtLT48ZyBpZD0iZWxlbV9SZWR1eC9TdGF0ZSBNYW5hZ2VtZW50Ij48cmVjdCBmaWxsPSIjRkZGRkZGIiBoZWlnaHQ9IjQ0Ljk4NDQiIHJ4PSIyLjUiIHJ5PSIyLjUiIHN0eWxlPSJzdHJva2U6IzE4MTgxODtzdHJva2Utd2lkdGg6MC41OyIgd2lkdGg9IjE5NSIgeD0iMjM5LjUiIHk9IjE5OSIvPjxyZWN0IGZpbGw9IiNGRkZGRkYiIGhlaWdodD0iMTAiIHN0eWxlPSJzdHJva2U6IzE4MTgxODtzdHJva2Utd2lkdGg6MC41OyIgd2lkdGg9IjE1IiB4PSI0MTQuNSIgeT0iMjA0Ii8+PHJlY3QgZmlsbD0iI0ZGRkZGRiIgaGVpZ2h0PSIyIiBzdHlsZT0ic3Ryb2tlOiMxODE4MTg7c3Ryb2tlLXdpZHRoOjAuNTsiIHdpZHRoPSI0IiB4PSI0MTIuNSIgeT0iMjA2Ii8+PHJlY3QgZmlsbD0iI0ZGRkZGRiIgaGVpZ2h0PSIyIiBzdHlsZT0ic3Ryb2tlOiMxODE4MTg7c3Ryb2tlLXdpZHRoOjAuNTsiIHdpZHRoPSI0IiB4PSI0MTIuNSIgeT0iMjEwIi8+PHRleHQgZmlsbD0iIzAwMDAwMCIgZm9udC1mYW1pbHk9InNhbnMtc2VyaWYiIGZvbnQtc2l6ZT0iMTQiIGxlbmd0aEFkanVzdD0ic3BhY2luZyIgdGV4dExlbmd0aD0iMTU1IiB4PSIyNTQuNSIgeT0iMjMyLjIzNDQiPlJlZHV4L1N0YXRlIE1hbmFnZW1lbnQ8L3RleHQ+PC9nPjwhLS1lbnRpdHkgQVBJIENsaWVudC9BeGlvcy0tPjxnIGlkPSJlbGVtX0FQSSBDbGllbnQvQXhpb3MiPjxyZWN0IGZpbGw9IiNGRkZGRkYiIGhlaWdodD0iNDQuOTg0NCIgcng9IjIuNSIgcnk9IjIuNSIgc3R5bGU9InN0cm9rZTojMTgxODE4O3N0cm9rZS13aWR0aDowLjU7IiB3aWR0aD0iMTUyIiB4PSI0NzAiIHk9IjE5OSIvPjxyZWN0IGZpbGw9IiNGRkZGRkYiIGhlaWdodD0iMTAiIHN0eWxlPSJzdHJva2U6IzE4MTgxODtzdHJva2Utd2lkdGg6MC41OyIgd2lkdGg9IjE1IiB4PSI2MDIiIHk9IjIwNCIvPjxyZWN0IGZpbGw9IiNGRkZGRkYiIGhlaWdodD0iMiIgc3R5bGU9InN0cm9rZTojMTgxODE4O3N0cm9rZS13aWR0aDowLjU7IiB3aWR0aD0iNCIgeD0iNjAwIiB5PSIyMDYiLz48cmVjdCBmaWxsPSIjRkZGRkZGIiBoZWlnaHQ9IjIiIHN0eWxlPSJzdHJva2U6IzE4MTgxODtzdHJva2Utd2lkdGg6MC41OyIgd2lkdGg9IjQiIHg9IjYwMCIgeT0iMjEwIi8+PHRleHQgZmlsbD0iIzAwMDAwMCIgZm9udC1mYW1pbHk9InNhbnMtc2VyaWYiIGZvbnQtc2l6ZT0iMTQiIGxlbmd0aEFkanVzdD0ic3BhY2luZyIgdGV4dExlbmd0aD0iMTEyIiB4PSI0ODUiIHk9IjIzMi4yMzQ0Ij5BUEkgQ2xpZW50L0F4aW9zPC90ZXh0PjwvZz48IS0tZW50aXR5IExvY2FsIFN0b3JhZ2UtLT48ZyBpZD0iZWxlbV9Mb2NhbCBTdG9yYWdlIj48cmVjdCBmaWxsPSIjRkZGRkZGIiBoZWlnaHQ9IjQ0Ljk4NDQiIHJ4PSIyLjUiIHJ5PSIyLjUiIHN0eWxlPSJzdHJva2U6IzE4MTgxODtzdHJva2Utd2lkdGg6MC41OyIgd2lkdGg9IjEzMSIgeD0iNzIuNSIgeT0iNDAzLjUiLz48cmVjdCBmaWxsPSIjRkZGRkZGIiBoZWlnaHQ9IjEwIiBzdHlsZT0ic3Ryb2tlOiMxODE4MTg7c3Ryb2tlLXdpZHRoOjAuNTsiIHdpZHRoPSIxNSIgeD0iMTgzLjUiIHk9IjQwOC41Ii8+PHJlY3QgZmlsbD0iI0ZGRkZGRiIgaGVpZ2h0PSIyIiBzdHlsZT0ic3Ryb2tlOiMxODE4MTg7c3Ryb2tlLXdpZHRoOjAuNTsiIHdpZHRoPSI0IiB4PSIxODEuNSIgeT0iNDEwLjUiLz48cmVjdCBmaWxsPSIjRkZGRkZGIiBoZWlnaHQ9IjIiIHN0eWxlPSJzdHJva2U6IzE4MTgxODtzdHJva2Utd2lkdGg6MC41OyIgd2lkdGg9IjQiIHg9IjE4MS41IiB5PSI0MTQuNSIvPjx0ZXh0IGZpbGw9IiMwMDAwMDAiIGZvbnQtZmFtaWx5PSJzYW5zLXNlcmlmIiBmb250LXNpemU9IjE0IiBsZW5ndGhBZGp1c3Q9InNwYWNpbmciIHRleHRMZW5ndGg9IjkxIiB4PSI4Ny41IiB5PSI0MzYuNzM0NCI+TG9jYWwgU3RvcmFnZTwvdGV4dD48L2c+PCEtLWVudGl0eSBQdXNoIE5vdGlmaWNhdGlvbi0tPjxnIGlkPSJlbGVtX1B1c2ggTm90aWZpY2F0aW9uIj48cmVjdCBmaWxsPSIjRkZGRkZGIiBoZWlnaHQ9IjQ0Ljk4NDQiIHJ4PSIyLjUiIHJ5PSIyLjUiIHN0eWxlPSJzdHJva2U6IzE4MTgxODtzdHJva2Utd2lkdGg6MC41OyIgd2lkdGg9IjE1OSIgeD0iMjM4LjUiIHk9IjQwMy41Ii8+PHJlY3QgZmlsbD0iI0ZGRkZGRiIgaGVpZ2h0PSIxMCIgc3R5bGU9InN0cm9rZTojMTgxODE4O3N0cm9rZS13aWR0aDowLjU7IiB3aWR0aD0iMTUiIHg9IjM3Ny41IiB5PSI0MDguNSIvPjxyZWN0IGZpbGw9IiNGRkZGRkYiIGhlaWdodD0iMiIgc3R5bGU9InN0cm9rZTojMTgxODE4O3N0cm9rZS13aWR0aDowLjU7IiB3aWR0aD0iNCIgeD0iMzc1LjUiIHk9IjQxMC41Ii8+PHJlY3QgZmlsbD0iI0ZGRkZGRiIgaGVpZ2h0PSIyIiBzdHlsZT0ic3Ryb2tlOiMxODE4MTg7c3Ryb2tlLXdpZHRoOjAuNTsiIHdpZHRoPSI0IiB4PSIzNzUuNSIgeT0iNDE0LjUiLz48dGV4dCBmaWxsPSIjMDAwMDAwIiBmb250LWZhbWlseT0ic2Fucy1zZXJpZiIgZm9udC1zaXplPSIxNCIgbGVuZ3RoQWRqdXN0PSJzcGFjaW5nIiB0ZXh0TGVuZ3RoPSIxMTkiIHg9IjI1My41IiB5PSI0MzYuNzM0NCI+UHVzaCBOb3RpZmljYXRpb248L3RleHQ+PC9nPjwhLS1lbnRpdHkgU3RhdGljIEFzc2V0cy0tPjxnIGlkPSJlbGVtX1N0YXRpYyBBc3NldHMiPjxyZWN0IGZpbGw9IiNGRkZGRkYiIGhlaWdodD0iNDQuOTg0NCIgcng9IjIuNSIgcnk9IjIuNSIgc3R5bGU9InN0cm9rZTojMTgxODE4O3N0cm9rZS13aWR0aDowLjU7IiB3aWR0aD0iMTMxIiB4PSIyMzQ3LjUiIHk9IjQwMy41Ii8+PHJlY3QgZmlsbD0iI0ZGRkZGRiIgaGVpZ2h0PSIxMCIgc3R5bGU9InN0cm9rZTojMTgxODE4O3N0cm9rZS13aWR0aDowLjU7IiB3aWR0aD0iMTUiIHg9IjI0NTguNSIgeT0iNDA4LjUiLz48cmVjdCBmaWxsPSIjRkZGRkZGIiBoZWlnaHQ9IjIiIHN0eWxlPSJzdHJva2U6IzE4MTgxODtzdHJva2Utd2lkdGg6MC41OyIgd2lkdGg9IjQiIHg9IjI0NTYuNSIgeT0iNDEwLjUiLz48cmVjdCBmaWxsPSIjRkZGRkZGIiBoZWlnaHQ9IjIiIHN0eWxlPSJzdHJva2U6IzE4MTgxODtzdHJva2Utd2lkdGg6MC41OyIgd2lkdGg9IjQiIHg9IjI0NTYuNSIgeT0iNDE0LjUiLz48dGV4dCBmaWxsPSIjMDAwMDAwIiBmb250LWZhbWlseT0ic2Fucy1zZXJpZiIgZm9udC1zaXplPSIxNCIgbGVuZ3RoQWRqdXN0PSJzcGFjaW5nIiB0ZXh0TGVuZ3RoPSI5MSIgeD0iMjM2Mi41IiB5PSI0MzYuNzM0NCI+U3RhdGljIEFzc2V0czwvdGV4dD48L2c+PCEtLWVudGl0eSBQcm9kdWN0IEltYWdlcyBDYWNoZS0tPjxnIGlkPSJlbGVtX1Byb2R1Y3QgSW1hZ2VzIENhY2hlIj48cmVjdCBmaWxsPSIjRkZGRkZGIiBoZWlnaHQ9IjQ0Ljk4NDQiIHJ4PSIyLjUiIHJ5PSIyLjUiIHN0eWxlPSJzdHJva2U6IzE4MTgxODtzdHJva2Utd2lkdGg6MC41OyIgd2lkdGg9IjE4MSIgeD0iMjUxMy41IiB5PSI0MDMuNSIvPjxyZWN0IGZpbGw9IiNGRkZGRkYiIGhlaWdodD0iMTAiIHN0eWxlPSJzdHJva2U6IzE4MTgxODtzdHJva2Utd2lkdGg6MC41OyIgd2lkdGg9IjE1IiB4PSIyNjc0LjUiIHk9IjQwOC41Ii8+PHJlY3QgZmlsbD0iI0ZGRkZGRiIgaGVpZ2h0PSIyIiBzdHlsZT0ic3Ryb2tlOiMxODE4MTg7c3Ryb2tlLXdpZHRoOjAuNTsiIHdpZHRoPSI0IiB4PSIyNjcyLjUiIHk9IjQxMC41Ii8+PHJlY3QgZmlsbD0iI0ZGRkZGRiIgaGVpZ2h0PSIyIiBzdHlsZT0ic3Ryb2tlOiMxODE4MTg7c3Ryb2tlLXdpZHRoOjAuNTsiIHdpZHRoPSI0IiB4PSIyNjcyLjUiIHk9IjQxNC41Ii8+PHRleHQgZmlsbD0iIzAwMDAwMCIgZm9udC1mYW1pbHk9InNhbnMtc2VyaWYiIGZvbnQtc2l6ZT0iMTQiIGxlbmd0aEFkanVzdD0ic3BhY2luZyIgdGV4dExlbmd0aD0iMTQxIiB4PSIyNTI4LjUiIHk9IjQzNi43MzQ0Ij5Qcm9kdWN0IEltYWdlcyBDYWNoZTwvdGV4dD48L2c+PCEtLWVudGl0eSBVSSBSZXNvdXJjZXMtLT48ZyBpZD0iZWxlbV9VSSBSZXNvdXJjZXMiPjxyZWN0IGZpbGw9IiNGRkZGRkYiIGhlaWdodD0iNDQuOTg0NCIgcng9IjIuNSIgcnk9IjIuNSIgc3R5bGU9InN0cm9rZTojMTgxODE4O3N0cm9rZS13aWR0aDowLjU7IiB3aWR0aD0iMTI0IiB4PSIyMzUxIiB5PSI3MDMuNSIvPjxyZWN0IGZpbGw9IiNGRkZGRkYiIGhlaWdodD0iMTAiIHN0eWxlPSJzdHJva2U6IzE4MTgxODtzdHJva2Utd2lkdGg6MC41OyIgd2lkdGg9IjE1IiB4PSIyNDU1IiB5PSI3MDguNSIvPjxyZWN0IGZpbGw9IiNGRkZGRkYiIGhlaWdodD0iMiIgc3R5bGU9InN0cm9rZTojMTgxODE4O3N0cm9rZS13aWR0aDowLjU7IiB3aWR0aD0iNCIgeD0iMjQ1MyIgeT0iNzEwLjUiLz48cmVjdCBmaWxsPSIjRkZGRkZGIiBoZWlnaHQ9IjIiIHN0eWxlPSJzdHJva2U6IzE4MTgxODtzdHJva2Utd2lkdGg6MC41OyIgd2lkdGg9IjQiIHg9IjI0NTMiIHk9IjcxNC41Ii8+PHRleHQgZmlsbD0iIzAwMDAwMCIgZm9udC1mYW1pbHk9InNhbnMtc2VyaWYiIGZvbnQtc2l6ZT0iMTQiIGxlbmd0aEFkanVzdD0ic3BhY2luZyIgdGV4dExlbmd0aD0iODQiIHg9IjIzNjYiIHk9IjczNi43MzQ0Ij5VSSBSZXNvdXJjZXM8L3RleHQ+PC9nPjwhLS1lbnRpdHkgU1NMIFRlcm1pbmF0aW9uLS0+PGcgaWQ9ImVsZW1fU1NMIFRlcm1pbmF0aW9uIj48cmVjdCBmaWxsPSIjRkZGRkZGIiBoZWlnaHQ9IjQ0Ljk4NDQiIHJ4PSIyLjUiIHJ5PSIyLjUiIHN0eWxlPSJzdHJva2U6IzE4MTgxODtzdHJva2Utd2lkdGg6MC41OyIgd2lkdGg9IjE0NiIgeD0iNzc3IiB5PSI0MDMuNSIvPjxyZWN0IGZpbGw9IiNGRkZGRkYiIGhlaWdodD0iMTAiIHN0eWxlPSJzdHJva2U6IzE4MTgxODtzdHJva2Utd2lkdGg6MC41OyIgd2lkdGg9IjE1IiB4PSI5MDMiIHk9IjQwOC41Ii8+PHJlY3QgZmlsbD0iI0ZGRkZGRiIgaGVpZ2h0PSIyIiBzdHlsZT0ic3Ryb2tlOiMxODE4MTg7c3Ryb2tlLXdpZHRoOjAuNTsiIHdpZHRoPSI0IiB4PSI5MDEiIHk9IjQxMC41Ii8+PHJlY3QgZmlsbD0iI0ZGRkZGRiIgaGVpZ2h0PSIyIiBzdHlsZT0ic3Ryb2tlOiMxODE4MTg7c3Ryb2tlLXdpZHRoOjAuNTsiIHdpZHRoPSI0IiB4PSI5MDEiIHk9IjQxNC41Ii8+PHRleHQgZmlsbD0iIzAwMDAwMCIgZm9udC1mYW1pbHk9InNhbnMtc2VyaWYiIGZvbnQtc2l6ZT0iMTQiIGxlbmd0aEFkanVzdD0ic3BhY2luZyIgdGV4dExlbmd0aD0iMTA2IiB4PSI3OTIiIHk9IjQzNi43MzQ0Ij5TU0wgVGVybWluYXRpb248L3RleHQ+PC9nPjwhLS1lbnRpdHkgUmF0ZSBMaW1pdGluZy0tPjxnIGlkPSJlbGVtX1JhdGUgTGltaXRpbmciPjxyZWN0IGZpbGw9IiNGRkZGRkYiIGhlaWdodD0iNDQuOTg0NCIgcng9IjIuNSIgcnk9IjIuNSIgc3R5bGU9InN0cm9rZTojMTgxODE4O3N0cm9rZS13aWR0aDowLjU7IiB3aWR0aD0iMTMyIiB4PSI5NTgiIHk9IjQwMy41Ii8+PHJlY3QgZmlsbD0iI0ZGRkZGRiIgaGVpZ2h0PSIxMCIgc3R5bGU9InN0cm9rZTojMTgxODE4O3N0cm9rZS13aWR0aDowLjU7IiB3aWR0aD0iMTUiIHg9IjEwNzAiIHk9IjQwOC41Ii8+PHJlY3QgZmlsbD0iI0ZGRkZGRiIgaGVpZ2h0PSIyIiBzdHlsZT0ic3Ryb2tlOiMxODE4MTg7c3Ryb2tlLXdpZHRoOjAuNTsiIHdpZHRoPSI0IiB4PSIxMDY4IiB5PSI0MTAuNSIvPjxyZWN0IGZpbGw9IiNGRkZGRkYiIGhlaWdodD0iMiIgc3R5bGU9InN0cm9rZTojMTgxODE4O3N0cm9rZS13aWR0aDowLjU7IiB3aWR0aD0iNCIgeD0iMTA2OCIgeT0iNDE0LjUiLz48dGV4dCBmaWxsPSIjMDAwMDAwIiBmb250LWZhbWlseT0ic2Fucy1zZXJpZiIgZm9udC1zaXplPSIxNCIgbGVuZ3RoQWRqdXN0PSJzcGFjaW5nIiB0ZXh0TGVuZ3RoPSI5MiIgeD0iOTczIiB5PSI0MzYuNzM0NCI+UmF0ZSBMaW1pdGluZzwvdGV4dD48L2c+PCEtLWVudGl0eSBSZXF1ZXN0IFJvdXRpbmctLT48ZyBpZD0iZWxlbV9SZXF1ZXN0IFJvdXRpbmciPjxyZWN0IGZpbGw9IiNGRkZGRkYiIGhlaWdodD0iNDQuOTg0NCIgcng9IjIuNSIgcnk9IjIuNSIgc3R5bGU9InN0cm9rZTojMTgxODE4O3N0cm9rZS13aWR0aDowLjU7IiB3aWR0aD0iMTQ1IiB4PSI3NzcuNSIgeT0iNzAzLjUiLz48cmVjdCBmaWxsPSIjRkZGRkZGIiBoZWlnaHQ9IjEwIiBzdHlsZT0ic3Ryb2tlOiMxODE4MTg7c3Ryb2tlLXdpZHRoOjAuNTsiIHdpZHRoPSIxNSIgeD0iOTAyLjUiIHk9IjcwOC41Ii8+PHJlY3QgZmlsbD0iI0ZGRkZGRiIgaGVpZ2h0PSIyIiBzdHlsZT0ic3Ryb2tlOiMxODE4MTg7c3Ryb2tlLXdpZHRoOjAuNTsiIHdpZHRoPSI0IiB4PSI5MDAuNSIgeT0iNzEwLjUiLz48cmVjdCBmaWxsPSIjRkZGRkZGIiBoZWlnaHQ9IjIiIHN0eWxlPSJzdHJva2U6IzE4MTgxODtzdHJva2Utd2lkdGg6MC41OyIgd2lkdGg9IjQiIHg9IjkwMC41IiB5PSI3MTQuNSIvPjx0ZXh0IGZpbGw9IiMwMDAwMDAiIGZvbnQtZmFtaWx5PSJzYW5zLXNlcmlmIiBmb250LXNpemU9IjE0IiBsZW5ndGhBZGp1c3Q9InNwYWNpbmciIHRleHRMZW5ndGg9IjEwNSIgeD0iNzkyLjUiIHk9IjczNi43MzQ0Ij5SZXF1ZXN0IFJvdXRpbmc8L3RleHQ+PC9nPjwhLS1lbnRpdHkgU2VjdXJpdHkgTGF5ZXItLT48ZyBpZD0iZWxlbV9TZWN1cml0eSBMYXllciI+PHJlY3QgZmlsbD0iI0ZGRkZGRiIgaGVpZ2h0PSI0NC45ODQ0IiByeD0iMi41IiByeT0iMi41IiBzdHlsZT0ic3Ryb2tlOiMxODE4MTg7c3Ryb2tlLXdpZHRoOjAuNTsiIHdpZHRoPSIxMzgiIHg9IjE2MzQiIHk9IjcwMy41Ii8+PHJlY3QgZmlsbD0iI0ZGRkZGRiIgaGVpZ2h0PSIxMCIgc3R5bGU9InN0cm9rZTojMTgxODE4O3N0cm9rZS13aWR0aDowLjU7IiB3aWR0aD0iMTUiIHg9IjE3NTIiIHk9IjcwOC41Ii8+PHJlY3QgZmlsbD0iI0ZGRkZGRiIgaGVpZ2h0PSIyIiBzdHlsZT0ic3Ryb2tlOiMxODE4MTg7c3Ryb2tlLXdpZHRoOjAuNTsiIHdpZHRoPSI0IiB4PSIxNzUwIiB5PSI3MTAuNSIvPjxyZWN0IGZpbGw9IiNGRkZGRkYiIGhlaWdodD0iMiIgc3R5bGU9InN0cm9rZTojMTgxODE4O3N0cm9rZS13aWR0aDowLjU7IiB3aWR0aD0iNCIgeD0iMTc1MCIgeT0iNzE0LjUiLz48dGV4dCBmaWxsPSIjMDAwMDAwIiBmb250LWZhbWlseT0ic2Fucy1zZXJpZiIgZm9udC1zaXplPSIxNCIgbGVuZ3RoQWRqdXN0PSJzcGFjaW5nIiB0ZXh0TGVuZ3RoPSI5OCIgeD0iMTY0OSIgeT0iNzM2LjczNDQiPlNlY3VyaXR5IExheWVyPC90ZXh0PjwvZz48IS0tZW50aXR5IEpXVCBBdXRoZW50aWNhdGlvbi0tPjxnIGlkPSJlbGVtX0pXVCBBdXRoZW50aWNhdGlvbiI+PHJlY3QgZmlsbD0iI0ZGRkZGRiIgaGVpZ2h0PSI0NC45ODQ0IiByeD0iMi41IiByeT0iMi41IiBzdHlsZT0ic3Ryb2tlOiMxODE4MTg7c3Ryb2tlLXdpZHRoOjAuNTsiIHdpZHRoPSIxNjciIHg9IjE4MDcuNSIgeT0iNzAzLjUiLz48cmVjdCBmaWxsPSIjRkZGRkZGIiBoZWlnaHQ9IjEwIiBzdHlsZT0ic3Ryb2tlOiMxODE4MTg7c3Ryb2tlLXdpZHRoOjAuNTsiIHdpZHRoPSIxNSIgeD0iMTk1NC41IiB5PSI3MDguNSIvPjxyZWN0IGZpbGw9IiNGRkZGRkYiIGhlaWdodD0iMiIgc3R5bGU9InN0cm9rZTojMTgxODE4O3N0cm9rZS13aWR0aDowLjU7IiB3aWR0aD0iNCIgeD0iMTk1Mi41IiB5PSI3MTAuNSIvPjxyZWN0IGZpbGw9IiNGRkZGRkYiIGhlaWdodD0iMiIgc3R5bGU9InN0cm9rZTojMTgxODE4O3N0cm9rZS13aWR0aDowLjU7IiB3aWR0aD0iNCIgeD0iMTk1Mi41IiB5PSI3MTQuNSIvPjx0ZXh0IGZpbGw9IiMwMDAwMDAiIGZvbnQtZmFtaWx5PSJzYW5zLXNlcmlmIiBmb250LXNpemU9IjE0IiBsZW5ndGhBZGp1c3Q9InNwYWNpbmciIHRleHRMZW5ndGg9IjEyNyIgeD0iMTgyMi41IiB5PSI3MzYuNzM0NCI+SldUIEF1dGhlbnRpY2F0aW9uPC90ZXh0PjwvZz48IS0tZW50aXR5IFVzZXIgU2VydmljZS0tPjxnIGlkPSJlbGVtX1VzZXIgU2VydmljZSI+PHJlY3QgZmlsbD0iI0ZGRkZGRiIgaGVpZ2h0PSI0NC45ODQ0IiByeD0iMi41IiByeT0iMi41IiBzdHlsZT0ic3Ryb2tlOiMxODE4MTg7c3Ryb2tlLXdpZHRoOjAuNTsiIHdpZHRoPSIxMjQiIHg9IjIwMDkiIHk9IjcwMy41Ii8+PHJlY3QgZmlsbD0iI0ZGRkZGRiIgaGVpZ2h0PSIxMCIgc3R5bGU9InN0cm9rZTojMTgxODE4O3N0cm9rZS13aWR0aDowLjU7IiB3aWR0aD0iMTUiIHg9IjIxMTMiIHk9IjcwOC41Ii8+PHJlY3QgZmlsbD0iI0ZGRkZGRiIgaGVpZ2h0PSIyIiBzdHlsZT0ic3Ryb2tlOiMxODE4MTg7c3Ryb2tlLXdpZHRoOjAuNTsiIHdpZHRoPSI0IiB4PSIyMTExIiB5PSI3MTAuNSIvPjxyZWN0IGZpbGw9IiNGRkZGRkYiIGhlaWdodD0iMiIgc3R5bGU9InN0cm9rZTojMTgxODE4O3N0cm9rZS13aWR0aDowLjU7IiB3aWR0aD0iNCIgeD0iMjExMSIgeT0iNzE0LjUiLz48dGV4dCBmaWxsPSIjMDAwMDAwIiBmb250LWZhbWlseT0ic2Fucy1zZXJpZiIgZm9udC1zaXplPSIxNCIgbGVuZ3RoQWRqdXN0PSJzcGFjaW5nIiB0ZXh0TGVuZ3RoPSI4NCIgeD0iMjAyNCIgeT0iNzM2LjczNDQiPlVzZXIgU2VydmljZTwvdGV4dD48L2c+PCEtLWVudGl0eSBQcm9kdWN0IFNlcnZpY2UtLT48ZyBpZD0iZWxlbV9Qcm9kdWN0IFNlcnZpY2UiPjxyZWN0IGZpbGw9IiNGRkZGRkYiIGhlaWdodD0iNDQuOTg0NCIgcng9IjIuNSIgcnk9IjIuNSIgc3R5bGU9InN0cm9rZTojMTgxODE4O3N0cm9rZS13aWR0aDowLjU7IiB3aWR0aD0iMTQ1IiB4PSIxNjM0LjUiIHk9Ijk2MS41Ii8+PHJlY3QgZmlsbD0iI0ZGRkZGRiIgaGVpZ2h0PSIxMCIgc3R5bGU9InN0cm9rZTojMTgxODE4O3N0cm9rZS13aWR0aDowLjU7IiB3aWR0aD0iMTUiIHg9IjE3NTkuNSIgeT0iOTY2LjUiLz48cmVjdCBmaWxsPSIjRkZGRkZGIiBoZWlnaHQ9IjIiIHN0eWxlPSJzdHJva2U6IzE4MTgxODtzdHJva2Utd2lkdGg6MC41OyIgd2lkdGg9IjQiIHg9IjE3NTcuNSIgeT0iOTY4LjUiLz48cmVjdCBmaWxsPSIjRkZGRkZGIiBoZWlnaHQ9IjIiIHN0eWxlPSJzdHJva2U6IzE4MTgxODtzdHJva2Utd2lkdGg6MC41OyIgd2lkdGg9IjQiIHg9IjE3NTcuNSIgeT0iOTcyLjUiLz48dGV4dCBmaWxsPSIjMDAwMDAwIiBmb250LWZhbWlseT0ic2Fucy1zZXJpZiIgZm9udC1zaXplPSIxNCIgbGVuZ3RoQWRqdXN0PSJzcGFjaW5nIiB0ZXh0TGVuZ3RoPSIxMDUiIHg9IjE2NDkuNSIgeT0iOTk0LjczNDQiPlByb2R1Y3QgU2VydmljZTwvdGV4dD48L2c+PCEtLWVudGl0eSBPcmRlciBTZXJ2aWNlLS0+PGcgaWQ9ImVsZW1fT3JkZXIgU2VydmljZSI+PHJlY3QgZmlsbD0iI0ZGRkZGRiIgaGVpZ2h0PSI0NC45ODQ0IiByeD0iMi41IiByeT0iMi41IiBzdHlsZT0ic3Ryb2tlOiMxODE4MTg7c3Ryb2tlLXdpZHRoOjAuNTsiIHdpZHRoPSIxMzEiIHg9IjE4MTQuNSIgeT0iOTYxLjUiLz48cmVjdCBmaWxsPSIjRkZGRkZGIiBoZWlnaHQ9IjEwIiBzdHlsZT0ic3Ryb2tlOiMxODE4MTg7c3Ryb2tlLXdpZHRoOjAuNTsiIHdpZHRoPSIxNSIgeD0iMTkyNS41IiB5PSI5NjYuNSIvPjxyZWN0IGZpbGw9IiNGRkZGRkYiIGhlaWdodD0iMiIgc3R5bGU9InN0cm9rZTojMTgxODE4O3N0cm9rZS13aWR0aDowLjU7IiB3aWR0aD0iNCIgeD0iMTkyMy41IiB5PSI5NjguNSIvPjxyZWN0IGZpbGw9IiNGRkZGRkYiIGhlaWdodD0iMiIgc3R5bGU9InN0cm9rZTojMTgxODE4O3N0cm9rZS13aWR0aDowLjU7IiB3aWR0aD0iNCIgeD0iMTkyMy41IiB5PSI5NzIuNSIvPjx0ZXh0IGZpbGw9IiMwMDAwMDAiIGZvbnQtZmFtaWx5PSJzYW5zLXNlcmlmIiBmb250LXNpemU9IjE0IiBsZW5ndGhBZGp1c3Q9InNwYWNpbmciIHRleHRMZW5ndGg9IjkxIiB4PSIxODI5LjUiIHk9Ijk5NC43MzQ0Ij5PcmRlciBTZXJ2aWNlPC90ZXh0PjwvZz48IS0tZW50aXR5IENhcnQgU2VydmljZS0tPjxnIGlkPSJlbGVtX0NhcnQgU2VydmljZSI+PHJlY3QgZmlsbD0iI0ZGRkZGRiIgaGVpZ2h0PSI0NC45ODQ0IiByeD0iMi41IiByeT0iMi41IiBzdHlsZT0ic3Ryb2tlOiMxODE4MTg7c3Ryb2tlLXdpZHRoOjAuNTsiIHdpZHRoPSIxMjQiIHg9IjE5ODEiIHk9Ijk2MS41Ii8+PHJlY3QgZmlsbD0iI0ZGRkZGRiIgaGVpZ2h0PSIxMCIgc3R5bGU9InN0cm9rZTojMTgxODE4O3N0cm9rZS13aWR0aDowLjU7IiB3aWR0aD0iMTUiIHg9IjIwODUiIHk9Ijk2Ni41Ii8+PHJlY3QgZmlsbD0iI0ZGRkZGRiIgaGVpZ2h0PSIyIiBzdHlsZT0ic3Ryb2tlOiMxODE4MTg7c3Ryb2tlLXdpZHRoOjAuNTsiIHdpZHRoPSI0IiB4PSIyMDgzIiB5PSI5NjguNSIvPjxyZWN0IGZpbGw9IiNGRkZGRkYiIGhlaWdodD0iMiIgc3R5bGU9InN0cm9rZTojMTgxODE4O3N0cm9rZS13aWR0aDowLjU7IiB3aWR0aD0iNCIgeD0iMjA4MyIgeT0iOTcyLjUiLz48dGV4dCBmaWxsPSIjMDAwMDAwIiBmb250LWZhbWlseT0ic2Fucy1zZXJpZiIgZm9udC1zaXplPSIxNCIgbGVuZ3RoQWRqdXN0PSJzcGFjaW5nIiB0ZXh0TGVuZ3RoPSI4NCIgeD0iMTk5NiIgeT0iOTk0LjczNDQiPkNhcnQgU2VydmljZTwvdGV4dD48L2c+PCEtLWVudGl0eSBSZXZpZXcgU2VydmljZS0tPjxnIGlkPSJlbGVtX1JldmlldyBTZXJ2aWNlIj48cmVjdCBmaWxsPSIjRkZGRkZGIiBoZWlnaHQ9IjQ0Ljk4NDQiIHJ4PSIyLjUiIHJ5PSIyLjUiIHN0eWxlPSJzdHJva2U6IzE4MTgxODtzdHJva2Utd2lkdGg6MC41OyIgd2lkdGg9IjEzOSIgeD0iMTYzNy41IiB5PSIxMTc5LjUiLz48cmVjdCBmaWxsPSIjRkZGRkZGIiBoZWlnaHQ9IjEwIiBzdHlsZT0ic3Ryb2tlOiMxODE4MTg7c3Ryb2tlLXdpZHRoOjAuNTsiIHdpZHRoPSIxNSIgeD0iMTc1Ni41IiB5PSIxMTg0LjUiLz48cmVjdCBmaWxsPSIjRkZGRkZGIiBoZWlnaHQ9IjIiIHN0eWxlPSJzdHJva2U6IzE4MTgxODtzdHJva2Utd2lkdGg6MC41OyIgd2lkdGg9IjQiIHg9IjE3NTQuNSIgeT0iMTE4Ni41Ii8+PHJlY3QgZmlsbD0iI0ZGRkZGRiIgaGVpZ2h0PSIyIiBzdHlsZT0ic3Ryb2tlOiMxODE4MTg7c3Ryb2tlLXdpZHRoOjAuNTsiIHdpZHRoPSI0IiB4PSIxNzU0LjUiIHk9IjExOTAuNSIvPjx0ZXh0IGZpbGw9IiMwMDAwMDAiIGZvbnQtZmFtaWx5PSJzYW5zLXNlcmlmIiBmb250LXNpemU9IjE0IiBsZW5ndGhBZGp1c3Q9InNwYWNpbmciIHRleHRMZW5ndGg9Ijk5IiB4PSIxNjUyLjUiIHk9IjEyMTIuNzM0NCI+UmV2aWV3IFNlcnZpY2U8L3RleHQ+PC9nPjwhLS1lbnRpdHkgUGF5bWVudCBJbnRlZ3JhdGlvbi0tPjxnIGlkPSJlbGVtX1BheW1lbnQgSW50ZWdyYXRpb24iPjxyZWN0IGZpbGw9IiNGRkZGRkYiIGhlaWdodD0iNDQuOTg0NCIgcng9IjIuNSIgcnk9IjIuNSIgc3R5bGU9InN0cm9rZTojMTgxODE4O3N0cm9rZS13aWR0aDowLjU7IiB3aWR0aD0iMTc0IiB4PSIxODEyIiB5PSIxMTc5LjUiLz48cmVjdCBmaWxsPSIjRkZGRkZGIiBoZWlnaHQ9IjEwIiBzdHlsZT0ic3Ryb2tlOiMxODE4MTg7c3Ryb2tlLXdpZHRoOjAuNTsiIHdpZHRoPSIxNSIgeD0iMTk2NiIgeT0iMTE4NC41Ii8+PHJlY3QgZmlsbD0iI0ZGRkZGRiIgaGVpZ2h0PSIyIiBzdHlsZT0ic3Ryb2tlOiMxODE4MTg7c3Ryb2tlLXdpZHRoOjAuNTsiIHdpZHRoPSI0IiB4PSIxOTY0IiB5PSIxMTg2LjUiLz48cmVjdCBmaWxsPSIjRkZGRkZGIiBoZWlnaHQ9IjIiIHN0eWxlPSJzdHJva2U6IzE4MTgxODtzdHJva2Utd2lkdGg6MC41OyIgd2lkdGg9IjQiIHg9IjE5NjQiIHk9IjExOTAuNSIvPjx0ZXh0IGZpbGw9IiMwMDAwMDAiIGZvbnQtZmFtaWx5PSJzYW5zLXNlcmlmIiBmb250LXNpemU9IjE0IiBsZW5ndGhBZGp1c3Q9InNwYWNpbmciIHRleHRMZW5ndGg9IjEzNCIgeD0iMTgyNyIgeT0iMTIxMi43MzQ0Ij5QYXltZW50IEludGVncmF0aW9uPC90ZXh0PjwvZz48IS0tZW50aXR5IFN3YWdnZXIgQVBJIERvY3MtLT48ZyBpZD0iZWxlbV9Td2FnZ2VyIEFQSSBEb2NzIj48cmVjdCBmaWxsPSIjRkZGRkZGIiBoZWlnaHQ9IjQ0Ljk4NDQiIHJ4PSIyLjUiIHJ5PSIyLjUiIHN0eWxlPSJzdHJva2U6IzE4MTgxODtzdHJva2Utd2lkdGg6MC41OyIgd2lkdGg9IjE1MyIgeD0iMTI3Ny41IiB5PSI3MDMuNSIvPjxyZWN0IGZpbGw9IiNGRkZGRkYiIGhlaWdodD0iMTAiIHN0eWxlPSJzdHJva2U6IzE4MTgxODtzdHJva2Utd2lkdGg6MC41OyIgd2lkdGg9IjE1IiB4PSIxNDEwLjUiIHk9IjcwOC41Ii8+PHJlY3QgZmlsbD0iI0ZGRkZGRiIgaGVpZ2h0PSIyIiBzdHlsZT0ic3Ryb2tlOiMxODE4MTg7c3Ryb2tlLXdpZHRoOjAuNTsiIHdpZHRoPSI0IiB4PSIxNDA4LjUiIHk9IjcxMC41Ii8+PHJlY3QgZmlsbD0iI0ZGRkZGRiIgaGVpZ2h0PSIyIiBzdHlsZT0ic3Ryb2tlOiMxODE4MTg7c3Ryb2tlLXdpZHRoOjAuNTsiIHdpZHRoPSI0IiB4PSIxNDA4LjUiIHk9IjcxNC41Ii8+PHRleHQgZmlsbD0iIzAwMDAwMCIgZm9udC1mYW1pbHk9InNhbnMtc2VyaWYiIGZvbnQtc2l6ZT0iMTQiIGxlbmd0aEFkanVzdD0ic3BhY2luZyIgdGV4dExlbmd0aD0iMTEzIiB4PSIxMjkyLjUiIHk9IjczNi43MzQ0Ij5Td2FnZ2VyIEFQSSBEb2NzPC90ZXh0PjwvZz48IS0tZW50aXR5IEFjdHVhdG9yLS0+PGcgaWQ9ImVsZW1fQWN0dWF0b3IiPjxyZWN0IGZpbGw9IiNGRkZGRkYiIGhlaWdodD0iNDQuOTg0NCIgcng9IjIuNSIgcnk9IjIuNSIgc3R5bGU9InN0cm9rZTojMTgxODE4O3N0cm9rZS13aWR0aDowLjU7IiB3aWR0aD0iOTYiIHg9IjE0NjYiIHk9IjcwMy41Ii8+PHJlY3QgZmlsbD0iI0ZGRkZGRiIgaGVpZ2h0PSIxMCIgc3R5bGU9InN0cm9rZTojMTgxODE4O3N0cm9rZS13aWR0aDowLjU7IiB3aWR0aD0iMTUiIHg9IjE1NDIiIHk9IjcwOC41Ii8+PHJlY3QgZmlsbD0iI0ZGRkZGRiIgaGVpZ2h0PSIyIiBzdHlsZT0ic3Ryb2tlOiMxODE4MTg7c3Ryb2tlLXdpZHRoOjAuNTsiIHdpZHRoPSI0IiB4PSIxNTQwIiB5PSI3MTAuNSIvPjxyZWN0IGZpbGw9IiNGRkZGRkYiIGhlaWdodD0iMiIgc3R5bGU9InN0cm9rZTojMTgxODE4O3N0cm9rZS13aWR0aDowLjU7IiB3aWR0aD0iNCIgeD0iMTU0MCIgeT0iNzE0LjUiLz48dGV4dCBmaWxsPSIjMDAwMDAwIiBmb250LWZhbWlseT0ic2Fucy1zZXJpZiIgZm9udC1zaXplPSIxNCIgbGVuZ3RoQWRqdXN0PSJzcGFjaW5nIiB0ZXh0TGVuZ3RoPSI1NiIgeD0iMTQ4MSIgeT0iNzM2LjczNDQiPkFjdHVhdG9yPC90ZXh0PjwvZz48IS0tZW50aXR5IExvZ2dpbmcgU2VydmljZS0tPjxnIGlkPSJlbGVtX0xvZ2dpbmcgU2VydmljZSI+PHJlY3QgZmlsbD0iI0ZGRkZGRiIgaGVpZ2h0PSI0NC45ODQ0IiByeD0iMi41IiByeT0iMi41IiBzdHlsZT0ic3Ryb2tlOiMxODE4MTg7c3Ryb2tlLXdpZHRoOjAuNTsiIHdpZHRoPSIxNDUiIHg9IjEyODEuNSIgeT0iOTYxLjUiLz48cmVjdCBmaWxsPSIjRkZGRkZGIiBoZWlnaHQ9IjEwIiBzdHlsZT0ic3Ryb2tlOiMxODE4MTg7c3Ryb2tlLXdpZHRoOjAuNTsiIHdpZHRoPSIxNSIgeD0iMTQwNi41IiB5PSI5NjYuNSIvPjxyZWN0IGZpbGw9IiNGRkZGRkYiIGhlaWdodD0iMiIgc3R5bGU9InN0cm9rZTojMTgxODE4O3N0cm9rZS13aWR0aDowLjU7IiB3aWR0aD0iNCIgeD0iMTQwNC41IiB5PSI5NjguNSIvPjxyZWN0IGZpbGw9IiNGRkZGRkYiIGhlaWdodD0iMiIgc3R5bGU9InN0cm9rZTojMTgxODE4O3N0cm9rZS13aWR0aDowLjU7IiB3aWR0aD0iNCIgeD0iMTQwNC41IiB5PSI5NzIuNSIvPjx0ZXh0IGZpbGw9IiMwMDAwMDAiIGZvbnQtZmFtaWx5PSJzYW5zLXNlcmlmIiBmb250LXNpemU9IjE0IiBsZW5ndGhBZGp1c3Q9InNwYWNpbmciIHRleHRMZW5ndGg9IjEwNSIgeD0iMTI5Ni41IiB5PSI5OTQuNzM0NCI+TG9nZ2luZyBTZXJ2aWNlPC90ZXh0PjwvZz48IS0tZW50aXR5IFNlc3Npb24gQ2FjaGUtLT48ZyBpZD0iZWxlbV9TZXNzaW9uIENhY2hlIj48cmVjdCBmaWxsPSIjRkZGRkZGIiBoZWlnaHQ9IjQ0Ljk4NDQiIHJ4PSIyLjUiIHJ5PSIyLjUiIHN0eWxlPSJzdHJva2U6IzE4MTgxODtzdHJva2Utd2lkdGg6MC41OyIgd2lkdGg9IjEzMSIgeD0iMjczNy41IiB5PSI5NjEuNSIvPjxyZWN0IGZpbGw9IiNGRkZGRkYiIGhlaWdodD0iMTAiIHN0eWxlPSJzdHJva2U6IzE4MTgxODtzdHJva2Utd2lkdGg6MC41OyIgd2lkdGg9IjE1IiB4PSIyODQ4LjUiIHk9Ijk2Ni41Ii8+PHJlY3QgZmlsbD0iI0ZGRkZGRiIgaGVpZ2h0PSIyIiBzdHlsZT0ic3Ryb2tlOiMxODE4MTg7c3Ryb2tlLXdpZHRoOjAuNTsiIHdpZHRoPSI0IiB4PSIyODQ2LjUiIHk9Ijk2OC41Ii8+PHJlY3QgZmlsbD0iI0ZGRkZGRiIgaGVpZ2h0PSIyIiBzdHlsZT0ic3Ryb2tlOiMxODE4MTg7c3Ryb2tlLXdpZHRoOjAuNTsiIHdpZHRoPSI0IiB4PSIyODQ2LjUiIHk9Ijk3Mi41Ii8+PHRleHQgZmlsbD0iIzAwMDAwMCIgZm9udC1mYW1pbHk9InNhbnMtc2VyaWYiIGZvbnQtc2l6ZT0iMTQiIGxlbmd0aEFkanVzdD0ic3BhY2luZyIgdGV4dExlbmd0aD0iOTEiIHg9IjI3NTIuNSIgeT0iOTk0LjczNDQiPlNlc3Npb24gQ2FjaGU8L3RleHQ+PC9nPjwhLS1lbnRpdHkgUHJvZHVjdCBDYWNoZS0tPjxnIGlkPSJlbGVtX1Byb2R1Y3QgQ2FjaGUiPjxyZWN0IGZpbGw9IiNGRkZGRkYiIGhlaWdodD0iNDQuOTg0NCIgcng9IjIuNSIgcnk9IjIuNSIgc3R5bGU9InN0cm9rZTojMTgxODE4O3N0cm9rZS13aWR0aDowLjU7IiB3aWR0aD0iMTMxIiB4PSIyOTAzLjUiIHk9Ijk2MS41Ii8+PHJlY3QgZmlsbD0iI0ZGRkZGRiIgaGVpZ2h0PSIxMCIgc3R5bGU9InN0cm9rZTojMTgxODE4O3N0cm9rZS13aWR0aDowLjU7IiB3aWR0aD0iMTUiIHg9IjMwMTQuNSIgeT0iOTY2LjUiLz48cmVjdCBmaWxsPSIjRkZGRkZGIiBoZWlnaHQ9IjIiIHN0eWxlPSJzdHJva2U6IzE4MTgxODtzdHJva2Utd2lkdGg6MC41OyIgd2lkdGg9IjQiIHg9IjMwMTIuNSIgeT0iOTY4LjUiLz48cmVjdCBmaWxsPSIjRkZGRkZGIiBoZWlnaHQ9IjIiIHN0eWxlPSJzdHJva2U6IzE4MTgxODtzdHJva2Utd2lkdGg6MC41OyIgd2lkdGg9IjQiIHg9IjMwMTIuNSIgeT0iOTcyLjUiLz48dGV4dCBmaWxsPSIjMDAwMDAwIiBmb250LWZhbWlseT0ic2Fucy1zZXJpZiIgZm9udC1zaXplPSIxNCIgbGVuZ3RoQWRqdXN0PSJzcGFjaW5nIiB0ZXh0TGVuZ3RoPSI5MSIgeD0iMjkxOC41IiB5PSI5OTQuNzM0NCI+UHJvZHVjdCBDYWNoZTwvdGV4dD48L2c+PCEtLWVudGl0eSBSYXRlIExpbWl0IERhdGEtLT48ZyBpZD0iZWxlbV9SYXRlIExpbWl0IERhdGEiPjxyZWN0IGZpbGw9IiNGRkZGRkYiIGhlaWdodD0iNDQuOTg0NCIgcng9IjIuNSIgcnk9IjIuNSIgc3R5bGU9InN0cm9rZTojMTgxODE4O3N0cm9rZS13aWR0aDowLjU7IiB3aWR0aD0iMTQ2IiB4PSIyNzM3IiB5PSIxMTc5LjUiLz48cmVjdCBmaWxsPSIjRkZGRkZGIiBoZWlnaHQ9IjEwIiBzdHlsZT0ic3Ryb2tlOiMxODE4MTg7c3Ryb2tlLXdpZHRoOjAuNTsiIHdpZHRoPSIxNSIgeD0iMjg2MyIgeT0iMTE4NC41Ii8+PHJlY3QgZmlsbD0iI0ZGRkZGRiIgaGVpZ2h0PSIyIiBzdHlsZT0ic3Ryb2tlOiMxODE4MTg7c3Ryb2tlLXdpZHRoOjAuNTsiIHdpZHRoPSI0IiB4PSIyODYxIiB5PSIxMTg2LjUiLz48cmVjdCBmaWxsPSIjRkZGRkZGIiBoZWlnaHQ9IjIiIHN0eWxlPSJzdHJva2U6IzE4MTgxODtzdHJva2Utd2lkdGg6MC41OyIgd2lkdGg9IjQiIHg9IjI4NjEiIHk9IjExOTAuNSIvPjx0ZXh0IGZpbGw9IiMwMDAwMDAiIGZvbnQtZmFtaWx5PSJzYW5zLXNlcmlmIiBmb250LXNpemU9IjE0IiBsZW5ndGhBZGp1c3Q9InNwYWNpbmciIHRleHRMZW5ndGg9IjEwNiIgeD0iMjc1MiIgeT0iMTIxMi43MzQ0Ij5SYXRlIExpbWl0IERhdGE8L3RleHQ+PC9nPjwhLS1lbnRpdHkgTWFzdGVyIERCLS0+PGcgaWQ9ImVsZW1fTWFzdGVyIERCIj48cmVjdCBmaWxsPSIjRkZGRkZGIiBoZWlnaHQ9IjQ0Ljk4NDQiIHJ4PSIyLjUiIHJ5PSIyLjUiIHN0eWxlPSJzdHJva2U6IzE4MTgxODtzdHJva2Utd2lkdGg6MC41OyIgd2lkdGg9IjEwMyIgeD0iMjM0Ny41IiB5PSIxMTc5LjUiLz48cmVjdCBmaWxsPSIjRkZGRkZGIiBoZWlnaHQ9IjEwIiBzdHlsZT0ic3Ryb2tlOiMxODE4MTg7c3Ryb2tlLXdpZHRoOjAuNTsiIHdpZHRoPSIxNSIgeD0iMjQzMC41IiB5PSIxMTg0LjUiLz48cmVjdCBmaWxsPSIjRkZGRkZGIiBoZWlnaHQ9IjIiIHN0eWxlPSJzdHJva2U6IzE4MTgxODtzdHJva2Utd2lkdGg6MC41OyIgd2lkdGg9IjQiIHg9IjI0MjguNSIgeT0iMTE4Ni41Ii8+PHJlY3QgZmlsbD0iI0ZGRkZGRiIgaGVpZ2h0PSIyIiBzdHlsZT0ic3Ryb2tlOiMxODE4MTg7c3Ryb2tlLXdpZHRoOjAuNTsiIHdpZHRoPSI0IiB4PSIyNDI4LjUiIHk9IjExOTAuNSIvPjx0ZXh0IGZpbGw9IiMwMDAwMDAiIGZvbnQtZmFtaWx5PSJzYW5zLXNlcmlmIiBmb250LXNpemU9IjE0IiBsZW5ndGhBZGp1c3Q9InNwYWNpbmciIHRleHRMZW5ndGg9IjYzIiB4PSIyMzYyLjUiIHk9IjEyMTIuNzM0NCI+TWFzdGVyIERCPC90ZXh0PjwvZz48IS0tZW50aXR5IFNsYXZlIERCLS0+PGcgaWQ9ImVsZW1fU2xhdmUgREIiPjxyZWN0IGZpbGw9IiNGRkZGRkYiIGhlaWdodD0iNDQuOTg0NCIgcng9IjIuNSIgcnk9IjIuNSIgc3R5bGU9InN0cm9rZTojMTgxODE4O3N0cm9rZS13aWR0aDowLjU7IiB3aWR0aD0iOTYiIHg9IjI0ODYiIHk9IjExNzkuNSIvPjxyZWN0IGZpbGw9IiNGRkZGRkYiIGhlaWdodD0iMTAiIHN0eWxlPSJzdHJva2U6IzE4MTgxODtzdHJva2Utd2lkdGg6MC41OyIgd2lkdGg9IjE1IiB4PSIyNTYyIiB5PSIxMTg0LjUiLz48cmVjdCBmaWxsPSIjRkZGRkZGIiBoZWlnaHQ9IjIiIHN0eWxlPSJzdHJva2U6IzE4MTgxODtzdHJva2Utd2lkdGg6MC41OyIgd2lkdGg9IjQiIHg9IjI1NjAiIHk9IjExODYuNSIvPjxyZWN0IGZpbGw9IiNGRkZGRkYiIGhlaWdodD0iMiIgc3R5bGU9InN0cm9rZTojMTgxODE4O3N0cm9rZS13aWR0aDowLjU7IiB3aWR0aD0iNCIgeD0iMjU2MCIgeT0iMTE5MC41Ii8+PHRleHQgZmlsbD0iIzAwMDAwMCIgZm9udC1mYW1pbHk9InNhbnMtc2VyaWYiIGZvbnQtc2l6ZT0iMTQiIGxlbmd0aEFkanVzdD0ic3BhY2luZyIgdGV4dExlbmd0aD0iNTYiIHg9IjI1MDEiIHk9IjEyMTIuNzM0NCI+U2xhdmUgREI8L3RleHQ+PC9nPjwhLS1lbnRpdHkgQmFja3VwIERCLS0+PGcgaWQ9ImVsZW1fQmFja3VwIERCIj48cmVjdCBmaWxsPSIjRkZGRkZGIiBoZWlnaHQ9IjQ0Ljk4NDQiIHJ4PSIyLjUiIHJ5PSIyLjUiIHN0eWxlPSJzdHJva2U6IzE4MTgxODtzdHJva2Utd2lkdGg6MC41OyIgd2lkdGg9IjEwMyIgeD0iMjM0Ny41IiB5PSIxMzY3LjUiLz48cmVjdCBmaWxsPSIjRkZGRkZGIiBoZWlnaHQ9IjEwIiBzdHlsZT0ic3Ryb2tlOiMxODE4MTg7c3Ryb2tlLXdpZHRoOjAuNTsiIHdpZHRoPSIxNSIgeD0iMjQzMC41IiB5PSIxMzcyLjUiLz48cmVjdCBmaWxsPSIjRkZGRkZGIiBoZWlnaHQ9IjIiIHN0eWxlPSJzdHJva2U6IzE4MTgxODtzdHJva2Utd2lkdGg6MC41OyIgd2lkdGg9IjQiIHg9IjI0MjguNSIgeT0iMTM3NC41Ii8+PHJlY3QgZmlsbD0iI0ZGRkZGRiIgaGVpZ2h0PSIyIiBzdHlsZT0ic3Ryb2tlOiMxODE4MTg7c3Ryb2tlLXdpZHRoOjAuNTsiIHdpZHRoPSI0IiB4PSIyNDI4LjUiIHk9IjEzNzguNSIvPjx0ZXh0IGZpbGw9IiMwMDAwMDAiIGZvbnQtZmFtaWx5PSJzYW5zLXNlcmlmIiBmb250LXNpemU9IjE0IiBsZW5ndGhBZGp1c3Q9InNwYWNpbmciIHRleHRMZW5ndGg9IjYzIiB4PSIyMzYyLjUiIHk9IjE0MDAuNzM0NCI+QmFja3VwIERCPC90ZXh0PjwvZz48IS0tZW50aXR5IFMzL09TUy0tPjxnIGlkPSJlbGVtX1MzL09TUyI+PHJlY3QgZmlsbD0iI0ZGRkZGRiIgaGVpZ2h0PSI0NC45ODQ0IiByeD0iMi41IiByeT0iMi41IiBzdHlsZT0ic3Ryb2tlOiMxODE4MTg7c3Ryb2tlLXdpZHRoOjAuNTsiIHdpZHRoPSI4MiIgeD0iMzE5MCIgeT0iOTYxLjUiLz48cmVjdCBmaWxsPSIjRkZGRkZGIiBoZWlnaHQ9IjEwIiBzdHlsZT0ic3Ryb2tlOiMxODE4MTg7c3Ryb2tlLXdpZHRoOjAuNTsiIHdpZHRoPSIxNSIgeD0iMzI1MiIgeT0iOTY2LjUiLz48cmVjdCBmaWxsPSIjRkZGRkZGIiBoZWlnaHQ9IjIiIHN0eWxlPSJzdHJva2U6IzE4MTgxODtzdHJva2Utd2lkdGg6MC41OyIgd2lkdGg9IjQiIHg9IjMyNTAiIHk9Ijk2OC41Ii8+PHJlY3QgZmlsbD0iI0ZGRkZGRiIgaGVpZ2h0PSIyIiBzdHlsZT0ic3Ryb2tlOiMxODE4MTg7c3Ryb2tlLXdpZHRoOjAuNTsiIHdpZHRoPSI0IiB4PSIzMjUwIiB5PSI5NzIuNSIvPjx0ZXh0IGZpbGw9IiMwMDAwMDAiIGZvbnQtZmFtaWx5PSJzYW5zLXNlcmlmIiBmb250LXNpemU9IjE0IiBsZW5ndGhBZGp1c3Q9InNwYWNpbmciIHRleHRMZW5ndGg9IjQyIiB4PSIzMjA1IiB5PSI5OTQuNzM0NCI+UzMvT1NTPC90ZXh0PjwvZz48IS0tZW50aXR5IFByb2R1Y3QgSW1hZ2VzLS0+PGcgaWQ9ImVsZW1fUHJvZHVjdCBJbWFnZXMiPjxyZWN0IGZpbGw9IiNGRkZGRkYiIGhlaWdodD0iNDQuOTg0NCIgcng9IjIuNSIgcnk9IjIuNSIgc3R5bGU9InN0cm9rZTojMTgxODE4O3N0cm9rZS13aWR0aDowLjU7IiB3aWR0aD0iMTM5IiB4PSIzMzA3LjUiIHk9Ijk2MS41Ii8+PHJlY3QgZmlsbD0iI0ZGRkZGRiIgaGVpZ2h0PSIxMCIgc3R5bGU9InN0cm9rZTojMTgxODE4O3N0cm9rZS13aWR0aDowLjU7IiB3aWR0aD0iMTUiIHg9IjM0MjYuNSIgeT0iOTY2LjUiLz48cmVjdCBmaWxsPSIjRkZGRkZGIiBoZWlnaHQ9IjIiIHN0eWxlPSJzdHJva2U6IzE4MTgxODtzdHJva2Utd2lkdGg6MC41OyIgd2lkdGg9IjQiIHg9IjM0MjQuNSIgeT0iOTY4LjUiLz48cmVjdCBmaWxsPSIjRkZGRkZGIiBoZWlnaHQ9IjIiIHN0eWxlPSJzdHJva2U6IzE4MTgxODtzdHJva2Utd2lkdGg6MC41OyIgd2lkdGg9IjQiIHg9IjM0MjQuNSIgeT0iOTcyLjUiLz48dGV4dCBmaWxsPSIjMDAwMDAwIiBmb250LWZhbWlseT0ic2Fucy1zZXJpZiIgZm9udC1zaXplPSIxNCIgbGVuZ3RoQWRqdXN0PSJzcGFjaW5nIiB0ZXh0TGVuZ3RoPSI5OSIgeD0iMzMyMi41IiB5PSI5OTQuNzM0NCI+UHJvZHVjdCBJbWFnZXM8L3RleHQ+PC9nPjwhLS1lbnRpdHkgVXNlciBVcGxvYWRzLS0+PGcgaWQ9ImVsZW1fVXNlciBVcGxvYWRzIj48cmVjdCBmaWxsPSIjRkZGRkZGIiBoZWlnaHQ9IjQ0Ljk4NDQiIHJ4PSIyLjUiIHJ5PSIyLjUiIHN0eWxlPSJzdHJva2U6IzE4MTgxODtzdHJva2Utd2lkdGg6MC41OyIgd2lkdGg9IjEyNCIgeD0iMzE5MCIgeT0iMTE3OS41Ii8+PHJlY3QgZmlsbD0iI0ZGRkZGRiIgaGVpZ2h0PSIxMCIgc3R5bGU9InN0cm9rZTojMTgxODE4O3N0cm9rZS13aWR0aDowLjU7IiB3aWR0aD0iMTUiIHg9IjMyOTQiIHk9IjExODQuNSIvPjxyZWN0IGZpbGw9IiNGRkZGRkYiIGhlaWdodD0iMiIgc3R5bGU9InN0cm9rZTojMTgxODE4O3N0cm9rZS13aWR0aDowLjU7IiB3aWR0aD0iNCIgeD0iMzI5MiIgeT0iMTE4Ni41Ii8+PHJlY3QgZmlsbD0iI0ZGRkZGRiIgaGVpZ2h0PSIyIiBzdHlsZT0ic3Ryb2tlOiMxODE4MTg7c3Ryb2tlLXdpZHRoOjAuNTsiIHdpZHRoPSI0IiB4PSIzMjkyIiB5PSIxMTkwLjUiLz48dGV4dCBmaWxsPSIjMDAwMDAwIiBmb250LWZhbWlseT0ic2Fucy1zZXJpZiIgZm9udC1zaXplPSIxNCIgbGVuZ3RoQWRqdXN0PSJzcGFjaW5nIiB0ZXh0TGVuZ3RoPSI4NCIgeD0iMzIwNSIgeT0iMTIxMi43MzQ0Ij5Vc2VyIFVwbG9hZHM8L3RleHQ+PC9nPjwhLS1lbnRpdHkgUHJvbWV0aGV1cy0tPjxnIGlkPSJlbGVtX1Byb21ldGhldXMiPjxyZWN0IGZpbGw9IiNGRkZGRkYiIGhlaWdodD0iNDQuOTg0NCIgcng9IjIuNSIgcnk9IjIuNSIgc3R5bGU9InN0cm9rZTojMTgxODE4O3N0cm9rZS13aWR0aDowLjU7IiB3aWR0aD0iMTExIiB4PSIzNjAyLjUiIHk9Ijk2MS41Ii8+PHJlY3QgZmlsbD0iI0ZGRkZGRiIgaGVpZ2h0PSIxMCIgc3R5bGU9InN0cm9rZTojMTgxODE4O3N0cm9rZS13aWR0aDowLjU7IiB3aWR0aD0iMTUiIHg9IjM2OTMuNSIgeT0iOTY2LjUiLz48cmVjdCBmaWxsPSIjRkZGRkZGIiBoZWlnaHQ9IjIiIHN0eWxlPSJzdHJva2U6IzE4MTgxODtzdHJva2Utd2lkdGg6MC41OyIgd2lkdGg9IjQiIHg9IjM2OTEuNSIgeT0iOTY4LjUiLz48cmVjdCBmaWxsPSIjRkZGRkZGIiBoZWlnaHQ9IjIiIHN0eWxlPSJzdHJva2U6IzE4MTgxODtzdHJva2Utd2lkdGg6MC41OyIgd2lkdGg9IjQiIHg9IjM2OTEuNSIgeT0iOTcyLjUiLz48dGV4dCBmaWxsPSIjMDAwMDAwIiBmb250LWZhbWlseT0ic2Fucy1zZXJpZiIgZm9udC1zaXplPSIxNCIgbGVuZ3RoQWRqdXN0PSJzcGFjaW5nIiB0ZXh0TGVuZ3RoPSI3MSIgeD0iMzYxNy41IiB5PSI5OTQuNzM0NCI+UHJvbWV0aGV1czwvdGV4dD48L2c+PCEtLWVudGl0eSBHcmFmYW5hLS0+PGcgaWQ9ImVsZW1fR3JhZmFuYSI+PHJlY3QgZmlsbD0iI0ZGRkZGRiIgaGVpZ2h0PSI0NC45ODQ0IiByeD0iMi41IiByeT0iMi41IiBzdHlsZT0ic3Ryb2tlOiMxODE4MTg7c3Ryb2tlLXdpZHRoOjAuNTsiIHdpZHRoPSI4OSIgeD0iMzc0OC41IiB5PSI5NjEuNSIvPjxyZWN0IGZpbGw9IiNGRkZGRkYiIGhlaWdodD0iMTAiIHN0eWxlPSJzdHJva2U6IzE4MTgxODtzdHJva2Utd2lkdGg6MC41OyIgd2lkdGg9IjE1IiB4PSIzODE3LjUiIHk9Ijk2Ni41Ii8+PHJlY3QgZmlsbD0iI0ZGRkZGRiIgaGVpZ2h0PSIyIiBzdHlsZT0ic3Ryb2tlOiMxODE4MTg7c3Ryb2tlLXdpZHRoOjAuNTsiIHdpZHRoPSI0IiB4PSIzODE1LjUiIHk9Ijk2OC41Ii8+PHJlY3QgZmlsbD0iI0ZGRkZGRiIgaGVpZ2h0PSIyIiBzdHlsZT0ic3Ryb2tlOiMxODE4MTg7c3Ryb2tlLXdpZHRoOjAuNTsiIHdpZHRoPSI0IiB4PSIzODE1LjUiIHk9Ijk3Mi41Ii8+PHRleHQgZmlsbD0iIzAwMDAwMCIgZm9udC1mYW1pbHk9InNhbnMtc2VyaWYiIGZvbnQtc2l6ZT0iMTQiIGxlbmd0aEFkanVzdD0ic3BhY2luZyIgdGV4dExlbmd0aD0iNDkiIHg9IjM3NjMuNSIgeT0iOTk0LjczNDQiPkdyYWZhbmE8L3RleHQ+PC9nPjwhLS1lbnRpdHkgQWxlcnQgTWFuYWdlci0tPjxnIGlkPSJlbGVtX0FsZXJ0IE1hbmFnZXIiPjxyZWN0IGZpbGw9IiNGRkZGRkYiIGhlaWdodD0iNDQuOTg0NCIgcng9IjIuNSIgcnk9IjIuNSIgc3R5bGU9InN0cm9rZTojMTgxODE4O3N0cm9rZS13aWR0aDowLjU7IiB3aWR0aD0iMTMxIiB4PSIzNjAzLjUiIHk9IjExNzkuNSIvPjxyZWN0IGZpbGw9IiNGRkZGRkYiIGhlaWdodD0iMTAiIHN0eWxlPSJzdHJva2U6IzE4MTgxODtzdHJva2Utd2lkdGg6MC41OyIgd2lkdGg9IjE1IiB4PSIzNzE0LjUiIHk9IjExODQuNSIvPjxyZWN0IGZpbGw9IiNGRkZGRkYiIGhlaWdodD0iMiIgc3R5bGU9InN0cm9rZTojMTgxODE4O3N0cm9rZS13aWR0aDowLjU7IiB3aWR0aD0iNCIgeD0iMzcxMi41IiB5PSIxMTg2LjUiLz48cmVjdCBmaWxsPSIjRkZGRkZGIiBoZWlnaHQ9IjIiIHN0eWxlPSJzdHJva2U6IzE4MTgxODtzdHJva2Utd2lkdGg6MC41OyIgd2lkdGg9IjQiIHg9IjM3MTIuNSIgeT0iMTE5MC41Ii8+PHRleHQgZmlsbD0iIzAwMDAwMCIgZm9udC1mYW1pbHk9InNhbnMtc2VyaWYiIGZvbnQtc2l6ZT0iMTQiIGxlbmd0aEFkanVzdD0ic3BhY2luZyIgdGV4dExlbmd0aD0iOTEiIHg9IjM2MTguNSIgeT0iMTIxMi43MzQ0Ij5BbGVydCBNYW5hZ2VyPC90ZXh0PjwvZz48ZyBpZD0iZWxlbV9HTU42NCI+PHBhdGggZD0iTTcxMywxOTUuNSBMNzEzLDI0Ny4yNDIyIEw4NzcsMjQ3LjI0MjIgTDg3NywyMDUuNSBMODY3LDE5NS41IEw3MTMsMTk1LjUgIiBmaWxsPSIjRkVGRkREIiBzdHlsZT0ic3Ryb2tlOiMxODE4MTg7c3Ryb2tlLXdpZHRoOjAuNTsiLz48cGF0aCBkPSJNODY3LDE5NS41IEw4NjcsMjA1LjUgTDg3NywyMDUuNSBMODY3LDE5NS41ICIgZmlsbD0iI0ZFRkZERCIgc3R5bGU9InN0cm9rZTojMTgxODE4O3N0cm9rZS13aWR0aDoxLjA7Ii8+PHRleHQgZmlsbD0iIzAwMDAwMCIgZm9udC1mYW1pbHk9InNhbnMtc2VyaWYiIGZvbnQtc2l6ZT0iMTMiIGxlbmd0aEFkanVzdD0ic3BhY2luZyIgdGV4dExlbmd0aD0iMTQzIiB4PSI3MTkiIHk9IjIxMi43ODkxIj5IYW5kbGVzIFVJIHJlbmRlcmluZyw8L3RleHQ+PHRleHQgZmlsbD0iIzAwMDAwMCIgZm9udC1mYW1pbHk9InNhbnMtc2VyaWYiIGZvbnQtc2l6ZT0iMTMiIGxlbmd0aEFkanVzdD0ic3BhY2luZyIgdGV4dExlbmd0aD0iMTEzIiB4PSI3MTkiIHk9IjIyNi43MDMxIj5zdGF0ZSBtYW5hZ2VtZW50LDwvdGV4dD48dGV4dCBmaWxsPSIjMDAwMDAwIiBmb250LWZhbWlseT0ic2Fucy1zZXJpZiIgZm9udC1zaXplPSIxMyIgbGVuZ3RoQWRqdXN0PSJzcGFjaW5nIiB0ZXh0TGVuZ3RoPSIxNDEiIHg9IjcxOSIgeT0iMjQwLjYxNzIiPmFuZCBBUEkgY29tbXVuaWNhdGlvbjwvdGV4dD48L2c+PGcgaWQ9ImVsZW1fR01ONjciPjxwYXRoIGQ9Ik0yNzY3LjUsNDAwIEwyNzY3LjUsNDUxLjc0MjIgTDI5MDAuNSw0NTEuNzQyMiBMMjkwMC41LDQxMCBMMjg5MC41LDQwMCBMMjc2Ny41LDQwMCAiIGZpbGw9IiNGRUZGREQiIHN0eWxlPSJzdHJva2U6IzE4MTgxODtzdHJva2Utd2lkdGg6MC41OyIvPjxwYXRoIGQ9Ik0yODkwLjUsNDAwIEwyODkwLjUsNDEwIEwyOTAwLjUsNDEwIEwyODkwLjUsNDAwICIgZmlsbD0iI0ZFRkZERCIgc3R5bGU9InN0cm9rZTojMTgxODE4O3N0cm9rZS13aWR0aDoxLjA7Ii8+PHRleHQgZmlsbD0iIzAwMDAwMCIgZm9udC1mYW1pbHk9InNhbnMtc2VyaWYiIGZvbnQtc2l6ZT0iMTMiIGxlbmd0aEFkanVzdD0ic3BhY2luZyIgdGV4dExlbmd0aD0iMTAyIiB4PSIyNzczLjUiIHk9IjQxNy4yODkxIj5Mb2FkIGJhbGFuY2luZyw8L3RleHQ+PHRleHQgZmlsbD0iIzAwMDAwMCIgZm9udC1mYW1pbHk9InNhbnMtc2VyaWYiIGZvbnQtc2l6ZT0iMTMiIGxlbmd0aEFkanVzdD0ic3BhY2luZyIgdGV4dExlbmd0aD0iMTA2IiB4PSIyNzczLjUiIHk9IjQzMS4yMDMxIj5TU0wgdGVybWluYXRpb24sPC90ZXh0Pjx0ZXh0IGZpbGw9IiMwMDAwMDAiIGZvbnQtZmFtaWx5PSJzYW5zLXNlcmlmIiBmb250LXNpemU9IjEzIiBsZW5ndGhBZGp1c3Q9InNwYWNpbmciIHRleHRMZW5ndGg9IjExMiIgeD0iMjc3My41IiB5PSI0NDUuMTE3MiI+YW5kIHJhdGUgbGltaXRpbmc8L3RleHQ+PC9nPjxnIGlkPSJlbGVtX0dNTjcwIj48cGF0aCBkPSJNMjc2Nyw3MDcgTDI3NjcsNzQ0LjgyODEgTDI5MTcsNzQ0LjgyODEgTDI5MTcsNzE3IEwyOTA3LDcwNyBMMjc2Nyw3MDcgIiBmaWxsPSIjRkVGRkREIiBzdHlsZT0ic3Ryb2tlOiMxODE4MTg7c3Ryb2tlLXdpZHRoOjAuNTsiLz48cGF0aCBkPSJNMjkwNyw3MDcgTDI5MDcsNzE3IEwyOTE3LDcxNyBMMjkwNyw3MDcgIiBmaWxsPSIjRkVGRkREIiBzdHlsZT0ic3Ryb2tlOiMxODE4MTg7c3Ryb2tlLXdpZHRoOjEuMDsiLz48dGV4dCBmaWxsPSIjMDAwMDAwIiBmb250LWZhbWlseT0ic2Fucy1zZXJpZiIgZm9udC1zaXplPSIxMyIgbGVuZ3RoQWRqdXN0PSJzcGFjaW5nIiB0ZXh0TGVuZ3RoPSIxMjkiIHg9IjI3NzMiIHk9IjcyNC4yODkxIj5NYWluIGJ1c2luZXNzIGxvZ2ljPC90ZXh0Pjx0ZXh0IGZpbGw9IiMwMDAwMDAiIGZvbnQtZmFtaWx5PSJzYW5zLXNlcmlmIiBmb250LXNpemU9IjEzIiBsZW5ndGhBZGp1c3Q9InNwYWNpbmciIHRleHRMZW5ndGg9IjExNiIgeD0iMjc3MyIgeT0iNzM4LjIwMzEiPmFuZCBBUEkgZW5kcG9pbnRzPC90ZXh0PjwvZz48ZyBpZD0iZWxlbV9HTU43MyI+PHBhdGggZD0iTTM5MDkuNSwxMTc2IEwzOTA5LjUsMTIyNy43NDIyIEw0MDY2LjUsMTIyNy43NDIyIEw0MDY2LjUsMTE4NiBMNDA1Ni41LDExNzYgTDM5MDkuNSwxMTc2ICIgZmlsbD0iI0ZFRkZERCIgc3R5bGU9InN0cm9rZTojMTgxODE4O3N0cm9rZS13aWR0aDowLjU7Ii8+PHBhdGggZD0iTTQwNTYuNSwxMTc2IEw0MDU2LjUsMTE4NiBMNDA2Ni41LDExODYgTDQwNTYuNSwxMTc2ICIgZmlsbD0iI0ZFRkZERCIgc3R5bGU9InN0cm9rZTojMTgxODE4O3N0cm9rZS13aWR0aDoxLjA7Ii8+PHRleHQgZmlsbD0iIzAwMDAwMCIgZm9udC1mYW1pbHk9InNhbnMtc2VyaWYiIGZvbnQtc2l6ZT0iMTMiIGxlbmd0aEFkanVzdD0ic3BhY2luZyIgdGV4dExlbmd0aD0iMTM2IiB4PSIzOTE1LjUiIHk9IjExOTMuMjg5MSI+UHJpbWFyeSBkYXRhIHN0b3JhZ2U8L3RleHQ+PHRleHQgZmlsbD0iIzAwMDAwMCIgZm9udC1mYW1pbHk9InNhbnMtc2VyaWYiIGZvbnQtc2l6ZT0iMTMiIGxlbmd0aEFkanVzdD0ic3BhY2luZyIgdGV4dExlbmd0aD0iMTMzIiB4PSIzOTE1LjUiIHk9IjEyMDcuMjAzMSI+d2l0aCByZXBsaWNhdGlvbiBhbmQ8L3RleHQ+PHRleHQgZmlsbD0iIzAwMDAwMCIgZm9udC1mYW1pbHk9InNhbnMtc2VyaWYiIGZvbnQtc2l6ZT0iMTMiIGxlbmd0aEFkanVzdD0ic3BhY2luZyIgdGV4dExlbmd0aD0iMTE3IiB4PSIzOTE1LjUiIHk9IjEyMjEuMTE3MiI+ZGlzYXN0ZXIgcmVjb3Zlcnk8L3RleHQ+PC9nPjwhLS1saW5rIEFuZHJvaWQgRGV2aWNlIHRvIFJlYWN0IE5hdGl2ZSBBcHAtLT48ZyBpZD0ibGlua19BbmRyb2lkIERldmljZV9SZWFjdCBOYXRpdmUgQXBwIj48cGF0aCBkPSJNNjIwLjE5LDg5LjE2IEM2MjUuNjIsMTAzLjkzIDYzMi42OSwxMjQgNjM4LDE0MiBDNjM5LjIyODgsMTQ2LjE3IDY0MC40Mzg2LDE1MC40ODEzIDY0MS42MTYxLDE1NC44Mzg0IEM2NDEuNzYzMywxNTUuMzgzIDY0MS45MDk5LDE1NS45Mjg0IDY0Mi4wNTYxLDE1Ni40NzQzIEM2NDIuMTI5MiwxNTYuNzQ3MiA2NDIuMjAyMSwxNTcuMDIwMyA2NDIuMjc0OSwxNTcuMjkzNSBDNjQyLjMxMTMsMTU3LjQzMDEgNjQwLjgwNTksMTUxLjc2ODIgNjQwLjg0MjIsMTUxLjkwNDggIiBmaWxsPSJub25lIiBpZD0iQW5kcm9pZCBEZXZpY2UtdG8tUmVhY3QgTmF0aXZlIEFwcCIgc3R5bGU9InN0cm9rZTojMTgxODE4O3N0cm9rZS13aWR0aDoxLjA7Ii8+PHBvbHlnb24gZmlsbD0iIzE4MTgxOCIgcG9pbnRzPSI2NDIuMzg0LDE1Ny43MDMzLDY0My45MzcsMTQ3Ljk3NzcsNjQxLjA5OTIsMTUyLjg3MTIsNjM2LjIwNTYsMTUwLjAzMzQsNjQyLjM4NCwxNTcuNzAzMyIgc3R5bGU9InN0cm9rZTojMTgxODE4O3N0cm9rZS13aWR0aDoxLjA7Ii8+PHRleHQgZmlsbD0iIzAwMDAwMCIgZm9udC1mYW1pbHk9InNhbnMtc2VyaWYiIGZvbnQtc2l6ZT0iMTMiIGxlbmd0aEFkanVzdD0ic3BhY2luZyIgdGV4dExlbmd0aD0iNTQiIHg9IjYzNyIgeT0iMTMyLjI4OTEiPmNvbnRhaW5zPC90ZXh0PjwvZz48IS0tbGluayBSZWFjdCBOYXRpdmUgQXBwIHRvIENsb3VkRnJvbnQvQ2xvdWRmbGFyZS0tPjxnIGlkPSJsaW5rX1JlYWN0IE5hdGl2ZSBBcHBfQ2xvdWRGcm9udC9DbG91ZGZsYXJlIj48cGF0aCBkPSJNNjY1LjA3MDMsMjI5LjYyNjUgQzY2NS4xMTY2LDIyOS42NjQ1IDY2NS4xNjMxLDIyOS43MDI1IDY2NS4yMDk4LDIyOS43NDA1IEM2NjUuMzk2NCwyMjkuODkyOSA2NjUuNTg1NSwyMzAuMDQ2NiA2NjUuNzc3MiwyMzAuMjAxNiBDNjY2LjE2MDYsMjMwLjUxMTYgNjY2LjU1NCwyMzAuODI2NiA2NjYuOTU2OSwyMzEuMTQ1OSBDNjY3Ljc2MjgsMjMxLjc4NDQgNjY4LjYwNjksMjMyLjQzOTcgNjY5LjQ4NSwyMzMuMTA1IEM2NzYuNTEsMjM4LjQyNzUgNjg1LjcxNSwyNDQuMzkgNjk1LDI0Ny41IEM3OTMuODMsMjgwLjU3IDEwNTkuMjYsMjY3LjUzIDExNjMsMjc3LjUgQzE0MTcuMjQ1LDMwMS45NDUgMTcwMi4wMSwzMzguNDM3NSAxOTI0LjQ0MTMsMzY5LjAwNzUgQzIwMzUuNjU2OSwzODQuMjkyNSAyMTMxLjI4OTEsMzk4LjA5NjkgMjE5OS43MzExLDQwOC4xNzQ0IEMyMjMzLjk1MjEsNDEzLjIxMzEgMjI2MS4zNzU2LDQxNy4zMjAyIDIyODAuNTUwNyw0MjAuMjE0NyBDMjI5MC4xMzgyLDQyMS42NjIgMjI5Ny42NjM3LDQyMi44MDYxIDIzMDIuOTQ1Nyw0MjMuNjEyIEMyMzAzLjI3NTgsNDIzLjY2MjQgMjI5Ny42NjU5LDQyMi44MDU5IDIyOTcuOTc4NSw0MjIuODUzNiAiIGZpbGw9Im5vbmUiIGlkPSJSZWFjdCBOYXRpdmUgQXBwLXRvLUNsb3VkRnJvbnQvQ2xvdWRmbGFyZSIgc3R5bGU9InN0cm9rZTojMTgxODE4O3N0cm9rZS13aWR0aDoxLjA7Ii8+PHBvbHlnb24gZmlsbD0iIzE4MTgxOCIgcG9pbnRzPSIyMzAzLjkwOTcsNDIzLjc1OTEsMjI5NS42MTY1LDQxOC40NDY2LDIyOTguOTY3LDQyMy4wMDQ1LDIyOTQuNDA5MSw0MjYuMzU1LDIzMDMuOTA5Nyw0MjMuNzU5MSIgc3R5bGU9InN0cm9rZTojMTgxODE4O3N0cm9rZS13aWR0aDoxLjA7Ii8+PHRleHQgZmlsbD0iIzAwMDAwMCIgZm9udC1mYW1pbHk9InNhbnMtc2VyaWYiIGZvbnQtc2l6ZT0iMTMiIGxlbmd0aEFkanVzdD0ic3BhY2luZyIgdGV4dExlbmd0aD0iMzMiIHg9IjEyODgiIHk9IjI5MC43ODkxIj5IVFRQUzwvdGV4dD48L2c+PCEtLWxpbmsgUmVhY3QgTmF0aXZlIEFwcCB0byBOR0lOWC0tPjxnIGlkPSJsaW5rX1JlYWN0IE5hdGl2ZSBBcHBfTkdJTlgiPjxwYXRoIGQ9Ik02NjUuMTM0OCwyMjkuNDQ2NyBDNjY1LjE4MTMsMjI5LjQ4MzkgNjY1LjIyODEsMjI5LjUyMTIgNjY1LjI3NSwyMjkuNTU4NiBDNjY1LjQ2MjUsMjI5LjcwOCA2NjUuNjUyNywyMjkuODU4OCA2NjUuODQ1MywyMzAuMDExIEM2NjYuMjMwNiwyMzAuMzE1MyA2NjYuNjI1OSwyMzAuNjI0OCA2NjcuMDMwNywyMzAuOTM4NyBDNjY3Ljg0MDIsMjMxLjU2NjUgNjY4LjY4NzcsMjMyLjIxMiA2NjkuNTY4NywyMzIuODY4NyBDNjc2LjYxNzUsMjM4LjEyMjUgNjg1LjgyLDI0NC4wOTUgNjk1LDI0Ny41IEM3ODEuMzUsMjc5LjUyIDEwNDAuMTMsMjM2LjE0IDExMDYsMzAwLjUgQzExMTUuODUyNSwzMTAuMTI3NSAxMTIyLjAwNjMsMzIyLjU1NjMgMTEyNS42ODUyLDMzNS44MjQ1IEMxMTI3LjUyNDYsMzQyLjQ1ODcgMTEyOC43NDU0LDM0OS4zMDI3IDExMjkuNTAwNCwzNTYuMTExNCBDMTEyOS42ODkxLDM1Ny44MTM2IDExMjkuODQ4OCwzNTkuNTEzNSAxMTI5Ljk4MTcsMzYxLjIwNzQgQzExMzAuMDE0OSwzNjEuNjMwOSAxMTI5LjYyMjcsMzU2LjA2OSAxMTI5LjY1MjYsMzU2LjQ5MTcgIiBmaWxsPSJub25lIiBpZD0iUmVhY3QgTmF0aXZlIEFwcC10by1OR0lOWCIgc3R5bGU9InN0cm9rZTojMTgxODE4O3N0cm9rZS13aWR0aDoxLjA7Ii8+PHBvbHlnb24gZmlsbD0iIzE4MTgxOCIgcG9pbnRzPSIxMTMwLjA3NjQsMzYyLjQ3NjcsMTEzMy40MzA3LDM1My4yMTY2LDExMjkuNzIzMiwzNTcuNDg5MiwxMTI1LjQ1MDcsMzUzLjc4MTcsMTEzMC4wNzY0LDM2Mi40NzY3IiBzdHlsZT0ic3Ryb2tlOiMxODE4MTg7c3Ryb2tlLXdpZHRoOjEuMDsiLz48dGV4dCBmaWxsPSIjMDAwMDAwIiBmb250LWZhbWlseT0ic2Fucy1zZXJpZiIgZm9udC1zaXplPSIxMyIgbGVuZ3RoQWRqdXN0PSJzcGFjaW5nIiB0ZXh0TGVuZ3RoPSI2MSIgeD0iMTA5MyIgeT0iMjkwLjc4OTEiPkhUVFBTLzQ0MzwvdGV4dD48L2c+PCEtLWxpbmsgTkdJTlggdG8gU3ByaW5nIEJvb3QgQXBwbGljYXRpb24tLT48ZyBpZD0ibGlua19OR0lOWF9TcHJpbmcgQm9vdCBBcHBsaWNhdGlvbiI+PHBhdGggZD0iTTExMzMuMjc4LDQ1MC43MDk4IEMxMTMzLjM5MjUsNDUxLjAzOCAxMTMzLjUwODEsNDUxLjM2OSAxMTMzLjYyNDYsNDUxLjcwMjkgQzExMzQuMDkwNyw0NTMuMDM4NSAxMTM0LjU3MjcsNDU0LjQxOTUgMTEzNS4wNjk5LDQ1NS44NDQgQzExMzcuMDU4NCw0NjEuNTQxOCAxMTM5LjI4OTIsNDY3LjkzMzcgMTE0MS43MTM4LDQ3NC44ODA4IEMxMTUxLjQxMTksNTAyLjY2OTEgMTE2NC4yMSw1MzkuMzQwNiAxMTc3LjAwNzUsNTc2LjAxMTIgQzExODkuODA1LDYxMi42ODE5IDEyMDIuNjAxOSw2NDkuMzUxNiAxMjEyLjI5NzUsNjc3LjEzNjEgQzEyMTQuNzIxNCw2ODQuMDgyMiAxMjE2Ljk1MTUsNjkwLjQ3MyAxMjE4LjkzOTMsNjk2LjE2OTcgQzEyMTkuNDM2Miw2OTcuNTkzOSAxMjE5LjkxOCw2OTguOTc0NyAxMjIwLjM4NCw3MDAuMzA5OSBDMTIyMC41MDA0LDcwMC42NDM3IDEyMjAuNjE1OSw3MDAuOTc0NyAxMjIwLjczMDQsNzAxLjMwMjcgQzEyMjAuNzg3Niw3MDEuNDY2OCAxMjE4Ljg2NzksNjk1Ljk2NTEgMTIxOC45MjQ2LDY5Ni4xMjc3ICIgZmlsbD0ibm9uZSIgaWQ9Ik5HSU5YLXRvLVNwcmluZyBCb290IEFwcGxpY2F0aW9uIiBzdHlsZT0ic3Ryb2tlOiMxODE4MTg7c3Ryb2tlLXdpZHRoOjEuMDsiLz48cG9seWdvbiBmaWxsPSIjMTgxODE4IiBwb2ludHM9IjEyMjAuOTAxNCw3MDEuNzkyNywxMjIxLjcxMyw2OTEuOTc3MywxMjE5LjI1NDEsNjk3LjA3MTgsMTIxNC4xNTk2LDY5NC42MTMsMTIyMC45MDE0LDcwMS43OTI3IiBzdHlsZT0ic3Ryb2tlOiMxODE4MTg7c3Ryb2tlLXdpZHRoOjEuMDsiLz48dGV4dCBmaWxsPSIjMDAwMDAwIiBmb250LWZhbWlseT0ic2Fucy1zZXJpZiIgZm9udC1zaXplPSIxMyIgbGVuZ3RoQWRqdXN0PSJzcGFjaW5nIiB0ZXh0TGVuZ3RoPSI2MSIgeD0iMTE2MiIgeT0iNTMzLjc4OTEiPkhUVFAvODA4MDwvdGV4dD48L2c+PCEtLWxpbmsgQ29yZSBTZXJ2aWNlcyB0byBSZWRpcyBDbHVzdGVyLS0+PGcgaWQ9ImxpbmtfQ29yZSBTZXJ2aWNlc19SZWRpcyBDbHVzdGVyIj48cGF0aCBkPSJNMjE3Ni4xNzkxLDczMS40ODQ1IEMyMTc2LjI5MDQsNzMxLjU0NTQgMjE3Ni40MDI4LDczMS42MDY4IDIxNzYuNTE2Miw3MzEuNjY4NyBDMjE3Ni45Nyw3MzEuOTE2NiAyMTc3LjQ0MDIsNzMyLjE3MzUgMjE3Ny45MjY3LDczMi40MzkgQzIxNzkuODcyNiw3MzMuNTAxMiAyMTgyLjA3NzQsNzM0LjcwMjkgMjE4NC41MTY2LDczNi4wMjk1IEMyMTk0LjI3MzEsNzQxLjMzNTkgMjIwNy43Nzg4LDc0OC42NDA2IDIyMjMuNDU3NSw3NTcuMDA4OCBDMjI1NC44MTUsNzczLjc0NSAyMjk0Ljg2NSw3OTQuNzM1IDIzMzEsODEyLjUgQzI0MTEuMTU1LDg1MS45MDUgMjUwMi4yODI1LDg5My44MjUgMjU3NC4xNjM3LDkyNi4yMzc1IEMyNjEwLjEwNDQsOTQyLjQ0MzggMjY0MS4yMzM0LDk1Ni4yNzMxIDI2NjMuNzczNiw5NjYuMjIyOCBDMjY3NS4wNDM3LDk3MS4xOTc3IDI2ODQuMTY2NSw5NzUuMjAyNiAyNjkwLjY3LDk3OC4wNDk3IEMyNjkxLjQ4MjksOTc4LjQwNTYgMjY5Mi4yNTQ5LDk3OC43NDM0IDI2OTIuOTg1MSw5NzkuMDYyOCBDMjY5My4xNjc2LDk3OS4xNDI2IDI2ODcuODUwMSw5NzYuODE3NSAyNjg4LjAyNzQsOTc2Ljg5NSAiIGZpbGw9Im5vbmUiIGlkPSJDb3JlIFNlcnZpY2VzLXRvLVJlZGlzIENsdXN0ZXIiIHN0eWxlPSJzdHJva2U6IzE4MTgxODtzdHJva2Utd2lkdGg6MS4wOyIvPjxwb2x5Z29uIGZpbGw9IiMxODE4MTgiIHBvaW50cz0iMjY5My41MjQ4LDk3OS4yOTg4LDI2ODYuODgxMiw5NzIuMDI4MSwyNjg4Ljk0MzYsOTc3LjI5NTYsMjY4My42NzYxLDk3OS4zNTgsMjY5My41MjQ4LDk3OS4yOTg4IiBzdHlsZT0ic3Ryb2tlOiMxODE4MTg7c3Ryb2tlLXdpZHRoOjEuMDsiLz48dGV4dCBmaWxsPSIjMDAwMDAwIiBmb250LWZhbWlseT0ic2Fucy1zZXJpZiIgZm9udC1zaXplPSIxMyIgbGVuZ3RoQWRqdXN0PSJzcGFjaW5nIiB0ZXh0TGVuZ3RoPSI1NSIgeD0iMjM3MSIgeT0iODMzLjc4OTEiPlRDUC82Mzc5PC90ZXh0PjwvZz48IS0tbGluayBDb3JlIFNlcnZpY2VzIHRvIE15U1FMIENsdXN0ZXItLT48ZyBpZD0ibGlua19Db3JlIFNlcnZpY2VzX015U1FMIENsdXN0ZXIiPjxwYXRoIGQ9Ik0yMTc2LjM0LDc1NC40NTE3IEMyMTc2Ljg5MzEsNzU2LjI3MjQgMjE3Ny40NzAyLDc1OC4xNzI0IDIxNzguMDcwNCw3NjAuMTQ4MyBDMjE3OS4yNzA4LDc2NC4xMDAyIDIxODAuNTYzNSw3NjguMzU1NiAyMTgxLjkzOTksNzcyLjg4NyBDMjE4NC42OTI5LDc4MS45NDk4IDIxODcuNzgxMyw3OTIuMTE2NSAyMTkxLjEzOCw4MDMuMTY2NCBDMjIwNC41NjQ3LDg0Ny4zNjU5IDIyMjIuMjg0NCw5MDUuNjk1NiAyMjQwLjAwMzgsOTY0LjAyMzggQzIyNTcuNzIzMSwxMDIyLjM1MTkgMjI3NS40NDIyLDEwODAuNjc4NCAyMjg4Ljg2NzcsMTEyNC44NzE3IEMyMjkyLjIyNCwxMTM1LjkyIDIyOTUuMzEyLDExNDYuMDg1IDIyOTguMDY0NiwxMTU1LjE0NTkgQzIyOTkuNDQwOSwxMTU5LjY3NjMgMjMwMC43MzM0LDExNjMuOTMwNyAyMzAxLjkzMzUsMTE2Ny44ODE1IEMyMzAyLjUzMzYsMTE2OS44NTY4IDIzMDMuMTEwNywxMTcxLjc1NjMgMjMwMy42NjM2LDExNzMuNTc2NCBDMjMwMy43MzI3LDExNzMuODAzOSAyMzAyLjA1NzQsMTE2OC4yODkzIDIzMDIuMTI1OCwxMTY4LjUxNDMgIiBmaWxsPSJub25lIiBpZD0iQ29yZSBTZXJ2aWNlcy10by1NeVNRTCBDbHVzdGVyIiBzdHlsZT0ic3Ryb2tlOiMxODE4MTg7c3Ryb2tlLXdpZHRoOjEuMDsiLz48cG9seWdvbiBmaWxsPSIjMTgxODE4IiBwb2ludHM9IjIzMDMuODY5OCwxMTc0LjI1NTIsMjMwNS4wODExLDExNjQuNDgxMSwyMzAyLjQxNjUsMTE2OS40NzExLDIyOTcuNDI2NSwxMTY2LjgwNjUsMjMwMy44Njk4LDExNzQuMjU1MiIgc3R5bGU9InN0cm9rZTojMTgxODE4O3N0cm9rZS13aWR0aDoxLjA7Ii8+PHRleHQgZmlsbD0iIzAwMDAwMCIgZm9udC1mYW1pbHk9InNhbnMtc2VyaWYiIGZvbnQtc2l6ZT0iMTMiIGxlbmd0aEFkanVzdD0ic3BhY2luZyIgdGV4dExlbmd0aD0iNTUiIHg9IjIyNTkiIHk9Ijk4OS43ODkxIj5UQ1AvMzMwNjwvdGV4dD48L2c+PCEtLWxpbmsgQ29yZSBTZXJ2aWNlcyB0byBPYmplY3QgU3RvcmFnZS0tPjxnIGlkPSJsaW5rX0NvcmUgU2VydmljZXNfT2JqZWN0IFN0b3JhZ2UiPjxwYXRoIGQ9Ik0yMTc2LjA0NCw3MzIuOTA3OSBDMjE3Ni40NzQ4LDczMy4yMTY3IDIxNzYuOTIxNiw3MzMuNTM2IDIxNzcuMzg0MSw3MzMuODY1NSBDMjE3OS4yMzM5LDczNS4xODMzIDIxODEuMzM0Miw3MzYuNjYyOSAyMTgzLjY2NDQsNzM4LjI3OTUgQzIxOTIuOTg1LDc0NC43NDU5IDIyMDUuOTgyNSw3NTMuNDAzMSAyMjIxLjMzLDc2Mi42NTM4IEMyMjUyLjAyNSw3ODEuMTU1IDIyOTIuMTIsODAyLjAzIDIzMzEsODEyLjUgQzI0MDguMzIsODMzLjMyIDI5ODAuMjIsODA2LjA2IDMwNTEsODQzLjUgQzMwODQuNjQ1LDg2MS4zIDMxMTAuMzY1LDg5NS4zNzI1IDMxMjcuODEsOTI1LjM4NjMgQzMxMzIuMTcxMyw5MzIuODg5NyAzMTM2LjAxNTMsOTQwLjEzOTUgMzEzOS4zMzY3LDk0Ni44MTc5IEMzMTQwLjk5NzQsOTUwLjE1NzEgMzE0Mi41Mjc1LDk1My4zNTM1IDMxNDMuOTI2Miw5NTYuMzY3MyBDMzE0NC42MjU1LDk1Ny44NzQyIDMxNDUuMjkyLDk1OS4zMzU1IDMxNDUuOTI1Niw5NjAuNzQ2MSBDMzE0Ni4yNDI0LDk2MS40NTE1IDMxNDQuMTI1Miw5NTYuNjU2NCAzMTQ0LjQyNTUsOTU3LjMzNTggIiBmaWxsPSJub25lIiBpZD0iQ29yZSBTZXJ2aWNlcy10by1PYmplY3QgU3RvcmFnZSIgc3R5bGU9InN0cm9rZTojMTgxODE4O3N0cm9rZS13aWR0aDoxLjA7Ii8+PHBvbHlnb24gZmlsbD0iIzE4MTgxOCIgcG9pbnRzPSIzMTQ2Ljg1MTMsOTYyLjgyMzYsMzE0Ni44NzEyLDk1Mi45NzQ3LDMxNDQuODI5OCw5NTguMjUwNCwzMTM5LjU1NDEsOTU2LjIwOTEsMzE0Ni44NTEzLDk2Mi44MjM2IiBzdHlsZT0ic3Ryb2tlOiMxODE4MTg7c3Ryb2tlLXdpZHRoOjEuMDsiLz48dGV4dCBmaWxsPSIjMDAwMDAwIiBmb250LWZhbWlseT0ic2Fucy1zZXJpZiIgZm9udC1zaXplPSIxMyIgbGVuZ3RoQWRqdXN0PSJzcGFjaW5nIiB0ZXh0TGVuZ3RoPSIzMyIgeD0iMzAxNiIgeT0iODMzLjc4OTEiPkhUVFBTPC90ZXh0PjwvZz48IS0tbGluayBDb3JlIFNlcnZpY2VzIHRvIE1vbml0b3JpbmcgU3RhY2stLT48ZyBpZD0ibGlua19Db3JlIFNlcnZpY2VzX01vbml0b3JpbmcgU3RhY2siPjxwYXRoIGQ9Ik0yMTc2LjAxNyw3MzMuMDEzNyBDMjE3Ni40NDY0LDczMy4zMjc4IDIxNzYuODkxOSw3MzMuNjUyNSAyMTc3LjM1MjksNzMzLjk4NzQgQzIxNzkuMTk3MSw3MzUuMzI3MiAyMTgxLjI5MTQsNzM2LjgzMDcgMjE4My42MTUyLDczOC40NzIyIEMyMTkyLjkxMDMsNzQ1LjAzODEgMjIwNS44NzgxLDc1My44MTEzIDIyMjEuMjA2Myw3NjMuMTM3NSBDMjI1MS44NjI1LDc4MS43OSAyMjkxLjk2LDgwMi42NTUgMjMzMSw4MTIuNSBDMjM3MC4xNyw4MjIuMzggMzAxNy42Myw4MTkuMTMgMzA1OCw4MjAuNSBDMzE0OC4wOSw4MjMuNTUgMzM4My42MSw4MDAuOCAzNDYzLDg0My41IEMzNDk2LjUyLDg2MS41MyAzNTIyLjIzNzUsODk1LjYwNSAzNTM5LjcxMjUsOTI1LjU2MzggQzM1NDQuMDgxMyw5MzMuMDUzNCAzNTQ3LjkzNDgsOTQwLjI4NTkgMzU1MS4yNjY0LDk0Ni45NDYgQzM1NTIuOTMyMiw5NTAuMjc2MSAzNTU0LjQ2NzUsOTUzLjQ2MzEgMzU1NS44NzE0LDk1Ni40Njc2IEMzNTU2LjU3MzMsOTU3Ljk2OTkgMzU1Ny4yNDI0LDk1OS40MjY1IDM1NTcuODc4Niw5NjAuODMyNyBDMzU1OC4xOTY3LDk2MS41MzU3IDM1NTYuMDY1NSw5NTYuNzQ1MiAzNTU2LjM2NzEsOTU3LjQyMjQgIiBmaWxsPSJub25lIiBpZD0iQ29yZSBTZXJ2aWNlcy10by1Nb25pdG9yaW5nIFN0YWNrIiBzdHlsZT0ic3Ryb2tlOiMxODE4MTg7c3Ryb2tlLXdpZHRoOjEuMDsiLz48cG9seWdvbiBmaWxsPSIjMTgxODE4IiBwb2ludHM9IjM1NTguODA4MSw5NjIuOTAzMywzNTU4LjgwMDUsOTUzLjA1NDUsMzU1Ni43NzM5LDk1OC4zMzU5LDM1NTEuNDkyNSw5NTYuMzA5MiwzNTU4LjgwODEsOTYyLjkwMzMiIHN0eWxlPSJzdHJva2U6IzE4MTgxODtzdHJva2Utd2lkdGg6MS4wOyIvPjx0ZXh0IGZpbGw9IiMwMDAwMDAiIGZvbnQtZmFtaWx5PSJzYW5zLXNlcmlmIiBmb250LXNpemU9IjEzIiBsZW5ndGhBZGp1c3Q9InNwYWNpbmciIHRleHRMZW5ndGg9IjYxIiB4PSIzNDQyIiB5PSI4MzMuNzg5MSI+SFRUUC85MDkwPC90ZXh0PjwvZz48IS0tbGluayBSZWRpcyBDbHVzdGVyIHRvIE15U1FMIENsdXN0ZXItLT48ZyBpZD0ibGlua19SZWRpcyBDbHVzdGVyX015U1FMIENsdXN0ZXIiPjxwYXRoIGQ9Ik0yNjkzLjY3Niw5ODUuNDUgQzI2OTMuNDYxMSw5ODUuNDYyNSAyNjkzLjI0MjQsOTg1LjQ3NTIgMjY5My4wMTk4LDk4NS40ODgxIEMyNjkxLjIzOTEsOTg1LjU5MTkgMjY4OS4yMTIyLDk4NS43MTMyIDI2ODYuOTU2LDk4NS44NTI4IEMyNjc3LjkzMTQsOTg2LjQxMTQgMjY2NS4yMzkxLDk4Ny4yNjQ1IDI2NDkuOTY1Niw5ODguNDcyIEMyNjE5LjQxODgsOTkwLjg4NzIgMjU3OC41NDc1LDk5NC43MjA2IDI1MzYuMDQ1LDEwMDAuNDUzOCBDMjQ1MS4wNCwxMDExLjkyIDIzNTkuNTEsMTAzMC45ODUgMjMzMSwxMDYxLjUgQzIzMjAuNDg3NSwxMDcyLjc1MjUgMjMxMy45OTg4LDEwODYuOTE1IDIzMTAuMTg5OCwxMTAxLjg3MzggQzIzMDkuMjM3NiwxMTA1LjYxMzQgMjMwOC40NTI5LDExMDkuNDAyOSAyMzA3LjgxNDYsMTExMy4yMDkxIEMyMzA3LjQ5NTUsMTExNS4xMTIyIDIzMDcuMjEzLDExMTcuMDE5NSAyMzA2Ljk2NDUsMTExOC45MjY4IEMyMzA2Ljg0MDMsMTExOS44ODA1IDIzMDYuNzI0NSwxMTIwLjgzNDEgMjMwNi42MTY5LDExMjEuNzg3MyBDMjMwNi41NjMxLDExMjIuMjYzOSAyMzA3LjEzNDcsMTExNi43NzI4IDIzMDcuMDg0OSwxMTE3LjI0OTEgIiBmaWxsPSJub25lIiBpZD0iUmVkaXMgQ2x1c3Rlci10by1NeVNRTCBDbHVzdGVyIiBzdHlsZT0ic3Ryb2tlOiMxODE4MTg7c3Ryb2tlLXdpZHRoOjEuMDsiLz48cG9seWdvbiBmaWxsPSIjMTgxODE4IiBwb2ludHM9IjIzMDYuNDYxNiwxMTIzLjIxNjcsMjMxMS4zNzQ5LDExMTQuNjgwOSwyMzA2Ljk4MTEsMTExOC4yNDM3LDIzMDMuNDE4MiwxMTEzLjg0OTgsMjMwNi40NjE2LDExMjMuMjE2NyIgc3R5bGU9InN0cm9rZTojMTgxODE4O3N0cm9rZS13aWR0aDoxLjA7Ii8+PHRleHQgZmlsbD0iIzAwMDAwMCIgZm9udC1mYW1pbHk9InNhbnMtc2VyaWYiIGZvbnQtc2l6ZT0iMTMiIGxlbmd0aEFkanVzdD0ic3BhY2luZyIgdGV4dExlbmd0aD0iNjIiIHg9IjIzNjIiIHk9IjEwNTEuNzg5MSI+RGF0YSBTeW5jPC90ZXh0PjwvZz48IS0tbGluayBSZWFjdCBOYXRpdmUgQXBwIHRvIEdNTjY0LS0+PGcgaWQ9ImxpbmtfUmVhY3QgTmF0aXZlIEFwcF9HTU42NCI+PHBhdGggZD0iTTY2NS4wOTk3LDIyMS41IEM2NjUuMTcxNywyMjEuNSA2NjUuMjQzNywyMjEuNSA2NjUuMzE1NywyMjEuNSBDNjY1LjYwMzcsMjIxLjUgNjY1Ljg5MTcsMjIxLjUgNjY2LjE3OTgsMjIxLjUgQzY2Ni43NTU4LDIyMS41IDY2Ny4zMzE4LDIyMS41IDY2Ny45MDc5LDIyMS41IEM2NjkuMDYsMjIxLjUgNjcwLjIxMjEsMjIxLjUgNjcxLjM2NDIsMjIxLjUgQzY3NS45NzI4LDIyMS41IDY4MC41ODE5LDIyMS41IDY4NS4xOTEzLDIyMS41IEM2OTQuNDEsMjIxLjUgNzAzLjYzLDIyMS41IDcxMi44NSwyMjEuNSAiIGZpbGw9Im5vbmUiIGlkPSJSZWFjdCBOYXRpdmUgQXBwLUdNTjY0IiBzdHlsZT0ic3Ryb2tlOiMxODE4MTg7c3Ryb2tlLXdpZHRoOjEuMDtzdHJva2UtZGFzaGFycmF5OjcuMCw3LjA7Ii8+PC9nPjwhLS1saW5rIE5HSU5YIHRvIEdNTjY3LS0+PGcgaWQ9ImxpbmtfTkdJTlhfR01ONjciPjxwYXRoIGQ9Ik0xMTMzLjI2Niw0MjQuNTI3OSBDMTEzMy41ODQ2LDQyNC40NzE2IDExMzMuOTEyMiw0MjQuNDEzOCAxMTM0LjI0ODYsNDI0LjM1NDUgQzExMzQuOTIxNSw0MjQuMjM1OCAxMTM1LjYzLDQyNC4xMTEgMTEzNi4zNzM4LDQyMy45ODAxIEMxMTQyLjMyNDQsNDIyLjkzMjkgMTE1MC41MzM0LDQyMS40OTc3IDExNjAuODE4OCw0MTkuNzIxNCBDMTE4MS4zODk0LDQxNi4xNjg5IDEyMTAuMjY1LDQxMS4yNTI1IDEyNDUuOTg3NSw0MDUuMzQ5NCBDMTMxNy40MzI1LDM5My41NDMxIDE0MTYuMjY1LDM3Ny43OSAxNTMwLjgyLDM2MS4xMDc1IEMxNzU5LjkzLDMyNy43NDI1IDIwNTEuOTMsMjkwLjY2IDIzMTMuNSwyNzQgQzIzOTcuNzcsMjY4LjYzIDI2MTYuMTMsMjQwLjE2IDI2OTMuNSwyNzQgQzI3NTIuMjcsMjk5LjcxIDI3OTcuMzksMzYzLjQ2IDI4MTkuMzIsMzk5LjcxICIgZmlsbD0ibm9uZSIgaWQ9Ik5HSU5YLUdNTjY3IiBzdHlsZT0ic3Ryb2tlOiMxODE4MTg7c3Ryb2tlLXdpZHRoOjEuMDtzdHJva2UtZGFzaGFycmF5OjcuMCw3LjA7Ii8+PC9nPjwhLS1saW5rIENvcmUgU2VydmljZXMgdG8gR01ONzAtLT48ZyBpZD0ibGlua19Db3JlIFNlcnZpY2VzX0dNTjcwIj48cGF0aCBkPSJNMjE3Ni4yMDQyLDcwOS4yMTk4IEMyMTc2LjMwNTUsNzA5LjAyMzYgMjE3Ni40MDc4LDcwOC44MjYgMjE3Ni41MTEsNzA4LjYyNjggQzIxNzYuNzE3Myw3MDguMjI4NiAyMTc2LjkyNzMsNzA3LjgyNDcgMjE3Ny4xNDA5LDcwNy40MTUgQzIxNzguODQ5OCw3MDQuMTM4MSAyMTgwLjc5MTIsNzAwLjUwMDQgMjE4Mi45NTkxLDY5Ni41NjE2IEMyMTkxLjYzMDYsNjgwLjgwNjMgMjIwMy45MjYyLDY2MC4yMzM4IDIyMTkuNDYyNSw2MzguNjcgQzIyNTAuNTM1LDU5NS41NDI1IDIyOTQuNTcsNTQ4LjQ1IDIzNDguNSw1MjggQzIzODQuMzQsNTE0LjQxIDI2NTcuNjYsNTE0LjQxIDI2OTMuNSw1MjggQzI3NzQuMjYsNTU4LjYyIDI4MTkuNzUsNjYzLjIyIDI4MzUuNTYsNzA2Ljc1ICIgZmlsbD0ibm9uZSIgaWQ9IkNvcmUgU2VydmljZXMtR01ONzAiIHN0eWxlPSJzdHJva2U6IzE4MTgxODtzdHJva2Utd2lkdGg6MS4wO3N0cm9rZS1kYXNoYXJyYXk6Ny4wLDcuMDsiLz48L2c+PCEtLWxpbmsgTXlTUUwgQ2x1c3RlciB0byBHTU43My0tPjxnIGlkPSJsaW5rX015U1FMIENsdXN0ZXJfR01ONzMiPjxwYXRoIGQ9Ik0yMzA1Ljc4MjQsMTEyMi43MTgyIEMyMzA1LjgwMjIsMTEyMi40NDQ0IDIzMDUuODIyNiwxMTIyLjE3MDUgMjMwNS44NDM1LDExMjEuODk2NyBDMjMwNS44ODUzLDExMjEuMzQ5IDIzMDUuOTI5NCwxMTIwLjgwMTQgMjMwNS45NzU5LDExMjAuMjUzOCBDMjMwNi4wNjg5LDExMTkuMTU4NyAyMzA2LjE3MTIsMTExOC4wNjQgMjMwNi4yODM0LDExMTYuOTcwNiBDMjMwNi43MzIyLDExMTIuNTk2NyAyMzA3LjMzODQsMTEwOC4yNDI2IDIzMDguMTMwMywxMTAzLjk2MDUgQzIzMDkuNzEzOSwxMDk1LjM5NjQgMjMxMi4wMzk4LDEwODcuMTIwOSAyMzE1LjMzMywxMDc5LjU1MzMgQzIzMjEuOTE5NCwxMDY0LjQxODEgMjMzMi4zNzUsMTA1Mi4xMTUgMjM0OC41LDEwNDYgQzIzODcuMTIsMTAzMS4zNiAzNzk2Ljg4LDEwMzEuMzYgMzgzNS41LDEwNDYgQzM4OTkuNiwxMDcwLjMxIDM5NDkuMjksMTEzOC4yMiAzOTcyLjkxLDExNzUuOTQgIiBmaWxsPSJub25lIiBpZD0iTXlTUUwgQ2x1c3Rlci1HTU43MyIgc3R5bGU9InN0cm9rZTojMTgxODE4O3N0cm9rZS13aWR0aDoxLjA7c3Ryb2tlLWRhc2hhcnJheTo3LjAsNy4wOyIvPjwvZz48IS0tU1JDPVtYTFBCUnpEMDRCeHhMdW53dUc5QWY1SDBFSTJiWUlYMUlIaFk4OTJnN2hSaGhSRFd4dmZ6ajRJZV92clBGdFNUTS1JS3BGRVJudHVKX09rQldZWUlXdjA5a29ScUx3Z2E1U2IyUGI5MW5qRVprTDdhNUVkTVppZ3lhODg5cXBWLVZrSTZVT085Q1VJMVFGT19FdzhDVm9IcTk1eHEyWE9QbnRJbVA0LVNpaVpYWDhqMFRXNV84eTFGMm10a3ZZOUhhWVVybU5zZnhqYlN4MWJjWElxbl84ZDFsMllRQ0V2cHpzcTVZeVBLdHRWb0ZLbGlkcWJpWTY2bThPQWFCNFNCcHMyLU16TTg5X0NfTkZnLVFxYjkxaDZIMmpxeS1TeGc4c21iamU1SkgyRDVmTms5Tmlob2Jyak9hbkRKNFNzYUpSM3N2VlF5T2ttOEFaeWZZTmRCaHV5UEtJbWVvTzdjNUVQUWl3MmFkUEE5bkt3aVNlSWJPSzdlcUtVN2RUV3BCUXNZSjBWMHJmOGFTNHFvOFlZMmctT0lvMFBHUmN6TXNueVhnZFdEMXdQb0JocElnclF4N2d6dnBXcU5RSjIydHZQZjB0amZFcXNEMlNVT3JLczRjQWFkZmRJRFI0MjNTeEJRVDNXQnQ0MWkwTHA0WFNCMFMyc2J5SUZ3a0Z0RUl5TkFhQlhmc2hVZndjRktBY3ZFckdwbEctTU54bVVPTXRGNEVDN2VrLVBoZmZoT0ZMS3BqYzdqaEtmNkZIVnV2NFBLVXRtbHg3YWk4cGN2UE9VTEMybkxGUldseFJVWDdpTXNBNklOVFExRHBvSEQ0UjV4RmFqOVRJX3JkMWZCeUU3cW42a1BmY3ZJUHRYVldYVmFEaGYtR3BMelQ5ODZJS0ROWlhTSVZoT1J6SW9yVGxsSlZvQkRBRmhvUmVEWFlVNjNKTHFzLU5uU2VWMFNza09LVnJxRkdqaUc5dUJialBTLXBXV29NbzFvOTZrQkxiUFprTnR1b1RtY0xTbktPd2JfWks0OVZTOHNwSVF0U0pwQUMzd3RrRk4tTGNKODZZNnRSQUpXNjFiZE13RmYxMEVpcVlhSDNyT09lQzdhRVNDZFBsdDRVREdVYVJyenRpdU94Y1Q1d0llYU8yYTRiZWczcnI3X2lDMlJEbl9UZ21hbG9KcnlHN1oyNEV2U3BoTWJxbzFYRXlfRlh5Q2s3ZEtoNlJHcmNyblVwZzk2TGtmN2tBbG5jQm9WbGZ6NlRtNWRqTEx1VS1faTN1bFR2RXRpdFRNbVVSMkJaVmJpRGRxeFIxeGtZclZkT0VwVUc1bHFMekVoUVRIN0VXcDdsSU04SnVBTVRvNTl5MS1FT1V1UXU5akt4ZXlEb0NVMXFVN2FGbkVIUDdXOXlWOGY5ZjE3NFNUaGJFbG93a1Zqck5Tb0QycXYyeFNuanc5a1RlSFVQUmdlZHd3UTVGZ0xYX0FYRjlIclQ3UzhKTlM4Yy0zQXZTcGdBcFdVRUVtWS1jdm0tVTMxUVl3R2oyMkpBUVNVTjhuSkk4dl9SU09aWFdyNXR2dFlFTDZkYVdFbTVuTE4wM25wU3lHLVRUU0xTdzBPOXJISGFjOUt1aEt6alBkLTBHMDBdLS0+PC9nPjwvc3ZnPg==;" parent="1" vertex="1">
            <mxGeometry x="-1410" y="-80" width="4073" height="1485" as="geometry" />
          </mxCell>
        </UserObject>
        <UserObject label="" plantUmlData="{&#xa;  &quot;data&quot;: &quot;@startuml\n\nleft to right direction\n\nactor Пользователь\nactor Администратор\n\nusecase \&quot;Добавить товар в корзину\&quot; as UC1\nusecase \&quot;Просмотр товаров\&quot; as UC2\nusecase \&quot;Поиск товаров\&quot; as UC3\nusecase \&quot;Изменение личной информации\&quot; as UC4\nusecase \&quot;Просмотр истории просмотров\&quot; as UC5\nusecase \&quot;Просмотр своих заказов\&quot; as UC6\nusecase \&quot;Оплата товаров\&quot; as UC7\nusecase \&quot;Обращение в службу поддержки\&quot; as UC8\nusecase \&quot;Изменение информации о пользователе\&quot; as UC9\nusecase \&quot;Просмотр информации о пользователях\&quot; as UC10\nusecase \&quot;Изменение пароля\&quot; as UC11\nusecase \&quot;Просмотр списка пользователей\&quot; as UC12\nusecase \&quot;Просмотр списка заказов\&quot; as UC13\nusecase \&quot;Добавление товаров\&quot; as UC14\nusecase \&quot;Изменение товаров\&quot; as UC15\n\nПользователь --&gt; UC1\nПользователь --&gt; UC2\nПользователь --&gt; UC3\nПользователь --&gt; UC4\nПользователь --&gt; UC5\nПользователь --&gt; UC6\nПользователь --&gt; UC7\nПользователь --&gt; UC8\n\nАдминистратор --&gt; UC9\nАдминистратор --&gt; UC10\nАдминистратор --&gt; UC11\nАдминистратор --&gt; UC12\nАдминистратор --&gt; UC13\nАдминистратор --&gt; UC14\nАдминистратор --&gt; UC15\n\n@enduml&quot;,&#xa;  &quot;format&quot;: &quot;svg&quot;&#xa;}" id="NkZFCGmQznUvReN-Zk9U-1">
          <mxCell style="shape=image;noLabel=1;verticalAlign=top;aspect=fixed;imageAspect=0;image=data:image/svg+xml,PD94bWwgdmVyc2lvbj0iMS4wIiBlbmNvZGluZz0idXMtYXNjaWkiIHN0YW5kYWxvbmU9Im5vIj8+PHN2ZyB4bWxucz0iaHR0cDovL3d3dy53My5vcmcvMjAwMC9zdmciIHhtbG5zOnhsaW5rPSJodHRwOi8vd3d3LnczLm9yZy8xOTk5L3hsaW5rIiBjb250ZW50U3R5bGVUeXBlPSJ0ZXh0L2NzcyIgaGVpZ2h0PSIxMTY0cHgiIHByZXNlcnZlQXNwZWN0UmF0aW89Im5vbmUiIHN0eWxlPSJ3aWR0aDo0MzlweDtoZWlnaHQ6MTE2NHB4O2JhY2tncm91bmQ6I0ZGRkZGRjsiIHZlcnNpb249IjEuMSIgdmlld0JveD0iMCAwIDQzOSAxMTY0IiB3aWR0aD0iNDM5cHgiIHpvb21BbmRQYW49Im1hZ25pZnkiPjxkZWZzLz48Zz48IS0tZW50aXR5ID8/Pz8/Pz8/Pz8/Py0tPjxnIGlkPSJlbGVtXyYjMTA1NTsmIzEwODY7JiMxMDgzOyYjMTEwMDsmIzEwNzk7JiMxMDg2OyYjMTA3NDsmIzEwNzI7JiMxMDkwOyYjMTA3NzsmIzEwODM7JiMxMTAwOyI+PGVsbGlwc2UgY3g9IjUxLjUiIGN5PSI4MzEiIGZpbGw9IiNGMUYxRjEiIHJ4PSI4IiByeT0iOCIgc3R5bGU9InN0cm9rZTojMTgxODE4O3N0cm9rZS13aWR0aDowLjU7Ii8+PHBhdGggZD0iTTUxLjUsODM5IEw1MS41LDg2NiBNMzguNSw4NDcgTDY0LjUsODQ3IE01MS41LDg2NiBMMzguNSw4ODEgTTUxLjUsODY2IEw2NC41LDg4MSAiIGZpbGw9Im5vbmUiIHN0eWxlPSJzdHJva2U6IzE4MTgxODtzdHJva2Utd2lkdGg6MC41OyIvPjx0ZXh0IGZpbGw9IiMwMDAwMDAiIGZvbnQtZmFtaWx5PSJzYW5zLXNlcmlmIiBmb250LXNpemU9IjE0IiBsZW5ndGhBZGp1c3Q9InNwYWNpbmciIHRleHRMZW5ndGg9Ijg2IiB4PSI4LjUiIHk9Ijg5NS43MzQ0Ij4mIzEwNTU7JiMxMDg2OyYjMTA4MzsmIzExMDA7JiMxMDc5OyYjMTA4NjsmIzEwNzQ7JiMxMDcyOyYjMTA5MDsmIzEwNzc7JiMxMDgzOyYjMTEwMDs8L3RleHQ+PC9nPjwhLS1lbnRpdHkgPz8/Pz8/Pz8/Pz8/Py0tPjxnIGlkPSJlbGVtXyYjMTA0MDsmIzEwNzY7JiMxMDg0OyYjMTA4MDsmIzEwODU7JiMxMDgwOyYjMTA4OTsmIzEwOTA7JiMxMDg4OyYjMTA3MjsmIzEwOTA7JiMxMDg2OyYjMTA4ODsiPjxlbGxpcHNlIGN4PSI1MS41IiBjeT0iMjY0IiBmaWxsPSIjRjFGMUYxIiByeD0iOCIgcnk9IjgiIHN0eWxlPSJzdHJva2U6IzE4MTgxODtzdHJva2Utd2lkdGg6MC41OyIvPjxwYXRoIGQ9Ik01MS41LDI3MiBMNTEuNSwyOTkgTTM4LjUsMjgwIEw2NC41LDI4MCBNNTEuNSwyOTkgTDM4LjUsMzE0IE01MS41LDI5OSBMNjQuNSwzMTQgIiBmaWxsPSJub25lIiBzdHlsZT0ic3Ryb2tlOiMxODE4MTg7c3Ryb2tlLXdpZHRoOjAuNTsiLz48dGV4dCBmaWxsPSIjMDAwMDAwIiBmb250LWZhbWlseT0ic2Fucy1zZXJpZiIgZm9udC1zaXplPSIxNCIgbGVuZ3RoQWRqdXN0PSJzcGFjaW5nIiB0ZXh0TGVuZ3RoPSI5MSIgeD0iNiIgeT0iMzI4LjczNDQiPiYjMTA0MDsmIzEwNzY7JiMxMDg0OyYjMTA4MDsmIzEwODU7JiMxMDgwOyYjMTA4OTsmIzEwOTA7JiMxMDg4OyYjMTA3MjsmIzEwOTA7JiMxMDg2OyYjMTA4ODs8L3RleHQ+PC9nPjxnIGlkPSJlbGVtX1VDMSI+PGVsbGlwc2UgY3g9IjI5NS40ODUiIGN5PSI1OTkuOTk3IiBmaWxsPSIjRjFGMUYxIiByeD0iMTAwLjQ4NSIgcnk9IjIyLjQ5NyIgc3R5bGU9InN0cm9rZTojMTgxODE4O3N0cm9rZS13aWR0aDowLjU7Ii8+PHRleHQgZmlsbD0iIzAwMDAwMCIgZm9udC1mYW1pbHk9InNhbnMtc2VyaWYiIGZvbnQtc2l6ZT0iMTQiIGxlbmd0aEFkanVzdD0ic3BhY2luZyIgdGV4dExlbmd0aD0iMTY4IiB4PSIyMTEuNDg1IiB5PSI2MDMuNzM5MiI+JiMxMDQ0OyYjMTA4NjsmIzEwNzM7JiMxMDcyOyYjMTA3NDsmIzEwODA7JiMxMDkwOyYjMTEwMDsgJiMxMDkwOyYjMTA4NjsmIzEwNzQ7JiMxMDcyOyYjMTA4ODsgJiMxMDc0OyAmIzEwODI7JiMxMDg2OyYjMTA4ODsmIzEwNzk7JiMxMDgwOyYjMTA4NTsmIzEwOTE7PC90ZXh0PjwvZz48ZyBpZD0iZWxlbV9VQzIiPjxlbGxpcHNlIGN4PSIyOTUuNDM4NCIgY3k9IjY3NC45ODc3IiBmaWxsPSIjRjFGMUYxIiByeD0iNzUuNDM4NCIgcnk9IjE3LjQ4NzciIHN0eWxlPSJzdHJva2U6IzE4MTgxODtzdHJva2Utd2lkdGg6MC41OyIvPjx0ZXh0IGZpbGw9IiMwMDAwMDAiIGZvbnQtZmFtaWx5PSJzYW5zLXNlcmlmIiBmb250LXNpemU9IjE0IiBsZW5ndGhBZGp1c3Q9InNwYWNpbmciIHRleHRMZW5ndGg9IjExMiIgeD0iMjM5LjQzODQiIHk9IjY3OC43Mjk5Ij4mIzEwNTU7JiMxMDg4OyYjMTA4NjsmIzEwODk7JiMxMDg0OyYjMTA4NjsmIzEwOTA7JiMxMDg4OyAmIzEwOTA7JiMxMDg2OyYjMTA3NDsmIzEwNzI7JiMxMDg4OyYjMTA4NjsmIzEwNzQ7PC90ZXh0PjwvZz48ZyBpZD0iZWxlbV9VQzMiPjxlbGxpcHNlIGN4PSIyOTUuNjgzNCIgY3k9Ijc0My4yMzY3IiBmaWxsPSIjRjFGMUYxIiByeD0iNjYuNjgzNCIgcnk9IjE1LjczNjciIHN0eWxlPSJzdHJva2U6IzE4MTgxODtzdHJva2Utd2lkdGg6MC41OyIvPjx0ZXh0IGZpbGw9IiMwMDAwMDAiIGZvbnQtZmFtaWx5PSJzYW5zLXNlcmlmIiBmb250LXNpemU9IjE0IiBsZW5ndGhBZGp1c3Q9InNwYWNpbmciIHRleHRMZW5ndGg9IjkxIiB4PSIyNTAuMTgzNCIgeT0iNzQ2Ljk3ODkiPiYjMTA1NTsmIzEwODY7JiMxMDgwOyYjMTA4OTsmIzEwODI7ICYjMTA5MDsmIzEwODY7JiMxMDc0OyYjMTA3MjsmIzEwODg7JiMxMDg2OyYjMTA3NDs8L3RleHQ+PC9nPjxnIGlkPSJlbGVtX1VDNCI+PGVsbGlwc2UgY3g9IjI5NS42OTIzIiBjeT0iODE4LjEzODUiIGZpbGw9IiNGMUYxRjEiIHJ4PSIxMTEuMTkyMyIgcnk9IjI0LjYzODUiIHN0eWxlPSJzdHJva2U6IzE4MTgxODtzdHJva2Utd2lkdGg6MC41OyIvPjx0ZXh0IGZpbGw9IiMwMDAwMDAiIGZvbnQtZmFtaWx5PSJzYW5zLXNlcmlmIiBmb250LXNpemU9IjE0IiBsZW5ndGhBZGp1c3Q9InNwYWNpbmciIHRleHRMZW5ndGg9IjE5MSIgeD0iMjAwLjE5MjMiIHk9IjgyMS44ODA2Ij4mIzEwNDg7JiMxMDc5OyYjMTA4NDsmIzEwNzc7JiMxMDg1OyYjMTA3NzsmIzEwODU7JiMxMDgwOyYjMTA3NzsgJiMxMDgzOyYjMTA4MDsmIzEwOTU7JiMxMDg1OyYjMTA4NjsmIzEwODE7ICYjMTA4MDsmIzEwODU7JiMxMDkyOyYjMTA4NjsmIzEwODg7JiMxMDg0OyYjMTA3MjsmIzEwOTQ7JiMxMDgwOyYjMTA4MDs8L3RleHQ+PC9nPjxnIGlkPSJlbGVtX1VDNSI+PGVsbGlwc2UgY3g9IjI5NS4yNTQ3IiBjeT0iOTAxLjk1MDkiIGZpbGw9IiNGMUYxRjEiIHJ4PSIxMTAuMjU0NyIgcnk9IjI0LjQ1MDkiIHN0eWxlPSJzdHJva2U6IzE4MTgxODtzdHJva2Utd2lkdGg6MC41OyIvPjx0ZXh0IGZpbGw9IiMwMDAwMDAiIGZvbnQtZmFtaWx5PSJzYW5zLXNlcmlmIiBmb250LXNpemU9IjE0IiBsZW5ndGhBZGp1c3Q9InNwYWNpbmciIHRleHRMZW5ndGg9IjE4OSIgeD0iMjAwLjc1NDciIHk9IjkwNS42OTMxIj4mIzEwNTU7JiMxMDg4OyYjMTA4NjsmIzEwODk7JiMxMDg0OyYjMTA4NjsmIzEwOTA7JiMxMDg4OyAmIzEwODA7JiMxMDg5OyYjMTA5MDsmIzEwODY7JiMxMDg4OyYjMTA4MDsmIzEwODA7ICYjMTA4NzsmIzEwODg7JiMxMDg2OyYjMTA4OTsmIzEwODQ7JiMxMDg2OyYjMTA5MDsmIzEwODg7JiMxMDg2OyYjMTA3NDs8L3RleHQ+PC9nPjxnIGlkPSJlbGVtX1VDNiI+PGVsbGlwc2UgY3g9IjI5NS41NjIyIiBjeT0iOTgzLjIxMjQiIGZpbGw9IiNGMUYxRjEiIHJ4PSI5NC4wNjIyIiByeT0iMjEuMjEyNCIgc3R5bGU9InN0cm9rZTojMTgxODE4O3N0cm9rZS13aWR0aDowLjU7Ii8+PHRleHQgZmlsbD0iIzAwMDAwMCIgZm9udC1mYW1pbHk9InNhbnMtc2VyaWYiIGZvbnQtc2l6ZT0iMTQiIGxlbmd0aEFkanVzdD0ic3BhY2luZyIgdGV4dExlbmd0aD0iMTU0IiB4PSIyMTguNTYyMiIgeT0iOTg2Ljk1NDYiPiYjMTA1NTsmIzEwODg7JiMxMDg2OyYjMTA4OTsmIzEwODQ7JiMxMDg2OyYjMTA5MDsmIzEwODg7ICYjMTA4OTsmIzEwNzQ7JiMxMDg2OyYjMTA4MDsmIzEwOTM7ICYjMTA3OTsmIzEwNzI7JiMxMDgyOyYjMTA3MjsmIzEwNzk7JiMxMDg2OyYjMTA3NDs8L3RleHQ+PC9nPjxnIGlkPSJlbGVtX1VDNyI+PGVsbGlwc2UgY3g9IjI5NS40NTk1IiBjeT0iMTA1NS44OTE5IiBmaWxsPSIjRjFGMUYxIiByeD0iNjkuOTU5NSIgcnk9IjE2LjM5MTkiIHN0eWxlPSJzdHJva2U6IzE4MTgxODtzdHJva2Utd2lkdGg6MC41OyIvPjx0ZXh0IGZpbGw9IiMwMDAwMDAiIGZvbnQtZmFtaWx5PSJzYW5zLXNlcmlmIiBmb250LXNpemU9IjE0IiBsZW5ndGhBZGp1c3Q9InNwYWNpbmciIHRleHRMZW5ndGg9Ijk5IiB4PSIyNDUuOTU5NSIgeT0iMTA1OS42MzQxIj4mIzEwNTQ7JiMxMDg3OyYjMTA4MzsmIzEwNzI7JiMxMDkwOyYjMTA3MjsgJiMxMDkwOyYjMTA4NjsmIzEwNzQ7JiMxMDcyOyYjMTA4ODsmIzEwODY7JiMxMDc0OzwvdGV4dD48L2c+PGcgaWQ9ImVsZW1fVUM4Ij48ZWxsaXBzZSBjeD0iMjk1LjUxMTYiIGN5PSIxMTMzLjIwMjMiIGZpbGw9IiNGMUYxRjEiIHJ4PSIxMTQuMDExNiIgcnk9IjI1LjIwMjMiIHN0eWxlPSJzdHJva2U6IzE4MTgxODtzdHJva2Utd2lkdGg6MC41OyIvPjx0ZXh0IGZpbGw9IiMwMDAwMDAiIGZvbnQtZmFtaWx5PSJzYW5zLXNlcmlmIiBmb250LXNpemU9IjE0IiBsZW5ndGhBZGp1c3Q9InNwYWNpbmciIHRleHRMZW5ndGg9IjE5NyIgeD0iMTk3LjAxMTYiIHk9IjExMzYuOTQ0NSI+JiMxMDU0OyYjMTA3MzsmIzEwODg7JiMxMDcyOyYjMTA5NzsmIzEwNzc7JiMxMDg1OyYjMTA4MDsmIzEwNzc7ICYjMTA3NDsgJiMxMDg5OyYjMTA4MzsmIzEwOTE7JiMxMDc4OyYjMTA3MzsmIzEwOTE7ICYjMTA4NzsmIzEwODY7JiMxMDc2OyYjMTA3NjsmIzEwNzc7JiMxMDg4OyYjMTA3ODsmIzEwODI7JiMxMDgwOzwvdGV4dD48L2c+PGcgaWQ9ImVsZW1fVUM5Ij48ZWxsaXBzZSBjeD0iMjk1LjI4OTgiIGN5PSIzNi4wNTgiIGZpbGw9IiNGMUYxRjEiIHJ4PSIxMzguMjg5OCIgcnk9IjMwLjA1OCIgc3R5bGU9InN0cm9rZTojMTgxODE4O3N0cm9rZS13aWR0aDowLjU7Ii8+PHRleHQgZmlsbD0iIzAwMDAwMCIgZm9udC1mYW1pbHk9InNhbnMtc2VyaWYiIGZvbnQtc2l6ZT0iMTQiIGxlbmd0aEFkanVzdD0ic3BhY2luZyIgdGV4dExlbmd0aD0iMjQ4IiB4PSIxNzEuMjg5OCIgeT0iMzkuODAwMSI+JiMxMDQ4OyYjMTA3OTsmIzEwODQ7JiMxMDc3OyYjMTA4NTsmIzEwNzc7JiMxMDg1OyYjMTA4MDsmIzEwNzc7ICYjMTA4MDsmIzEwODU7JiMxMDkyOyYjMTA4NjsmIzEwODg7JiMxMDg0OyYjMTA3MjsmIzEwOTQ7JiMxMDgwOyYjMTA4MDsgJiMxMDg2OyAmIzEwODc7JiMxMDg2OyYjMTA4MzsmIzExMDA7JiMxMDc5OyYjMTA4NjsmIzEwNzQ7JiMxMDcyOyYjMTA5MDsmIzEwNzc7JiMxMDgzOyYjMTA3Nzs8L3RleHQ+PC9nPjxnIGlkPSJlbGVtX1VDMTAiPjxlbGxpcHNlIGN4PSIyOTUuMjg5OCIgY3k9IjEzMS4wNTgiIGZpbGw9IiNGMUYxRjEiIHJ4PSIxMzguMjg5OCIgcnk9IjMwLjA1OCIgc3R5bGU9InN0cm9rZTojMTgxODE4O3N0cm9rZS13aWR0aDowLjU7Ii8+PHRleHQgZmlsbD0iIzAwMDAwMCIgZm9udC1mYW1pbHk9InNhbnMtc2VyaWYiIGZvbnQtc2l6ZT0iMTQiIGxlbmd0aEFkanVzdD0ic3BhY2luZyIgdGV4dExlbmd0aD0iMjQ4IiB4PSIxNzEuMjg5OCIgeT0iMTM0LjgwMDEiPiYjMTA1NTsmIzEwODg7JiMxMDg2OyYjMTA4OTsmIzEwODQ7JiMxMDg2OyYjMTA5MDsmIzEwODg7ICYjMTA4MDsmIzEwODU7JiMxMDkyOyYjMTA4NjsmIzEwODg7JiMxMDg0OyYjMTA3MjsmIzEwOTQ7JiMxMDgwOyYjMTA4MDsgJiMxMDg2OyAmIzEwODc7JiMxMDg2OyYjMTA4MzsmIzExMDA7JiMxMDc5OyYjMTA4NjsmIzEwNzQ7JiMxMDcyOyYjMTA5MDsmIzEwNzc7JiMxMDgzOyYjMTEwMzsmIzEwOTM7PC90ZXh0PjwvZz48ZyBpZD0iZWxlbV9VQzExIj48ZWxsaXBzZSBjeD0iMjk1LjM2NjgiIGN5PSIyMTQuMDczNCIgZmlsbD0iI0YxRjFGMSIgcng9Ijc1Ljg2NjgiIHJ5PSIxNy41NzM0IiBzdHlsZT0ic3Ryb2tlOiMxODE4MTg7c3Ryb2tlLXdpZHRoOjAuNTsiLz48dGV4dCBmaWxsPSIjMDAwMDAwIiBmb250LWZhbWlseT0ic2Fucy1zZXJpZiIgZm9udC1zaXplPSIxNCIgbGVuZ3RoQWRqdXN0PSJzcGFjaW5nIiB0ZXh0TGVuZ3RoPSIxMTMiIHg9IjIzOC44NjY4IiB5PSIyMTcuODE1NSI+JiMxMDQ4OyYjMTA3OTsmIzEwODQ7JiMxMDc3OyYjMTA4NTsmIzEwNzc7JiMxMDg1OyYjMTA4MDsmIzEwNzc7ICYjMTA4NzsmIzEwNzI7JiMxMDg4OyYjMTA4NjsmIzEwODM7JiMxMTAzOzwvdGV4dD48L2c+PGcgaWQ9ImVsZW1fVUMxMiI+PGVsbGlwc2UgY3g9IjI5NS4yODQ5IiBjeT0iMjkyLjk1NyIgZmlsbD0iI0YxRjFGMSIgcng9IjExNy43ODQ5IiByeT0iMjUuOTU3IiBzdHlsZT0ic3Ryb2tlOiMxODE4MTg7c3Ryb2tlLXdpZHRoOjAuNTsiLz48dGV4dCBmaWxsPSIjMDAwMDAwIiBmb250LWZhbWlseT0ic2Fucy1zZXJpZiIgZm9udC1zaXplPSIxNCIgbGVuZ3RoQWRqdXN0PSJzcGFjaW5nIiB0ZXh0TGVuZ3RoPSIyMDUiIHg9IjE5Mi43ODQ5IiB5PSIyOTYuNjk5MiI+JiMxMDU1OyYjMTA4ODsmIzEwODY7JiMxMDg5OyYjMTA4NDsmIzEwODY7JiMxMDkwOyYjMTA4ODsgJiMxMDg5OyYjMTA4NzsmIzEwODA7JiMxMDg5OyYjMTA4MjsmIzEwNzI7ICYjMTA4NzsmIzEwODY7JiMxMDgzOyYjMTEwMDsmIzEwNzk7JiMxMDg2OyYjMTA3NDsmIzEwNzI7JiMxMDkwOyYjMTA3NzsmIzEwODM7JiMxMDc3OyYjMTA4MTs8L3RleHQ+PC9nPjxnIGlkPSJlbGVtX1VDMTMiPjxlbGxpcHNlIGN4PSIyOTUuMjYzMyIgY3k9IjM3NS44NTI3IiBmaWxsPSIjRjFGMUYxIiByeD0iOTcuMjYzMyIgcnk9IjIxLjg1MjciIHN0eWxlPSJzdHJva2U6IzE4MTgxODtzdHJva2Utd2lkdGg6MC41OyIvPjx0ZXh0IGZpbGw9IiMwMDAwMDAiIGZvbnQtZmFtaWx5PSJzYW5zLXNlcmlmIiBmb250LXNpemU9IjE0IiBsZW5ndGhBZGp1c3Q9InNwYWNpbmciIHRleHRMZW5ndGg9IjE2MSIgeD0iMjE0Ljc2MzMiIHk9IjM3OS41OTQ4Ij4mIzEwNTU7JiMxMDg4OyYjMTA4NjsmIzEwODk7JiMxMDg0OyYjMTA4NjsmIzEwOTA7JiMxMDg4OyAmIzEwODk7JiMxMDg3OyYjMTA4MDsmIzEwODk7JiMxMDgyOyYjMTA3MjsgJiMxMDc5OyYjMTA3MjsmIzEwODI7JiMxMDcyOyYjMTA3OTsmIzEwODY7JiMxMDc0OzwvdGV4dD48L2c+PGcgaWQ9ImVsZW1fVUMxNCI+PGVsbGlwc2UgY3g9IjI5NS40NTMiIGN5PSI0NTEuNzkwNiIgZmlsbD0iI0YxRjFGMSIgcng9IjgxLjk1MyIgcnk9IjE4Ljc5MDYiIHN0eWxlPSJzdHJva2U6IzE4MTgxODtzdHJva2Utd2lkdGg6MC41OyIvPjx0ZXh0IGZpbGw9IiMwMDAwMDAiIGZvbnQtZmFtaWx5PSJzYW5zLXNlcmlmIiBmb250LXNpemU9IjE0IiBsZW5ndGhBZGp1c3Q9InNwYWNpbmciIHRleHRMZW5ndGg9IjEyNyIgeD0iMjMxLjk1MyIgeT0iNDU1LjUzMjgiPiYjMTA0NDsmIzEwODY7JiMxMDczOyYjMTA3MjsmIzEwNzQ7JiMxMDgzOyYjMTA3NzsmIzEwODU7JiMxMDgwOyYjMTA3NzsgJiMxMDkwOyYjMTA4NjsmIzEwNzQ7JiMxMDcyOyYjMTA4ODsmIzEwODY7JiMxMDc0OzwvdGV4dD48L2c+PGcgaWQ9ImVsZW1fVUMxNSI+PGVsbGlwc2UgY3g9IjI5NS40NTU4IiBjeT0iNTI0LjA5MTIiIGZpbGw9IiNGMUYxRjEiIHJ4PSI3OC40NTU4IiByeT0iMTguMDkxMiIgc3R5bGU9InN0cm9rZTojMTgxODE4O3N0cm9rZS13aWR0aDowLjU7Ii8+PHRleHQgZmlsbD0iIzAwMDAwMCIgZm9udC1mYW1pbHk9InNhbnMtc2VyaWYiIGZvbnQtc2l6ZT0iMTQiIGxlbmd0aEFkanVzdD0ic3BhY2luZyIgdGV4dExlbmd0aD0iMTE5IiB4PSIyMzUuOTU1OCIgeT0iNTI3LjgzMzMiPiYjMTA0ODsmIzEwNzk7JiMxMDg0OyYjMTA3NzsmIzEwODU7JiMxMDc3OyYjMTA4NTsmIzEwODA7JiMxMDc3OyAmIzEwOTA7JiMxMDg2OyYjMTA3NDsmIzEwNzI7JiMxMDg4OyYjMTA4NjsmIzEwNzQ7PC90ZXh0PjwvZz48IS0tbGluayA/Pz8/Pz8/Pz8/Pz8gdG8gVUMxLS0+PGcgaWQ9ImxpbmtfJiMxMDU1OyYjMTA4NjsmIzEwODM7JiMxMTAwOyYjMTA3OTsmIzEwODY7JiMxMDc0OyYjMTA3MjsmIzEwOTA7JiMxMDc3OyYjMTA4MzsmIzExMDA7X1VDMSI+PHBhdGggZD0iTTYwLjM0LDgyMi4yNyBDNzIuNTEsNzczLjE2IDEwMC42NSw2ODcuOTcgMTU3LDY0MCBDMTcyLjMzLDYyNi45NSAxODUuOTkzMyw2MTkuOTA4MSAyMDUuMzQzMyw2MTMuOTc4MSAiIGZpbGw9Im5vbmUiIGlkPSImIzEwNTU7JiMxMDg2OyYjMTA4MzsmIzExMDA7JiMxMDc5OyYjMTA4NjsmIzEwNzQ7JiMxMDcyOyYjMTA5MDsmIzEwNzc7JiMxMDgzOyYjMTEwMDstdG8tVUMxIiBzdHlsZT0ic3Ryb2tlOiMxODE4MTg7c3Ryb2tlLXdpZHRoOjEuMDsiLz48cG9seWdvbiBmaWxsPSIjMTgxODE4IiBwb2ludHM9IjIxMS4wOCw2MTIuMjIsMjAxLjMwMyw2MTEuMDMyNiwyMDYuMjk5NSw2MTMuNjg1LDIwMy42NDcxLDYxOC42ODE1LDIxMS4wOCw2MTIuMjIiIHN0eWxlPSJzdHJva2U6IzE4MTgxODtzdHJva2Utd2lkdGg6MS4wOyIvPjwvZz48IS0tbGluayA/Pz8/Pz8/Pz8/Pz8gdG8gVUMyLS0+PGcgaWQ9ImxpbmtfJiMxMDU1OyYjMTA4NjsmIzEwODM7JiMxMTAwOyYjMTA3OTsmIzEwODY7JiMxMDc0OyYjMTA3MjsmIzEwOTA7JiMxMDc3OyYjMTA4MzsmIzExMDA7X1VDMiI+PHBhdGggZD0iTTY5LjA4LDgyMi40NSBDODYuMjEsNzg4LjA0IDExNi4xNyw3MzguMjggMTU3LDcxMCBDMTc3LjQ1LDY5NS44MyAxOTcuMzAwOSw2ODguNjQ2MyAyMjAuOTQwOSw2ODMuNjI2MyAiIGZpbGw9Im5vbmUiIGlkPSImIzEwNTU7JiMxMDg2OyYjMTA4MzsmIzExMDA7JiMxMDc5OyYjMTA4NjsmIzEwNzQ7JiMxMDcyOyYjMTA5MDsmIzEwNzc7JiMxMDgzOyYjMTEwMDstdG8tVUMyIiBzdHlsZT0ic3Ryb2tlOiMxODE4MTg7c3Ryb2tlLXdpZHRoOjEuMDsiLz48cG9seWdvbiBmaWxsPSIjMTgxODE4IiBwb2ludHM9IjIyNi44MSw2ODIuMzgsMjE3LjE3NTQsNjgwLjMzNjcsMjIxLjkxOTEsNjgzLjQxODYsMjE4LjgzNzIsNjg4LjE2MjIsMjI2LjgxLDY4Mi4zOCIgc3R5bGU9InN0cm9rZTojMTgxODE4O3N0cm9rZS13aWR0aDoxLjA7Ii8+PC9nPjwhLS1saW5rID8/Pz8/Pz8/Pz8/PyB0byBVQzMtLT48ZyBpZD0ibGlua18mIzEwNTU7JiMxMDg2OyYjMTA4MzsmIzExMDA7JiMxMDc5OyYjMTA4NjsmIzEwNzQ7JiMxMDcyOyYjMTA5MDsmIzEwNzc7JiMxMDgzOyYjMTEwMDtfVUMzIj48cGF0aCBkPSJNOTAuODEsODIyLjM2IEMxMDkuNDQsODA1Ljk0IDEzMi45Nyw3ODcuOCAxNTcsNzc2IEMxODIuMTIsNzYzLjY3IDIwNi4yNTAyLDc1Ni45MjQ4IDIzMS44MjAyLDc1MS45NTQ4ICIgZmlsbD0ibm9uZSIgaWQ9IiYjMTA1NTsmIzEwODY7JiMxMDgzOyYjMTEwMDsmIzEwNzk7JiMxMDg2OyYjMTA3NDsmIzEwNzI7JiMxMDkwOyYjMTA3NzsmIzEwODM7JiMxMTAwOy10by1VQzMiIHN0eWxlPSJzdHJva2U6IzE4MTgxODtzdHJva2Utd2lkdGg6MS4wOyIvPjxwb2x5Z29uIGZpbGw9IiMxODE4MTgiIHBvaW50cz0iMjM3LjcxLDc1MC44MSwyMjguMTEyMSw3NDguNjAwNywyMzIuODAxOSw3NTEuNzY0LDIyOS42Mzg1LDc1Ni40NTM3LDIzNy43MSw3NTAuODEiIHN0eWxlPSJzdHJva2U6IzE4MTgxODtzdHJva2Utd2lkdGg6MS4wOyIvPjwvZz48IS0tbGluayA/Pz8/Pz8/Pz8/Pz8gdG8gVUM0LS0+PGcgaWQ9ImxpbmtfJiMxMDU1OyYjMTA4NjsmIzEwODM7JiMxMTAwOyYjMTA3OTsmIzEwODY7JiMxMDc0OyYjMTA3MjsmIzEwOTA7JiMxMDc3OyYjMTA4MzsmIzExMDA7X1VDNCI+PHBhdGggZD0iTTk0LjY1LDg1Mi42OCBDMTI1LjgsODQ3LjI4IDE2My4zNzgyLDg0MC43NTUzIDIwMS44MzgyLDgzNC4wODUzICIgZmlsbD0ibm9uZSIgaWQ9IiYjMTA1NTsmIzEwODY7JiMxMDgzOyYjMTEwMDsmIzEwNzk7JiMxMDg2OyYjMTA3NDsmIzEwNzI7JiMxMDkwOyYjMTA3NzsmIzEwODM7JiMxMTAwOy10by1VQzQiIHN0eWxlPSJzdHJva2U6IzE4MTgxODtzdHJva2Utd2lkdGg6MS4wOyIvPjxwb2x5Z29uIGZpbGw9IiMxODE4MTgiIHBvaW50cz0iMjA3Ljc1LDgzMy4wNiwxOTguMTk4OSw4MzAuNjU2NywyMDIuODIzNSw4MzMuOTE0NCwxOTkuNTY1OSw4MzguNTM5MSwyMDcuNzUsODMzLjA2IiBzdHlsZT0ic3Ryb2tlOiMxODE4MTg7c3Ryb2tlLXdpZHRoOjEuMDsiLz48L2c+PCEtLWxpbmsgPz8/Pz8/Pz8/Pz8/IHRvIFVDNS0tPjxnIGlkPSJsaW5rXyYjMTA1NTsmIzEwODY7JiMxMDgzOyYjMTEwMDsmIzEwNzk7JiMxMDg2OyYjMTA3NDsmIzEwNzI7JiMxMDkwOyYjMTA3NzsmIzEwODM7JiMxMTAwO19VQzUiPjxwYXRoIGQ9Ik05NC42NSw4NjcuMzIgQzEyNS44Nyw4NzIuNzMgMTYzLjU2ODUsODc5LjI3MzMgMjAyLjA4ODUsODg1Ljk2MzMgIiBmaWxsPSJub25lIiBpZD0iJiMxMDU1OyYjMTA4NjsmIzEwODM7JiMxMTAwOyYjMTA3OTsmIzEwODY7JiMxMDc0OyYjMTA3MjsmIzEwOTA7JiMxMDc3OyYjMTA4MzsmIzExMDA7LXRvLVVDNSIgc3R5bGU9InN0cm9rZTojMTgxODE4O3N0cm9rZS13aWR0aDoxLjA7Ii8+PHBvbHlnb24gZmlsbD0iIzE4MTgxOCIgcG9pbnRzPSIyMDgsODg2Ljk5LDE5OS44MTcyLDg4MS41MDksMjAzLjA3MzcsODg2LjEzNDQsMTk4LjQ0ODMsODg5LjM5MSwyMDgsODg2Ljk5IiBzdHlsZT0ic3Ryb2tlOiMxODE4MTg7c3Ryb2tlLXdpZHRoOjEuMDsiLz48L2c+PCEtLWxpbmsgPz8/Pz8/Pz8/Pz8/IHRvIFVDNi0tPjxnIGlkPSJsaW5rXyYjMTA1NTsmIzEwODY7JiMxMDgzOyYjMTEwMDsmIzEwNzk7JiMxMDg2OyYjMTA3NDsmIzEwNzI7JiMxMDkwOyYjMTA3NzsmIzEwODM7JiMxMTAwO19VQzYiPjxwYXRoIGQ9Ik05MS41Myw4OTcuNjIgQzExMC4xMiw5MTMuODMgMTMzLjQyLDkzMS44MiAxNTcsOTQ0IEMxNzguMDUsOTU0Ljg3IDE5Ni43NDQsOTYxLjUwODkgMjE5LjE2NCw5NjcuNTA4OSAiIGZpbGw9Im5vbmUiIGlkPSImIzEwNTU7JiMxMDg2OyYjMTA4MzsmIzExMDA7JiMxMDc5OyYjMTA4NjsmIzEwNzQ7JiMxMDcyOyYjMTA5MDsmIzEwNzc7JiMxMDgzOyYjMTEwMDstdG8tVUM2IiBzdHlsZT0ic3Ryb2tlOiMxODE4MTg7c3Ryb2tlLXdpZHRoOjEuMDsiLz48cG9seWdvbiBmaWxsPSIjMTgxODE4IiBwb2ludHM9IjIyNC45Niw5NjkuMDYsMjE3LjMsOTYyLjg2OTMsMjIwLjEzLDk2Ny43Njc0LDIxNS4yMzE5LDk3MC41OTczLDIyNC45Niw5NjkuMDYiIHN0eWxlPSJzdHJva2U6IzE4MTgxODtzdHJva2Utd2lkdGg6MS4wOyIvPjwvZz48IS0tbGluayA/Pz8/Pz8/Pz8/Pz8gdG8gVUM3LS0+PGcgaWQ9ImxpbmtfJiMxMDU1OyYjMTA4NjsmIzEwODM7JiMxMTAwOyYjMTA3OTsmIzEwODY7JiMxMDc0OyYjMTA3MjsmIzEwOTA7JiMxMDc3OyYjMTA4MzsmIzExMDA7X1VDNyI+PHBhdGggZD0iTTY3LjAzLDg5Ny43OCBDODMuMzEsOTM1LjAzIDExMy4yOSw5OTAuNzggMTU3LDEwMjIgQzE3OC4xMSwxMDM3LjA4IDE5OS4yODczLDEwNDQuMzcwNSAyMjMuODA3MywxMDQ5LjA3MDUgIiBmaWxsPSJub25lIiBpZD0iJiMxMDU1OyYjMTA4NjsmIzEwODM7JiMxMTAwOyYjMTA3OTsmIzEwODY7JiMxMDc0OyYjMTA3MjsmIzEwOTA7JiMxMDc3OyYjMTA4MzsmIzExMDA7LXRvLVVDNyIgc3R5bGU9InN0cm9rZTojMTgxODE4O3N0cm9rZS13aWR0aDoxLjA7Ii8+PHBvbHlnb24gZmlsbD0iIzE4MTgxOCIgcG9pbnRzPSIyMjkuNywxMDUwLjIsMjIxLjYxMzksMTA0NC41NzcyLDIyNC43ODk0LDEwNDkuMjU4NywyMjAuMTA3OSwxMDUyLjQzNDIsMjI5LjcsMTA1MC4yIiBzdHlsZT0ic3Ryb2tlOiMxODE4MTg7c3Ryb2tlLXdpZHRoOjEuMDsiLz48L2c+PCEtLWxpbmsgPz8/Pz8/Pz8/Pz8/IHRvIFVDOC0tPjxnIGlkPSJsaW5rXyYjMTA1NTsmIzEwODY7JiMxMDgzOyYjMTEwMDsmIzEwNzk7JiMxMDg2OyYjMTA3NDsmIzEwNzI7JiMxMDkwOyYjMTA3NzsmIzEwODM7JiMxMTAwO19VQzgiPjxwYXRoIGQ9Ik01OS41OSw4OTcuNSBDNzEuMTQsOTQ4LjMyIDk4LjgzLDEwMzguNiAxNTcsMTA5MCBDMTcwLjk2LDExMDIuMzQgMTgyLjc4MTksMTEwOS4xNDM2IDIwMC41NTE5LDExMTUuNDEzNiAiIGZpbGw9Im5vbmUiIGlkPSImIzEwNTU7JiMxMDg2OyYjMTA4MzsmIzExMDA7JiMxMDc5OyYjMTA4NjsmIzEwNzQ7JiMxMDcyOyYjMTA5MDsmIzEwNzc7JiMxMDgzOyYjMTEwMDstdG8tVUM4IiBzdHlsZT0ic3Ryb2tlOiMxODE4MTg7c3Ryb2tlLXdpZHRoOjEuMDsiLz48cG9seWdvbiBmaWxsPSIjMTgxODE4IiBwb2ludHM9IjIwNi4yMSwxMTE3LjQxLDE5OS4wNTM4LDExMTAuNjQzMywyMDEuNDk0OSwxMTE1Ljc0NjMsMTk2LjM5MTksMTExOC4xODc0LDIwNi4yMSwxMTE3LjQxIiBzdHlsZT0ic3Ryb2tlOiMxODE4MTg7c3Ryb2tlLXdpZHRoOjEuMDsiLz48L2c+PCEtLWxpbmsgPz8/Pz8/Pz8/Pz8/PyB0byBVQzktLT48ZyBpZD0ibGlua18mIzEwNDA7JiMxMDc2OyYjMTA4NDsmIzEwODA7JiMxMDg1OyYjMTA4MDsmIzEwODk7JiMxMDkwOyYjMTA4ODsmIzEwNzI7JiMxMDkwOyYjMTA4NjsmIzEwODg7X1VDOSI+PHBhdGggZD0iTTYxLjczLDI1NS4zMiBDNzUuMDgsMjA4LjU0IDEwNC4xNSwxMjkuMjggMTU3LDgzIEMxNjkuMTUsNzIuMzYgMTc4LjI4MTgsNjYuNDQyMyAxOTMuNDUxOCw2MC4wNDIzICIgZmlsbD0ibm9uZSIgaWQ9IiYjMTA0MDsmIzEwNzY7JiMxMDg0OyYjMTA4MDsmIzEwODU7JiMxMDgwOyYjMTA4OTsmIzEwOTA7JiMxMDg4OyYjMTA3MjsmIzEwOTA7JiMxMDg2OyYjMTA4ODstdG8tVUM5IiBzdHlsZT0ic3Ryb2tlOiMxODE4MTg7c3Ryb2tlLXdpZHRoOjEuMDsiLz48cG9seWdvbiBmaWxsPSIjMTgxODE4IiBwb2ludHM9IjE5OC45OCw1Ny43MSwxODkuMTMyOSw1Ny41MjI5LDE5NC4zNzMyLDU5LjY1MzUsMTkyLjI0MjYsNjQuODkzOCwxOTguOTgsNTcuNzEiIHN0eWxlPSJzdHJva2U6IzE4MTgxODtzdHJva2Utd2lkdGg6MS4wOyIvPjwvZz48IS0tbGluayA/Pz8/Pz8/Pz8/Pz8/IHRvIFVDMTAtLT48ZyBpZD0ibGlua18mIzEwNDA7JiMxMDc2OyYjMTA4NDsmIzEwODA7JiMxMDg1OyYjMTA4MDsmIzEwODk7JiMxMDkwOyYjMTA4ODsmIzEwNzI7JiMxMDkwOyYjMTA4NjsmIzEwODg7X1VDMTAiPjxwYXRoIGQ9Ik03OS4xMiwyNTUuMzkgQzk4LjMxLDIzMC42OCAxMjYuMTcsMTk5LjMgMTU3LDE3OSBDMTcyLjIsMTY4Ljk5IDE4NC4xMjAzLDE2Mi45Mzg3IDIwMS40NjAzLDE1Ni4zNTg3ICIgZmlsbD0ibm9uZSIgaWQ9IiYjMTA0MDsmIzEwNzY7JiMxMDg0OyYjMTA4MDsmIzEwODU7JiMxMDgwOyYjMTA4OTsmIzEwOTA7JiMxMDg4OyYjMTA3MjsmIzEwOTA7JiMxMDg2OyYjMTA4ODstdG8tVUMxMCIgc3R5bGU9InN0cm9rZTojMTgxODE4O3N0cm9rZS13aWR0aDoxLjA7Ii8+PHBvbHlnb24gZmlsbD0iIzE4MTgxOCIgcG9pbnRzPSIyMDcuMDcsMTU0LjIzLDE5Ny4yMzYzLDE1My42ODMzLDIwMi4zOTUzLDE1Ni4wMDM5LDIwMC4wNzQ2LDE2MS4xNjI5LDIwNy4wNywxNTQuMjMiIHN0eWxlPSJzdHJva2U6IzE4MTgxODtzdHJva2Utd2lkdGg6MS4wOyIvPjwvZz48IS0tbGluayA/Pz8/Pz8/Pz8/Pz8/IHRvIFVDMTEtLT48ZyBpZD0ibGlua18mIzEwNDA7JiMxMDc2OyYjMTA4NDsmIzEwODA7JiMxMDg1OyYjMTA4MDsmIzEwODk7JiMxMDkwOyYjMTA4ODsmIzEwNzI7JiMxMDkwOyYjMTA4NjsmIzEwODg7X1VDMTEiPjxwYXRoIGQ9Ik05Ny4yLDI3Mi40NSBDMTE1LjUsMjY0LjQ5IDEzNy4wMywyNTUuNyAxNTcsMjQ5IEMxODMuODUsMjM5Ljk4IDIwOC40OTM2LDIzMy40MDE0IDIzMy45MTM2LDIyNy4zNDE0ICIgZmlsbD0ibm9uZSIgaWQ9IiYjMTA0MDsmIzEwNzY7JiMxMDg0OyYjMTA4MDsmIzEwODU7JiMxMDgwOyYjMTA4OTsmIzEwOTA7JiMxMDg4OyYjMTA3MjsmIzEwOTA7JiMxMDg2OyYjMTA4ODstdG8tVUMxMSIgc3R5bGU9InN0cm9rZTojMTgxODE4O3N0cm9rZS13aWR0aDoxLjA7Ii8+PHBvbHlnb24gZmlsbD0iIzE4MTgxOCIgcG9pbnRzPSIyMzkuNzUsMjI1Ljk1LDIzMC4wNjc3LDIyNC4xNDYxLDIzNC44ODYzLDIyNy4xMDk1LDIzMS45MjI5LDIzMS45MjgsMjM5Ljc1LDIyNS45NSIgc3R5bGU9InN0cm9rZTojMTgxODE4O3N0cm9rZS13aWR0aDoxLjA7Ii8+PC9nPjwhLS1saW5rID8/Pz8/Pz8/Pz8/Pz8gdG8gVUMxMi0tPjxnIGlkPSJsaW5rXyYjMTA0MDsmIzEwNzY7JiMxMDg0OyYjMTA4MDsmIzEwODU7JiMxMDgwOyYjMTA4OTsmIzEwOTA7JiMxMDg4OyYjMTA3MjsmIzEwOTA7JiMxMDg2OyYjMTA4ODtfVUMxMiI+PHBhdGggZD0iTTk3LjE3LDI5MyBDMTE5LjkxLDI5MyAxNDIuNzMsMjkzIDE3MS4yNiwyOTMgIiBmaWxsPSJub25lIiBpZD0iJiMxMDQwOyYjMTA3NjsmIzEwODQ7JiMxMDgwOyYjMTA4NTsmIzEwODA7JiMxMDg5OyYjMTA5MDsmIzEwODg7JiMxMDcyOyYjMTA5MDsmIzEwODY7JiMxMDg4Oy10by1VQzEyIiBzdHlsZT0ic3Ryb2tlOiMxODE4MTg7c3Ryb2tlLXdpZHRoOjEuMDsiLz48cG9seWdvbiBmaWxsPSIjMTgxODE4IiBwb2ludHM9IjE3Ny4yNiwyOTMsMTY4LjI2LDI4OSwxNzIuMjYsMjkzLDE2OC4yNiwyOTcsMTc3LjI2LDI5MyIgc3R5bGU9InN0cm9rZTojMTgxODE4O3N0cm9rZS13aWR0aDoxLjA7Ii8+PC9nPjwhLS1saW5rID8/Pz8/Pz8/Pz8/Pz8gdG8gVUMxMy0tPjxnIGlkPSJsaW5rXyYjMTA0MDsmIzEwNzY7JiMxMDg0OyYjMTA4MDsmIzEwODU7JiMxMDgwOyYjMTA4OTsmIzEwOTA7JiMxMDg4OyYjMTA3MjsmIzEwOTA7JiMxMDg2OyYjMTA4ODtfVUMxMyI+PHBhdGggZD0iTTk3LjEsMzEyLjU5IEMxMTUuNDgsMzIwLjMzIDEzNy4wOSwzMjkuMDMgMTU3LDMzNiBDMTgxLjE3LDM0NC40NiAyMDIuMzc3MywzNTAuOTU0MyAyMjUuOTg3MywzNTcuNjQ0MyAiIGZpbGw9Im5vbmUiIGlkPSImIzEwNDA7JiMxMDc2OyYjMTA4NDsmIzEwODA7JiMxMDg1OyYjMTA4MDsmIzEwODk7JiMxMDkwOyYjMTA4ODsmIzEwNzI7JiMxMDkwOyYjMTA4NjsmIzEwODg7LXRvLVVDMTMiIHN0eWxlPSJzdHJva2U6IzE4MTgxODtzdHJva2Utd2lkdGg6MS4wOyIvPjxwb2x5Z29uIGZpbGw9IiMxODE4MTgiIHBvaW50cz0iMjMxLjc2LDM1OS4yOCwyMjQuMTkxNCwzNTIuOTc3OSwyMjYuOTQ5NCwzNTcuOTE2OSwyMjIuMDEwNCwzNjAuNjc0OSwyMzEuNzYsMzU5LjI4IiBzdHlsZT0ic3Ryb2tlOiMxODE4MTg7c3Ryb2tlLXdpZHRoOjEuMDsiLz48L2c+PCEtLWxpbmsgPz8/Pz8/Pz8/Pz8/PyB0byBVQzE0LS0+PGcgaWQ9ImxpbmtfJiMxMDQwOyYjMTA3NjsmIzEwODQ7JiMxMDgwOyYjMTA4NTsmIzEwODA7JiMxMDg5OyYjMTA5MDsmIzEwODg7JiMxMDcyOyYjMTA5MDsmIzEwODY7JiMxMDg4O19VQzE0Ij48cGF0aCBkPSJNNzUuNjksMzMwLjYxIEM5NC40MSwzNTcuOSAxMjMuMTUsMzkzLjY1IDE1Nyw0MTUgQzE3Ny42LDQyNy45OSAxOTYuODYzOSw0MzUuMDY3MyAyMTkuOTUzOSw0NDAuNTc3MyAiIGZpbGw9Im5vbmUiIGlkPSImIzEwNDA7JiMxMDc2OyYjMTA4NDsmIzEwODA7JiMxMDg1OyYjMTA4MDsmIzEwODk7JiMxMDkwOyYjMTA4ODsmIzEwNzI7JiMxMDkwOyYjMTA4NjsmIzEwODg7LXRvLVVDMTQiIHN0eWxlPSJzdHJva2U6IzE4MTgxODtzdHJva2Utd2lkdGg6MS4wOyIvPjxwb2x5Z29uIGZpbGw9IiMxODE4MTgiIHBvaW50cz0iMjI1Ljc5LDQ0MS45NywyMTcuOTY0Myw0MzUuOTkwMiwyMjAuOTI2Niw0NDAuODA5NCwyMTYuMTA3Myw0NDMuNzcxNywyMjUuNzksNDQxLjk3IiBzdHlsZT0ic3Ryb2tlOiMxODE4MTg7c3Ryb2tlLXdpZHRoOjEuMDsiLz48L2c+PCEtLWxpbmsgPz8/Pz8/Pz8/Pz8/PyB0byBVQzE1LS0+PGcgaWQ9ImxpbmtfJiMxMDQwOyYjMTA3NjsmIzEwODQ7JiMxMDgwOyYjMTA4NTsmIzEwODA7JiMxMDg5OyYjMTA5MDsmIzEwODg7JiMxMDcyOyYjMTA5MDsmIzEwODY7JiMxMDg4O19VQzE1Ij48cGF0aCBkPSJNNjIuNTksMzMwLjU1IEM3Ni40NiwzNzQuODUgMTA1LjcyLDQ0Ny41OCAxNTcsNDg4IEMxNzUuOSw1MDIuODkgMTk0LjQ4NDYsNTEwLjM1MDYgMjE3LjUxNDYsNTE1LjUwMDYgIiBmaWxsPSJub25lIiBpZD0iJiMxMDQwOyYjMTA3NjsmIzEwODQ7JiMxMDgwOyYjMTA4NTsmIzEwODA7JiMxMDg5OyYjMTA5MDsmIzEwODg7JiMxMDcyOyYjMTA5MDsmIzEwODY7JiMxMDg4Oy10by1VQzE1IiBzdHlsZT0ic3Ryb2tlOiMxODE4MTg7c3Ryb2tlLXdpZHRoOjEuMDsiLz48cG9seWdvbiBmaWxsPSIjMTgxODE4IiBwb2ludHM9IjIyMy4zNyw1MTYuODEsMjE1LjQ1OTksNTEwLjk0MjMsMjE4LjQ5MDUsNTE1LjcxODgsMjEzLjcxNCw1MTguNzQ5NSwyMjMuMzcsNTE2LjgxIiBzdHlsZT0ic3Ryb2tlOiMxODE4MTg7c3Ryb2tlLXdpZHRoOjEuMDsiLz48L2c+PCEtLVNSQz1bYlBKQkppOTA1OFJ0Vk9lOVVuOXh1eDludXBGdTAwSWhhWFg5ZUV3dllDUTRIMVNrTkNhaDU0QW5LNlhWdVNtUi1TLXFySDlCZndQZmNjNi1fdnBfZDNGM2RORmpDaFZGMWhzUk12VFR6R1BFci10cnhwTWpxdE54MHFPQllZWmFTX2gyVHFLVWR2MGxyamRzNndyZkptNFRBRTFaRms0WllLSHlmNmFGR3dWUjZKZ2lIa19HQmljM0ZXMG9QdUFHbUtRQ0xlbnNXYVMySEU3SjZraUNzVU01ZGZDbGkxbG5DVjk0OGFERUJod2ZtQ1dCeTNsaXFBdU9ETkZlMV9Ca0tUOTFsVzd2WjQ5ZWR4NjhRQ2thZnFWZlJ1eWVKclc3UUhJaG42N0kzMmMzVzU1eWw5X3BPZlZMRU9QcktTY0NtUU03RmRkOTY1OWo4d1Z6ZjFaNkhVLXp1Z0FSSF8xSTNraGJqLVlMbzFSb0FNc21EdUxaSURUdVY4MFJQQ3dnUmZOdGhnMVRaQThhdDl6Skg3dVFqNXRRb2wtNHZBenliZnNXaXRBaFNUZVdRM0E1Tlp3Q0UzYkt3RjJmVWNZUlhKOGdYb2dRaDZ1TXRmeG1udHRYWTdNaGpFOVlaUXJmZi11dWd6VkZ2TExLMDhPQUM1TTBmRzlpNVQxRzBLcUxxNDhaSmx3UmZLblJaVTNPZ0hjejBjREtPQ21BWjVNMWlSeTFdLS0+PC9nPjwvc3ZnPg==;" vertex="1" parent="1">
            <mxGeometry x="-1040" y="1300" width="439" height="1164" as="geometry" />
          </mxCell>
        </UserObject>
        <UserObject label="" plantUmlData="{&#xa;  &quot;data&quot;: &quot;@startuml\nactor User as \&quot;Пользователь\&quot;\nentity System as \&quot;Система\&quot;\n\nUser -&gt; System : Нажимает кнопку \&quot;Зарегистрироваться\&quot;\nSystem -&gt; User : Открывает форму регистрации\nUser -&gt; System : Вводит данные (имя, email, пароль)\nSystem -&gt; System : Проверяет валидность данных\nalt Данные валидны\n    System -&gt; User : Оповещает пользователя об успешной регистрации\n    System -&gt; System : Добавляет пользователя в базу данных\nelse Данные не валидны\n    System -&gt; User : Оповещает о неверных данных\nend\n@enduml\n&quot;,&#xa;  &quot;format&quot;: &quot;svg&quot;&#xa;}" id="NkZFCGmQznUvReN-Zk9U-2">
          <mxCell style="shape=image;noLabel=1;verticalAlign=top;aspect=fixed;imageAspect=0;image=data:image/svg+xml,PD94bWwgdmVyc2lvbj0iMS4wIiBlbmNvZGluZz0idXMtYXNjaWkiIHN0YW5kYWxvbmU9Im5vIj8+PHN2ZyB4bWxucz0iaHR0cDovL3d3dy53My5vcmcvMjAwMC9zdmciIHhtbG5zOnhsaW5rPSJodHRwOi8vd3d3LnczLm9yZy8xOTk5L3hsaW5rIiBjb250ZW50U3R5bGVUeXBlPSJ0ZXh0L2NzcyIgaGVpZ2h0PSI0NDRweCIgcHJlc2VydmVBc3BlY3RSYXRpbz0ibm9uZSIgc3R5bGU9IndpZHRoOjY4NHB4O2hlaWdodDo0NDRweDtiYWNrZ3JvdW5kOiNGRkZGRkY7IiB2ZXJzaW9uPSIxLjEiIHZpZXdCb3g9IjAgMCA2ODQgNDQ0IiB3aWR0aD0iNjg0cHgiIHpvb21BbmRQYW49Im1hZ25pZnkiPjxkZWZzLz48Zz48cmVjdCBmaWxsPSJub25lIiBoZWlnaHQ9IjEyNi40Mjk3IiBzdHlsZT0ic3Ryb2tlOiMwMDAwMDA7c3Ryb2tlLXdpZHRoOjEuNTsiIHdpZHRoPSI2NjciIHg9IjEwIiB5PSIyMjEuNjQwNiIvPjxsaW5lIHN0eWxlPSJzdHJva2U6IzE4MTgxODtzdHJva2Utd2lkdGg6MC41O3N0cm9rZS1kYXNoYXJyYXk6NS4wLDUuMDsiIHgxPSI2NiIgeDI9IjY2IiB5MT0iNzkuOTg0NCIgeTI9IjM2NS4wNzAzIi8+PGxpbmUgc3R5bGU9InN0cm9rZTojMTgxODE4O3N0cm9rZS13aWR0aDowLjU7c3Ryb2tlLWRhc2hhcnJheTo1LjAsNS4wOyIgeDE9IjQwNy41IiB4Mj0iNDA3LjUiIHkxPSI3OS45ODQ0IiB5Mj0iMzY1LjA3MDMiLz48dGV4dCBmaWxsPSIjMDAwMDAwIiBmb250LWZhbWlseT0ic2Fucy1zZXJpZiIgZm9udC1zaXplPSIxNCIgbGVuZ3RoQWRqdXN0PSJzcGFjaW5nIiB0ZXh0TGVuZ3RoPSI4NiIgeD0iMjAiIHk9Ijc4LjIzNDQiPiYjMTA1NTsmIzEwODY7JiMxMDgzOyYjMTEwMDsmIzEwNzk7JiMxMDg2OyYjMTA3NDsmIzEwNzI7JiMxMDkwOyYjMTA3NzsmIzEwODM7JiMxMTAwOzwvdGV4dD48ZWxsaXBzZSBjeD0iNjYiIGN5PSIxMy41IiBmaWxsPSIjRTJFMkYwIiByeD0iOCIgcnk9IjgiIHN0eWxlPSJzdHJva2U6IzE4MTgxODtzdHJva2Utd2lkdGg6MC41OyIvPjxwYXRoIGQ9Ik02NiwyMS41IEw2Niw0OC41IE01MywyOS41IEw3OSwyOS41IE02Niw0OC41IEw1Myw2My41IE02Niw0OC41IEw3OSw2My41ICIgZmlsbD0ibm9uZSIgc3R5bGU9InN0cm9rZTojMTgxODE4O3N0cm9rZS13aWR0aDowLjU7Ii8+PHRleHQgZmlsbD0iIzAwMDAwMCIgZm9udC1mYW1pbHk9InNhbnMtc2VyaWYiIGZvbnQtc2l6ZT0iMTQiIGxlbmd0aEFkanVzdD0ic3BhY2luZyIgdGV4dExlbmd0aD0iODYiIHg9IjIwIiB5PSIzNzcuMzA0NyI+JiMxMDU1OyYjMTA4NjsmIzEwODM7JiMxMTAwOyYjMTA3OTsmIzEwODY7JiMxMDc0OyYjMTA3MjsmIzEwOTA7JiMxMDc3OyYjMTA4MzsmIzExMDA7PC90ZXh0PjxlbGxpcHNlIGN4PSI2NiIgY3k9IjM4Ny41NTQ3IiBmaWxsPSIjRTJFMkYwIiByeD0iOCIgcnk9IjgiIHN0eWxlPSJzdHJva2U6IzE4MTgxODtzdHJva2Utd2lkdGg6MC41OyIvPjxwYXRoIGQ9Ik02NiwzOTUuNTU0NyBMNjYsNDIyLjU1NDcgTTUzLDQwMy41NTQ3IEw3OSw0MDMuNTU0NyBNNjYsNDIyLjU1NDcgTDUzLDQzNy41NTQ3IE02Niw0MjIuNTU0NyBMNzksNDM3LjU1NDcgIiBmaWxsPSJub25lIiBzdHlsZT0ic3Ryb2tlOiMxODE4MTg7c3Ryb2tlLXdpZHRoOjAuNTsiLz48dGV4dCBmaWxsPSIjMDAwMDAwIiBmb250LWZhbWlseT0ic2Fucy1zZXJpZiIgZm9udC1zaXplPSIxNCIgbGVuZ3RoQWRqdXN0PSJzcGFjaW5nIiB0ZXh0TGVuZ3RoPSI0OSIgeD0iMzgwLjUiIHk9Ijc4LjIzNDQiPiYjMTA1NzsmIzEwODA7JiMxMDg5OyYjMTA5MDsmIzEwNzc7JiMxMDg0OyYjMTA3Mjs8L3RleHQ+PGVsbGlwc2UgY3g9IjQwOCIgY3k9IjQ5IiBmaWxsPSIjRTJFMkYwIiByeD0iMTIiIHJ5PSIxMiIgc3R5bGU9InN0cm9rZTojMTgxODE4O3N0cm9rZS13aWR0aDowLjU7Ii8+PGxpbmUgc3R5bGU9InN0cm9rZTojMTgxODE4O3N0cm9rZS13aWR0aDowLjU7IiB4MT0iMzk2IiB4Mj0iNDIwIiB5MT0iNjMiIHkyPSI2MyIvPjx0ZXh0IGZpbGw9IiMwMDAwMDAiIGZvbnQtZmFtaWx5PSJzYW5zLXNlcmlmIiBmb250LXNpemU9IjE0IiBsZW5ndGhBZGp1c3Q9InNwYWNpbmciIHRleHRMZW5ndGg9IjQ5IiB4PSIzODAuNSIgeT0iMzc3LjMwNDciPiYjMTA1NzsmIzEwODA7JiMxMDg5OyYjMTA5MDsmIzEwNzc7JiMxMDg0OyYjMTA3Mjs8L3RleHQ+PGVsbGlwc2UgY3g9IjQwOCIgY3k9IjM5NS4wNTQ3IiBmaWxsPSIjRTJFMkYwIiByeD0iMTIiIHJ5PSIxMiIgc3R5bGU9InN0cm9rZTojMTgxODE4O3N0cm9rZS13aWR0aDowLjU7Ii8+PGxpbmUgc3R5bGU9InN0cm9rZTojMTgxODE4O3N0cm9rZS13aWR0aDowLjU7IiB4MT0iMzk2IiB4Mj0iNDIwIiB5MT0iNDA5LjA1NDciIHkyPSI0MDkuMDU0NyIvPjxwb2x5Z29uIGZpbGw9IiMxODE4MTgiIHBvaW50cz0iMzk2LDEwNS44OTg0LDQwNiwxMDkuODk4NCwzOTYsMTEzLjg5ODQsNDAwLDEwOS44OTg0IiBzdHlsZT0ic3Ryb2tlOiMxODE4MTg7c3Ryb2tlLXdpZHRoOjEuMDsiLz48bGluZSBzdHlsZT0ic3Ryb2tlOiMxODE4MTg7c3Ryb2tlLXdpZHRoOjEuMDsiIHgxPSI2NiIgeDI9IjQwMiIgeTE9IjEwOS44OTg0IiB5Mj0iMTA5Ljg5ODQiLz48dGV4dCBmaWxsPSIjMDAwMDAwIiBmb250LWZhbWlseT0ic2Fucy1zZXJpZiIgZm9udC1zaXplPSIxMyIgbGVuZ3RoQWRqdXN0PSJzcGFjaW5nIiB0ZXh0TGVuZ3RoPSIyNDkiIHg9IjczIiB5PSIxMDYuMjczNCI+JiMxMDUzOyYjMTA3MjsmIzEwNzg7JiMxMDgwOyYjMTA4NDsmIzEwNzI7JiMxMDc3OyYjMTA5MDsgJiMxMDgyOyYjMTA4NTsmIzEwODY7JiMxMDg3OyYjMTA4MjsmIzEwOTE7ICImIzEwNDc7JiMxMDcyOyYjMTA4ODsmIzEwNzc7JiMxMDc1OyYjMTA4MDsmIzEwODk7JiMxMDkwOyYjMTA4ODsmIzEwODA7JiMxMDg4OyYjMTA4NjsmIzEwNzQ7JiMxMDcyOyYjMTA5MDsmIzExMDA7JiMxMDg5OyYjMTEwMzsiPC90ZXh0Pjxwb2x5Z29uIGZpbGw9IiMxODE4MTgiIHBvaW50cz0iNzcsMTMzLjgxMjUsNjcsMTM3LjgxMjUsNzcsMTQxLjgxMjUsNzMsMTM3LjgxMjUiIHN0eWxlPSJzdHJva2U6IzE4MTgxODtzdHJva2Utd2lkdGg6MS4wOyIvPjxsaW5lIHN0eWxlPSJzdHJva2U6IzE4MTgxODtzdHJva2Utd2lkdGg6MS4wOyIgeDE9IjcxIiB4Mj0iNDA3IiB5MT0iMTM3LjgxMjUiIHkyPSIxMzcuODEyNSIvPjx0ZXh0IGZpbGw9IiMwMDAwMDAiIGZvbnQtZmFtaWx5PSJzYW5zLXNlcmlmIiBmb250LXNpemU9IjEzIiBsZW5ndGhBZGp1c3Q9InNwYWNpbmciIHRleHRMZW5ndGg9IjE4NSIgeD0iODMiIHk9IjEzNC4xODc1Ij4mIzEwNTQ7JiMxMDkwOyYjMTA4MjsmIzEwODg7JiMxMDk5OyYjMTA3NDsmIzEwNzI7JiMxMDc3OyYjMTA5MDsgJiMxMDkyOyYjMTA4NjsmIzEwODg7JiMxMDg0OyYjMTA5MTsgJiMxMDg4OyYjMTA3NzsmIzEwNzU7JiMxMDgwOyYjMTA4OTsmIzEwOTA7JiMxMDg4OyYjMTA3MjsmIzEwOTQ7JiMxMDgwOyYjMTA4MDs8L3RleHQ+PHBvbHlnb24gZmlsbD0iIzE4MTgxOCIgcG9pbnRzPSIzOTYsMTYxLjcyNjYsNDA2LDE2NS43MjY2LDM5NiwxNjkuNzI2Niw0MDAsMTY1LjcyNjYiIHN0eWxlPSJzdHJva2U6IzE4MTgxODtzdHJva2Utd2lkdGg6MS4wOyIvPjxsaW5lIHN0eWxlPSJzdHJva2U6IzE4MTgxODtzdHJva2Utd2lkdGg6MS4wOyIgeDE9IjY2IiB4Mj0iNDAyIiB5MT0iMTY1LjcyNjYiIHkyPSIxNjUuNzI2NiIvPjx0ZXh0IGZpbGw9IiMwMDAwMDAiIGZvbnQtZmFtaWx5PSJzYW5zLXNlcmlmIiBmb250LXNpemU9IjEzIiBsZW5ndGhBZGp1c3Q9InNwYWNpbmciIHRleHRMZW5ndGg9IjIzMCIgeD0iNzMiIHk9IjE2Mi4xMDE2Ij4mIzEwNDI7JiMxMDc0OyYjMTA4NjsmIzEwNzY7JiMxMDgwOyYjMTA5MDsgJiMxMDc2OyYjMTA3MjsmIzEwODU7JiMxMDg1OyYjMTA5OTsmIzEwNzc7ICgmIzEwODA7JiMxMDg0OyYjMTEwMzssIGVtYWlsLCAmIzEwODc7JiMxMDcyOyYjMTA4ODsmIzEwODY7JiMxMDgzOyYjMTEwMDspPC90ZXh0PjxsaW5lIHN0eWxlPSJzdHJva2U6IzE4MTgxODtzdHJva2Utd2lkdGg6MS4wOyIgeDE9IjQwOCIgeDI9IjQ1MCIgeTE9IjE5My42NDA2IiB5Mj0iMTkzLjY0MDYiLz48bGluZSBzdHlsZT0ic3Ryb2tlOiMxODE4MTg7c3Ryb2tlLXdpZHRoOjEuMDsiIHgxPSI0NTAiIHgyPSI0NTAiIHkxPSIxOTMuNjQwNiIgeTI9IjIwNi42NDA2Ii8+PGxpbmUgc3R5bGU9InN0cm9rZTojMTgxODE4O3N0cm9rZS13aWR0aDoxLjA7IiB4MT0iNDA5IiB4Mj0iNDUwIiB5MT0iMjA2LjY0MDYiIHkyPSIyMDYuNjQwNiIvPjxwb2x5Z29uIGZpbGw9IiMxODE4MTgiIHBvaW50cz0iNDE5LDIwMi42NDA2LDQwOSwyMDYuNjQwNiw0MTksMjEwLjY0MDYsNDE1LDIwNi42NDA2IiBzdHlsZT0ic3Ryb2tlOiMxODE4MTg7c3Ryb2tlLXdpZHRoOjEuMDsiLz48dGV4dCBmaWxsPSIjMDAwMDAwIiBmb250LWZhbWlseT0ic2Fucy1zZXJpZiIgZm9udC1zaXplPSIxMyIgbGVuZ3RoQWRqdXN0PSJzcGFjaW5nIiB0ZXh0TGVuZ3RoPSIxODciIHg9IjQxNSIgeT0iMTkwLjAxNTYiPiYjMTA1NTsmIzEwODg7JiMxMDg2OyYjMTA3NDsmIzEwNzc7JiMxMDg4OyYjMTEwMzsmIzEwNzc7JiMxMDkwOyAmIzEwNzQ7JiMxMDcyOyYjMTA4MzsmIzEwODA7JiMxMDc2OyYjMTA4NTsmIzEwODY7JiMxMDg5OyYjMTA5MDsmIzExMDA7ICYjMTA3NjsmIzEwNzI7JiMxMDg1OyYjMTA4NTsmIzEwOTk7JiMxMDkzOzwvdGV4dD48cGF0aCBkPSJNMTAsMjIxLjY0MDYgTDc0LDIyMS42NDA2IEw3NCwyMjcuNTU0NyBMNjQsMjM3LjU1NDcgTDEwLDIzNy41NTQ3IEwxMCwyMjEuNjQwNiAiIGZpbGw9IiNFRUVFRUUiIHN0eWxlPSJzdHJva2U6IzAwMDAwMDtzdHJva2Utd2lkdGg6MS41OyIvPjxyZWN0IGZpbGw9Im5vbmUiIGhlaWdodD0iMTI2LjQyOTciIHN0eWxlPSJzdHJva2U6IzAwMDAwMDtzdHJva2Utd2lkdGg6MS41OyIgd2lkdGg9IjY2NyIgeD0iMTAiIHk9IjIyMS42NDA2Ii8+PHRleHQgZmlsbD0iIzAwMDAwMCIgZm9udC1mYW1pbHk9InNhbnMtc2VyaWYiIGZvbnQtc2l6ZT0iMTMiIGZvbnQtd2VpZ2h0PSJib2xkIiBsZW5ndGhBZGp1c3Q9InNwYWNpbmciIHRleHRMZW5ndGg9IjE5IiB4PSIyNSIgeT0iMjM0LjkyOTciPmFsdDwvdGV4dD48dGV4dCBmaWxsPSIjMDAwMDAwIiBmb250LWZhbWlseT0ic2Fucy1zZXJpZiIgZm9udC1zaXplPSIxMSIgZm9udC13ZWlnaHQ9ImJvbGQiIGxlbmd0aEFkanVzdD0ic3BhY2luZyIgdGV4dExlbmd0aD0iOTYiIHg9Ijg5IiB5PSIyMzQuMDM5MSI+WyYjMTA0NDsmIzEwNzI7JiMxMDg1OyYjMTA4NTsmIzEwOTk7JiMxMDc3OyAmIzEwNzQ7JiMxMDcyOyYjMTA4MzsmIzEwODA7JiMxMDc2OyYjMTA4NTsmIzEwOTk7XTwvdGV4dD48cG9seWdvbiBmaWxsPSIjMTgxODE4IiBwb2ludHM9Ijc3LDI1My40Njg4LDY3LDI1Ny40Njg4LDc3LDI2MS40Njg4LDczLDI1Ny40Njg4IiBzdHlsZT0ic3Ryb2tlOiMxODE4MTg7c3Ryb2tlLXdpZHRoOjEuMDsiLz48bGluZSBzdHlsZT0ic3Ryb2tlOiMxODE4MTg7c3Ryb2tlLXdpZHRoOjEuMDsiIHgxPSI3MSIgeDI9IjQwNyIgeTE9IjI1Ny40Njg4IiB5Mj0iMjU3LjQ2ODgiLz48dGV4dCBmaWxsPSIjMDAwMDAwIiBmb250LWZhbWlseT0ic2Fucy1zZXJpZiIgZm9udC1zaXplPSIxMyIgbGVuZ3RoQWRqdXN0PSJzcGFjaW5nIiB0ZXh0TGVuZ3RoPSIzMTgiIHg9IjgzIiB5PSIyNTMuODQzOCI+JiMxMDU0OyYjMTA4NzsmIzEwODY7JiMxMDc0OyYjMTA3NzsmIzEwOTc7JiMxMDcyOyYjMTA3NzsmIzEwOTA7ICYjMTA4NzsmIzEwODY7JiMxMDgzOyYjMTEwMDsmIzEwNzk7JiMxMDg2OyYjMTA3NDsmIzEwNzI7JiMxMDkwOyYjMTA3NzsmIzEwODM7JiMxMTAzOyAmIzEwODY7JiMxMDczOyAmIzEwOTE7JiMxMDg5OyYjMTA4NzsmIzEwNzc7JiMxMDk2OyYjMTA4NTsmIzEwODY7JiMxMDgxOyAmIzEwODg7JiMxMDc3OyYjMTA3NTsmIzEwODA7JiMxMDg5OyYjMTA5MDsmIzEwODg7JiMxMDcyOyYjMTA5NDsmIzEwODA7JiMxMDgwOzwvdGV4dD48bGluZSBzdHlsZT0ic3Ryb2tlOiMxODE4MTg7c3Ryb2tlLXdpZHRoOjEuMDsiIHgxPSI0MDgiIHgyPSI0NTAiIHkxPSIyODUuMzgyOCIgeTI9IjI4NS4zODI4Ii8+PGxpbmUgc3R5bGU9InN0cm9rZTojMTgxODE4O3N0cm9rZS13aWR0aDoxLjA7IiB4MT0iNDUwIiB4Mj0iNDUwIiB5MT0iMjg1LjM4MjgiIHkyPSIyOTguMzgyOCIvPjxsaW5lIHN0eWxlPSJzdHJva2U6IzE4MTgxODtzdHJva2Utd2lkdGg6MS4wOyIgeDE9IjQwOSIgeDI9IjQ1MCIgeTE9IjI5OC4zODI4IiB5Mj0iMjk4LjM4MjgiLz48cG9seWdvbiBmaWxsPSIjMTgxODE4IiBwb2ludHM9IjQxOSwyOTQuMzgyOCw0MDksMjk4LjM4MjgsNDE5LDMwMi4zODI4LDQxNSwyOTguMzgyOCIgc3R5bGU9InN0cm9rZTojMTgxODE4O3N0cm9rZS13aWR0aDoxLjA7Ii8+PHRleHQgZmlsbD0iIzAwMDAwMCIgZm9udC1mYW1pbHk9InNhbnMtc2VyaWYiIGZvbnQtc2l6ZT0iMTMiIGxlbmd0aEFkanVzdD0ic3BhY2luZyIgdGV4dExlbmd0aD0iMjUwIiB4PSI0MTUiIHk9IjI4MS43NTc4Ij4mIzEwNDQ7JiMxMDg2OyYjMTA3MzsmIzEwNzI7JiMxMDc0OyYjMTA4MzsmIzExMDM7JiMxMDc3OyYjMTA5MDsgJiMxMDg3OyYjMTA4NjsmIzEwODM7JiMxMTAwOyYjMTA3OTsmIzEwODY7JiMxMDc0OyYjMTA3MjsmIzEwOTA7JiMxMDc3OyYjMTA4MzsmIzExMDM7ICYjMTA3NDsgJiMxMDczOyYjMTA3MjsmIzEwNzk7JiMxMDkxOyAmIzEwNzY7JiMxMDcyOyYjMTA4NTsmIzEwODU7JiMxMDk5OyYjMTA5Mzs8L3RleHQ+PGxpbmUgc3R5bGU9InN0cm9rZTojMDAwMDAwO3N0cm9rZS13aWR0aDoxLjA7c3Ryb2tlLWRhc2hhcnJheToyLjAsMi4wOyIgeDE9IjEwIiB4Mj0iNjc3IiB5MT0iMzA3LjM4MjgiIHkyPSIzMDcuMzgyOCIvPjx0ZXh0IGZpbGw9IiMwMDAwMDAiIGZvbnQtZmFtaWx5PSJzYW5zLXNlcmlmIiBmb250LXNpemU9IjExIiBmb250LXdlaWdodD0iYm9sZCIgbGVuZ3RoQWRqdXN0PSJzcGFjaW5nIiB0ZXh0TGVuZ3RoPSIxMTQiIHg9IjE1IiB5PSIzMTcuNzgxMyI+WyYjMTA0NDsmIzEwNzI7JiMxMDg1OyYjMTA4NTsmIzEwOTk7JiMxMDc3OyAmIzEwODU7JiMxMDc3OyAmIzEwNzQ7JiMxMDcyOyYjMTA4MzsmIzEwODA7JiMxMDc2OyYjMTA4NTsmIzEwOTk7XTwvdGV4dD48cG9seWdvbiBmaWxsPSIjMTgxODE4IiBwb2ludHM9Ijc3LDMzNi4wNzAzLDY3LDM0MC4wNzAzLDc3LDM0NC4wNzAzLDczLDM0MC4wNzAzIiBzdHlsZT0ic3Ryb2tlOiMxODE4MTg7c3Ryb2tlLXdpZHRoOjEuMDsiLz48bGluZSBzdHlsZT0ic3Ryb2tlOiMxODE4MTg7c3Ryb2tlLXdpZHRoOjEuMDsiIHgxPSI3MSIgeDI9IjQwNyIgeTE9IjM0MC4wNzAzIiB5Mj0iMzQwLjA3MDMiLz48dGV4dCBmaWxsPSIjMDAwMDAwIiBmb250LWZhbWlseT0ic2Fucy1zZXJpZiIgZm9udC1zaXplPSIxMyIgbGVuZ3RoQWRqdXN0PSJzcGFjaW5nIiB0ZXh0TGVuZ3RoPSIxODgiIHg9IjgzIiB5PSIzMzYuNDQ1MyI+JiMxMDU0OyYjMTA4NzsmIzEwODY7JiMxMDc0OyYjMTA3NzsmIzEwOTc7JiMxMDcyOyYjMTA3NzsmIzEwOTA7ICYjMTA4NjsgJiMxMDg1OyYjMTA3NzsmIzEwNzQ7JiMxMDc3OyYjMTA4ODsmIzEwODU7JiMxMDk5OyYjMTA5MzsgJiMxMDc2OyYjMTA3MjsmIzEwODU7JiMxMDg1OyYjMTA5OTsmIzEwOTM7PC90ZXh0PjwhLS1TUkM9W2ZQNURJaURHNThOZE1TS2I4dU13MEdUa0dibjBxM1NlZjFNUUozaGhadWhJRzQwQVpoSXVXbldKNnpDY3RTQXpFX0F5YnZJYzhVQjBHQ1pWa1R5dnZ5UXZ6Y3o3VEVNZjRKYVVzUnBZYVpTSXkxaE5jMkVQU1FnVlJLaURfUnVfZmlrbnZ3ajFmTnRkSkFQNmlVTjhqWW4zRVJsT1F5dzlOcGRZQnl4cVRxdmJIZm5wMFYyRVN2YTN5MEEzMlNPX0FuM2tDdm9yaUdIdTV6Zk1KR0ZOeTQ1eldzU2s0cmJlZVU3QTdQVU90OEJRMGFSbzBGLWk4emlwZmFqRWU0SWsxQTIyMm8xSkVqNjE5VW9INlpYempxVTg2dmJPc0NEZjh5dTFqUWZKZm1XTExhTHJpV3IwWUl2aWlXR0Q1eGN0N0RTZE5aUGljb0VvaTBYN0h0TTRnUG9VellsVFRWd25hRjN1R0pBTkFISWZGOWg1Vl8tc2RjRXRHeEViZmkwZnJpV19fNjhvcVpMLW1iNUp2TmdnTFJOdUh6X0laNVZSaFhuUVRpRVI3bTAwXS0tPjwvZz48L3N2Zz4=;" vertex="1" parent="1">
            <mxGeometry x="-480" y="1650" width="684" height="444" as="geometry" />
          </mxCell>
        </UserObject>
        <UserObject label="" plantUmlData="{&#xa;  &quot;data&quot;: &quot;@startuml\nactor User as \&quot;Пользователь\&quot;\nentity System as \&quot;Система\&quot;\n\nUser -&gt; System : Нажимает кнопку \&quot;Добавить в корзину\&quot;\nSystem -&gt; User : Открывает страницу корзины\nUser -&gt; System : Выбирает товар и количество\nSystem -&gt; System : Добавляет товар в корзину\nSystem -&gt; User : Оповещает о добавлении товара в корзину\n@enduml\n&quot;,&#xa;  &quot;format&quot;: &quot;svg&quot;&#xa;}" id="NkZFCGmQznUvReN-Zk9U-3">
          <mxCell style="shape=image;noLabel=1;verticalAlign=top;aspect=fixed;imageAspect=0;image=data:image/svg+xml,PD94bWwgdmVyc2lvbj0iMS4wIiBlbmNvZGluZz0idXMtYXNjaWkiIHN0YW5kYWxvbmU9Im5vIj8+PHN2ZyB4bWxucz0iaHR0cDovL3d3dy53My5vcmcvMjAwMC9zdmciIHhtbG5zOnhsaW5rPSJodHRwOi8vd3d3LnczLm9yZy8xOTk5L3hsaW5rIiBjb250ZW50U3R5bGVUeXBlPSJ0ZXh0L2NzcyIgaGVpZ2h0PSIzMzJweCIgcHJlc2VydmVBc3BlY3RSYXRpbz0ibm9uZSIgc3R5bGU9IndpZHRoOjUzM3B4O2hlaWdodDozMzJweDtiYWNrZ3JvdW5kOiNGRkZGRkY7IiB2ZXJzaW9uPSIxLjEiIHZpZXdCb3g9IjAgMCA1MzMgMzMyIiB3aWR0aD0iNTMzcHgiIHpvb21BbmRQYW49Im1hZ25pZnkiPjxkZWZzLz48Zz48bGluZSBzdHlsZT0ic3Ryb2tlOiMxODE4MTg7c3Ryb2tlLXdpZHRoOjAuNTtzdHJva2UtZGFzaGFycmF5OjUuMCw1LjA7IiB4MT0iNTEiIHgyPSI1MSIgeTE9Ijc5Ljk4NDQiIHkyPSIyNTIuNTU0NyIvPjxsaW5lIHN0eWxlPSJzdHJva2U6IzE4MTgxODtzdHJva2Utd2lkdGg6MC41O3N0cm9rZS1kYXNoYXJyYXk6NS4wLDUuMDsiIHgxPSIzNDUuNSIgeDI9IjM0NS41IiB5MT0iNzkuOTg0NCIgeTI9IjI1Mi41NTQ3Ii8+PHRleHQgZmlsbD0iIzAwMDAwMCIgZm9udC1mYW1pbHk9InNhbnMtc2VyaWYiIGZvbnQtc2l6ZT0iMTQiIGxlbmd0aEFkanVzdD0ic3BhY2luZyIgdGV4dExlbmd0aD0iODYiIHg9IjUiIHk9Ijc4LjIzNDQiPiYjMTA1NTsmIzEwODY7JiMxMDgzOyYjMTEwMDsmIzEwNzk7JiMxMDg2OyYjMTA3NDsmIzEwNzI7JiMxMDkwOyYjMTA3NzsmIzEwODM7JiMxMTAwOzwvdGV4dD48ZWxsaXBzZSBjeD0iNTEiIGN5PSIxMy41IiBmaWxsPSIjRTJFMkYwIiByeD0iOCIgcnk9IjgiIHN0eWxlPSJzdHJva2U6IzE4MTgxODtzdHJva2Utd2lkdGg6MC41OyIvPjxwYXRoIGQ9Ik01MSwyMS41IEw1MSw0OC41IE0zOCwyOS41IEw2NCwyOS41IE01MSw0OC41IEwzOCw2My41IE01MSw0OC41IEw2NCw2My41ICIgZmlsbD0ibm9uZSIgc3R5bGU9InN0cm9rZTojMTgxODE4O3N0cm9rZS13aWR0aDowLjU7Ii8+PHRleHQgZmlsbD0iIzAwMDAwMCIgZm9udC1mYW1pbHk9InNhbnMtc2VyaWYiIGZvbnQtc2l6ZT0iMTQiIGxlbmd0aEFkanVzdD0ic3BhY2luZyIgdGV4dExlbmd0aD0iODYiIHg9IjUiIHk9IjI2NC43ODkxIj4mIzEwNTU7JiMxMDg2OyYjMTA4MzsmIzExMDA7JiMxMDc5OyYjMTA4NjsmIzEwNzQ7JiMxMDcyOyYjMTA5MDsmIzEwNzc7JiMxMDgzOyYjMTEwMDs8L3RleHQ+PGVsbGlwc2UgY3g9IjUxIiBjeT0iMjc1LjAzOTEiIGZpbGw9IiNFMkUyRjAiIHJ4PSI4IiByeT0iOCIgc3R5bGU9InN0cm9rZTojMTgxODE4O3N0cm9rZS13aWR0aDowLjU7Ii8+PHBhdGggZD0iTTUxLDI4My4wMzkxIEw1MSwzMTAuMDM5MSBNMzgsMjkxLjAzOTEgTDY0LDI5MS4wMzkxIE01MSwzMTAuMDM5MSBMMzgsMzI1LjAzOTEgTTUxLDMxMC4wMzkxIEw2NCwzMjUuMDM5MSAiIGZpbGw9Im5vbmUiIHN0eWxlPSJzdHJva2U6IzE4MTgxODtzdHJva2Utd2lkdGg6MC41OyIvPjx0ZXh0IGZpbGw9IiMwMDAwMDAiIGZvbnQtZmFtaWx5PSJzYW5zLXNlcmlmIiBmb250LXNpemU9IjE0IiBsZW5ndGhBZGp1c3Q9InNwYWNpbmciIHRleHRMZW5ndGg9IjQ5IiB4PSIzMTguNSIgeT0iNzguMjM0NCI+JiMxMDU3OyYjMTA4MDsmIzEwODk7JiMxMDkwOyYjMTA3NzsmIzEwODQ7JiMxMDcyOzwvdGV4dD48ZWxsaXBzZSBjeD0iMzQ2IiBjeT0iNDkiIGZpbGw9IiNFMkUyRjAiIHJ4PSIxMiIgcnk9IjEyIiBzdHlsZT0ic3Ryb2tlOiMxODE4MTg7c3Ryb2tlLXdpZHRoOjAuNTsiLz48bGluZSBzdHlsZT0ic3Ryb2tlOiMxODE4MTg7c3Ryb2tlLXdpZHRoOjAuNTsiIHgxPSIzMzQiIHgyPSIzNTgiIHkxPSI2MyIgeTI9IjYzIi8+PHRleHQgZmlsbD0iIzAwMDAwMCIgZm9udC1mYW1pbHk9InNhbnMtc2VyaWYiIGZvbnQtc2l6ZT0iMTQiIGxlbmd0aEFkanVzdD0ic3BhY2luZyIgdGV4dExlbmd0aD0iNDkiIHg9IjMxOC41IiB5PSIyNjQuNzg5MSI+JiMxMDU3OyYjMTA4MDsmIzEwODk7JiMxMDkwOyYjMTA3NzsmIzEwODQ7JiMxMDcyOzwvdGV4dD48ZWxsaXBzZSBjeD0iMzQ2IiBjeT0iMjgyLjUzOTEiIGZpbGw9IiNFMkUyRjAiIHJ4PSIxMiIgcnk9IjEyIiBzdHlsZT0ic3Ryb2tlOiMxODE4MTg7c3Ryb2tlLXdpZHRoOjAuNTsiLz48bGluZSBzdHlsZT0ic3Ryb2tlOiMxODE4MTg7c3Ryb2tlLXdpZHRoOjAuNTsiIHgxPSIzMzQiIHgyPSIzNTgiIHkxPSIyOTYuNTM5MSIgeTI9IjI5Ni41MzkxIi8+PHBvbHlnb24gZmlsbD0iIzE4MTgxOCIgcG9pbnRzPSIzMzQsMTA1Ljg5ODQsMzQ0LDEwOS44OTg0LDMzNCwxMTMuODk4NCwzMzgsMTA5Ljg5ODQiIHN0eWxlPSJzdHJva2U6IzE4MTgxODtzdHJva2Utd2lkdGg6MS4wOyIvPjxsaW5lIHN0eWxlPSJzdHJva2U6IzE4MTgxODtzdHJva2Utd2lkdGg6MS4wOyIgeDE9IjUxIiB4Mj0iMzQwIiB5MT0iMTA5Ljg5ODQiIHkyPSIxMDkuODk4NCIvPjx0ZXh0IGZpbGw9IiMwMDAwMDAiIGZvbnQtZmFtaWx5PSJzYW5zLXNlcmlmIiBmb250LXNpemU9IjEzIiBsZW5ndGhBZGp1c3Q9InNwYWNpbmciIHRleHRMZW5ndGg9IjI1MCIgeD0iNTgiIHk9IjEwNi4yNzM0Ij4mIzEwNTM7JiMxMDcyOyYjMTA3ODsmIzEwODA7JiMxMDg0OyYjMTA3MjsmIzEwNzc7JiMxMDkwOyAmIzEwODI7JiMxMDg1OyYjMTA4NjsmIzEwODc7JiMxMDgyOyYjMTA5MTsgIiYjMTA0NDsmIzEwODY7JiMxMDczOyYjMTA3MjsmIzEwNzQ7JiMxMDgwOyYjMTA5MDsmIzExMDA7ICYjMTA3NDsgJiMxMDgyOyYjMTA4NjsmIzEwODg7JiMxMDc5OyYjMTA4MDsmIzEwODU7JiMxMDkxOyI8L3RleHQ+PHBvbHlnb24gZmlsbD0iIzE4MTgxOCIgcG9pbnRzPSI2MiwxMzMuODEyNSw1MiwxMzcuODEyNSw2MiwxNDEuODEyNSw1OCwxMzcuODEyNSIgc3R5bGU9InN0cm9rZTojMTgxODE4O3N0cm9rZS13aWR0aDoxLjA7Ii8+PGxpbmUgc3R5bGU9InN0cm9rZTojMTgxODE4O3N0cm9rZS13aWR0aDoxLjA7IiB4MT0iNTYiIHgyPSIzNDUiIHkxPSIxMzcuODEyNSIgeTI9IjEzNy44MTI1Ii8+PHRleHQgZmlsbD0iIzAwMDAwMCIgZm9udC1mYW1pbHk9InNhbnMtc2VyaWYiIGZvbnQtc2l6ZT0iMTMiIGxlbmd0aEFkanVzdD0ic3BhY2luZyIgdGV4dExlbmd0aD0iMTc5IiB4PSI2OCIgeT0iMTM0LjE4NzUiPiYjMTA1NDsmIzEwOTA7JiMxMDgyOyYjMTA4ODsmIzEwOTk7JiMxMDc0OyYjMTA3MjsmIzEwNzc7JiMxMDkwOyAmIzEwODk7JiMxMDkwOyYjMTA4ODsmIzEwNzI7JiMxMDg1OyYjMTA4MDsmIzEwOTQ7JiMxMDkxOyAmIzEwODI7JiMxMDg2OyYjMTA4ODsmIzEwNzk7JiMxMDgwOyYjMTA4NTsmIzEwOTk7PC90ZXh0Pjxwb2x5Z29uIGZpbGw9IiMxODE4MTgiIHBvaW50cz0iMzM0LDE2MS43MjY2LDM0NCwxNjUuNzI2NiwzMzQsMTY5LjcyNjYsMzM4LDE2NS43MjY2IiBzdHlsZT0ic3Ryb2tlOiMxODE4MTg7c3Ryb2tlLXdpZHRoOjEuMDsiLz48bGluZSBzdHlsZT0ic3Ryb2tlOiMxODE4MTg7c3Ryb2tlLXdpZHRoOjEuMDsiIHgxPSI1MSIgeDI9IjM0MCIgeTE9IjE2NS43MjY2IiB5Mj0iMTY1LjcyNjYiLz48dGV4dCBmaWxsPSIjMDAwMDAwIiBmb250LWZhbWlseT0ic2Fucy1zZXJpZiIgZm9udC1zaXplPSIxMyIgbGVuZ3RoQWRqdXN0PSJzcGFjaW5nIiB0ZXh0TGVuZ3RoPSIxODYiIHg9IjU4IiB5PSIxNjIuMTAxNiI+JiMxMDQyOyYjMTA5OTsmIzEwNzM7JiMxMDgwOyYjMTA4ODsmIzEwNzI7JiMxMDc3OyYjMTA5MDsgJiMxMDkwOyYjMTA4NjsmIzEwNzQ7JiMxMDcyOyYjMTA4ODsgJiMxMDgwOyAmIzEwODI7JiMxMDg2OyYjMTA4MzsmIzEwODA7JiMxMDk1OyYjMTA3NzsmIzEwODk7JiMxMDkwOyYjMTA3NDsmIzEwODY7PC90ZXh0PjxsaW5lIHN0eWxlPSJzdHJva2U6IzE4MTgxODtzdHJva2Utd2lkdGg6MS4wOyIgeDE9IjM0NiIgeDI9IjM4OCIgeTE9IjE5My42NDA2IiB5Mj0iMTkzLjY0MDYiLz48bGluZSBzdHlsZT0ic3Ryb2tlOiMxODE4MTg7c3Ryb2tlLXdpZHRoOjEuMDsiIHgxPSIzODgiIHgyPSIzODgiIHkxPSIxOTMuNjQwNiIgeTI9IjIwNi42NDA2Ii8+PGxpbmUgc3R5bGU9InN0cm9rZTojMTgxODE4O3N0cm9rZS13aWR0aDoxLjA7IiB4MT0iMzQ3IiB4Mj0iMzg4IiB5MT0iMjA2LjY0MDYiIHkyPSIyMDYuNjQwNiIvPjxwb2x5Z29uIGZpbGw9IiMxODE4MTgiIHBvaW50cz0iMzU3LDIwMi42NDA2LDM0NywyMDYuNjQwNiwzNTcsMjEwLjY0MDYsMzUzLDIwNi42NDA2IiBzdHlsZT0ic3Ryb2tlOiMxODE4MTg7c3Ryb2tlLXdpZHRoOjEuMDsiLz48dGV4dCBmaWxsPSIjMDAwMDAwIiBmb250LWZhbWlseT0ic2Fucy1zZXJpZiIgZm9udC1zaXplPSIxMyIgbGVuZ3RoQWRqdXN0PSJzcGFjaW5nIiB0ZXh0TGVuZ3RoPSIxNzMiIHg9IjM1MyIgeT0iMTkwLjAxNTYiPiYjMTA0NDsmIzEwODY7JiMxMDczOyYjMTA3MjsmIzEwNzQ7JiMxMDgzOyYjMTEwMzsmIzEwNzc7JiMxMDkwOyAmIzEwOTA7JiMxMDg2OyYjMTA3NDsmIzEwNzI7JiMxMDg4OyAmIzEwNzQ7ICYjMTA4MjsmIzEwODY7JiMxMDg4OyYjMTA3OTsmIzEwODA7JiMxMDg1OyYjMTA5MTs8L3RleHQ+PHBvbHlnb24gZmlsbD0iIzE4MTgxOCIgcG9pbnRzPSI2MiwyMzAuNTU0Nyw1MiwyMzQuNTU0Nyw2MiwyMzguNTU0Nyw1OCwyMzQuNTU0NyIgc3R5bGU9InN0cm9rZTojMTgxODE4O3N0cm9rZS13aWR0aDoxLjA7Ii8+PGxpbmUgc3R5bGU9InN0cm9rZTojMTgxODE4O3N0cm9rZS13aWR0aDoxLjA7IiB4MT0iNTYiIHgyPSIzNDUiIHkxPSIyMzQuNTU0NyIgeTI9IjIzNC41NTQ3Ii8+PHRleHQgZmlsbD0iIzAwMDAwMCIgZm9udC1mYW1pbHk9InNhbnMtc2VyaWYiIGZvbnQtc2l6ZT0iMTMiIGxlbmd0aEFkanVzdD0ic3BhY2luZyIgdGV4dExlbmd0aD0iMjcxIiB4PSI2OCIgeT0iMjMwLjkyOTciPiYjMTA1NDsmIzEwODc7JiMxMDg2OyYjMTA3NDsmIzEwNzc7JiMxMDk3OyYjMTA3MjsmIzEwNzc7JiMxMDkwOyAmIzEwODY7ICYjMTA3NjsmIzEwODY7JiMxMDczOyYjMTA3MjsmIzEwNzQ7JiMxMDgzOyYjMTA3NzsmIzEwODU7JiMxMDgwOyYjMTA4MDsgJiMxMDkwOyYjMTA4NjsmIzEwNzQ7JiMxMDcyOyYjMTA4ODsmIzEwNzI7ICYjMTA3NDsgJiMxMDgyOyYjMTA4NjsmIzEwODg7JiMxMDc5OyYjMTA4MDsmIzEwODU7JiMxMDkxOzwvdGV4dD48IS0tU1JDPVtSUDBuUmk5MDU0SHhkLUJCRkhUOGFLajQ3MDE1QllYMjlFbzZwWjVJNDA4OUFRODVuMHFNMnlGQTNpdUx2ai04c0dOQjFBWHNMcEZfeFNwbGxJVVZHLWQ2cUwxd2lPSk9lNFFiU25udnZaMlFlTjNsQzhXNklKeVBvVGllSmdBRll0U0Jncl9VeUdpSjFlNmRUNXVScHVqVzFPQzNoRERIUTJPZVNJQnUzd01FMkxab2xnRUs0dkpmTjkweEh3cWZseFN1d0pXQ2hZbklGUHRDRE55aURUTVBvLVVmQldIZDNEYk1scWQtMXZhem9WTjN3SHREUUtGOGhkTEpXVk5aZzJYRkFCZzJFVWdSODJzY3BMX2Z1VzVxTi1QUDV3eDItR2tURFhrZzFWaU1venNvNTNFck85WDd6MWEwXS0tPjwvZz48L3N2Zz4=;" vertex="1" parent="1">
            <mxGeometry x="-1550" y="2420" width="533" height="332" as="geometry" />
          </mxCell>
        </UserObject>
        <UserObject label="" plantUmlData="{&#xa;  &quot;data&quot;: &quot;@startuml\n\nclass Browse {\n    - String account\n    - String title\n}\n\nclass Car {\n    - String account\n    - String title\n    - String number\n    - String issuer\n    - String img\n    - String amount\n    - String date\n}\n\nclass Product {\n    - Integer typeId\n    - String title\n    - String img\n    - String content\n    - String issuer\n    - String date\n}\n\nclass Orders {\n    - String account\n    - String title\n    - String number\n    - String issuer\n    - String img\n    - String amount\n    - String date\n}\n\nclass User {\n    - String account\n    - String password\n    - String nickName\n    - String age\n    - String email\n}\n\n&#39; Relationships\nUser \&quot;1\&quot; -- \&quot;0..*\&quot; Browse : has\nUser \&quot;1\&quot; -- \&quot;0..*\&quot; Car : owns\nUser \&quot;1\&quot; -- \&quot;0..*\&quot; Orders : places\nCar \&quot;0..*\&quot; -- \&quot;1\&quot; Product : contains\nOrders \&quot;0..*\&quot; -- \&quot;1\&quot; Car : contains\n\n@enduml\n&quot;,&#xa;  &quot;format&quot;: &quot;svg&quot;&#xa;}" id="NkZFCGmQznUvReN-Zk9U-4">
          <mxCell style="shape=image;noLabel=1;verticalAlign=top;aspect=fixed;imageAspect=0;image=data:image/svg+xml,PD94bWwgdmVyc2lvbj0iMS4wIiBlbmNvZGluZz0idXMtYXNjaWkiIHN0YW5kYWxvbmU9Im5vIj8+PHN2ZyB4bWxucz0iaHR0cDovL3d3dy53My5vcmcvMjAwMC9zdmciIHhtbG5zOnhsaW5rPSJodHRwOi8vd3d3LnczLm9yZy8xOTk5L3hsaW5rIiBjb250ZW50U3R5bGVUeXBlPSJ0ZXh0L2NzcyIgaGVpZ2h0PSI4MDVweCIgcHJlc2VydmVBc3BlY3RSYXRpbz0ibm9uZSIgc3R5bGU9IndpZHRoOjM5NnB4O2hlaWdodDo4MDVweDtiYWNrZ3JvdW5kOiNGRkZGRkY7IiB2ZXJzaW9uPSIxLjEiIHZpZXdCb3g9IjAgMCAzOTYgODA1IiB3aWR0aD0iMzk2cHgiIHpvb21BbmRQYW49Im1hZ25pZnkiPjxkZWZzLz48Zz48IS0tY2xhc3MgQnJvd3NlLS0+PGcgaWQ9ImVsZW1fQnJvd3NlIj48cmVjdCBjb2RlTGluZT0iMSIgZmlsbD0iI0YxRjFGMSIgaGVpZ2h0PSI3Ny45Njg4IiBpZD0iQnJvd3NlIiByeD0iMi41IiByeT0iMi41IiBzdHlsZT0ic3Ryb2tlOiMxODE4MTg7c3Ryb2tlLXdpZHRoOjAuNTsiIHdpZHRoPSIxMjQiIHg9IjciIHk9IjI0Mi41Ii8+PGVsbGlwc2UgY3g9IjQ0LjA1IiBjeT0iMjU4LjUiIGZpbGw9IiNBREQxQjIiIHJ4PSIxMSIgcnk9IjExIiBzdHlsZT0ic3Ryb2tlOiMxODE4MTg7c3Ryb2tlLXdpZHRoOjEuMDsiLz48cGF0aCBkPSJNNDEuNjc1LDI2Mi43NSBMNDEuNjc1LDI2NC41IEw0Ni42MTI1LDI2NC41IEw0Ni42MTI1LDI2Mi43NSBMNDEuNjc1LDI2Mi43NSBaIE00Mi4zNjI1LDI2My40Mzc1IFE0Mi4zNjI1LDI2My40Mzc1IDQyLjM2MjUsMjU0LjI1IEw0MC42MTI1LDI1NC4yNSBRNDAuNjEyNSwyNTQuMjUgNDAuNjEyNSwyNjMuNDM3NSBMNDIuMzYyNSwyNjMuNDM3NSBaIE00NS45MjUsMjYzLjQzNzUgTDQ3LjY3NSwyNjMuNDM3NSBRNDcuNjc1LDI2My40Mzc1IDQ3LjY3NSwyNjAuNjI1IEw0NS45MjUsMjYwLjYyNSBRNDUuOTI1LDI2MC42MjUgNDUuOTI1LDI2My40Mzc1IFogTTQ1LjkyNSwyNTQuMjUgUTQ1LjkyNSwyNTQuMjUgNDUuOTI1LDI1Ny4wNjI1IEw0Ny42NzUsMjU3LjA2MjUgUTQ3LjY3NSwyNTcuMDYyNSA0Ny42NzUsMjU0LjI1IEw0NS45MjUsMjU0LjI1IFogTTQxLjY3NSwyNTQuOTM3NSBMNDYuNjEyNSwyNTQuOTM3NSBMNDYuNjEyNSwyNTMuMTg3NSBMNDEuNjc1LDI1My4xODc1IEw0MS42NzUsMjU0LjkzNzUgWiAiIGZpbGw9IiMwMDAwMDAiLz48dGV4dCBmaWxsPSIjMDAwMDAwIiBmb250LWZhbWlseT0ic2Fucy1zZXJpZiIgZm9udC1zaXplPSIxNCIgbGVuZ3RoQWRqdXN0PSJzcGFjaW5nIiB0ZXh0TGVuZ3RoPSI0MyIgeD0iNjIuOTUiIHk9IjI2NC4yNDIyIj5Ccm93c2U8L3RleHQ+PGxpbmUgc3R5bGU9InN0cm9rZTojMTgxODE4O3N0cm9rZS13aWR0aDowLjU7IiB4MT0iOCIgeDI9IjEzMCIgeTE9IjI3NC41IiB5Mj0iMjc0LjUiLz48cmVjdCBmaWxsPSJub25lIiBoZWlnaHQ9IjYiIHN0eWxlPSJzdHJva2U6I0M4MjkzMDtzdHJva2Utd2lkdGg6MS4wOyIgd2lkdGg9IjYiIHg9IjE1IiB5PSIyODQuNDkyMiIvPjx0ZXh0IGZpbGw9IiMwMDAwMDAiIGZvbnQtZmFtaWx5PSJzYW5zLXNlcmlmIiBmb250LXNpemU9IjE0IiBsZW5ndGhBZGp1c3Q9InNwYWNpbmciIHRleHRMZW5ndGg9Ijk4IiB4PSIyNyIgeT0iMjkxLjczNDQiPlN0cmluZyBhY2NvdW50PC90ZXh0PjxyZWN0IGZpbGw9Im5vbmUiIGhlaWdodD0iNiIgc3R5bGU9InN0cm9rZTojQzgyOTMwO3N0cm9rZS13aWR0aDoxLjA7IiB3aWR0aD0iNiIgeD0iMTUiIHk9IjI5OS40NzY2Ii8+PHRleHQgZmlsbD0iIzAwMDAwMCIgZm9udC1mYW1pbHk9InNhbnMtc2VyaWYiIGZvbnQtc2l6ZT0iMTQiIGxlbmd0aEFkanVzdD0ic3BhY2luZyIgdGV4dExlbmd0aD0iODQiIHg9IjI3IiB5PSIzMDYuNzE4OCI+U3RyaW5nIHRpdGxlPC90ZXh0PjxsaW5lIHN0eWxlPSJzdHJva2U6IzE4MTgxODtzdHJva2Utd2lkdGg6MC41OyIgeDE9IjgiIHgyPSIxMzAiIHkxPSIzMTIuNDY4OCIgeTI9IjMxMi40Njg4Ii8+PC9nPjwhLS1jbGFzcyBDYXItLT48ZyBpZD0iZWxlbV9DYXIiPjxyZWN0IGNvZGVMaW5lPSI2IiBmaWxsPSIjRjFGMUYxIiBoZWlnaHQ9IjE1Mi44OTA2IiBpZD0iQ2FyIiByeD0iMi41IiByeT0iMi41IiBzdHlsZT0ic3Ryb2tlOiMxODE4MTg7c3Ryb2tlLXdpZHRoOjAuNTsiIHdpZHRoPSIxMjQiIHg9IjE4NSIgeT0iNDMzIi8+PGVsbGlwc2UgY3g9IjIzMi4yNSIgY3k9IjQ0OSIgZmlsbD0iI0FERDFCMiIgcng9IjExIiByeT0iMTEiIHN0eWxlPSJzdHJva2U6IzE4MTgxODtzdHJva2Utd2lkdGg6MS4wOyIvPjxwYXRoIGQ9Ik0yMjkuODc1LDQ1My4yNSBMMjI5Ljg3NSw0NTUgTDIzNC44MTI1LDQ1NSBMMjM0LjgxMjUsNDUzLjI1IEwyMjkuODc1LDQ1My4yNSBaIE0yMzAuNTYyNSw0NTMuOTM3NSBRMjMwLjU2MjUsNDUzLjkzNzUgMjMwLjU2MjUsNDQ0Ljc1IEwyMjguODEyNSw0NDQuNzUgUTIyOC44MTI1LDQ0NC43NSAyMjguODEyNSw0NTMuOTM3NSBMMjMwLjU2MjUsNDUzLjkzNzUgWiBNMjM0LjEyNSw0NTMuOTM3NSBMMjM1Ljg3NSw0NTMuOTM3NSBRMjM1Ljg3NSw0NTMuOTM3NSAyMzUuODc1LDQ1MS4xMjUgTDIzNC4xMjUsNDUxLjEyNSBRMjM0LjEyNSw0NTEuMTI1IDIzNC4xMjUsNDUzLjkzNzUgWiBNMjM0LjEyNSw0NDQuNzUgUTIzNC4xMjUsNDQ0Ljc1IDIzNC4xMjUsNDQ3LjU2MjUgTDIzNS44NzUsNDQ3LjU2MjUgUTIzNS44NzUsNDQ3LjU2MjUgMjM1Ljg3NSw0NDQuNzUgTDIzNC4xMjUsNDQ0Ljc1IFogTTIyOS44NzUsNDQ1LjQzNzUgTDIzNC44MTI1LDQ0NS40Mzc1IEwyMzQuODEyNSw0NDMuNjg3NSBMMjI5Ljg3NSw0NDMuNjg3NSBMMjI5Ljg3NSw0NDUuNDM3NSBaICIgZmlsbD0iIzAwMDAwMCIvPjx0ZXh0IGZpbGw9IiMwMDAwMDAiIGZvbnQtZmFtaWx5PSJzYW5zLXNlcmlmIiBmb250LXNpemU9IjE0IiBsZW5ndGhBZGp1c3Q9InNwYWNpbmciIHRleHRMZW5ndGg9IjIxIiB4PSIyNTIuNzUiIHk9IjQ1NC43NDIyIj5DYXI8L3RleHQ+PGxpbmUgc3R5bGU9InN0cm9rZTojMTgxODE4O3N0cm9rZS13aWR0aDowLjU7IiB4MT0iMTg2IiB4Mj0iMzA4IiB5MT0iNDY1IiB5Mj0iNDY1Ii8+PHJlY3QgZmlsbD0ibm9uZSIgaGVpZ2h0PSI2IiBzdHlsZT0ic3Ryb2tlOiNDODI5MzA7c3Ryb2tlLXdpZHRoOjEuMDsiIHdpZHRoPSI2IiB4PSIxOTMiIHk9IjQ3NC45OTIyIi8+PHRleHQgZmlsbD0iIzAwMDAwMCIgZm9udC1mYW1pbHk9InNhbnMtc2VyaWYiIGZvbnQtc2l6ZT0iMTQiIGxlbmd0aEFkanVzdD0ic3BhY2luZyIgdGV4dExlbmd0aD0iOTgiIHg9IjIwNSIgeT0iNDgyLjIzNDQiPlN0cmluZyBhY2NvdW50PC90ZXh0PjxyZWN0IGZpbGw9Im5vbmUiIGhlaWdodD0iNiIgc3R5bGU9InN0cm9rZTojQzgyOTMwO3N0cm9rZS13aWR0aDoxLjA7IiB3aWR0aD0iNiIgeD0iMTkzIiB5PSI0ODkuOTc2NiIvPjx0ZXh0IGZpbGw9IiMwMDAwMDAiIGZvbnQtZmFtaWx5PSJzYW5zLXNlcmlmIiBmb250LXNpemU9IjE0IiBsZW5ndGhBZGp1c3Q9InNwYWNpbmciIHRleHRMZW5ndGg9Ijg0IiB4PSIyMDUiIHk9IjQ5Ny4yMTg4Ij5TdHJpbmcgdGl0bGU8L3RleHQ+PHJlY3QgZmlsbD0ibm9uZSIgaGVpZ2h0PSI2IiBzdHlsZT0ic3Ryb2tlOiNDODI5MzA7c3Ryb2tlLXdpZHRoOjEuMDsiIHdpZHRoPSI2IiB4PSIxOTMiIHk9IjUwNC45NjA5Ii8+PHRleHQgZmlsbD0iIzAwMDAwMCIgZm9udC1mYW1pbHk9InNhbnMtc2VyaWYiIGZvbnQtc2l6ZT0iMTQiIGxlbmd0aEFkanVzdD0ic3BhY2luZyIgdGV4dExlbmd0aD0iOTIiIHg9IjIwNSIgeT0iNTEyLjIwMzEiPlN0cmluZyBudW1iZXI8L3RleHQ+PHJlY3QgZmlsbD0ibm9uZSIgaGVpZ2h0PSI2IiBzdHlsZT0ic3Ryb2tlOiNDODI5MzA7c3Ryb2tlLXdpZHRoOjEuMDsiIHdpZHRoPSI2IiB4PSIxOTMiIHk9IjUxOS45NDUzIi8+PHRleHQgZmlsbD0iIzAwMDAwMCIgZm9udC1mYW1pbHk9InNhbnMtc2VyaWYiIGZvbnQtc2l6ZT0iMTQiIGxlbmd0aEFkanVzdD0ic3BhY2luZyIgdGV4dExlbmd0aD0iOTEiIHg9IjIwNSIgeT0iNTI3LjE4NzUiPlN0cmluZyBpc3N1ZXI8L3RleHQ+PHJlY3QgZmlsbD0ibm9uZSIgaGVpZ2h0PSI2IiBzdHlsZT0ic3Ryb2tlOiNDODI5MzA7c3Ryb2tlLXdpZHRoOjEuMDsiIHdpZHRoPSI2IiB4PSIxOTMiIHk9IjUzNC45Mjk3Ii8+PHRleHQgZmlsbD0iIzAwMDAwMCIgZm9udC1mYW1pbHk9InNhbnMtc2VyaWYiIGZvbnQtc2l6ZT0iMTQiIGxlbmd0aEFkanVzdD0ic3BhY2luZyIgdGV4dExlbmd0aD0iNzEiIHg9IjIwNSIgeT0iNTQyLjE3MTkiPlN0cmluZyBpbWc8L3RleHQ+PHJlY3QgZmlsbD0ibm9uZSIgaGVpZ2h0PSI2IiBzdHlsZT0ic3Ryb2tlOiNDODI5MzA7c3Ryb2tlLXdpZHRoOjEuMDsiIHdpZHRoPSI2IiB4PSIxOTMiIHk9IjU0OS45MTQxIi8+PHRleHQgZmlsbD0iIzAwMDAwMCIgZm9udC1mYW1pbHk9InNhbnMtc2VyaWYiIGZvbnQtc2l6ZT0iMTQiIGxlbmd0aEFkanVzdD0ic3BhY2luZyIgdGV4dExlbmd0aD0iOTIiIHg9IjIwNSIgeT0iNTU3LjE1NjMiPlN0cmluZyBhbW91bnQ8L3RleHQ+PHJlY3QgZmlsbD0ibm9uZSIgaGVpZ2h0PSI2IiBzdHlsZT0ic3Ryb2tlOiNDODI5MzA7c3Ryb2tlLXdpZHRoOjEuMDsiIHdpZHRoPSI2IiB4PSIxOTMiIHk9IjU2NC44OTg0Ii8+PHRleHQgZmlsbD0iIzAwMDAwMCIgZm9udC1mYW1pbHk9InNhbnMtc2VyaWYiIGZvbnQtc2l6ZT0iMTQiIGxlbmd0aEFkanVzdD0ic3BhY2luZyIgdGV4dExlbmd0aD0iNzciIHg9IjIwNSIgeT0iNTcyLjE0MDYiPlN0cmluZyBkYXRlPC90ZXh0PjxsaW5lIHN0eWxlPSJzdHJva2U6IzE4MTgxODtzdHJva2Utd2lkdGg6MC41OyIgeDE9IjE4NiIgeDI9IjMwOCIgeTE9IjU3Ny44OTA2IiB5Mj0iNTc3Ljg5MDYiLz48L2c+PCEtLWNsYXNzIFByb2R1Y3QtLT48ZyBpZD0iZWxlbV9Qcm9kdWN0Ij48cmVjdCBjb2RlTGluZT0iMTYiIGZpbGw9IiNGMUYxRjEiIGhlaWdodD0iMTM3LjkwNjMiIGlkPSJQcm9kdWN0IiByeD0iMi41IiByeT0iMi41IiBzdHlsZT0ic3Ryb2tlOiMxODE4MTg7c3Ryb2tlLXdpZHRoOjAuNTsiIHdpZHRoPSIxMjQiIHg9IjE4NSIgeT0iNjYxIi8+PGVsbGlwc2UgY3g9IjIxOS4zNSIgY3k9IjY3NyIgZmlsbD0iI0FERDFCMiIgcng9IjExIiByeT0iMTEiIHN0eWxlPSJzdHJva2U6IzE4MTgxODtzdHJva2Utd2lkdGg6MS4wOyIvPjxwYXRoIGQ9Ik0yMTYuOTc1LDY4MS4yNSBMMjE2Ljk3NSw2ODMgTDIyMS45MTI1LDY4MyBMMjIxLjkxMjUsNjgxLjI1IEwyMTYuOTc1LDY4MS4yNSBaIE0yMTcuNjYyNSw2ODEuOTM3NSBRMjE3LjY2MjUsNjgxLjkzNzUgMjE3LjY2MjUsNjcyLjc1IEwyMTUuOTEyNSw2NzIuNzUgUTIxNS45MTI1LDY3Mi43NSAyMTUuOTEyNSw2ODEuOTM3NSBMMjE3LjY2MjUsNjgxLjkzNzUgWiBNMjIxLjIyNSw2ODEuOTM3NSBMMjIyLjk3NSw2ODEuOTM3NSBRMjIyLjk3NSw2ODEuOTM3NSAyMjIuOTc1LDY3OS4xMjUgTDIyMS4yMjUsNjc5LjEyNSBRMjIxLjIyNSw2NzkuMTI1IDIyMS4yMjUsNjgxLjkzNzUgWiBNMjIxLjIyNSw2NzIuNzUgUTIyMS4yMjUsNjcyLjc1IDIyMS4yMjUsNjc1LjU2MjUgTDIyMi45NzUsNjc1LjU2MjUgUTIyMi45NzUsNjc1LjU2MjUgMjIyLjk3NSw2NzIuNzUgTDIyMS4yMjUsNjcyLjc1IFogTTIxNi45NzUsNjczLjQzNzUgTDIyMS45MTI1LDY3My40Mzc1IEwyMjEuOTEyNSw2NzEuNjg3NSBMMjE2Ljk3NSw2NzEuNjg3NSBMMjE2Ljk3NSw2NzMuNDM3NSBaICIgZmlsbD0iIzAwMDAwMCIvPjx0ZXh0IGZpbGw9IiMwMDAwMDAiIGZvbnQtZmFtaWx5PSJzYW5zLXNlcmlmIiBmb250LXNpemU9IjE0IiBsZW5ndGhBZGp1c3Q9InNwYWNpbmciIHRleHRMZW5ndGg9IjQ5IiB4PSIyMzcuNjUiIHk9IjY4Mi43NDIyIj5Qcm9kdWN0PC90ZXh0PjxsaW5lIHN0eWxlPSJzdHJva2U6IzE4MTgxODtzdHJva2Utd2lkdGg6MC41OyIgeDE9IjE4NiIgeDI9IjMwOCIgeTE9IjY5MyIgeTI9IjY5MyIvPjxyZWN0IGZpbGw9Im5vbmUiIGhlaWdodD0iNiIgc3R5bGU9InN0cm9rZTojQzgyOTMwO3N0cm9rZS13aWR0aDoxLjA7IiB3aWR0aD0iNiIgeD0iMTkzIiB5PSI3MDIuOTkyMiIvPjx0ZXh0IGZpbGw9IiMwMDAwMDAiIGZvbnQtZmFtaWx5PSJzYW5zLXNlcmlmIiBmb250LXNpemU9IjE0IiBsZW5ndGhBZGp1c3Q9InNwYWNpbmciIHRleHRMZW5ndGg9Ijk4IiB4PSIyMDUiIHk9IjcxMC4yMzQ0Ij5JbnRlZ2VyIHR5cGVJZDwvdGV4dD48cmVjdCBmaWxsPSJub25lIiBoZWlnaHQ9IjYiIHN0eWxlPSJzdHJva2U6I0M4MjkzMDtzdHJva2Utd2lkdGg6MS4wOyIgd2lkdGg9IjYiIHg9IjE5MyIgeT0iNzE3Ljk3NjYiLz48dGV4dCBmaWxsPSIjMDAwMDAwIiBmb250LWZhbWlseT0ic2Fucy1zZXJpZiIgZm9udC1zaXplPSIxNCIgbGVuZ3RoQWRqdXN0PSJzcGFjaW5nIiB0ZXh0TGVuZ3RoPSI4NCIgeD0iMjA1IiB5PSI3MjUuMjE4OCI+U3RyaW5nIHRpdGxlPC90ZXh0PjxyZWN0IGZpbGw9Im5vbmUiIGhlaWdodD0iNiIgc3R5bGU9InN0cm9rZTojQzgyOTMwO3N0cm9rZS13aWR0aDoxLjA7IiB3aWR0aD0iNiIgeD0iMTkzIiB5PSI3MzIuOTYwOSIvPjx0ZXh0IGZpbGw9IiMwMDAwMDAiIGZvbnQtZmFtaWx5PSJzYW5zLXNlcmlmIiBmb250LXNpemU9IjE0IiBsZW5ndGhBZGp1c3Q9InNwYWNpbmciIHRleHRMZW5ndGg9IjcxIiB4PSIyMDUiIHk9Ijc0MC4yMDMxIj5TdHJpbmcgaW1nPC90ZXh0PjxyZWN0IGZpbGw9Im5vbmUiIGhlaWdodD0iNiIgc3R5bGU9InN0cm9rZTojQzgyOTMwO3N0cm9rZS13aWR0aDoxLjA7IiB3aWR0aD0iNiIgeD0iMTkzIiB5PSI3NDcuOTQ1MyIvPjx0ZXh0IGZpbGw9IiMwMDAwMDAiIGZvbnQtZmFtaWx5PSJzYW5zLXNlcmlmIiBmb250LXNpemU9IjE0IiBsZW5ndGhBZGp1c3Q9InNwYWNpbmciIHRleHRMZW5ndGg9Ijk4IiB4PSIyMDUiIHk9Ijc1NS4xODc1Ij5TdHJpbmcgY29udGVudDwvdGV4dD48cmVjdCBmaWxsPSJub25lIiBoZWlnaHQ9IjYiIHN0eWxlPSJzdHJva2U6I0M4MjkzMDtzdHJva2Utd2lkdGg6MS4wOyIgd2lkdGg9IjYiIHg9IjE5MyIgeT0iNzYyLjkyOTciLz48dGV4dCBmaWxsPSIjMDAwMDAwIiBmb250LWZhbWlseT0ic2Fucy1zZXJpZiIgZm9udC1zaXplPSIxNCIgbGVuZ3RoQWRqdXN0PSJzcGFjaW5nIiB0ZXh0TGVuZ3RoPSI5MSIgeD0iMjA1IiB5PSI3NzAuMTcxOSI+U3RyaW5nIGlzc3VlcjwvdGV4dD48cmVjdCBmaWxsPSJub25lIiBoZWlnaHQ9IjYiIHN0eWxlPSJzdHJva2U6I0M4MjkzMDtzdHJva2Utd2lkdGg6MS4wOyIgd2lkdGg9IjYiIHg9IjE5MyIgeT0iNzc3LjkxNDEiLz48dGV4dCBmaWxsPSIjMDAwMDAwIiBmb250LWZhbWlseT0ic2Fucy1zZXJpZiIgZm9udC1zaXplPSIxNCIgbGVuZ3RoQWRqdXN0PSJzcGFjaW5nIiB0ZXh0TGVuZ3RoPSI3NyIgeD0iMjA1IiB5PSI3ODUuMTU2MyI+U3RyaW5nIGRhdGU8L3RleHQ+PGxpbmUgc3R5bGU9InN0cm9rZTojMTgxODE4O3N0cm9rZS13aWR0aDowLjU7IiB4MT0iMTg2IiB4Mj0iMzA4IiB5MT0iNzkwLjkwNjMiIHkyPSI3OTAuOTA2MyIvPjwvZz48IS0tY2xhc3MgT3JkZXJzLS0+PGcgaWQ9ImVsZW1fT3JkZXJzIj48cmVjdCBjb2RlTGluZT0iMjUiIGZpbGw9IiNGMUYxRjEiIGhlaWdodD0iMTUyLjg5MDYiIGlkPSJPcmRlcnMiIHJ4PSIyLjUiIHJ5PSIyLjUiIHN0eWxlPSJzdHJva2U6IzE4MTgxODtzdHJva2Utd2lkdGg6MC41OyIgd2lkdGg9IjEyNCIgeD0iMjY1IiB5PSIyMDUiLz48ZWxsaXBzZSBjeD0iMzAyLjUiIGN5PSIyMjEiIGZpbGw9IiNBREQxQjIiIHJ4PSIxMSIgcnk9IjExIiBzdHlsZT0ic3Ryb2tlOiMxODE4MTg7c3Ryb2tlLXdpZHRoOjEuMDsiLz48cGF0aCBkPSJNMzAwLjEyNSwyMjUuMjUgTDMwMC4xMjUsMjI3IEwzMDUuMDYyNSwyMjcgTDMwNS4wNjI1LDIyNS4yNSBMMzAwLjEyNSwyMjUuMjUgWiBNMzAwLjgxMjUsMjI1LjkzNzUgUTMwMC44MTI1LDIyNS45Mzc1IDMwMC44MTI1LDIxNi43NSBMMjk5LjA2MjUsMjE2Ljc1IFEyOTkuMDYyNSwyMTYuNzUgMjk5LjA2MjUsMjI1LjkzNzUgTDMwMC44MTI1LDIyNS45Mzc1IFogTTMwNC4zNzUsMjI1LjkzNzUgTDMwNi4xMjUsMjI1LjkzNzUgUTMwNi4xMjUsMjI1LjkzNzUgMzA2LjEyNSwyMjMuMTI1IEwzMDQuMzc1LDIyMy4xMjUgUTMwNC4zNzUsMjIzLjEyNSAzMDQuMzc1LDIyNS45Mzc1IFogTTMwNC4zNzUsMjE2Ljc1IFEzMDQuMzc1LDIxNi43NSAzMDQuMzc1LDIxOS41NjI1IEwzMDYuMTI1LDIxOS41NjI1IFEzMDYuMTI1LDIxOS41NjI1IDMwNi4xMjUsMjE2Ljc1IEwzMDQuMzc1LDIxNi43NSBaIE0zMDAuMTI1LDIxNy40Mzc1IEwzMDUuMDYyNSwyMTcuNDM3NSBMMzA1LjA2MjUsMjE1LjY4NzUgTDMwMC4xMjUsMjE1LjY4NzUgTDMwMC4xMjUsMjE3LjQzNzUgWiAiIGZpbGw9IiMwMDAwMDAiLz48dGV4dCBmaWxsPSIjMDAwMDAwIiBmb250LWZhbWlseT0ic2Fucy1zZXJpZiIgZm9udC1zaXplPSIxNCIgbGVuZ3RoQWRqdXN0PSJzcGFjaW5nIiB0ZXh0TGVuZ3RoPSI0MiIgeD0iMzIxLjUiIHk9IjIyNi43NDIyIj5PcmRlcnM8L3RleHQ+PGxpbmUgc3R5bGU9InN0cm9rZTojMTgxODE4O3N0cm9rZS13aWR0aDowLjU7IiB4MT0iMjY2IiB4Mj0iMzg4IiB5MT0iMjM3IiB5Mj0iMjM3Ii8+PHJlY3QgZmlsbD0ibm9uZSIgaGVpZ2h0PSI2IiBzdHlsZT0ic3Ryb2tlOiNDODI5MzA7c3Ryb2tlLXdpZHRoOjEuMDsiIHdpZHRoPSI2IiB4PSIyNzMiIHk9IjI0Ni45OTIyIi8+PHRleHQgZmlsbD0iIzAwMDAwMCIgZm9udC1mYW1pbHk9InNhbnMtc2VyaWYiIGZvbnQtc2l6ZT0iMTQiIGxlbmd0aEFkanVzdD0ic3BhY2luZyIgdGV4dExlbmd0aD0iOTgiIHg9IjI4NSIgeT0iMjU0LjIzNDQiPlN0cmluZyBhY2NvdW50PC90ZXh0PjxyZWN0IGZpbGw9Im5vbmUiIGhlaWdodD0iNiIgc3R5bGU9InN0cm9rZTojQzgyOTMwO3N0cm9rZS13aWR0aDoxLjA7IiB3aWR0aD0iNiIgeD0iMjczIiB5PSIyNjEuOTc2NiIvPjx0ZXh0IGZpbGw9IiMwMDAwMDAiIGZvbnQtZmFtaWx5PSJzYW5zLXNlcmlmIiBmb250LXNpemU9IjE0IiBsZW5ndGhBZGp1c3Q9InNwYWNpbmciIHRleHRMZW5ndGg9Ijg0IiB4PSIyODUiIHk9IjI2OS4yMTg4Ij5TdHJpbmcgdGl0bGU8L3RleHQ+PHJlY3QgZmlsbD0ibm9uZSIgaGVpZ2h0PSI2IiBzdHlsZT0ic3Ryb2tlOiNDODI5MzA7c3Ryb2tlLXdpZHRoOjEuMDsiIHdpZHRoPSI2IiB4PSIyNzMiIHk9IjI3Ni45NjA5Ii8+PHRleHQgZmlsbD0iIzAwMDAwMCIgZm9udC1mYW1pbHk9InNhbnMtc2VyaWYiIGZvbnQtc2l6ZT0iMTQiIGxlbmd0aEFkanVzdD0ic3BhY2luZyIgdGV4dExlbmd0aD0iOTIiIHg9IjI4NSIgeT0iMjg0LjIwMzEiPlN0cmluZyBudW1iZXI8L3RleHQ+PHJlY3QgZmlsbD0ibm9uZSIgaGVpZ2h0PSI2IiBzdHlsZT0ic3Ryb2tlOiNDODI5MzA7c3Ryb2tlLXdpZHRoOjEuMDsiIHdpZHRoPSI2IiB4PSIyNzMiIHk9IjI5MS45NDUzIi8+PHRleHQgZmlsbD0iIzAwMDAwMCIgZm9udC1mYW1pbHk9InNhbnMtc2VyaWYiIGZvbnQtc2l6ZT0iMTQiIGxlbmd0aEFkanVzdD0ic3BhY2luZyIgdGV4dExlbmd0aD0iOTEiIHg9IjI4NSIgeT0iMjk5LjE4NzUiPlN0cmluZyBpc3N1ZXI8L3RleHQ+PHJlY3QgZmlsbD0ibm9uZSIgaGVpZ2h0PSI2IiBzdHlsZT0ic3Ryb2tlOiNDODI5MzA7c3Ryb2tlLXdpZHRoOjEuMDsiIHdpZHRoPSI2IiB4PSIyNzMiIHk9IjMwNi45Mjk3Ii8+PHRleHQgZmlsbD0iIzAwMDAwMCIgZm9udC1mYW1pbHk9InNhbnMtc2VyaWYiIGZvbnQtc2l6ZT0iMTQiIGxlbmd0aEFkanVzdD0ic3BhY2luZyIgdGV4dExlbmd0aD0iNzEiIHg9IjI4NSIgeT0iMzE0LjE3MTkiPlN0cmluZyBpbWc8L3RleHQ+PHJlY3QgZmlsbD0ibm9uZSIgaGVpZ2h0PSI2IiBzdHlsZT0ic3Ryb2tlOiNDODI5MzA7c3Ryb2tlLXdpZHRoOjEuMDsiIHdpZHRoPSI2IiB4PSIyNzMiIHk9IjMyMS45MTQxIi8+PHRleHQgZmlsbD0iIzAwMDAwMCIgZm9udC1mYW1pbHk9InNhbnMtc2VyaWYiIGZvbnQtc2l6ZT0iMTQiIGxlbmd0aEFkanVzdD0ic3BhY2luZyIgdGV4dExlbmd0aD0iOTIiIHg9IjI4NSIgeT0iMzI5LjE1NjMiPlN0cmluZyBhbW91bnQ8L3RleHQ+PHJlY3QgZmlsbD0ibm9uZSIgaGVpZ2h0PSI2IiBzdHlsZT0ic3Ryb2tlOiNDODI5MzA7c3Ryb2tlLXdpZHRoOjEuMDsiIHdpZHRoPSI2IiB4PSIyNzMiIHk9IjMzNi44OTg0Ii8+PHRleHQgZmlsbD0iIzAwMDAwMCIgZm9udC1mYW1pbHk9InNhbnMtc2VyaWYiIGZvbnQtc2l6ZT0iMTQiIGxlbmd0aEFkanVzdD0ic3BhY2luZyIgdGV4dExlbmd0aD0iNzciIHg9IjI4NSIgeT0iMzQ0LjE0MDYiPlN0cmluZyBkYXRlPC90ZXh0PjxsaW5lIHN0eWxlPSJzdHJva2U6IzE4MTgxODtzdHJva2Utd2lkdGg6MC41OyIgeDE9IjI2NiIgeDI9IjM4OCIgeTE9IjM0OS44OTA2IiB5Mj0iMzQ5Ljg5MDYiLz48L2c+PCEtLWNsYXNzIFVzZXItLT48ZyBpZD0iZWxlbV9Vc2VyIj48cmVjdCBjb2RlTGluZT0iMzUiIGZpbGw9IiNGMUYxRjEiIGhlaWdodD0iMTIyLjkyMTkiIGlkPSJVc2VyIiByeD0iMi41IiByeT0iMi41IiBzdHlsZT0ic3Ryb2tlOiMxODE4MTg7c3Ryb2tlLXdpZHRoOjAuNTsiIHdpZHRoPSIxMzIiIHg9IjEzNSIgeT0iNyIvPjxlbGxpcHNlIGN4PSIxODIuNzUiIGN5PSIyMyIgZmlsbD0iI0FERDFCMiIgcng9IjExIiByeT0iMTEiIHN0eWxlPSJzdHJva2U6IzE4MTgxODtzdHJva2Utd2lkdGg6MS4wOyIvPjxwYXRoIGQ9Ik0xODAuMzc1LDI3LjI1IEwxODAuMzc1LDI5IEwxODUuMzEyNSwyOSBMMTg1LjMxMjUsMjcuMjUgTDE4MC4zNzUsMjcuMjUgWiBNMTgxLjA2MjUsMjcuOTM3NSBRMTgxLjA2MjUsMjcuOTM3NSAxODEuMDYyNSwxOC43NSBMMTc5LjMxMjUsMTguNzUgUTE3OS4zMTI1LDE4Ljc1IDE3OS4zMTI1LDI3LjkzNzUgTDE4MS4wNjI1LDI3LjkzNzUgWiBNMTg0LjYyNSwyNy45Mzc1IEwxODYuMzc1LDI3LjkzNzUgUTE4Ni4zNzUsMjcuOTM3NSAxODYuMzc1LDI1LjEyNSBMMTg0LjYyNSwyNS4xMjUgUTE4NC42MjUsMjUuMTI1IDE4NC42MjUsMjcuOTM3NSBaIE0xODQuNjI1LDE4Ljc1IFExODQuNjI1LDE4Ljc1IDE4NC42MjUsMjEuNTYyNSBMMTg2LjM3NSwyMS41NjI1IFExODYuMzc1LDIxLjU2MjUgMTg2LjM3NSwxOC43NSBMMTg0LjYyNSwxOC43NSBaIE0xODAuMzc1LDE5LjQzNzUgTDE4NS4zMTI1LDE5LjQzNzUgTDE4NS4zMTI1LDE3LjY4NzUgTDE4MC4zNzUsMTcuNjg3NSBMMTgwLjM3NSwxOS40Mzc1IFogIiBmaWxsPSIjMDAwMDAwIi8+PHRleHQgZmlsbD0iIzAwMDAwMCIgZm9udC1mYW1pbHk9InNhbnMtc2VyaWYiIGZvbnQtc2l6ZT0iMTQiIGxlbmd0aEFkanVzdD0ic3BhY2luZyIgdGV4dExlbmd0aD0iMjgiIHg9IjIwMy4yNSIgeT0iMjguNzQyMiI+VXNlcjwvdGV4dD48bGluZSBzdHlsZT0ic3Ryb2tlOiMxODE4MTg7c3Ryb2tlLXdpZHRoOjAuNTsiIHgxPSIxMzYiIHgyPSIyNjYiIHkxPSIzOSIgeTI9IjM5Ii8+PHJlY3QgZmlsbD0ibm9uZSIgaGVpZ2h0PSI2IiBzdHlsZT0ic3Ryb2tlOiNDODI5MzA7c3Ryb2tlLXdpZHRoOjEuMDsiIHdpZHRoPSI2IiB4PSIxNDMiIHk9IjQ4Ljk5MjIiLz48dGV4dCBmaWxsPSIjMDAwMDAwIiBmb250LWZhbWlseT0ic2Fucy1zZXJpZiIgZm9udC1zaXplPSIxNCIgbGVuZ3RoQWRqdXN0PSJzcGFjaW5nIiB0ZXh0TGVuZ3RoPSI5OCIgeD0iMTU1IiB5PSI1Ni4yMzQ0Ij5TdHJpbmcgYWNjb3VudDwvdGV4dD48cmVjdCBmaWxsPSJub25lIiBoZWlnaHQ9IjYiIHN0eWxlPSJzdHJva2U6I0M4MjkzMDtzdHJva2Utd2lkdGg6MS4wOyIgd2lkdGg9IjYiIHg9IjE0MyIgeT0iNjMuOTc2NiIvPjx0ZXh0IGZpbGw9IiMwMDAwMDAiIGZvbnQtZmFtaWx5PSJzYW5zLXNlcmlmIiBmb250LXNpemU9IjE0IiBsZW5ndGhBZGp1c3Q9InNwYWNpbmciIHRleHRMZW5ndGg9IjEwNiIgeD0iMTU1IiB5PSI3MS4yMTg4Ij5TdHJpbmcgcGFzc3dvcmQ8L3RleHQ+PHJlY3QgZmlsbD0ibm9uZSIgaGVpZ2h0PSI2IiBzdHlsZT0ic3Ryb2tlOiNDODI5MzA7c3Ryb2tlLXdpZHRoOjEuMDsiIHdpZHRoPSI2IiB4PSIxNDMiIHk9Ijc4Ljk2MDkiLz48dGV4dCBmaWxsPSIjMDAwMDAwIiBmb250LWZhbWlseT0ic2Fucy1zZXJpZiIgZm9udC1zaXplPSIxNCIgbGVuZ3RoQWRqdXN0PSJzcGFjaW5nIiB0ZXh0TGVuZ3RoPSIxMDYiIHg9IjE1NSIgeT0iODYuMjAzMSI+U3RyaW5nIG5pY2tOYW1lPC90ZXh0PjxyZWN0IGZpbGw9Im5vbmUiIGhlaWdodD0iNiIgc3R5bGU9InN0cm9rZTojQzgyOTMwO3N0cm9rZS13aWR0aDoxLjA7IiB3aWR0aD0iNiIgeD0iMTQzIiB5PSI5My45NDUzIi8+PHRleHQgZmlsbD0iIzAwMDAwMCIgZm9udC1mYW1pbHk9InNhbnMtc2VyaWYiIGZvbnQtc2l6ZT0iMTQiIGxlbmd0aEFkanVzdD0ic3BhY2luZyIgdGV4dExlbmd0aD0iNzAiIHg9IjE1NSIgeT0iMTAxLjE4NzUiPlN0cmluZyBhZ2U8L3RleHQ+PHJlY3QgZmlsbD0ibm9uZSIgaGVpZ2h0PSI2IiBzdHlsZT0ic3Ryb2tlOiNDODI5MzA7c3Ryb2tlLXdpZHRoOjEuMDsiIHdpZHRoPSI2IiB4PSIxNDMiIHk9IjEwOC45Mjk3Ii8+PHRleHQgZmlsbD0iIzAwMDAwMCIgZm9udC1mYW1pbHk9InNhbnMtc2VyaWYiIGZvbnQtc2l6ZT0iMTQiIGxlbmd0aEFkanVzdD0ic3BhY2luZyIgdGV4dExlbmd0aD0iODUiIHg9IjE1NSIgeT0iMTE2LjE3MTkiPlN0cmluZyBlbWFpbDwvdGV4dD48bGluZSBzdHlsZT0ic3Ryb2tlOiMxODE4MTg7c3Ryb2tlLXdpZHRoOjAuNTsiIHgxPSIxMzYiIHgyPSIyNjYiIHkxPSIxMjEuOTIxOSIgeTI9IjEyMS45MjE5Ii8+PC9nPjwhLS1saW5rIFVzZXIgdG8gQnJvd3NlLS0+PGcgaWQ9ImxpbmtfVXNlcl9Ccm93c2UiPjxwYXRoIGNvZGVMaW5lPSI0NCIgZD0iTTE2MywxMzAuMjUgQzE0MC4zOCwxNjYuNDEgMTEyLjM3LDIxMS4xNyA5Mi44NCwyNDIuMzkgIiBmaWxsPSJub25lIiBpZD0iVXNlci1Ccm93c2UiIHN0eWxlPSJzdHJva2U6IzE4MTgxODtzdHJva2Utd2lkdGg6MS4wOyIvPjx0ZXh0IGZpbGw9IiMwMDAwMDAiIGZvbnQtZmFtaWx5PSJzYW5zLXNlcmlmIiBmb250LXNpemU9IjEzIiBsZW5ndGhBZGp1c3Q9InNwYWNpbmciIHRleHRMZW5ndGg9IjIxIiB4PSIxNDQiIHk9IjE3My4yODkxIj5oYXM8L3RleHQ+PHRleHQgZmlsbD0iIzAwMDAwMCIgZm9udC1mYW1pbHk9InNhbnMtc2VyaWYiIGZvbnQtc2l6ZT0iMTMiIGxlbmd0aEFkanVzdD0ic3BhY2luZyIgdGV4dExlbmd0aD0iNyIgeD0iMTUxLjQ2MDkiIHk9IjE1MC4wNTgyIj4xPC90ZXh0Pjx0ZXh0IGZpbGw9IiMwMDAwMDAiIGZvbnQtZmFtaWx5PSJzYW5zLXNlcmlmIiBmb250LXNpemU9IjEzIiBsZW5ndGhBZGp1c3Q9InNwYWNpbmciIHRleHRMZW5ndGg9IjI1IiB4PSI3MC4wNzI2IiB5PSIyMzIuNzkyNiI+MC4uKjwvdGV4dD48L2c+PCEtLWxpbmsgVXNlciB0byBDYXItLT48ZyBpZD0ibGlua19Vc2VyX0NhciI+PHBhdGggY29kZUxpbmU9IjQ1IiBkPSJNMjAyLjI2LDEzMC4yMiBDMjA0LjAyLDE4OC43NSAyMDguMTksMjc5LjcxIDIxOCwzNTggQzIyMS4wNiwzODIuNDIgMjI1LjY5LDQwOC44NSAyMzAuMzcsNDMyLjYzICIgZmlsbD0ibm9uZSIgaWQ9IlVzZXItQ2FyIiBzdHlsZT0ic3Ryb2tlOiMxODE4MTg7c3Ryb2tlLXdpZHRoOjEuMDsiLz48dGV4dCBmaWxsPSIjMDAwMDAwIiBmb250LWZhbWlseT0ic2Fucy1zZXJpZiIgZm9udC1zaXplPSIxMyIgbGVuZ3RoQWRqdXN0PSJzcGFjaW5nIiB0ZXh0TGVuZ3RoPSIyNyIgeD0iMjE5IiB5PSIyODcuMjg5MSI+b3duczwvdGV4dD48dGV4dCBmaWxsPSIjMDAwMDAwIiBmb250LWZhbWlseT0ic2Fucy1zZXJpZiIgZm9udC1zaXplPSIxMyIgbGVuZ3RoQWRqdXN0PSJzcGFjaW5nIiB0ZXh0TGVuZ3RoPSI3IiB4PSIxOTUuMDE1IiB5PSIxNTAuMDI0OSI+MTwvdGV4dD48dGV4dCBmaWxsPSIjMDAwMDAwIiBmb250LWZhbWlseT0ic2Fucy1zZXJpZiIgZm9udC1zaXplPSIxMyIgbGVuZ3RoQWRqdXN0PSJzcGFjaW5nIiB0ZXh0TGVuZ3RoPSIyNSIgeD0iMjAyLjM2NiIgeT0iNDIzLjM3NDMiPjAuLio8L3RleHQ+PC9nPjwhLS1saW5rIFVzZXIgdG8gT3JkZXJzLS0+PGcgaWQ9ImxpbmtfVXNlcl9PcmRlcnMiPjxwYXRoIGNvZGVMaW5lPSI0NiIgZD0iTTIzNy4yOCwxMzAuMjUgQzI1MS4xNiwxNTMuNSAyNjcuMTcsMTgwLjMxIDI4MS43OSwyMDQuOCAiIGZpbGw9Im5vbmUiIGlkPSJVc2VyLU9yZGVycyIgc3R5bGU9InN0cm9rZTojMTgxODE4O3N0cm9rZS13aWR0aDoxLjA7Ii8+PHRleHQgZmlsbD0iIzAwMDAwMCIgZm9udC1mYW1pbHk9InNhbnMtc2VyaWYiIGZvbnQtc2l6ZT0iMTMiIGxlbmd0aEFkanVzdD0ic3BhY2luZyIgdGV4dExlbmd0aD0iNDEiIHg9IjI2NSIgeT0iMTczLjI4OTEiPnBsYWNlczwvdGV4dD48dGV4dCBmaWxsPSIjMDAwMDAwIiBmb250LWZhbWlseT0ic2Fucy1zZXJpZiIgZm9udC1zaXplPSIxMyIgbGVuZ3RoQWRqdXN0PSJzcGFjaW5nIiB0ZXh0TGVuZ3RoPSI3IiB4PSIyMzMuODY1MyIgeT0iMTUwLjA1ODIiPjE8L3RleHQ+PHRleHQgZmlsbD0iIzAwMDAwMCIgZm9udC1mYW1pbHk9InNhbnMtc2VyaWYiIGZvbnQtc2l6ZT0iMTMiIGxlbmd0aEFkanVzdD0ic3BhY2luZyIgdGV4dExlbmd0aD0iMjUiIHg9IjI1MC44Mzg3IiB5PSIxOTUuNTYxOCI+MC4uKjwvdGV4dD48L2c+PCEtLWxpbmsgQ2FyIHRvIFByb2R1Y3QtLT48ZyBpZD0ibGlua19DYXJfUHJvZHVjdCI+PHBhdGggY29kZUxpbmU9IjQ3IiBkPSJNMjQ3LDU4NiBDMjQ3LDYxMC4zIDI0Nyw2MzcuMDcgMjQ3LDY2MC44MSAiIGZpbGw9Im5vbmUiIGlkPSJDYXItUHJvZHVjdCIgc3R5bGU9InN0cm9rZTojMTgxODE4O3N0cm9rZS13aWR0aDoxLjA7Ii8+PHRleHQgZmlsbD0iIzAwMDAwMCIgZm9udC1mYW1pbHk9InNhbnMtc2VyaWYiIGZvbnQtc2l6ZT0iMTMiIGxlbmd0aEFkanVzdD0ic3BhY2luZyIgdGV4dExlbmd0aD0iNTQiIHg9IjI0OCIgeT0iNjI5LjI4OTEiPmNvbnRhaW5zPC90ZXh0Pjx0ZXh0IGZpbGw9IiMwMDAwMDAiIGZvbnQtZmFtaWx5PSJzYW5zLXNlcmlmIiBmb250LXNpemU9IjEzIiBsZW5ndGhBZGp1c3Q9InNwYWNpbmciIHRleHRMZW5ndGg9IjI1IiB4PSIyMjAuODA4NiIgeT0iNjA2LjI0ODgiPjAuLio8L3RleHQ+PHRleHQgZmlsbD0iIzAwMDAwMCIgZm9udC1mYW1pbHk9InNhbnMtc2VyaWYiIGZvbnQtc2l6ZT0iMTMiIGxlbmd0aEFkanVzdD0ic3BhY2luZyIgdGV4dExlbmd0aD0iNyIgeD0iMjM5LjU5NTMiIHk9IjY1MS40MDU3Ij4xPC90ZXh0PjwvZz48IS0tbGluayBPcmRlcnMgdG8gQ2FyLS0+PGcgaWQ9ImxpbmtfT3JkZXJzX0NhciI+PHBhdGggY29kZUxpbmU9IjQ4IiBkPSJNMzAwLjI1LDM1OC4wNyBDMjkxLjc2LDM4Mi4wNiAyODIuMzYsNDA4LjYgMjczLjg2LDQzMi42MiAiIGZpbGw9Im5vbmUiIGlkPSJPcmRlcnMtQ2FyIiBzdHlsZT0ic3Ryb2tlOiMxODE4MTg7c3Ryb2tlLXdpZHRoOjEuMDsiLz48dGV4dCBmaWxsPSIjMDAwMDAwIiBmb250LWZhbWlseT0ic2Fucy1zZXJpZiIgZm9udC1zaXplPSIxMyIgbGVuZ3RoQWRqdXN0PSJzcGFjaW5nIiB0ZXh0TGVuZ3RoPSI1NCIgeD0iMjkxIiB5PSI0MDEuMjg5MSI+Y29udGFpbnM8L3RleHQ+PHRleHQgZmlsbD0iIzAwMDAwMCIgZm9udC1mYW1pbHk9InNhbnMtc2VyaWYiIGZvbnQtc2l6ZT0iMTMiIGxlbmd0aEFkanVzdD0ic3BhY2luZyIgdGV4dExlbmd0aD0iMjUiIHg9IjI3MS42MzE2IiB5PSIzNzguMDY0MyI+MC4uKjwvdGV4dD48dGV4dCBmaWxsPSIjMDAwMDAwIiBmb250LWZhbWlseT0ic2Fucy1zZXJpZiIgZm9udC1zaXplPSIxMyIgbGVuZ3RoQWRqdXN0PSJzcGFjaW5nIiB0ZXh0TGVuZ3RoPSI3IiB4PSIyNjkuMjY5IiB5PSI0MjMuMzYzMyI+MTwvdGV4dD48L2c+PCEtLVNSQz1bcEw5REl5TDAzQnBsaG1ZejI0OFZVa3JISi0gLVkzeUtWNEJVWFJ0NF9vWVFiWUZaVnRUUE10NnIxbFBkWlA5OFA5ajRNY1U0Y1hmNDl0WElhZ2s1SGVsNFRlRFBYeTlBM09pSUlVYlRBcHZFdDZGeW1iYTUtU0N5S1N5bW0zbmxDVE9NMHMtdmxLUnd2RWlORzNiZy1kMXN6SzRTSHZCTWRPX2taaXVzWTNjYjFBUmRkRFJUbjdya0FfMF9wVU1Cd3RUZHduMXYzQjJCcEhoX1NlSWx5T2JTMHZEM09JVkcyN2lZWWNFM3ZSN2ZNaXRuck5LNVRHdExyRTVuTXdtU3NTQ1JUX2xIZDNPSkh4dFFOZTFsZUJNZllEUjZOcmFIQXRGS1pjbGNNUURBVVBJWmRWVWdpZDB5MF0tLT48L2c+PC9zdmc+;" vertex="1" parent="1">
            <mxGeometry x="-470" y="2118" width="396" height="805" as="geometry" />
          </mxCell>
        </UserObject>
        <mxCell id="NkZFCGmQznUvReN-Zk9U-5" value="Browse" style="swimlane;fontStyle=1;align=center;verticalAlign=top;childLayout=stackLayout;horizontal=1;startSize=27.01587132045201;horizontalStack=0;resizeParent=1;resizeParentMax=0;resizeLast=0;collapsible=0;marginBottom=0;" vertex="1" parent="1">
          <mxGeometry x="-961" y="2923" width="127" height="95.015871320452" as="geometry" />
        </mxCell>
        <mxCell id="NkZFCGmQznUvReN-Zk9U-6" value="+String account" style="text;strokeColor=none;fillColor=none;align=left;verticalAlign=top;spacingLeft=4;spacingRight=4;overflow=hidden;rotatable=0;points=[[0,0.5],[1,0.5]];portConstraint=eastwest;" vertex="1" parent="NkZFCGmQznUvReN-Zk9U-5">
          <mxGeometry y="27.01587132045201" width="127" height="27" as="geometry" />
        </mxCell>
        <mxCell id="NkZFCGmQznUvReN-Zk9U-7" value="+String title" style="text;strokeColor=none;fillColor=none;align=left;verticalAlign=top;spacingLeft=4;spacingRight=4;overflow=hidden;rotatable=0;points=[[0,0.5],[1,0.5]];portConstraint=eastwest;" vertex="1" parent="NkZFCGmQznUvReN-Zk9U-5">
          <mxGeometry y="54.01587132045201" width="127" height="27" as="geometry" />
        </mxCell>
        <mxCell id="NkZFCGmQznUvReN-Zk9U-8" style="line;strokeWidth=1;fillColor=none;align=left;verticalAlign=middle;spacingTop=-1;spacingLeft=3;spacingRight=3;rotatable=0;labelPosition=right;points=[];portConstraint=eastwest;strokeColor=inherit;" vertex="1" parent="NkZFCGmQznUvReN-Zk9U-5">
          <mxGeometry y="81.015871320452" width="127" height="14" as="geometry" />
        </mxCell>
        <mxCell id="NkZFCGmQznUvReN-Zk9U-9" value="Car" style="swimlane;fontStyle=1;align=center;verticalAlign=top;childLayout=stackLayout;horizontal=1;startSize=24.370370303883274;horizontalStack=0;resizeParent=1;resizeParentMax=0;resizeLast=0;collapsible=0;marginBottom=0;" vertex="1" parent="1">
          <mxGeometry x="-961" y="3616" width="127" height="204.37037030388328" as="geometry" />
        </mxCell>
        <mxCell id="NkZFCGmQznUvReN-Zk9U-10" value="+String account" style="text;strokeColor=none;fillColor=none;align=left;verticalAlign=top;spacingLeft=4;spacingRight=4;overflow=hidden;rotatable=0;points=[[0,0.5],[1,0.5]];portConstraint=eastwest;" vertex="1" parent="NkZFCGmQznUvReN-Zk9U-9">
          <mxGeometry y="24.370370303883274" width="127" height="24" as="geometry" />
        </mxCell>
        <mxCell id="NkZFCGmQznUvReN-Zk9U-11" value="+String title" style="text;strokeColor=none;fillColor=none;align=left;verticalAlign=top;spacingLeft=4;spacingRight=4;overflow=hidden;rotatable=0;points=[[0,0.5],[1,0.5]];portConstraint=eastwest;" vertex="1" parent="NkZFCGmQznUvReN-Zk9U-9">
          <mxGeometry y="48.37037030388328" width="127" height="24" as="geometry" />
        </mxCell>
        <mxCell id="NkZFCGmQznUvReN-Zk9U-12" value="+String number" style="text;strokeColor=none;fillColor=none;align=left;verticalAlign=top;spacingLeft=4;spacingRight=4;overflow=hidden;rotatable=0;points=[[0,0.5],[1,0.5]];portConstraint=eastwest;" vertex="1" parent="NkZFCGmQznUvReN-Zk9U-9">
          <mxGeometry y="72.37037030388328" width="127" height="24" as="geometry" />
        </mxCell>
        <mxCell id="NkZFCGmQznUvReN-Zk9U-13" value="+String issuer" style="text;strokeColor=none;fillColor=none;align=left;verticalAlign=top;spacingLeft=4;spacingRight=4;overflow=hidden;rotatable=0;points=[[0,0.5],[1,0.5]];portConstraint=eastwest;" vertex="1" parent="NkZFCGmQznUvReN-Zk9U-9">
          <mxGeometry y="96.37037030388328" width="127" height="24" as="geometry" />
        </mxCell>
        <mxCell id="NkZFCGmQznUvReN-Zk9U-14" value="+String img" style="text;strokeColor=none;fillColor=none;align=left;verticalAlign=top;spacingLeft=4;spacingRight=4;overflow=hidden;rotatable=0;points=[[0,0.5],[1,0.5]];portConstraint=eastwest;" vertex="1" parent="NkZFCGmQznUvReN-Zk9U-9">
          <mxGeometry y="120.37037030388328" width="127" height="24" as="geometry" />
        </mxCell>
        <mxCell id="NkZFCGmQznUvReN-Zk9U-15" value="+String amount" style="text;strokeColor=none;fillColor=none;align=left;verticalAlign=top;spacingLeft=4;spacingRight=4;overflow=hidden;rotatable=0;points=[[0,0.5],[1,0.5]];portConstraint=eastwest;" vertex="1" parent="NkZFCGmQznUvReN-Zk9U-9">
          <mxGeometry y="144.37037030388328" width="127" height="24" as="geometry" />
        </mxCell>
        <mxCell id="NkZFCGmQznUvReN-Zk9U-16" value="+String date" style="text;strokeColor=none;fillColor=none;align=left;verticalAlign=top;spacingLeft=4;spacingRight=4;overflow=hidden;rotatable=0;points=[[0,0.5],[1,0.5]];portConstraint=eastwest;" vertex="1" parent="NkZFCGmQznUvReN-Zk9U-9">
          <mxGeometry y="168.37037030388328" width="127" height="24" as="geometry" />
        </mxCell>
        <mxCell id="NkZFCGmQznUvReN-Zk9U-17" style="line;strokeWidth=1;fillColor=none;align=left;verticalAlign=middle;spacingTop=-1;spacingLeft=3;spacingRight=3;rotatable=0;labelPosition=right;points=[];portConstraint=eastwest;strokeColor=inherit;" vertex="1" parent="NkZFCGmQznUvReN-Zk9U-9">
          <mxGeometry y="192.37037030388328" width="127" height="12" as="geometry" />
        </mxCell>
        <mxCell id="NkZFCGmQznUvReN-Zk9U-18" value="Product" style="swimlane;fontStyle=1;align=center;verticalAlign=top;childLayout=stackLayout;horizontal=1;startSize=24.61728515625;horizontalStack=0;resizeParent=1;resizeParentMax=0;resizeLast=0;collapsible=0;marginBottom=0;" vertex="1" parent="1">
          <mxGeometry x="-961" y="3900" width="126" height="186.61728515625" as="geometry" />
        </mxCell>
        <mxCell id="NkZFCGmQznUvReN-Zk9U-19" value="+Integer typeId" style="text;strokeColor=none;fillColor=none;align=left;verticalAlign=top;spacingLeft=4;spacingRight=4;overflow=hidden;rotatable=0;points=[[0,0.5],[1,0.5]];portConstraint=eastwest;" vertex="1" parent="NkZFCGmQznUvReN-Zk9U-18">
          <mxGeometry y="24.61728515625" width="126" height="25" as="geometry" />
        </mxCell>
        <mxCell id="NkZFCGmQznUvReN-Zk9U-20" value="+String title" style="text;strokeColor=none;fillColor=none;align=left;verticalAlign=top;spacingLeft=4;spacingRight=4;overflow=hidden;rotatable=0;points=[[0,0.5],[1,0.5]];portConstraint=eastwest;" vertex="1" parent="NkZFCGmQznUvReN-Zk9U-18">
          <mxGeometry y="49.61728515625" width="126" height="25" as="geometry" />
        </mxCell>
        <mxCell id="NkZFCGmQznUvReN-Zk9U-21" value="+String img" style="text;strokeColor=none;fillColor=none;align=left;verticalAlign=top;spacingLeft=4;spacingRight=4;overflow=hidden;rotatable=0;points=[[0,0.5],[1,0.5]];portConstraint=eastwest;" vertex="1" parent="NkZFCGmQznUvReN-Zk9U-18">
          <mxGeometry y="74.61728515625" width="126" height="25" as="geometry" />
        </mxCell>
        <mxCell id="NkZFCGmQznUvReN-Zk9U-22" value="+String content" style="text;strokeColor=none;fillColor=none;align=left;verticalAlign=top;spacingLeft=4;spacingRight=4;overflow=hidden;rotatable=0;points=[[0,0.5],[1,0.5]];portConstraint=eastwest;" vertex="1" parent="NkZFCGmQznUvReN-Zk9U-18">
          <mxGeometry y="99.61728515625" width="126" height="25" as="geometry" />
        </mxCell>
        <mxCell id="NkZFCGmQznUvReN-Zk9U-23" value="+String issuer" style="text;strokeColor=none;fillColor=none;align=left;verticalAlign=top;spacingLeft=4;spacingRight=4;overflow=hidden;rotatable=0;points=[[0,0.5],[1,0.5]];portConstraint=eastwest;" vertex="1" parent="NkZFCGmQznUvReN-Zk9U-18">
          <mxGeometry y="124.61728515625" width="126" height="25" as="geometry" />
        </mxCell>
        <mxCell id="NkZFCGmQznUvReN-Zk9U-24" value="+String date" style="text;strokeColor=none;fillColor=none;align=left;verticalAlign=top;spacingLeft=4;spacingRight=4;overflow=hidden;rotatable=0;points=[[0,0.5],[1,0.5]];portConstraint=eastwest;" vertex="1" parent="NkZFCGmQznUvReN-Zk9U-18">
          <mxGeometry y="149.61728515625" width="126" height="25" as="geometry" />
        </mxCell>
        <mxCell id="NkZFCGmQznUvReN-Zk9U-25" style="line;strokeWidth=1;fillColor=none;align=left;verticalAlign=middle;spacingTop=-1;spacingLeft=3;spacingRight=3;rotatable=0;labelPosition=right;points=[];portConstraint=eastwest;strokeColor=inherit;" vertex="1" parent="NkZFCGmQznUvReN-Zk9U-18">
          <mxGeometry y="174.61728515625" width="126" height="12" as="geometry" />
        </mxCell>
        <mxCell id="NkZFCGmQznUvReN-Zk9U-26" value="Orders" style="swimlane;fontStyle=1;align=center;verticalAlign=top;childLayout=stackLayout;horizontal=1;startSize=24.370370303883274;horizontalStack=0;resizeParent=1;resizeParentMax=0;resizeLast=0;collapsible=0;marginBottom=0;" vertex="1" parent="1">
          <mxGeometry x="-961" y="3333" width="127" height="204.37037030388328" as="geometry" />
        </mxCell>
        <mxCell id="NkZFCGmQznUvReN-Zk9U-27" value="+String account" style="text;strokeColor=none;fillColor=none;align=left;verticalAlign=top;spacingLeft=4;spacingRight=4;overflow=hidden;rotatable=0;points=[[0,0.5],[1,0.5]];portConstraint=eastwest;" vertex="1" parent="NkZFCGmQznUvReN-Zk9U-26">
          <mxGeometry y="24.370370303883274" width="127" height="24" as="geometry" />
        </mxCell>
        <mxCell id="NkZFCGmQznUvReN-Zk9U-28" value="+String title" style="text;strokeColor=none;fillColor=none;align=left;verticalAlign=top;spacingLeft=4;spacingRight=4;overflow=hidden;rotatable=0;points=[[0,0.5],[1,0.5]];portConstraint=eastwest;" vertex="1" parent="NkZFCGmQznUvReN-Zk9U-26">
          <mxGeometry y="48.37037030388328" width="127" height="24" as="geometry" />
        </mxCell>
        <mxCell id="NkZFCGmQznUvReN-Zk9U-29" value="+String number" style="text;strokeColor=none;fillColor=none;align=left;verticalAlign=top;spacingLeft=4;spacingRight=4;overflow=hidden;rotatable=0;points=[[0,0.5],[1,0.5]];portConstraint=eastwest;" vertex="1" parent="NkZFCGmQznUvReN-Zk9U-26">
          <mxGeometry y="72.37037030388328" width="127" height="24" as="geometry" />
        </mxCell>
        <mxCell id="NkZFCGmQznUvReN-Zk9U-30" value="+String issuer" style="text;strokeColor=none;fillColor=none;align=left;verticalAlign=top;spacingLeft=4;spacingRight=4;overflow=hidden;rotatable=0;points=[[0,0.5],[1,0.5]];portConstraint=eastwest;" vertex="1" parent="NkZFCGmQznUvReN-Zk9U-26">
          <mxGeometry y="96.37037030388328" width="127" height="24" as="geometry" />
        </mxCell>
        <mxCell id="NkZFCGmQznUvReN-Zk9U-31" value="+String img" style="text;strokeColor=none;fillColor=none;align=left;verticalAlign=top;spacingLeft=4;spacingRight=4;overflow=hidden;rotatable=0;points=[[0,0.5],[1,0.5]];portConstraint=eastwest;" vertex="1" parent="NkZFCGmQznUvReN-Zk9U-26">
          <mxGeometry y="120.37037030388328" width="127" height="24" as="geometry" />
        </mxCell>
        <mxCell id="NkZFCGmQznUvReN-Zk9U-32" value="+String amount" style="text;strokeColor=none;fillColor=none;align=left;verticalAlign=top;spacingLeft=4;spacingRight=4;overflow=hidden;rotatable=0;points=[[0,0.5],[1,0.5]];portConstraint=eastwest;" vertex="1" parent="NkZFCGmQznUvReN-Zk9U-26">
          <mxGeometry y="144.37037030388328" width="127" height="24" as="geometry" />
        </mxCell>
        <mxCell id="NkZFCGmQznUvReN-Zk9U-33" value="+String date" style="text;strokeColor=none;fillColor=none;align=left;verticalAlign=top;spacingLeft=4;spacingRight=4;overflow=hidden;rotatable=0;points=[[0,0.5],[1,0.5]];portConstraint=eastwest;" vertex="1" parent="NkZFCGmQznUvReN-Zk9U-26">
          <mxGeometry y="168.37037030388328" width="127" height="24" as="geometry" />
        </mxCell>
        <mxCell id="NkZFCGmQznUvReN-Zk9U-34" style="line;strokeWidth=1;fillColor=none;align=left;verticalAlign=middle;spacingTop=-1;spacingLeft=3;spacingRight=3;rotatable=0;labelPosition=right;points=[];portConstraint=eastwest;strokeColor=inherit;" vertex="1" parent="NkZFCGmQznUvReN-Zk9U-26">
          <mxGeometry y="192.37037030388328" width="127" height="12" as="geometry" />
        </mxCell>
        <mxCell id="NkZFCGmQznUvReN-Zk9U-35" value="User" style="swimlane;fontStyle=1;align=center;verticalAlign=top;childLayout=stackLayout;horizontal=1;startSize=24.940171461838943;horizontalStack=0;resizeParent=1;resizeParentMax=0;resizeLast=0;collapsible=0;marginBottom=0;" vertex="1" parent="1">
          <mxGeometry x="-968" y="3094" width="140" height="161.94017146183893" as="geometry" />
        </mxCell>
        <mxCell id="NkZFCGmQznUvReN-Zk9U-36" value="+String account" style="text;strokeColor=none;fillColor=none;align=left;verticalAlign=top;spacingLeft=4;spacingRight=4;overflow=hidden;rotatable=0;points=[[0,0.5],[1,0.5]];portConstraint=eastwest;" vertex="1" parent="NkZFCGmQznUvReN-Zk9U-35">
          <mxGeometry y="24.940171461838943" width="140" height="25" as="geometry" />
        </mxCell>
        <mxCell id="NkZFCGmQznUvReN-Zk9U-37" value="+String password" style="text;strokeColor=none;fillColor=none;align=left;verticalAlign=top;spacingLeft=4;spacingRight=4;overflow=hidden;rotatable=0;points=[[0,0.5],[1,0.5]];portConstraint=eastwest;" vertex="1" parent="NkZFCGmQznUvReN-Zk9U-35">
          <mxGeometry y="49.94017146183894" width="140" height="25" as="geometry" />
        </mxCell>
        <mxCell id="NkZFCGmQznUvReN-Zk9U-38" value="+String nickName" style="text;strokeColor=none;fillColor=none;align=left;verticalAlign=top;spacingLeft=4;spacingRight=4;overflow=hidden;rotatable=0;points=[[0,0.5],[1,0.5]];portConstraint=eastwest;" vertex="1" parent="NkZFCGmQznUvReN-Zk9U-35">
          <mxGeometry y="74.94017146183894" width="140" height="25" as="geometry" />
        </mxCell>
        <mxCell id="NkZFCGmQznUvReN-Zk9U-39" value="+String age" style="text;strokeColor=none;fillColor=none;align=left;verticalAlign=top;spacingLeft=4;spacingRight=4;overflow=hidden;rotatable=0;points=[[0,0.5],[1,0.5]];portConstraint=eastwest;" vertex="1" parent="NkZFCGmQznUvReN-Zk9U-35">
          <mxGeometry y="99.94017146183894" width="140" height="25" as="geometry" />
        </mxCell>
        <mxCell id="NkZFCGmQznUvReN-Zk9U-40" value="+String email" style="text;strokeColor=none;fillColor=none;align=left;verticalAlign=top;spacingLeft=4;spacingRight=4;overflow=hidden;rotatable=0;points=[[0,0.5],[1,0.5]];portConstraint=eastwest;" vertex="1" parent="NkZFCGmQznUvReN-Zk9U-35">
          <mxGeometry y="124.94017146183894" width="140" height="25" as="geometry" />
        </mxCell>
        <mxCell id="NkZFCGmQznUvReN-Zk9U-41" style="line;strokeWidth=1;fillColor=none;align=left;verticalAlign=middle;spacingTop=-1;spacingLeft=3;spacingRight=3;rotatable=0;labelPosition=right;points=[];portConstraint=eastwest;strokeColor=inherit;" vertex="1" parent="NkZFCGmQznUvReN-Zk9U-35">
          <mxGeometry y="149.94017146183893" width="140" height="12" as="geometry" />
        </mxCell>
        <mxCell id="NkZFCGmQznUvReN-Zk9U-42" value="&quot;has&quot;" style="curved=1;startArrow=none;endArrow=open;endSize=12;exitX=0.68;exitY=0;entryX=0.66;entryY=1;rounded=0;" edge="1" parent="1" source="NkZFCGmQznUvReN-Zk9U-35" target="NkZFCGmQznUvReN-Zk9U-5">
          <mxGeometry relative="1" as="geometry">
            <Array as="points">
              <mxPoint x="-863" y="3060" />
            </Array>
          </mxGeometry>
        </mxCell>
        <mxCell id="NkZFCGmQznUvReN-Zk9U-43" value="1" style="edgeLabel;resizable=0;labelBackgroundColor=none;fontSize=12;align=right;verticalAlign=bottom;" vertex="1" parent="NkZFCGmQznUvReN-Zk9U-42">
          <mxGeometry x="-1" relative="1" as="geometry" />
        </mxCell>
        <mxCell id="NkZFCGmQznUvReN-Zk9U-44" value="0..*" style="edgeLabel;resizable=0;labelBackgroundColor=none;fontSize=12;align=left;verticalAlign=top;" vertex="1" parent="NkZFCGmQznUvReN-Zk9U-42">
          <mxGeometry x="1" relative="1" as="geometry" />
        </mxCell>
        <mxCell id="NkZFCGmQznUvReN-Zk9U-45" value="&quot;owns&quot;" style="curved=1;startArrow=none;endArrow=open;endSize=12;exitX=0;exitY=0.87;entryX=0;entryY=0.19;rounded=0;" edge="1" parent="1" source="NkZFCGmQznUvReN-Zk9U-35" target="NkZFCGmQznUvReN-Zk9U-9">
          <mxGeometry relative="1" as="geometry">
            <Array as="points">
              <mxPoint x="-1030" y="3298" />
              <mxPoint x="-1030" y="3582" />
            </Array>
          </mxGeometry>
        </mxCell>
        <mxCell id="NkZFCGmQznUvReN-Zk9U-46" value="1" style="edgeLabel;resizable=0;labelBackgroundColor=none;fontSize=12;align=right;verticalAlign=top;" vertex="1" parent="NkZFCGmQznUvReN-Zk9U-45">
          <mxGeometry x="-1" relative="1" as="geometry" />
        </mxCell>
        <mxCell id="NkZFCGmQznUvReN-Zk9U-47" value="0..*" style="edgeLabel;resizable=0;labelBackgroundColor=none;fontSize=12;align=left;verticalAlign=bottom;" vertex="1" parent="NkZFCGmQznUvReN-Zk9U-45">
          <mxGeometry x="1" relative="1" as="geometry" />
        </mxCell>
        <mxCell id="NkZFCGmQznUvReN-Zk9U-48" value="&quot;places&quot;" style="curved=1;startArrow=none;endArrow=open;endSize=12;exitX=0.26;exitY=1;entryX=0.21;entryY=0;rounded=0;" edge="1" parent="1" source="NkZFCGmQznUvReN-Zk9U-35" target="NkZFCGmQznUvReN-Zk9U-26">
          <mxGeometry relative="1" as="geometry">
            <Array as="points">
              <mxPoint x="-945" y="3298" />
            </Array>
          </mxGeometry>
        </mxCell>
        <mxCell id="NkZFCGmQznUvReN-Zk9U-49" value="1" style="edgeLabel;resizable=0;labelBackgroundColor=none;fontSize=12;align=right;verticalAlign=top;" vertex="1" parent="NkZFCGmQznUvReN-Zk9U-48">
          <mxGeometry x="-1" relative="1" as="geometry" />
        </mxCell>
        <mxCell id="NkZFCGmQznUvReN-Zk9U-50" value="0..*" style="edgeLabel;resizable=0;labelBackgroundColor=none;fontSize=12;align=left;verticalAlign=bottom;" vertex="1" parent="NkZFCGmQznUvReN-Zk9U-48">
          <mxGeometry x="1" relative="1" as="geometry" />
        </mxCell>
        <mxCell id="NkZFCGmQznUvReN-Zk9U-51" value="&quot;contains&quot;" style="curved=1;startArrow=none;endArrow=open;endSize=12;exitX=0.24;exitY=1;entryX=0.24;entryY=0;rounded=0;" edge="1" parent="1" source="NkZFCGmQznUvReN-Zk9U-9" target="NkZFCGmQznUvReN-Zk9U-18">
          <mxGeometry relative="1" as="geometry">
            <Array as="points">
              <mxPoint x="-942" y="3866" />
            </Array>
          </mxGeometry>
        </mxCell>
        <mxCell id="NkZFCGmQznUvReN-Zk9U-52" value="0..*" style="edgeLabel;resizable=0;labelBackgroundColor=none;fontSize=12;align=right;verticalAlign=top;" vertex="1" parent="NkZFCGmQznUvReN-Zk9U-51">
          <mxGeometry x="-1" relative="1" as="geometry" />
        </mxCell>
        <mxCell id="NkZFCGmQznUvReN-Zk9U-53" value="1" style="edgeLabel;resizable=0;labelBackgroundColor=none;fontSize=12;align=left;verticalAlign=bottom;" vertex="1" parent="NkZFCGmQznUvReN-Zk9U-51">
          <mxGeometry x="1" relative="1" as="geometry" />
        </mxCell>
        <mxCell id="NkZFCGmQznUvReN-Zk9U-54" value="&quot;contains&quot;" style="curved=1;startArrow=none;endArrow=open;endSize=12;exitX=0.24;exitY=1;entryX=0.24;entryY=0;rounded=0;" edge="1" parent="1" source="NkZFCGmQznUvReN-Zk9U-26" target="NkZFCGmQznUvReN-Zk9U-9">
          <mxGeometry relative="1" as="geometry">
            <Array as="points">
              <mxPoint x="-942" y="3582" />
            </Array>
          </mxGeometry>
        </mxCell>
        <mxCell id="NkZFCGmQznUvReN-Zk9U-55" value="0..*" style="edgeLabel;resizable=0;labelBackgroundColor=none;fontSize=12;align=right;verticalAlign=top;" vertex="1" parent="NkZFCGmQznUvReN-Zk9U-54">
          <mxGeometry x="-1" relative="1" as="geometry" />
        </mxCell>
        <mxCell id="NkZFCGmQznUvReN-Zk9U-56" value="1" style="edgeLabel;resizable=0;labelBackgroundColor=none;fontSize=12;align=left;verticalAlign=bottom;" vertex="1" parent="NkZFCGmQznUvReN-Zk9U-54">
          <mxGeometry x="1" relative="1" as="geometry" />
        </mxCell>
        <mxCell id="NkZFCGmQznUvReN-Zk9U-57" value="&quot;account&quot;" style="curved=1;startArrow=none;endArrow=open;endSize=12;exitX=0.33;exitY=1;entryX=0.32;entryY=0;rounded=0;" edge="1" parent="1" source="NkZFCGmQznUvReN-Zk9U-5" target="NkZFCGmQznUvReN-Zk9U-35">
          <mxGeometry relative="1" as="geometry">
            <Array as="points">
              <mxPoint x="-933" y="3060" />
            </Array>
          </mxGeometry>
        </mxCell>
        <mxCell id="NkZFCGmQznUvReN-Zk9U-58" value="&quot;account&quot;" style="curved=1;startArrow=none;endArrow=open;endSize=12;exitX=1;exitY=0.19;entryX=1;entryY=0.86;rounded=0;" edge="1" parent="1" source="NkZFCGmQznUvReN-Zk9U-9" target="NkZFCGmQznUvReN-Zk9U-35">
          <mxGeometry relative="1" as="geometry">
            <Array as="points">
              <mxPoint x="-762" y="3582" />
              <mxPoint x="-762" y="3298" />
            </Array>
          </mxGeometry>
        </mxCell>
        <mxCell id="NkZFCGmQznUvReN-Zk9U-59" value="&quot;account&quot;" style="curved=1;startArrow=none;endArrow=open;endSize=12;exitX=0.76;exitY=0;entryX=0.72;entryY=1;rounded=0;" edge="1" parent="1" source="NkZFCGmQznUvReN-Zk9U-26" target="NkZFCGmQznUvReN-Zk9U-35">
          <mxGeometry relative="1" as="geometry">
            <Array as="points">
              <mxPoint x="-855" y="3298" />
            </Array>
          </mxGeometry>
        </mxCell>
        <mxCell id="NkZFCGmQznUvReN-Zk9U-60" value="&quot;number&quot;" style="curved=1;startArrow=none;endArrow=open;endSize=12;exitX=0.76;exitY=1;entryX=0.76;entryY=0;rounded=0;" edge="1" parent="1" source="NkZFCGmQznUvReN-Zk9U-26" target="NkZFCGmQznUvReN-Zk9U-9">
          <mxGeometry relative="1" as="geometry">
            <Array as="points">
              <mxPoint x="-854" y="3582" />
            </Array>
          </mxGeometry>
        </mxCell>
        <mxCell id="NkZFCGmQznUvReN-Zk9U-61" value="&quot;number&quot;" style="curved=1;startArrow=none;endArrow=open;endSize=12;exitX=0.76;exitY=1;entryX=0.76;entryY=0;rounded=0;" edge="1" parent="1" source="NkZFCGmQznUvReN-Zk9U-9" target="NkZFCGmQznUvReN-Zk9U-18">
          <mxGeometry relative="1" as="geometry">
            <Array as="points">
              <mxPoint x="-854" y="3866" />
            </Array>
          </mxGeometry>
        </mxCell>
        <UserObject label="" plantUmlData="{&quot;data&quot;:&quot;@startuml\ntitle Архитектура мобильного приложения для покупок\n\nnode \&quot;Мобильное устройство\&quot; as МобильноеУстройство {\n    artifact \&quot;Мобильное приложение\&quot; as МобильноеПриложение {\n        component \&quot;Компонент просмотра\&quot; as Просмотр\n        component \&quot;Компонент пользователя\&quot; as Пользователь\n        component \&quot;Компонент продуктов\&quot; as Продукты\n        component \&quot;Компонент корзины\&quot; as Корзина\n        component \&quot;Компонент заказов\&quot; as Заказы\n    }\n}\n\ndatabase \&quot;Локальная база данных\&quot; as ЛокальнаяБД {\n    [Хранилище данных]\n}\n\ncloud \&quot;Облачный сервер\&quot; as ОблачныйСервер {\n    [API-интерфейс]\n    [Служба аутентификации]\n    [Служба обработки заказов]\n}\n\nactor \&quot;Покупатель\&quot; as Покупатель\n\nПокупатель --&gt; МобильноеУстройство : взаимодействует\nМобильноеУстройство &lt;--&gt; ОблачныйСервер : синхронизация данных\nМобильноеУстройство --&gt; ЛокальнаяБД : сохранение информации\nОблачныйСервер --&gt; ЛокальнаяБД : обновление данных\n\nnote right of МобильноеУстройство\n    Ключевые функции приложения:\n    • Регистрация и вход пользователей\n    • Просмотр каталога товаров\n    • Добавление товаров в корзину\n    • Оформление и отслеживание заказов\n    • Локальное кэширование данных\nend note\n\n@enduml&quot;,&quot;format&quot;:&quot;svg&quot;}" id="NkZFCGmQznUvReN-Zk9U-64">
          <mxCell style="shape=image;noLabel=1;verticalAlign=top;aspect=fixed;imageAspect=0;image=data:image/svg+xml,PD94bWwgdmVyc2lvbj0iMS4wIiBlbmNvZGluZz0idXMtYXNjaWkiIHN0YW5kYWxvbmU9Im5vIj8+PHN2ZyB4bWxucz0iaHR0cDovL3d3dy53My5vcmcvMjAwMC9zdmciIHhtbG5zOnhsaW5rPSJodHRwOi8vd3d3LnczLm9yZy8xOTk5L3hsaW5rIiBjb250ZW50U3R5bGVUeXBlPSJ0ZXh0L2NzcyIgaGVpZ2h0PSI3NTFweCIgcHJlc2VydmVBc3BlY3RSYXRpbz0ibm9uZSIgc3R5bGU9IndpZHRoOjE1MzRweDtoZWlnaHQ6NzUxcHg7YmFja2dyb3VuZDojRkZGRkZGOyIgdmVyc2lvbj0iMS4xIiB2aWV3Qm94PSIwIDAgMTUzNCA3NTEiIHdpZHRoPSIxNTM0cHgiIHpvb21BbmRQYW49Im1hZ25pZnkiPjxkZWZzLz48Zz48dGV4dCBmaWxsPSIjMDAwMDAwIiBmb250LWZhbWlseT0ic2Fucy1zZXJpZiIgZm9udC1zaXplPSIxNCIgZm9udC13ZWlnaHQ9ImJvbGQiIGxlbmd0aEFkanVzdD0ic3BhY2luZyIgdGV4dExlbmd0aD0iMzE4IiB4PSI2MDEiIHk9IjIzLjIzNDQiPiYjMTA0MDsmIzEwODg7JiMxMDkzOyYjMTA4MDsmIzEwOTA7JiMxMDc3OyYjMTA4MjsmIzEwOTA7JiMxMDkxOyYjMTA4ODsmIzEwNzI7ICYjMTA4NDsmIzEwODY7JiMxMDczOyYjMTA4MDsmIzEwODM7JiMxMTAwOyYjMTA4NTsmIzEwODY7JiMxMDc1OyYjMTA4NjsgJiMxMDg3OyYjMTA4ODsmIzEwODA7JiMxMDgzOyYjMTA4NjsmIzEwNzg7JiMxMDc3OyYjMTA4NTsmIzEwODA7JiMxMTAzOyAmIzEwNzY7JiMxMDgzOyYjMTEwMzsgJiMxMDg3OyYjMTA4NjsmIzEwODI7JiMxMDkxOyYjMTA4NzsmIzEwODY7JiMxMDgyOzwvdGV4dD48IS0tY2x1c3RlciA/Pz8/Pz8/Pz8/Pz8/Pz8/Pz8/LS0+PGcgaWQ9ImNsdXN0ZXJfJiMxMDUyOyYjMTA4NjsmIzEwNzM7JiMxMDgwOyYjMTA4MzsmIzExMDA7JiMxMDg1OyYjMTA4NjsmIzEwNzc7JiMxMDU5OyYjMTA4OTsmIzEwOTA7JiMxMDg4OyYjMTA4NjsmIzEwODE7JiMxMDg5OyYjMTA5MDsmIzEwNzQ7JiMxMDg2OyI+PHBvbHlnb24gZmlsbD0ibm9uZSIgcG9pbnRzPSIxNiwxOTUuNDg0NCwyNiwxODUuNDg0NCw3MzYsMTg1LjQ4NDQsNzM2LDUzNC40ODQ0LDcyNiw1NDQuNDg0NCwxNiw1NDQuNDg0NCwxNiwxOTUuNDg0NCIgc3R5bGU9InN0cm9rZTojMTgxODE4O3N0cm9rZS13aWR0aDoxLjA7Ii8+PGxpbmUgc3R5bGU9InN0cm9rZTojMTgxODE4O3N0cm9rZS13aWR0aDoxLjA7IiB4MT0iNzI2IiB4Mj0iNzM2IiB5MT0iMTk1LjQ4NDQiIHkyPSIxODUuNDg0NCIvPjxsaW5lIHN0eWxlPSJzdHJva2U6IzE4MTgxODtzdHJva2Utd2lkdGg6MS4wOyIgeDE9IjE2IiB4Mj0iNzI2IiB5MT0iMTk1LjQ4NDQiIHkyPSIxOTUuNDg0NCIvPjxsaW5lIHN0eWxlPSJzdHJva2U6IzE4MTgxODtzdHJva2Utd2lkdGg6MS4wOyIgeDE9IjcyNiIgeDI9IjcyNiIgeTE9IjE5NS40ODQ0IiB5Mj0iNTQ0LjQ4NDQiLz48dGV4dCBmaWxsPSIjMDAwMDAwIiBmb250LWZhbWlseT0ic2Fucy1zZXJpZiIgZm9udC1zaXplPSIxNCIgZm9udC13ZWlnaHQ9ImJvbGQiIGxlbmd0aEFkanVzdD0ic3BhY2luZyIgdGV4dExlbmd0aD0iMTQxIiB4PSIzMDEuNSIgeT0iMjExLjcxODgiPiYjMTA1MjsmIzEwODY7JiMxMDczOyYjMTA4MDsmIzEwODM7JiMxMTAwOyYjMTA4NTsmIzEwODY7JiMxMDc3OyAmIzEwOTE7JiMxMDg5OyYjMTA5MDsmIzEwODg7JiMxMDg2OyYjMTA4MTsmIzEwODk7JiMxMDkwOyYjMTA3NDsmIzEwODY7PC90ZXh0PjwvZz48IS0tY2x1c3RlciA/Pz8/Pz8/Pz8/Pz8/Pz8/Pz8/LS0+PGcgaWQ9ImNsdXN0ZXJfJiMxMDUyOyYjMTA4NjsmIzEwNzM7JiMxMDgwOyYjMTA4MzsmIzExMDA7JiMxMDg1OyYjMTA4NjsmIzEwNzc7JiMxMDU1OyYjMTA4ODsmIzEwODA7JiMxMDgzOyYjMTA4NjsmIzEwNzg7JiMxMDc3OyYjMTA4NTsmIzEwODA7JiMxMDc3OyI+PHJlY3QgZmlsbD0ibm9uZSIgaGVpZ2h0PSIyNzMiIHJ4PSIyLjUiIHJ5PSIyLjUiIHN0eWxlPSJzdHJva2U6IzE4MTgxODtzdHJva2Utd2lkdGg6MS4wOyIgd2lkdGg9IjY0OCIgeD0iNDgiIHk9IjIzOS40ODQ0Ii8+PHBvbHlnb24gZmlsbD0ibm9uZSIgcG9pbnRzPSI2NzksMjQ0LjQ4NDQsNjc5LDI1OC40ODQ0LDY5MSwyNTguNDg0NCw2OTEsMjUwLjQ4NDQsNjg1LDI0NC40ODQ0LDY3OSwyNDQuNDg0NCIgc3R5bGU9InN0cm9rZTojMTgxODE4O3N0cm9rZS13aWR0aDoxLjA7Ii8+PGxpbmUgc3R5bGU9InN0cm9rZTojMTgxODE4O3N0cm9rZS13aWR0aDoxLjA7IiB4MT0iNjg1IiB4Mj0iNjg1IiB5MT0iMjQ0LjQ4NDQiIHkyPSIyNTAuNDg0NCIvPjxsaW5lIHN0eWxlPSJzdHJva2U6IzE4MTgxODtzdHJva2Utd2lkdGg6MS4wOyIgeDE9IjY5MSIgeDI9IjY4NSIgeTE9IjI1MC40ODQ0IiB5Mj0iMjUwLjQ4NDQiLz48dGV4dCBmaWxsPSIjMDAwMDAwIiBmb250LWZhbWlseT0ic2Fucy1zZXJpZiIgZm9udC1zaXplPSIxNCIgZm9udC13ZWlnaHQ9ImJvbGQiIGxlbmd0aEFkanVzdD0ic3BhY2luZyIgdGV4dExlbmd0aD0iMTQyIiB4PSIzMDEiIHk9IjI1NC43MTg4Ij4mIzEwNTI7JiMxMDg2OyYjMTA3MzsmIzEwODA7JiMxMDgzOyYjMTEwMDsmIzEwODU7JiMxMDg2OyYjMTA3NzsgJiMxMDg3OyYjMTA4ODsmIzEwODA7JiMxMDgzOyYjMTA4NjsmIzEwNzg7JiMxMDc3OyYjMTA4NTsmIzEwODA7JiMxMDc3OzwvdGV4dD48L2c+PCEtLWNsdXN0ZXIgPz8/Pz8/Pz8/Pz8tLT48ZyBpZD0iY2x1c3Rlcl8mIzEwNTE7JiMxMDg2OyYjMTA4MjsmIzEwNzI7JiMxMDgzOyYjMTEwMDsmIzEwODU7JiMxMDcyOyYjMTEwMzsmIzEwNDE7JiMxMDQ0OyI+PHBhdGggZD0iTTEyOTYsNjE3LjQ4NDQgQzEyOTYsNjA3LjQ4NDQgMTQwNi41LDYwNy40ODQ0IDE0MDYuNSw2MDcuNDg0NCBDMTQwNi41LDYwNy40ODQ0IDE1MTcsNjA3LjQ4NDQgMTUxNyw2MTcuNDg0NCBMMTUxNyw3MjIuNDg0NCBDMTUxNyw3MzIuNDg0NCAxNDA2LjUsNzMyLjQ4NDQgMTQwNi41LDczMi40ODQ0IEMxNDA2LjUsNzMyLjQ4NDQgMTI5Niw3MzIuNDg0NCAxMjk2LDcyMi40ODQ0IEwxMjk2LDYxNy40ODQ0ICIgZmlsbD0ibm9uZSIgc3R5bGU9InN0cm9rZTojMTgxODE4O3N0cm9rZS13aWR0aDoxLjA7Ii8+PHBhdGggZD0iTTEyOTYsNjE3LjQ4NDQgQzEyOTYsNjI3LjQ4NDQgMTQwNi41LDYyNy40ODQ0IDE0MDYuNSw2MjcuNDg0NCBDMTQwNi41LDYyNy40ODQ0IDE1MTcsNjI3LjQ4NDQgMTUxNyw2MTcuNDg0NCAiIGZpbGw9Im5vbmUiIHN0eWxlPSJzdHJva2U6IzE4MTgxODtzdHJva2Utd2lkdGg6MS4wOyIvPjx0ZXh0IGZpbGw9IiMwMDAwMDAiIGZvbnQtZmFtaWx5PSJzYW5zLXNlcmlmIiBmb250LXNpemU9IjE0IiBmb250LXdlaWdodD0iYm9sZCIgbGVuZ3RoQWRqdXN0PSJzcGFjaW5nIiB0ZXh0TGVuZ3RoPSIxNDkiIHg9IjEzMzIiIHk9IjY0Mi43MTg4Ij4mIzEwNTE7JiMxMDg2OyYjMTA4MjsmIzEwNzI7JiMxMDgzOyYjMTEwMDsmIzEwODU7JiMxMDcyOyYjMTEwMzsgJiMxMDczOyYjMTA3MjsmIzEwNzk7JiMxMDcyOyAmIzEwNzY7JiMxMDcyOyYjMTA4NTsmIzEwODU7JiMxMDk5OyYjMTA5Mzs8L3RleHQ+PC9nPjwhLS1jbHVzdGVyID8/Pz8/Pz8/Pz8/Pz8/LS0+PGcgaWQ9ImNsdXN0ZXJfJiMxMDU0OyYjMTA3MzsmIzEwODM7JiMxMDcyOyYjMTA5NTsmIzEwODU7JiMxMDk5OyYjMTA4MTsmIzEwNTc7JiMxMDc3OyYjMTA4ODsmIzEwNzQ7JiMxMDc3OyYjMTA4ODsiPjxwYXRoIGQ9Ik03OTIuMzYyLDQyMi45MjE3IEM4MDIuMjQ4Nyw0MTAuMTk0OCA4MTMuODA3MSw0MDYuNjcxIDgyMy40OTg4LDQyMy4xMjk4IEM4MzEuMjMyNyw0MTEuOTQ2IDgzOC45NjMxLDQxMS4yNzA3IDg0Ny44MzkyLDQyMS44NTI1IEM4NTcuMDU1Miw0MDguMDQyIDg2Ni42ODk4LDQwOC4yNTM2IDg3NS43NzE3LDQyMS45ODg0IEM4ODMuNjg2Nyw0MDcuNjg1NiA4OTMuODg2OCw0MDYuODkzNSA5MDMuNjc0NSw0MjAuMDg4MSBDOTEzLjI2NzQsNDA1LjcyMSA5MjUuOTY2OSw0MDQuMjk5IDkzNS4yNDczLDQyMC40MTE3IEM5NDEuNzYyOSw0MDguODQxMyA5NTIuOTMzNCw0MDkuNDExOSA5NjAuMzIxNiw0MTkuMzk2NiBDOTY5LjgwMzMsNDAzLjA4MDggOTg0LjEwOTYsNDA1Ljk2MzEgOTkyLjk2NzcsNDIwLjA2NTggQzk5OC4xMTYsNDA1LjgyOTkgMTAwOS40Mjc3LDQwNC42NDg2IDEwMTcuNzA0Nyw0MTcuMTczOSBDMTAyNy40OTIsNDA2LjU3NjIgMTAzNi40Mzk4LDQwNC4wNzgxIDEwNDQuODI3OCw0MTguNjggQzEwNTEuODU4Nyw0MDMuNzI4NCAxMDY1LjU2NzYsNDAzLjMzMjcgMTA3Mi44NTk4LDQxOC40MzYzIEMxMDg0LjQ5MTQsNDAyLjQwMDEgMTA5NC4zNjgyLDQwNi4xMzI5IDExMDMuNTIyNCw0MjAuOTAyMiBDMTExMS41MTk1LDQwNy45NzU2IDExMjIuOTU3Myw0MDUuODY2MSAxMTMzLjIxNzcsNDE4LjI0NjUgQzExNDQuMDE0NSw0MDguNjAyNSAxMTUxLjY3NjUsNDA5LjM2ODIgMTE1Ny43MTgsNDIzLjIwNzcgQzExNjguNTI0Niw0MDkuOTY0MiAxMTgzLjMwMjcsNDA2Ljk2ODIgMTE5Miw0MjUuNDg0NCBDMTE5My40MTg5LDQyNS4zMTUgMTE5NC4xMjAxLDQyNi4yNTE4IDExOTMuNzgxMyw0MjcuNTc3OSBDMTIwOS4xMzQyLDQzNi42MDY4IDEyMDUuODg1Myw0NDkuMjcyNCAxMTkyLjYwNzUsNDU3LjE2NTQgQzEyMDQuNDIwMiw0NjYuMzkwMiAxMjA2LjI5NzcsNDc1LjY4NzYgMTE5My40MDIxLDQ4NS42MDI4IEMxMjEwLjA5NDIsNDkzLjE4NzkgMTIwOS44Mzg0LDUwOC40Njc3IDExOTQuMjg5OCw1MTYuOTY1NSBDMTIxMC4yMTM4LDUyMy42NDkzIDEyMDkuMDIzNiw1MzcuNzYzNCAxMTk2Ljg0MzgsNTQ2Ljg0OTIgQzEyMDguNzU2OCw1NTUuNTQxIDEyMDguNjY0NCw1NjMuOTY2NCAxMTk2LjIwNTgsNTcyLjA0MSBDMTIwOS45NjYzLDU4MS45OTA3IDEyMTEuMzc2NSw1OTUuMjQwOSAxMTk0LjA2MDQsNjAzLjA0IEMxMjA3LjQyOTUsNjEwLjg5MzkgMTIwOS41NzA2LDYyMi4wNjM2IDExOTQuODQ0NCw2MzAuNzEzNCBDMTIwOC4yOTgsNjM4LjM3NjIgMTIxMC44NDY2LDY1MC45MTA5IDExOTcuNTE2Miw2NjAuOTQxMSBDMTIwOC40ODI3LDY3MC40OTY2IDEyMDguMzcxNyw2ODUuNDk0NyAxMTkyLjk1ODcsNjkxLjA1ODMgQzEyMDYuOTE5NCw3MDYuMjM0NCAxMjA1Ljc0NzQsNzE3LjU3MjMgMTE4NSw3MjQuNDg0NCBDMTE4Ni41OTgxLDcyNS4yMzYzIDExODYuODkyMSw3MjYuNTM0NCAxMTg1LjYxMjksNzI3LjgxNTcgQzExNzcuMzkzOCw3MzguOTkzOSAxMTY5LjAxNjUsNzM5LjUyNjMgMTE1OS40MjY2LDcyOS41MDkzIEMxMTQ4LjQxODIsNzQwLjgwMTkgMTEzOC4wMzE1LDc0MC40NDI1IDExMjkuNDI0NCw3MjYuNjM4OCBDMTEyMy4yNDM5LDc0MC44NTM4IDExMTMuOTI1NSw3NDAuMDk3MSAxMTA0LjU5NzgsNzI5LjgzMDMgQzEwOTQuODUzNSw3NDIuNDAwNyAxMDgxLjYzNyw3NDMuOTM0NSAxMDc0LjI5NDksNzI3LjMzNDggQzEwNjQuNDI3NCw3NDEuMjEwMSAxMDU0LjQ2NDMsNzM4LjUzNjMgMTA0NS44ODIzLDcyNS45NTQ0IEMxMDM2Ljk4NDYsNzQyLjEzNzggMTAyNy43MTM0LDc0MC45OCAxMDE2Ljg0MTgsNzI3LjkxNDMgQzEwMDguMTcyMyw3NDAuMjQ1IDk5OC4zODM2LDc0Mi4yNzI2IDk4OC4wODY1LDcyOS44MDEyIEM5ODIuMTc3Miw3NDEuNDQ1IDk3MS4wMTg2LDc0Mi4wMTI2IDk2My45MjA2LDczMS4wNzMyIEM5NTIuMjE1NCw3NDQuMjgwNCA5NDAuNTU4Myw3NDAuODY3OSA5MzMuMTk0OSw3MjYuMjc0NiBDOTI3Ljc4NzEsNzM5LjMxOTEgOTE3LjE2MzIsNzQyLjYyNyA5MDguMDU2NSw3MjkuODc5NyBDODk3LjQwMyw3NDEuNzIyIDg4OC43NjksNzQyLjkwNzQgODc5LjgxOTIsNzI4LjA3NiBDODY4LjQ4MDUsNzQyLjA2OSA4NTkuODE2MSw3MzkuMTM3NyA4NTAuNzE2NCw3MjUuNzAwNiBDODQxLjk4NzMsNzM4Ljk3MTggODI4Ljg4OTgsNzM5LjY3NTIgODE5Ljg0Niw3MjYuMDYxOSBDODA2LjA0MjQsNzQyLjQ2MzEgNzg5LjU2MjcsNzM1LjUyMjIgNzg0LDcxNy40ODQ0IEM3ODYuMDIwNiw3MTcuNTYwMSA3ODYuOTIwOCw3MTguODAxIDc4NS44ODQsNzIwLjY3OTYgQzc3MC40MzM3LDcxMi4wMzM0IDc3Mi42MTksNjk5Ljc5NjkgNzg2LjE3MjQsNjkxLjQzNjkgQzc3MS4xMDIxLDY4Mi42NjEyIDc2OC40NjE5LDY3MS4xODk5IDc4My4wMzg3LDY1OS41MDQ4IEM3NjguODIyNyw2NTIuOTI3MSA3NjcuMDUzMiw2NDIuNTEyMiA3ODAuNDkyNCw2MzMuMjUyMSBDNzY3LjU1NjEsNjI1LjEzNjMgNzY0Ljk4MjEsNjE2LjkxNTEgNzc2LjU0MjMsNjA1LjMzMzUgQzc1OS45Nzc1LDU5OC4wMDc4IDc2MC41Nzg5LDU4NS44NzA0IDc3Mi41NzQyLDU3NC44Mjk1IEM3NTguMzQyNSw1NjMuNjMxOCA3NjIuMjY3MSw1NTAuMzA2IDc3Ny41NDczLDU0My44NDUxIEM3NjMuNzQ2Nyw1MzYuOTMgNzYzLjY0NjYsNTIzLjgzNzIgNzc3Ljg4NzUsNTE3LjI4MTMgQzc2NC4zNjU1LDUwNi44Nzk1IDc2Ni44NDkzLDQ5NS4yMTUzIDc4MS43Mzc3LDQ4OC42MzE2IEM3NjUuOTUzOSw0NzguOTMxNCA3NjYuODk0NCw0NjkuNjk5MyA3ODEuNDEyNiw0NTkuNjU5MSBDNzYyLjU3MDksNDQyLjAyNTggNzY1LjUwNDUsNDI1Ljc5MzkgNzkxLDQxOC40ODQ0IEM3OTMuNzk3MSw0MTguOTY1OSA3OTQuMTMzMiw0MjEuMDM3OSA3OTIuMzYyLDQyMi45MjE3ICIgZmlsbD0ibm9uZSIgc3R5bGU9InN0cm9rZTojMTgxODE4O3N0cm9rZS13aWR0aDoxLjA7Ii8+PHRleHQgZmlsbD0iIzAwMDAwMCIgZm9udC1mYW1pbHk9InNhbnMtc2VyaWYiIGZvbnQtc2l6ZT0iMTQiIGZvbnQtd2VpZ2h0PSJib2xkIiBsZW5ndGhBZGp1c3Q9InNwYWNpbmciIHRleHRMZW5ndGg9IjEwNiIgeD0iOTM1IiB5PSI0MzYuNzE4OCI+JiMxMDU0OyYjMTA3MzsmIzEwODM7JiMxMDcyOyYjMTA5NTsmIzEwODU7JiMxMDk5OyYjMTA4MTsgJiMxMDg5OyYjMTA3NzsmIzEwODg7JiMxMDc0OyYjMTA3NzsmIzEwODg7PC90ZXh0PjwvZz48IS0tZW50aXR5ID8/Pz8/Pz8/LS0+PGcgaWQ9ImVsZW1fJiMxMDU1OyYjMTA4ODsmIzEwODY7JiMxMDg5OyYjMTA4NDsmIzEwODY7JiMxMDkwOyYjMTA4ODsiPjxyZWN0IGZpbGw9IiNGMUYxRjEiIGhlaWdodD0iNDQuOTg0NCIgcng9IjIuNSIgcnk9IjIuNSIgc3R5bGU9InN0cm9rZTojMTgxODE4O3N0cm9rZS13aWR0aDowLjU7IiB3aWR0aD0iMTc0IiB4PSI2NCIgeT0iMjcyLjQ4NDQiLz48cmVjdCBmaWxsPSIjRjFGMUYxIiBoZWlnaHQ9IjEwIiBzdHlsZT0ic3Ryb2tlOiMxODE4MTg7c3Ryb2tlLXdpZHRoOjAuNTsiIHdpZHRoPSIxNSIgeD0iMjE4IiB5PSIyNzcuNDg0NCIvPjxyZWN0IGZpbGw9IiNGMUYxRjEiIGhlaWdodD0iMiIgc3R5bGU9InN0cm9rZTojMTgxODE4O3N0cm9rZS13aWR0aDowLjU7IiB3aWR0aD0iNCIgeD0iMjE2IiB5PSIyNzkuNDg0NCIvPjxyZWN0IGZpbGw9IiNGMUYxRjEiIGhlaWdodD0iMiIgc3R5bGU9InN0cm9rZTojMTgxODE4O3N0cm9rZS13aWR0aDowLjU7IiB3aWR0aD0iNCIgeD0iMjE2IiB5PSIyODMuNDg0NCIvPjx0ZXh0IGZpbGw9IiMwMDAwMDAiIGZvbnQtZmFtaWx5PSJzYW5zLXNlcmlmIiBmb250LXNpemU9IjE0IiBsZW5ndGhBZGp1c3Q9InNwYWNpbmciIHRleHRMZW5ndGg9IjEzNCIgeD0iNzkiIHk9IjMwNS43MTg4Ij4mIzEwNTA7JiMxMDg2OyYjMTA4NDsmIzEwODc7JiMxMDg2OyYjMTA4NTsmIzEwNzc7JiMxMDg1OyYjMTA5MDsgJiMxMDg3OyYjMTA4ODsmIzEwODY7JiMxMDg5OyYjMTA4NDsmIzEwODY7JiMxMDkwOyYjMTA4ODsmIzEwNzI7PC90ZXh0PjwvZz48IS0tZW50aXR5ID8/Pz8/Pz8/Pz8/Py0tPjxnIGlkPSJlbGVtXyYjMTA1NTsmIzEwODY7JiMxMDgzOyYjMTEwMDsmIzEwNzk7JiMxMDg2OyYjMTA3NDsmIzEwNzI7JiMxMDkwOyYjMTA3NzsmIzEwODM7JiMxMTAwOyI+PHJlY3QgZmlsbD0iI0YxRjFGMSIgaGVpZ2h0PSI0NC45ODQ0IiByeD0iMi41IiByeT0iMi41IiBzdHlsZT0ic3Ryb2tlOiMxODE4MTg7c3Ryb2tlLXdpZHRoOjAuNTsiIHdpZHRoPSIxOTciIHg9IjI3My41IiB5PSIyNzIuNDg0NCIvPjxyZWN0IGZpbGw9IiNGMUYxRjEiIGhlaWdodD0iMTAiIHN0eWxlPSJzdHJva2U6IzE4MTgxODtzdHJva2Utd2lkdGg6MC41OyIgd2lkdGg9IjE1IiB4PSI0NTAuNSIgeT0iMjc3LjQ4NDQiLz48cmVjdCBmaWxsPSIjRjFGMUYxIiBoZWlnaHQ9IjIiIHN0eWxlPSJzdHJva2U6IzE4MTgxODtzdHJva2Utd2lkdGg6MC41OyIgd2lkdGg9IjQiIHg9IjQ0OC41IiB5PSIyNzkuNDg0NCIvPjxyZWN0IGZpbGw9IiNGMUYxRjEiIGhlaWdodD0iMiIgc3R5bGU9InN0cm9rZTojMTgxODE4O3N0cm9rZS13aWR0aDowLjU7IiB3aWR0aD0iNCIgeD0iNDQ4LjUiIHk9IjI4My40ODQ0Ii8+PHRleHQgZmlsbD0iIzAwMDAwMCIgZm9udC1mYW1pbHk9InNhbnMtc2VyaWYiIGZvbnQtc2l6ZT0iMTQiIGxlbmd0aEFkanVzdD0ic3BhY2luZyIgdGV4dExlbmd0aD0iMTU3IiB4PSIyODguNSIgeT0iMzA1LjcxODgiPiYjMTA1MDsmIzEwODY7JiMxMDg0OyYjMTA4NzsmIzEwODY7JiMxMDg1OyYjMTA3NzsmIzEwODU7JiMxMDkwOyAmIzEwODc7JiMxMDg2OyYjMTA4MzsmIzExMDA7JiMxMDc5OyYjMTA4NjsmIzEwNzQ7JiMxMDcyOyYjMTA5MDsmIzEwNzc7JiMxMDgzOyYjMTEwMzs8L3RleHQ+PC9nPjwhLS1lbnRpdHkgPz8/Pz8/Pz8tLT48ZyBpZD0iZWxlbV8mIzEwNTU7JiMxMDg4OyYjMTA4NjsmIzEwNzY7JiMxMDkxOyYjMTA4MjsmIzEwOTA7JiMxMDk5OyI+PHJlY3QgZmlsbD0iI0YxRjFGMSIgaGVpZ2h0PSI0NC45ODQ0IiByeD0iMi41IiByeT0iMi41IiBzdHlsZT0ic3Ryb2tlOiMxODE4MTg7c3Ryb2tlLXdpZHRoOjAuNTsiIHdpZHRoPSIxNzQiIHg9IjUwNiIgeT0iMjcyLjQ4NDQiLz48cmVjdCBmaWxsPSIjRjFGMUYxIiBoZWlnaHQ9IjEwIiBzdHlsZT0ic3Ryb2tlOiMxODE4MTg7c3Ryb2tlLXdpZHRoOjAuNTsiIHdpZHRoPSIxNSIgeD0iNjYwIiB5PSIyNzcuNDg0NCIvPjxyZWN0IGZpbGw9IiNGMUYxRjEiIGhlaWdodD0iMiIgc3R5bGU9InN0cm9rZTojMTgxODE4O3N0cm9rZS13aWR0aDowLjU7IiB3aWR0aD0iNCIgeD0iNjU4IiB5PSIyNzkuNDg0NCIvPjxyZWN0IGZpbGw9IiNGMUYxRjEiIGhlaWdodD0iMiIgc3R5bGU9InN0cm9rZTojMTgxODE4O3N0cm9rZS13aWR0aDowLjU7IiB3aWR0aD0iNCIgeD0iNjU4IiB5PSIyODMuNDg0NCIvPjx0ZXh0IGZpbGw9IiMwMDAwMDAiIGZvbnQtZmFtaWx5PSJzYW5zLXNlcmlmIiBmb250LXNpemU9IjE0IiBsZW5ndGhBZGp1c3Q9InNwYWNpbmciIHRleHRMZW5ndGg9IjEzNCIgeD0iNTIxIiB5PSIzMDUuNzE4OCI+JiMxMDUwOyYjMTA4NjsmIzEwODQ7JiMxMDg3OyYjMTA4NjsmIzEwODU7JiMxMDc3OyYjMTA4NTsmIzEwOTA7ICYjMTA4NzsmIzEwODg7JiMxMDg2OyYjMTA3NjsmIzEwOTE7JiMxMDgyOyYjMTA5MDsmIzEwODY7JiMxMDc0OzwvdGV4dD48L2c+PCEtLWVudGl0eSA/Pz8/Pz8/LS0+PGcgaWQ9ImVsZW1fJiMxMDUwOyYjMTA4NjsmIzEwODg7JiMxMDc5OyYjMTA4MDsmIzEwODU7JiMxMDcyOyI+PHJlY3QgZmlsbD0iI0YxRjFGMSIgaGVpZ2h0PSI0NC45ODQ0IiByeD0iMi41IiByeT0iMi41IiBzdHlsZT0ic3Ryb2tlOiMxODE4MTg7c3Ryb2tlLXdpZHRoOjAuNTsiIHdpZHRoPSIxNjAiIHg9IjcxIiB5PSI0NTEuNDg0NCIvPjxyZWN0IGZpbGw9IiNGMUYxRjEiIGhlaWdodD0iMTAiIHN0eWxlPSJzdHJva2U6IzE4MTgxODtzdHJva2Utd2lkdGg6MC41OyIgd2lkdGg9IjE1IiB4PSIyMTEiIHk9IjQ1Ni40ODQ0Ii8+PHJlY3QgZmlsbD0iI0YxRjFGMSIgaGVpZ2h0PSIyIiBzdHlsZT0ic3Ryb2tlOiMxODE4MTg7c3Ryb2tlLXdpZHRoOjAuNTsiIHdpZHRoPSI0IiB4PSIyMDkiIHk9IjQ1OC40ODQ0Ii8+PHJlY3QgZmlsbD0iI0YxRjFGMSIgaGVpZ2h0PSIyIiBzdHlsZT0ic3Ryb2tlOiMxODE4MTg7c3Ryb2tlLXdpZHRoOjAuNTsiIHdpZHRoPSI0IiB4PSIyMDkiIHk9IjQ2Mi40ODQ0Ii8+PHRleHQgZmlsbD0iIzAwMDAwMCIgZm9udC1mYW1pbHk9InNhbnMtc2VyaWYiIGZvbnQtc2l6ZT0iMTQiIGxlbmd0aEFkanVzdD0ic3BhY2luZyIgdGV4dExlbmd0aD0iMTIwIiB4PSI4NiIgeT0iNDg0LjcxODgiPiYjMTA1MDsmIzEwODY7JiMxMDg0OyYjMTA4NzsmIzEwODY7JiMxMDg1OyYjMTA3NzsmIzEwODU7JiMxMDkwOyAmIzEwODI7JiMxMDg2OyYjMTA4ODsmIzEwNzk7JiMxMDgwOyYjMTA4NTsmIzEwOTk7PC90ZXh0PjwvZz48IS0tZW50aXR5ID8/Pz8/Py0tPjxnIGlkPSJlbGVtXyYjMTA0NzsmIzEwNzI7JiMxMDgyOyYjMTA3MjsmIzEwNzk7JiMxMDk5OyI+PHJlY3QgZmlsbD0iI0YxRjFGMSIgaGVpZ2h0PSI0NC45ODQ0IiByeD0iMi41IiByeT0iMi41IiBzdHlsZT0ic3Ryb2tlOiMxODE4MTg7c3Ryb2tlLXdpZHRoOjAuNTsiIHdpZHRoPSIxNjAiIHg9IjI2NiIgeT0iNDUxLjQ4NDQiLz48cmVjdCBmaWxsPSIjRjFGMUYxIiBoZWlnaHQ9IjEwIiBzdHlsZT0ic3Ryb2tlOiMxODE4MTg7c3Ryb2tlLXdpZHRoOjAuNTsiIHdpZHRoPSIxNSIgeD0iNDA2IiB5PSI0NTYuNDg0NCIvPjxyZWN0IGZpbGw9IiNGMUYxRjEiIGhlaWdodD0iMiIgc3R5bGU9InN0cm9rZTojMTgxODE4O3N0cm9rZS13aWR0aDowLjU7IiB3aWR0aD0iNCIgeD0iNDA0IiB5PSI0NTguNDg0NCIvPjxyZWN0IGZpbGw9IiNGMUYxRjEiIGhlaWdodD0iMiIgc3R5bGU9InN0cm9rZTojMTgxODE4O3N0cm9rZS13aWR0aDowLjU7IiB3aWR0aD0iNCIgeD0iNDA0IiB5PSI0NjIuNDg0NCIvPjx0ZXh0IGZpbGw9IiMwMDAwMDAiIGZvbnQtZmFtaWx5PSJzYW5zLXNlcmlmIiBmb250LXNpemU9IjE0IiBsZW5ndGhBZGp1c3Q9InNwYWNpbmciIHRleHRMZW5ndGg9IjEyMCIgeD0iMjgxIiB5PSI0ODQuNzE4OCI+JiMxMDUwOyYjMTA4NjsmIzEwODQ7JiMxMDg3OyYjMTA4NjsmIzEwODU7JiMxMDc3OyYjMTA4NTsmIzEwOTA7ICYjMTA3OTsmIzEwNzI7JiMxMDgyOyYjMTA3MjsmIzEwNzk7JiMxMDg2OyYjMTA3NDs8L3RleHQ+PC9nPjwhLS1lbnRpdHkgPz8/Pz8/Pz8/ID8/Pz8/Py0tPjxnIGlkPSJlbGVtXyYjMTA2MTsmIzEwODg7JiMxMDcyOyYjMTA4NTsmIzEwODA7JiMxMDgzOyYjMTA4MDsmIzEwOTc7JiMxMDc3OyAmIzEwNzY7JiMxMDcyOyYjMTA4NTsmIzEwODU7JiMxMDk5OyYjMTA5MzsiPjxyZWN0IGZpbGw9IiNGMUYxRjEiIGhlaWdodD0iNDQuOTg0NCIgcng9IjIuNSIgcnk9IjIuNSIgc3R5bGU9InN0cm9rZTojMTgxODE4O3N0cm9rZS13aWR0aDowLjU7IiB3aWR0aD0iMTUzIiB4PSIxMzM5LjUiIHk9IjY2My40ODQ0Ii8+PHJlY3QgZmlsbD0iI0YxRjFGMSIgaGVpZ2h0PSIxMCIgc3R5bGU9InN0cm9rZTojMTgxODE4O3N0cm9rZS13aWR0aDowLjU7IiB3aWR0aD0iMTUiIHg9IjE0NzIuNSIgeT0iNjY4LjQ4NDQiLz48cmVjdCBmaWxsPSIjRjFGMUYxIiBoZWlnaHQ9IjIiIHN0eWxlPSJzdHJva2U6IzE4MTgxODtzdHJva2Utd2lkdGg6MC41OyIgd2lkdGg9IjQiIHg9IjE0NzAuNSIgeT0iNjcwLjQ4NDQiLz48cmVjdCBmaWxsPSIjRjFGMUYxIiBoZWlnaHQ9IjIiIHN0eWxlPSJzdHJva2U6IzE4MTgxODtzdHJva2Utd2lkdGg6MC41OyIgd2lkdGg9IjQiIHg9IjE0NzAuNSIgeT0iNjc0LjQ4NDQiLz48dGV4dCBmaWxsPSIjMDAwMDAwIiBmb250LWZhbWlseT0ic2Fucy1zZXJpZiIgZm9udC1zaXplPSIxNCIgbGVuZ3RoQWRqdXN0PSJzcGFjaW5nIiB0ZXh0TGVuZ3RoPSIxMTMiIHg9IjEzNTQuNSIgeT0iNjk2LjcxODgiPiYjMTA2MTsmIzEwODg7JiMxMDcyOyYjMTA4NTsmIzEwODA7JiMxMDgzOyYjMTA4MDsmIzEwOTc7JiMxMDc3OyAmIzEwNzY7JiMxMDcyOyYjMTA4NTsmIzEwODU7JiMxMDk5OyYjMTA5Mzs8L3RleHQ+PC9nPjwhLS1lbnRpdHkgQVBJLT8/Pz8/Pz8/Py0tPjxnIGlkPSJlbGVtX0FQSS0mIzEwODA7JiMxMDg1OyYjMTA5MDsmIzEwNzc7JiMxMDg4OyYjMTA5MjsmIzEwNzc7JiMxMDgxOyYjMTA4OTsiPjxyZWN0IGZpbGw9IiNGMUYxRjEiIGhlaWdodD0iNDQuOTg0NCIgcng9IjIuNSIgcnk9IjIuNSIgc3R5bGU9InN0cm9rZTojMTgxODE4O3N0cm9rZS13aWR0aDowLjU7IiB3aWR0aD0iMTMyIiB4PSI4MDAiIHk9IjQ1MS40ODQ0Ii8+PHJlY3QgZmlsbD0iI0YxRjFGMSIgaGVpZ2h0PSIxMCIgc3R5bGU9InN0cm9rZTojMTgxODE4O3N0cm9rZS13aWR0aDowLjU7IiB3aWR0aD0iMTUiIHg9IjkxMiIgeT0iNDU2LjQ4NDQiLz48cmVjdCBmaWxsPSIjRjFGMUYxIiBoZWlnaHQ9IjIiIHN0eWxlPSJzdHJva2U6IzE4MTgxODtzdHJva2Utd2lkdGg6MC41OyIgd2lkdGg9IjQiIHg9IjkxMCIgeT0iNDU4LjQ4NDQiLz48cmVjdCBmaWxsPSIjRjFGMUYxIiBoZWlnaHQ9IjIiIHN0eWxlPSJzdHJva2U6IzE4MTgxODtzdHJva2Utd2lkdGg6MC41OyIgd2lkdGg9IjQiIHg9IjkxMCIgeT0iNDYyLjQ4NDQiLz48dGV4dCBmaWxsPSIjMDAwMDAwIiBmb250LWZhbWlseT0ic2Fucy1zZXJpZiIgZm9udC1zaXplPSIxNCIgbGVuZ3RoQWRqdXN0PSJzcGFjaW5nIiB0ZXh0TGVuZ3RoPSI5MiIgeD0iODE1IiB5PSI0ODQuNzE4OCI+QVBJLSYjMTA4MDsmIzEwODU7JiMxMDkwOyYjMTA3NzsmIzEwODg7JiMxMDkyOyYjMTA3NzsmIzEwODE7JiMxMDg5OzwvdGV4dD48L2c+PCEtLWVudGl0eSA/Pz8/Pz8gPz8/Pz8/Pz8/Pz8/Pz8tLT48ZyBpZD0iZWxlbV8mIzEwNTc7JiMxMDgzOyYjMTA5MTsmIzEwNzg7JiMxMDczOyYjMTA3MjsgJiMxMDcyOyYjMTA5MTsmIzEwOTA7JiMxMDc3OyYjMTA4NTsmIzEwOTA7JiMxMDgwOyYjMTA5MjsmIzEwODA7JiMxMDgyOyYjMTA3MjsmIzEwOTQ7JiMxMDgwOyYjMTA4MDsiPjxyZWN0IGZpbGw9IiNGMUYxRjEiIGhlaWdodD0iNDQuOTg0NCIgcng9IjIuNSIgcnk9IjIuNSIgc3R5bGU9InN0cm9rZTojMTgxODE4O3N0cm9rZS13aWR0aDowLjU7IiB3aWR0aD0iMTg5IiB4PSI5NjcuNSIgeT0iNDUxLjQ4NDQiLz48cmVjdCBmaWxsPSIjRjFGMUYxIiBoZWlnaHQ9IjEwIiBzdHlsZT0ic3Ryb2tlOiMxODE4MTg7c3Ryb2tlLXdpZHRoOjAuNTsiIHdpZHRoPSIxNSIgeD0iMTEzNi41IiB5PSI0NTYuNDg0NCIvPjxyZWN0IGZpbGw9IiNGMUYxRjEiIGhlaWdodD0iMiIgc3R5bGU9InN0cm9rZTojMTgxODE4O3N0cm9rZS13aWR0aDowLjU7IiB3aWR0aD0iNCIgeD0iMTEzNC41IiB5PSI0NTguNDg0NCIvPjxyZWN0IGZpbGw9IiNGMUYxRjEiIGhlaWdodD0iMiIgc3R5bGU9InN0cm9rZTojMTgxODE4O3N0cm9rZS13aWR0aDowLjU7IiB3aWR0aD0iNCIgeD0iMTEzNC41IiB5PSI0NjIuNDg0NCIvPjx0ZXh0IGZpbGw9IiMwMDAwMDAiIGZvbnQtZmFtaWx5PSJzYW5zLXNlcmlmIiBmb250LXNpemU9IjE0IiBsZW5ndGhBZGp1c3Q9InNwYWNpbmciIHRleHRMZW5ndGg9IjE0OSIgeD0iOTgyLjUiIHk9IjQ4NC43MTg4Ij4mIzEwNTc7JiMxMDgzOyYjMTA5MTsmIzEwNzg7JiMxMDczOyYjMTA3MjsgJiMxMDcyOyYjMTA5MTsmIzEwOTA7JiMxMDc3OyYjMTA4NTsmIzEwOTA7JiMxMDgwOyYjMTA5MjsmIzEwODA7JiMxMDgyOyYjMTA3MjsmIzEwOTQ7JiMxMDgwOyYjMTA4MDs8L3RleHQ+PC9nPjwhLS1lbnRpdHkgPz8/Pz8/ID8/Pz8/Pz8/PyA/Pz8/Pz8/LS0+PGcgaWQ9ImVsZW1fJiMxMDU3OyYjMTA4MzsmIzEwOTE7JiMxMDc4OyYjMTA3MzsmIzEwNzI7ICYjMTA4NjsmIzEwNzM7JiMxMDg4OyYjMTA3MjsmIzEwNzM7JiMxMDg2OyYjMTA5MDsmIzEwODI7JiMxMDgwOyAmIzEwNzk7JiMxMDcyOyYjMTA4MjsmIzEwNzI7JiMxMDc5OyYjMTA4NjsmIzEwNzQ7Ij48cmVjdCBmaWxsPSIjRjFGMUYxIiBoZWlnaHQ9IjQ0Ljk4NDQiIHJ4PSIyLjUiIHJ5PSIyLjUiIHN0eWxlPSJzdHJva2U6IzE4MTgxODtzdHJva2Utd2lkdGg6MC41OyIgd2lkdGg9IjIwOSIgeD0iODAwLjUiIHk9IjY2My40ODQ0Ii8+PHJlY3QgZmlsbD0iI0YxRjFGMSIgaGVpZ2h0PSIxMCIgc3R5bGU9InN0cm9rZTojMTgxODE4O3N0cm9rZS13aWR0aDowLjU7IiB3aWR0aD0iMTUiIHg9Ijk4OS41IiB5PSI2NjguNDg0NCIvPjxyZWN0IGZpbGw9IiNGMUYxRjEiIGhlaWdodD0iMiIgc3R5bGU9InN0cm9rZTojMTgxODE4O3N0cm9rZS13aWR0aDowLjU7IiB3aWR0aD0iNCIgeD0iOTg3LjUiIHk9IjY3MC40ODQ0Ii8+PHJlY3QgZmlsbD0iI0YxRjFGMSIgaGVpZ2h0PSIyIiBzdHlsZT0ic3Ryb2tlOiMxODE4MTg7c3Ryb2tlLXdpZHRoOjAuNTsiIHdpZHRoPSI0IiB4PSI5ODcuNSIgeT0iNjc0LjQ4NDQiLz48dGV4dCBmaWxsPSIjMDAwMDAwIiBmb250LWZhbWlseT0ic2Fucy1zZXJpZiIgZm9udC1zaXplPSIxNCIgbGVuZ3RoQWRqdXN0PSJzcGFjaW5nIiB0ZXh0TGVuZ3RoPSIxNjkiIHg9IjgxNS41IiB5PSI2OTYuNzE4OCI+JiMxMDU3OyYjMTA4MzsmIzEwOTE7JiMxMDc4OyYjMTA3MzsmIzEwNzI7ICYjMTA4NjsmIzEwNzM7JiMxMDg4OyYjMTA3MjsmIzEwNzM7JiMxMDg2OyYjMTA5MDsmIzEwODI7JiMxMDgwOyAmIzEwNzk7JiMxMDcyOyYjMTA4MjsmIzEwNzI7JiMxMDc5OyYjMTA4NjsmIzEwNzQ7PC90ZXh0PjwvZz48IS0tZW50aXR5ID8/Pz8/Pz8/Pz8tLT48ZyBpZD0iZWxlbV8mIzEwNTU7JiMxMDg2OyYjMTA4MjsmIzEwOTE7JiMxMDg3OyYjMTA3MjsmIzEwOTA7JiMxMDc3OyYjMTA4MzsmIzExMDA7Ij48ZWxsaXBzZSBjeD0iNzI4IiBjeT0iNDkuOTg0NCIgZmlsbD0iI0YxRjFGMSIgcng9IjgiIHJ5PSI4IiBzdHlsZT0ic3Ryb2tlOiMxODE4MTg7c3Ryb2tlLXdpZHRoOjAuNTsiLz48cGF0aCBkPSJNNzI4LDU3Ljk4NDQgTDcyOCw4NC45ODQ0IE03MTUsNjUuOTg0NCBMNzQxLDY1Ljk4NDQgTTcyOCw4NC45ODQ0IEw3MTUsOTkuOTg0NCBNNzI4LDg0Ljk4NDQgTDc0MSw5OS45ODQ0ICIgZmlsbD0ibm9uZSIgc3R5bGU9InN0cm9rZTojMTgxODE4O3N0cm9rZS13aWR0aDowLjU7Ii8+PHRleHQgZmlsbD0iIzAwMDAwMCIgZm9udC1mYW1pbHk9InNhbnMtc2VyaWYiIGZvbnQtc2l6ZT0iMTQiIGxlbmd0aEFkanVzdD0ic3BhY2luZyIgdGV4dExlbmd0aD0iNzEiIHg9IjY5Mi41IiB5PSIxMTQuNzE4OCI+JiMxMDU1OyYjMTA4NjsmIzEwODI7JiMxMDkxOyYjMTA4NzsmIzEwNzI7JiMxMDkwOyYjMTA3NzsmIzEwODM7JiMxMTAwOzwvdGV4dD48L2c+PGcgaWQ9ImVsZW1fR01OMjAiPjxwYXRoIGQ9Ik03NjMsMjQ4LjQ4NDQgTDc2MywzNDEuOTY4OCBMMTAyNywzNDEuOTY4OCBMMTAyNywyNTguNDg0NCBMMTAxNywyNDguNDg0NCBMNzYzLDI0OC40ODQ0ICIgZmlsbD0iI0ZFRkZERCIgc3R5bGU9InN0cm9rZTojMTgxODE4O3N0cm9rZS13aWR0aDowLjU7Ii8+PHBhdGggZD0iTTEwMTcsMjQ4LjQ4NDQgTDEwMTcsMjU4LjQ4NDQgTDEwMjcsMjU4LjQ4NDQgTDEwMTcsMjQ4LjQ4NDQgIiBmaWxsPSIjRkVGRkREIiBzdHlsZT0ic3Ryb2tlOiMxODE4MTg7c3Ryb2tlLXdpZHRoOjEuMDsiLz48dGV4dCBmaWxsPSIjMDAwMDAwIiBmb250LWZhbWlseT0ic2Fucy1zZXJpZiIgZm9udC1zaXplPSIxMyIgbGVuZ3RoQWRqdXN0PSJzcGFjaW5nIiB0ZXh0TGVuZ3RoPSIxOTMiIHg9Ijc2OSIgeT0iMjY1Ljc3MzQiPiYjMTA1MDsmIzEwODM7JiMxMTAyOyYjMTA5NTsmIzEwNzc7JiMxMDc0OyYjMTA5OTsmIzEwNzc7ICYjMTA5MjsmIzEwOTE7JiMxMDg1OyYjMTA4MjsmIzEwOTQ7JiMxMDgwOyYjMTA4MDsgJiMxMDg3OyYjMTA4ODsmIzEwODA7JiMxMDgzOyYjMTA4NjsmIzEwNzg7JiMxMDc3OyYjMTA4NTsmIzEwODA7JiMxMTAzOzo8L3RleHQ+PHRleHQgZmlsbD0iIzAwMDAwMCIgZm9udC1mYW1pbHk9InNhbnMtc2VyaWYiIGZvbnQtc2l6ZT0iMTMiIGxlbmd0aEFkanVzdD0ic3BhY2luZyIgdGV4dExlbmd0aD0iMjM2IiB4PSI3NjkiIHk9IjI3OS42ODc1Ij4mIzgyMjY7ICYjMTA1NjsmIzEwNzc7JiMxMDc1OyYjMTA4MDsmIzEwODk7JiMxMDkwOyYjMTA4ODsmIzEwNzI7JiMxMDk0OyYjMTA4MDsmIzExMDM7ICYjMTA4MDsgJiMxMDc0OyYjMTA5MzsmIzEwODY7JiMxMDc2OyAmIzEwODc7JiMxMDg2OyYjMTA4MzsmIzExMDA7JiMxMDc5OyYjMTA4NjsmIzEwNzQ7JiMxMDcyOyYjMTA5MDsmIzEwNzc7JiMxMDgzOyYjMTA3NzsmIzEwODE7PC90ZXh0Pjx0ZXh0IGZpbGw9IiMwMDAwMDAiIGZvbnQtZmFtaWx5PSJzYW5zLXNlcmlmIiBmb250LXNpemU9IjEzIiBsZW5ndGhBZGp1c3Q9InNwYWNpbmciIHRleHRMZW5ndGg9IjE4NiIgeD0iNzY5IiB5PSIyOTMuNjAxNiI+JiM4MjI2OyAmIzEwNTU7JiMxMDg4OyYjMTA4NjsmIzEwODk7JiMxMDg0OyYjMTA4NjsmIzEwOTA7JiMxMDg4OyAmIzEwODI7JiMxMDcyOyYjMTA5MDsmIzEwNzI7JiMxMDgzOyYjMTA4NjsmIzEwNzU7JiMxMDcyOyAmIzEwOTA7JiMxMDg2OyYjMTA3NDsmIzEwNzI7JiMxMDg4OyYjMTA4NjsmIzEwNzQ7PC90ZXh0Pjx0ZXh0IGZpbGw9IiMwMDAwMDAiIGZvbnQtZmFtaWx5PSJzYW5zLXNlcmlmIiBmb250LXNpemU9IjEzIiBsZW5ndGhBZGp1c3Q9InNwYWNpbmciIHRleHRMZW5ndGg9IjIwOSIgeD0iNzY5IiB5PSIzMDcuNTE1NiI+JiM4MjI2OyAmIzEwNDQ7JiMxMDg2OyYjMTA3MzsmIzEwNzI7JiMxMDc0OyYjMTA4MzsmIzEwNzc7JiMxMDg1OyYjMTA4MDsmIzEwNzc7ICYjMTA5MDsmIzEwODY7JiMxMDc0OyYjMTA3MjsmIzEwODg7JiMxMDg2OyYjMTA3NDsgJiMxMDc0OyAmIzEwODI7JiMxMDg2OyYjMTA4ODsmIzEwNzk7JiMxMDgwOyYjMTA4NTsmIzEwOTE7PC90ZXh0Pjx0ZXh0IGZpbGw9IiMwMDAwMDAiIGZvbnQtZmFtaWx5PSJzYW5zLXNlcmlmIiBmb250LXNpemU9IjEzIiBsZW5ndGhBZGp1c3Q9InNwYWNpbmciIHRleHRMZW5ndGg9IjI0MyIgeD0iNzY5IiB5PSIzMjEuNDI5NyI+JiM4MjI2OyAmIzEwNTQ7JiMxMDkyOyYjMTA4NjsmIzEwODg7JiMxMDg0OyYjMTA4MzsmIzEwNzc7JiMxMDg1OyYjMTA4MDsmIzEwNzc7ICYjMTA4MDsgJiMxMDg2OyYjMTA5MDsmIzEwODk7JiMxMDgzOyYjMTA3NzsmIzEwNzg7JiMxMDgwOyYjMTA3NDsmIzEwNzI7JiMxMDg1OyYjMTA4MDsmIzEwNzc7ICYjMTA3OTsmIzEwNzI7JiMxMDgyOyYjMTA3MjsmIzEwNzk7JiMxMDg2OyYjMTA3NDs8L3RleHQ+PHRleHQgZmlsbD0iIzAwMDAwMCIgZm9udC1mYW1pbHk9InNhbnMtc2VyaWYiIGZvbnQtc2l6ZT0iMTMiIGxlbmd0aEFkanVzdD0ic3BhY2luZyIgdGV4dExlbmd0aD0iMjA5IiB4PSI3NjkiIHk9IjMzNS4zNDM4Ij4mIzgyMjY7ICYjMTA1MTsmIzEwODY7JiMxMDgyOyYjMTA3MjsmIzEwODM7JiMxMTAwOyYjMTA4NTsmIzEwODY7JiMxMDc3OyAmIzEwODI7JiMxMTAxOyYjMTA5NjsmIzEwODA7JiMxMDg4OyYjMTA4NjsmIzEwNzQ7JiMxMDcyOyYjMTA4NTsmIzEwODA7JiMxMDc3OyAmIzEwNzY7JiMxMDcyOyYjMTA4NTsmIzEwODU7JiMxMDk5OyYjMTA5Mzs8L3RleHQ+PC9nPjwhLS1saW5rID8/Pz8/Pz8/Pz8gdG8gPz8/Pz8/Pz8/Pz8/Pz8/Pz8/Py0tPjxnIGlkPSJsaW5rXyYjMTA1NTsmIzEwODY7JiMxMDgyOyYjMTA5MTsmIzEwODc7JiMxMDcyOyYjMTA5MDsmIzEwNzc7JiMxMDgzOyYjMTEwMDtfJiMxMDUyOyYjMTA4NjsmIzEwNzM7JiMxMDgwOyYjMTA4MzsmIzExMDA7JiMxMDg1OyYjMTA4NjsmIzEwNzc7JiMxMDU5OyYjMTA4OTsmIzEwOTA7JiMxMDg4OyYjMTA4NjsmIzEwODE7JiMxMDg5OyYjMTA5MDsmIzEwNzQ7JiMxMDg2OyI+PHBhdGggZD0iTTcyOCwxMTYuNzc0NCBDNzI4LDEzMS44MzE5IDcyOCwxNTAuMjEwNiA3MjgsMTY5LjM2NDEgQzcyOCwxNzQuMTUyNCA3MjgsMTc4Ljk4OTIgNzI4LDE4My44MzQ2IEM3MjgsMTg0LjEzNzQgNzI4LDE3OC40NDAzIDcyOCwxNzguNzQzMiAiIGZpbGw9Im5vbmUiIGlkPSImIzEwNTU7JiMxMDg2OyYjMTA4MjsmIzEwOTE7JiMxMDg3OyYjMTA3MjsmIzEwOTA7JiMxMDc3OyYjMTA4MzsmIzExMDA7LXRvLSYjMTA1MjsmIzEwODY7JiMxMDczOyYjMTA4MDsmIzEwODM7JiMxMTAwOyYjMTA4NTsmIzEwODY7JiMxMDc3OyYjMTA1OTsmIzEwODk7JiMxMDkwOyYjMTA4ODsmIzEwODY7JiMxMDgxOyYjMTA4OTsmIzEwOTA7JiMxMDc0OyYjMTA4NjsiIHN0eWxlPSJzdHJva2U6IzE4MTgxODtzdHJva2Utd2lkdGg6MS4wOyIvPjxwb2x5Z29uIGZpbGw9IiMxODE4MTgiIHBvaW50cz0iNzI4LDE4NC43NDMyLDczMiwxNzUuNzQzMiw3MjgsMTc5Ljc0MzIsNzI0LDE3NS43NDMyLDcyOCwxODQuNzQzMiIgc3R5bGU9InN0cm9rZTojMTgxODE4O3N0cm9rZS13aWR0aDoxLjA7Ii8+PHRleHQgZmlsbD0iIzAwMDAwMCIgZm9udC1mYW1pbHk9InNhbnMtc2VyaWYiIGZvbnQtc2l6ZT0iMTMiIGxlbmd0aEFkanVzdD0ic3BhY2luZyIgdGV4dExlbmd0aD0iMTAzIiB4PSI3MjkiIHk9IjE1OS43NzM0Ij4mIzEwNzQ7JiMxMDc5OyYjMTA3MjsmIzEwODA7JiMxMDg0OyYjMTA4NjsmIzEwNzY7JiMxMDc3OyYjMTA4MTsmIzEwODk7JiMxMDkwOyYjMTA3NDsmIzEwOTE7JiMxMDc3OyYjMTA5MDs8L3RleHQ+PC9nPjwhLS1saW5rID8/Pz8/Pz8/Pz8/Pz8/Pz8/Pz8gdG8gPz8/Pz8/Pz8/Pz8/Pz8tLT48ZyBpZD0ibGlua18mIzEwNTI7JiMxMDg2OyYjMTA3MzsmIzEwODA7JiMxMDgzOyYjMTEwMDsmIzEwODU7JiMxMDg2OyYjMTA3NzsmIzEwNTk7JiMxMDg5OyYjMTA5MDsmIzEwODg7JiMxMDg2OyYjMTA4MTsmIzEwODk7JiMxMDkwOyYjMTA3NDsmIzEwODY7XyYjMTA1NDsmIzEwNzM7JiMxMDgzOyYjMTA3MjsmIzEwOTU7JiMxMDg1OyYjMTA5OTsmIzEwODE7JiMxMDU3OyYjMTA3NzsmIzEwODg7JiMxMDc0OyYjMTA3NzsmIzEwODg7Ij48cGF0aCBkPSJNNzM4Ljk1NDQsMzM1Ljc4NDIgQzczOS4yNzM2LDMzNi4zNjA1IDczNi45OTE0LDMzMi4wODM3IDczNy4zMzU1LDMzMi42NDQgQzczOC4wMjM3LDMzMy43NjQ2IDczOC43NjI2LDMzNC44NTA1IDczOS41NTYsMzM1Ljg5MDIgQzc0MS4xNDI4LDMzNy45Njk1IDc0Mi45NDc1LDMzOS44NjQ0IDc0NSwzNDEuNDg0NCBDODk1LjQ1LDQ2MC4yNDQ0IDEwMjkuOTUsMjY2LjkxNDQgMTE3MywzOTQuNDg0NCBDMTE3Ni4yNDM4LDM5Ny4zNzgxIDExNzguOTgwNSw0MDAuNzIyMiAxMTgxLjI4NTQsNDA0LjM2NTEgQzExODIuNDM3OSw0MDYuMTg2NSAxMTgzLjQ4MjQsNDA4LjA4MjYgMTE4NC40MjgzLDQxMC4wMzQ1IEMxMTg0LjQ4NzUsNDEwLjE1NjUgMTE4MS45NjQ1LDQwNC44NjI2IDExODIuMDIyOSw0MDQuOTg1ICIgZmlsbD0ibm9uZSIgaWQ9IiYjMTA1MjsmIzEwODY7JiMxMDczOyYjMTA4MDsmIzEwODM7JiMxMTAwOyYjMTA4NTsmIzEwODY7JiMxMDc3OyYjMTA1OTsmIzEwODk7JiMxMDkwOyYjMTA4ODsmIzEwODY7JiMxMDgxOyYjMTA4OTsmIzEwOTA7JiMxMDc0OyYjMTA4NjstJiMxMDU0OyYjMTA3MzsmIzEwODM7JiMxMDcyOyYjMTA5NTsmIzEwODU7JiMxMDk5OyYjMTA4MTsmIzEwNTc7JiMxMDc3OyYjMTA4ODsmIzEwNzQ7JiMxMDc3OyYjMTA4ODsiIHN0eWxlPSJzdHJva2U6IzE4MTgxODtzdHJva2Utd2lkdGg6MS4wOyIvPjxwb2x5Z29uIGZpbGw9IiMxODE4MTgiIHBvaW50cz0iNzM2LjEwMzcsMzMwLjUwNDcsNzM2Ljg2LDM0MC4zMjQ0LDczOC40NzkyLDMzNC45MDQzLDc0My44OTk0LDMzNi41MjM1LDczNi4xMDM3LDMzMC41MDQ3IiBzdHlsZT0ic3Ryb2tlOiMxODE4MTg7c3Ryb2tlLXdpZHRoOjEuMDsiLz48cG9seWdvbiBmaWxsPSIjMTgxODE4IiBwb2ludHM9IjExODQuNjA0NSw0MTAuNDAxMiwxMTg0LjM0MjgsNDAwLjU1NTgsMTE4Mi40NTMxLDQwNS44ODc3LDExNzcuMTIxMiw0MDMuOTk4LDExODQuNjA0NSw0MTAuNDAxMiIgc3R5bGU9InN0cm9rZTojMTgxODE4O3N0cm9rZS13aWR0aDoxLjA7Ii8+PHRleHQgZmlsbD0iIzAwMDAwMCIgZm9udC1mYW1pbHk9InNhbnMtc2VyaWYiIGZvbnQtc2l6ZT0iMTMiIGxlbmd0aEFkanVzdD0ic3BhY2luZyIgdGV4dExlbmd0aD0iMTQwIiB4PSIxMTU2IiB5PSIzODQuNzczNCI+JiMxMDg5OyYjMTA4MDsmIzEwODU7JiMxMDkzOyYjMTA4ODsmIzEwODY7JiMxMDg1OyYjMTA4MDsmIzEwNzk7JiMxMDcyOyYjMTA5NDsmIzEwODA7JiMxMTAzOyAmIzEwNzY7JiMxMDcyOyYjMTA4NTsmIzEwODU7JiMxMDk5OyYjMTA5Mzs8L3RleHQ+PC9nPjwhLS1saW5rID8/Pz8/Pz8/Pz8/Pz8/Pz8/Pz8gdG8gPz8/Pz8/Pz8/Pz8tLT48ZyBpZD0ibGlua18mIzEwNTI7JiMxMDg2OyYjMTA3MzsmIzEwODA7JiMxMDgzOyYjMTEwMDsmIzEwODU7JiMxMDg2OyYjMTA3NzsmIzEwNTk7JiMxMDg5OyYjMTA5MDsmIzEwODg7JiMxMDg2OyYjMTA4MTsmIzEwODk7JiMxMDkwOyYjMTA3NDsmIzEwODY7XyYjMTA1MTsmIzEwODY7JiMxMDgyOyYjMTA3MjsmIzEwODM7JiMxMTAwOyYjMTA4NTsmIzEwNzI7JiMxMTAzOyYjMTA0MTsmIzEwNDQ7Ij48cGF0aCBkPSJNNzM2LjA0MDYsMzMwLjk2MDUgQzczNi4wODA2LDMzMS4wMzIyIDczNi4xMjA4LDMzMS4xMDM3IDczNi4xNjEyLDMzMS4xNzUxIEM3MzYuNDg0NCwzMzEuNzQ2MiA3MzYuODIwMywzMzIuMzA5MiA3MzcuMTY5NSwzMzIuODYyOCBDNzM3Ljg2OCwzMzMuOTY5OSA3MzguNjE5NiwzMzUuMDM5IDczOS40Mjg1LDMzNi4wNTgzIEM3NDEuMDQ2MSwzMzguMDk3IDc0Mi44OTI1LDMzOS45MzY5IDc0NSwzNDEuNDg0NCBDODQ1LjQ1LDQxNS4yNDQ0IDEyMTIuMDcsMjg4LjQ1NDQgMTMwNSwzNzEuNDg0NCBDMTM3Ni4xMSw0MzUuMDE0NCAxMzg3LjA2LDUwMS43MTQ0IDEzMzgsNTgzLjQ4NDQgQzEzMzQuMTEsNTg5Ljk2NDQgMTMyNy41Miw1ODUuNDI0NCAxMzIzLDU5MS40ODQ0IEMxMzE5Ljg4MTMsNTk1LjY2NjkgMTMxNy4yNDIzLDYwMC4yMzU4IDEzMTUuMDEyNCw2MDUuMDMyNyBDMTMxNC43MzM3LDYwNS42MzIzIDEzMTQuNDYxMyw2MDYuMjM1NSAxMzE0LjE5NTIsNjA2Ljg0MTkgQzEzMTQuMTI4Nyw2MDYuOTkzNSAxMzE2LjQ0NDQsNjAxLjYzODMgMTMxNi4zNzg3LDYwMS43OTAzICIgZmlsbD0ibm9uZSIgaWQ9IiYjMTA1MjsmIzEwODY7JiMxMDczOyYjMTA4MDsmIzEwODM7JiMxMTAwOyYjMTA4NTsmIzEwODY7JiMxMDc3OyYjMTA1OTsmIzEwODk7JiMxMDkwOyYjMTA4ODsmIzEwODY7JiMxMDgxOyYjMTA4OTsmIzEwOTA7JiMxMDc0OyYjMTA4NjstdG8tJiMxMDUxOyYjMTA4NjsmIzEwODI7JiMxMDcyOyYjMTA4MzsmIzExMDA7JiMxMDg1OyYjMTA3MjsmIzExMDM7JiMxMDQxOyYjMTA0NDsiIHN0eWxlPSJzdHJva2U6IzE4MTgxODtzdHJva2Utd2lkdGg6MS4wOyIvPjxwb2x5Z29uIGZpbGw9IiMxODE4MTgiIHBvaW50cz0iMTMxMy45OTY4LDYwNy4yOTczLDEzMjEuMjQwOSw2MDAuNjI0NywxMzE1Ljk4MTcsNjAyLjcwODIsMTMxMy44OTgyLDU5Ny40NDg5LDEzMTMuOTk2OCw2MDcuMjk3MyIgc3R5bGU9InN0cm9rZTojMTgxODE4O3N0cm9rZS13aWR0aDoxLjA7Ii8+PHRleHQgZmlsbD0iIzAwMDAwMCIgZm9udC1mYW1pbHk9InNhbnMtc2VyaWYiIGZvbnQtc2l6ZT0iMTMiIGxlbmd0aEFkanVzdD0ic3BhY2luZyIgdGV4dExlbmd0aD0iMTQ2IiB4PSIxMzY5IiB5PSI0NzkuNzczNCI+JiMxMDg5OyYjMTA4NjsmIzEwOTM7JiMxMDg4OyYjMTA3MjsmIzEwODU7JiMxMDc3OyYjMTA4NTsmIzEwODA7JiMxMDc3OyAmIzEwODA7JiMxMDg1OyYjMTA5MjsmIzEwODY7JiMxMDg4OyYjMTA4NDsmIzEwNzI7JiMxMDk0OyYjMTA4MDsmIzEwODA7PC90ZXh0PjwvZz48IS0tbGluayA/Pz8/Pz8/Pz8/Pz8/PyB0byA/Pz8/Pz8/Pz8/Py0tPjxnIGlkPSJsaW5rXyYjMTA1NDsmIzEwNzM7JiMxMDgzOyYjMTA3MjsmIzEwOTU7JiMxMDg1OyYjMTA5OTsmIzEwODE7JiMxMDU3OyYjMTA3NzsmIzEwODg7JiMxMDc0OyYjMTA3NzsmIzEwODg7XyYjMTA1MTsmIzEwODY7JiMxMDgyOyYjMTA3MjsmIzEwODM7JiMxMTAwOyYjMTA4NTsmIzEwNzI7JiMxMTAzOyYjMTA0MTsmIzEwNDQ7Ij48cGF0aCBkPSJNMTIwMC4wOTQ4LDU0Ni4yODk5IEMxMjAwLjI3MzEsNTQ3LjA0MjEgMTIwMC40NTUyLDU0Ny43OTQ4IDEyMDAuNjQxNCw1NDguNTQ3NSBDMTIwMy42Miw1NjAuNTkxMyAxMjA3LjYyMjUsNTcyLjY1OTQgMTIxMyw1ODMuNDg0NCBDMTIyNi4yNjUsNjEwLjE4OTQgMTI0OC41MTc1LDYzNS4xOTQ0IDEyNjcuNjk2Myw2NTMuNzA0NCBDMTI3Ny4yODU2LDY2Mi45NTk0IDEyODYuMTA2Niw2NzAuNTkwNiAxMjkyLjY1MTQsNjc1Ljk5ODggQzEyOTMuNDY5NSw2NzYuNjc0OCAxMjk0LjI1MjEsNjc3LjMxNiAxMjk0Ljk5NjEsNjc3LjkyMTQgQzEyOTUuMTgyMSw2NzguMDcyOCAxMjk1LjM2NTcsNjc4LjIyMTkgMTI5NS41NDY4LDY3OC4zNjg3IEMxMjk1LjYzNzQsNjc4LjQ0MjEgMTI5MS4wNjI5LDY3NC43NDEgMTI5MS4xNTIyLDY3NC44MTMzICIgZmlsbD0ibm9uZSIgaWQ9IiYjMTA1NDsmIzEwNzM7JiMxMDgzOyYjMTA3MjsmIzEwOTU7JiMxMDg1OyYjMTA5OTsmIzEwODE7JiMxMDU3OyYjMTA3NzsmIzEwODg7JiMxMDc0OyYjMTA3NzsmIzEwODg7LXRvLSYjMTA1MTsmIzEwODY7JiMxMDgyOyYjMTA3MjsmIzEwODM7JiMxMTAwOyYjMTA4NTsmIzEwNzI7JiMxMTAzOyYjMTA0MTsmIzEwNDQ7IiBzdHlsZT0ic3Ryb2tlOiMxODE4MTg7c3Ryb2tlLXdpZHRoOjEuMDsiLz48cG9seWdvbiBmaWxsPSIjMTgxODE4IiBwb2ludHM9IjEyOTUuODE2Nyw2NzguNTg3MywxMjkxLjMzNTksNjY5LjgxNjcsMTI5MS45Mjk2LDY3NS40NDIzLDEyODYuMzA0LDY3Ni4wMzYsMTI5NS44MTY3LDY3OC41ODczIiBzdHlsZT0ic3Ryb2tlOiMxODE4MTg7c3Ryb2tlLXdpZHRoOjEuMDsiLz48dGV4dCBmaWxsPSIjMDAwMDAwIiBmb250LWZhbWlseT0ic2Fucy1zZXJpZiIgZm9udC1zaXplPSIxMyIgbGVuZ3RoQWRqdXN0PSJzcGFjaW5nIiB0ZXh0TGVuZ3RoPSIxMTkiIHg9IjEyMTQiIHk9IjU4MS43NzM0Ij4mIzEwODY7JiMxMDczOyYjMTA4NTsmIzEwODY7JiMxMDc0OyYjMTA4MzsmIzEwNzc7JiMxMDg1OyYjMTA4MDsmIzEwNzc7ICYjMTA3NjsmIzEwNzI7JiMxMDg1OyYjMTA4NTsmIzEwOTk7JiMxMDkzOzwvdGV4dD48L2c+PCEtLWxpbmsgPz8/Pz8/Pz8/Pz8/Pz8/Pz8/PyB0byBHTU4yMC0tPjxnIGlkPSJsaW5rXyYjMTA1MjsmIzEwODY7JiMxMDczOyYjMTA4MDsmIzEwODM7JiMxMTAwOyYjMTA4NTsmIzEwODY7JiMxMDc3OyYjMTA1OTsmIzEwODk7JiMxMDkwOyYjMTA4ODsmIzEwODY7JiMxMDgxOyYjMTA4OTsmIzEwOTA7JiMxMDc0OyYjMTA4NjtfR01OMjAiPjxwYXRoIGQ9Ik03MzYuMTEyOCwyOTQuOTg0NCBDNzM2LjQ2ODIsMjk0Ljk4NDQgNzM2LjgyMzYsMjk0Ljk4NDQgNzM3LjE3OTEsMjk0Ljk4NDQgQzc0MC4wMjI1LDI5NC45ODQ0IDc0Mi44NjYzLDI5NC45ODQ0IDc0NS43MSwyOTQuOTg0NCBDNzUxLjM5NzUsMjk0Ljk4NDQgNzU3LjA4NSwyOTQuOTg0NCA3NjIuNzcsMjk0Ljk4NDQgIiBmaWxsPSJub25lIiBpZD0iJiMxMDUyOyYjMTA4NjsmIzEwNzM7JiMxMDgwOyYjMTA4MzsmIzExMDA7JiMxMDg1OyYjMTA4NjsmIzEwNzc7JiMxMDU5OyYjMTA4OTsmIzEwOTA7JiMxMDg4OyYjMTA4NjsmIzEwODE7JiMxMDg5OyYjMTA5MDsmIzEwNzQ7JiMxMDg2Oy1HTU4yMCIgc3R5bGU9InN0cm9rZTojMTgxODE4O3N0cm9rZS13aWR0aDoxLjA7c3Ryb2tlLWRhc2hhcnJheTo3LjAsNy4wOyIvPjwvZz48IS0tU1JDPVtiTE5EUmpmMDRCeHhBTFF2eW1BZWdqSFpSeHJORVJYME1nR0tMeUd6TFA2Q1dWdzh6NC1BTDJjakdqRWd6eU4xbVU0bGhwM3gyZHNJVlpEaEMxVzdrR1luVTdQc2xjX2NjbnR4SlYtdWVVWUIyS29WNFhESUo1Q0pjZ3U5STJrUXF2OTZiRDNDZEQ0Ml93emZnVVdFVXAzWHlHUlUydnB3aDZXQzdvbnRpNHZEcnd3RXFfQmczTkwwRnQ5WE9XTTAzYzAyRkRwb0Z1ZmVVUTNTNHhOaEl4enROVEtSSC03WmpsdGNhTGxwMm81c1VMOXk3eUhtcnBNNXU0X0RVX2RBUXBMUVo3QzFkeGNhanMxRjRyZ1NmVWJtaU9JZGpZWjNSTkZmUTdYV09YRWk0TWJIMUFMRE9uUGtkbHFOS25mMzdzWkM4SlFPaGluY0szUlE1OGE1ZTlCV1NNMFpOTUdjcWNOWko0V1piaFA5c0paVkxnUUtwUWJwd1pYcnJ0VVZrSVZTS0QtdmxSMWw1VEpTVUlFOWVCYUpETW9XUEZlc3M4dXBWUU5wTER3ZHo4U0w0eWJkd0VHRnQzV1I0R3VQazdSaWxRdTN6SDhXQ21IdW50anFnbzFrWkRDSF9yZ2VkMFRUUEd1aG00VEY3YlVhUDI1UkpHekxHNWlWZmNva21CQUI5WG5uOVhndDlCSEwwaEtVSlk0RHluUGhLa1lGaGZQYUhqbm55NHJvalBMYVM1c3lEZjhQaGNfZ2tlc283aWpqRTR3SExMS2czeWxVcndoMm1jR0ljSWJaY3BMbDhjUGlHZ1RhZDBVMmtRX0NMUFE1d3prTmVvcGluNVJEWmdjcmo2S1gxUjZ1WG1IaEFLWlF6aERDM2U3bG9MTU9obUhwemZCVVlvNGk1dEJaUG5kNlBZUU9pdHYzalBsRk5fWkFFb2dmWU5HR3hrRkNWMEFkNjRlQ1UzM3Q4Q1cyS1dsaG1jNVZiUERfV3ItQVZpOXMzUGlEbGd1b3BhTHVkSzNkVS1PUG92ejVvS3JBOU1xVVNZTmFiUUVMN0xPbVNXOUhUbDFTeWpIUlhUZHNMVnBUNzVKVHhGSmJNZ0VEaWU4d2EtWTh4R1FzQTlxRVNVdW9QTjZzVFBETnB6SHlERXpIWXkxb0FUQWlxUWVoYmtxVl0tLT48L2c+PC9zdmc+;" vertex="1" parent="1">
            <mxGeometry x="-1534" y="820" width="1534" height="751" as="geometry" />
          </mxCell>
        </UserObject>
      </root>
    </mxGraphModel>
  </diagram>
</mxfile>
